M48
; DRILL file {KiCad 8.0.3} date 2024-07-06T19:44:46-0400
; FORMAT={-:-/ absolute / metric / decimal}
; #@! TF.CreationDate,2024-07-06T19:44:46-04:00
; #@! TF.GenerationSoftware,Kicad,Pcbnew,8.0.3
; #@! TF.FileFunction,Plated,1,4,PTH
FMAT,2
METRIC
; #@! TA.AperFunction,Plated,PTH,ViaDrill
T1C0.300
; #@! TA.AperFunction,Plated,PTH,ComponentDrill
T2C0.300
; #@! TA.AperFunction,Plated,PTH,ViaDrill
T3C0.400
; #@! TA.AperFunction,Plated,PTH,ComponentDrill
T4C1.000
; #@! TA.AperFunction,Plated,PTH,ComponentDrill
T5C1.016
; #@! TA.AperFunction,Plated,PTH,ComponentDrill
T6C1.200
%
G90
G05
T1
X24.0Y-22.0
X25.0Y-22.0
X25.781Y-79.629
X26.0Y-22.0
X26.543Y-79.629
X27.0Y-22.0
X27.813Y-84.074
X28.0Y-22.0
X28.575Y-84.074
X29.464Y-59.69
X30.0Y-25.0
X30.0Y-26.0
X30.0Y-27.0
X30.0Y-28.0
X30.226Y-59.69
X30.734Y-53.213
X31.75Y-53.213
X31.75Y-55.245
X31.75Y-57.277
X32.893Y-41.91
X33.02Y-92.075
X33.147Y-89.916
X33.401Y-34.671
X33.706Y-81.0
X34.163Y-34.671
X34.925Y-85.471
X35.433Y-80.899
X35.433Y-83.058
X35.433Y-87.63
X35.814Y-48.514
X35.941Y-40.513
X37.719Y-97.536
X37.973Y-83.439
X37.973Y-88.265
X37.973Y-94.234
X38.608Y-97.536
X38.735Y-94.234
X39.497Y-97.536
X40.0Y-89.0
X40.004Y-54.661
X40.004Y-55.55
X40.004Y-56.566
X40.386Y-67.818
X40.386Y-97.536
X41.021Y-37.592
X41.148Y-67.818
X41.275Y-97.536
X42.0Y-22.0
X42.164Y-97.536
X43.18Y-37.592
X43.238Y-85.0
X44.0Y-85.0
X44.5Y-89.0
X45.72Y-33.274
X45.72Y-49.276
X46.228Y-36.703
X46.482Y-49.276
X46.99Y-36.703
X47.752Y-90.551
X48.0Y-94.5
X48.5Y-95.0
X48.514Y-90.551
X48.768Y-33.147
X49.0Y-95.5
X49.276Y-90.551
X50.165Y-85.344
X50.165Y-86.233
X50.8Y-56.134
X51.562Y-56.134
X51.816Y-63.5
X51.943Y-29.083
X52.451Y-48.895
X52.578Y-63.5
X52.705Y-29.083
X53.213Y-48.895
X53.5Y-85.5
X54.61Y-53.086
X57.5Y-86.0
X57.531Y-29.972
X58.293Y-33.909
X60.96Y-83.439
X61.722Y-83.439
X62.103Y-53.467
X62.103Y-60.96
X62.484Y-55.753
X63.246Y-28.956
X63.246Y-29.718
X64.516Y-28.956
X64.516Y-29.718
X65.278Y-26.416
X65.278Y-27.432
X66.04Y-49.403
X66.421Y-81.661
X66.548Y-58.801
X66.675Y-37.084
X66.802Y-35.306
X67.183Y-81.661
X67.556Y-57.412
X67.691Y-35.306
X67.691Y-48.641
X67.818Y-58.674
X68.58Y-35.306
X68.834Y-48.26
X68.834Y-60.96
X68.961Y-58.801
X69.088Y-22.098
X69.85Y-22.098
X70.358Y-32.004
X70.358Y-32.766
X70.358Y-33.528
X70.5Y-28.238
X70.5Y-29.0
X70.612Y-22.098
X71.374Y-22.098
X72.136Y-22.098
X72.898Y-22.098
X73.279Y-78.486
X73.533Y-66.675
X73.66Y-22.098
X74.041Y-78.486
X74.295Y-66.675
X74.422Y-22.098
X75.057Y-48.133
X75.184Y-22.098
X75.819Y-48.133
X75.946Y-22.098
X78.0Y-28.0
X78.0Y-30.0
X79.0Y-22.0
X80.0Y-22.0
X81.854Y-28.272
X81.854Y-29.034
X82.616Y-28.272
X82.616Y-29.034
X85.598Y-32.766
X85.598Y-33.782
X86.614Y-32.766
X86.614Y-33.782
X87.0Y-84.5
X87.5Y-85.0
X88.0Y-81.0
X88.0Y-82.0
X88.0Y-82.73
X88.0Y-85.5
X89.408Y-54.483
X89.408Y-56.388
X90.0Y-32.0
X92.0Y-32.0
X93.345Y-51.816
X94.0Y-32.0
X94.361Y-50.546
X94.361Y-55.499
X96.0Y-32.0
X97.0Y-89.0
X98.0Y-22.0
X98.806Y-57.023
X99.0Y-84.5
X99.822Y-32.512
X100.584Y-33.274
X102.87Y-59.944
X103.759Y-39.116
X105.283Y-31.369
X106.045Y-31.369
X106.807Y-31.369
X107.188Y-41.021
X107.823Y-50.292
X107.823Y-51.562
X107.95Y-41.021
X108.839Y-41.148
X109.347Y-50.292
X109.347Y-51.562
X109.728Y-34.29
X111.633Y-41.021
X112.395Y-41.021
X113.411Y-41.021
X113.919Y-61.849
X113.919Y-62.611
X113.919Y-63.373
X114.808Y-61.849
X114.808Y-62.611
X114.808Y-63.373
X115.062Y-27.94
X115.062Y-28.702
X115.062Y-29.464
X115.062Y-30.226
X115.443Y-34.925
X115.824Y-48.768
X115.824Y-49.784
X116.459Y-47.117
X117.221Y-47.117
X117.668Y-57.23
X117.668Y-57.992
X118.43Y-57.23
X118.43Y-57.992
X119.192Y-57.23
X119.192Y-57.992
X121.605Y-65.485
X121.605Y-66.247
X121.605Y-67.009
X122.24Y-57.357
X122.24Y-58.119
X122.367Y-65.485
X122.367Y-66.247
X122.367Y-67.009
X122.936Y-38.1
X123.002Y-57.357
X123.002Y-58.119
X123.19Y-40.132
X123.19Y-42.164
X123.764Y-57.357
X123.764Y-58.119
X123.825Y-39.37
X124.587Y-38.354
X124.841Y-43.18
X125.222Y-27.305
X125.222Y-28.321
X125.222Y-29.337
X125.222Y-30.353
X125.222Y-31.877
X125.984Y-27.305
X125.984Y-28.321
X125.984Y-29.337
X125.984Y-30.353
X125.984Y-31.877
X127.508Y-27.686
X127.508Y-28.702
X128.27Y-27.686
X128.27Y-28.702
X128.651Y-47.38
X128.651Y-49.412
X128.651Y-51.444
X129.286Y-27.686
X129.286Y-28.702
X130.048Y-27.686
X130.048Y-28.702
X130.683Y-47.38
X131.064Y-31.496
X131.064Y-32.258
X131.064Y-36.068
X131.064Y-36.83
X131.191Y-23.622
X131.191Y-24.384
X131.191Y-25.273
X131.191Y-26.035
X131.318Y-62.23
X131.318Y-63.119
X132.08Y-31.496
X132.08Y-32.258
X132.08Y-36.068
X132.08Y-36.83
X132.08Y-62.23
X132.08Y-63.119
X132.207Y-23.622
X132.207Y-24.384
X132.207Y-25.273
X132.207Y-26.035
X132.715Y-47.38
X132.842Y-62.23
X132.842Y-63.119
X133.604Y-31.496
X133.604Y-32.258
X133.604Y-36.068
X133.604Y-36.83
X133.604Y-62.23
X133.604Y-63.119
X133.604Y-87.717
X133.731Y-23.622
X133.731Y-24.384
X133.731Y-25.273
X133.731Y-26.035
X134.366Y-62.23
X134.366Y-63.119
X134.62Y-31.496
X134.62Y-32.258
X134.62Y-36.068
X134.62Y-36.83
X134.747Y-23.622
X134.747Y-24.384
X134.747Y-25.273
X134.747Y-26.035
X134.747Y-47.38
X134.747Y-49.412
X134.747Y-51.444
X134.747Y-53.476
X135.255Y-56.261
X135.255Y-62.23
X135.255Y-63.119
X137.668Y-40.386
X139.446Y-40.386
X140.843Y-43.561
X141.224Y-24.094
X141.224Y-25.146
X141.224Y-26.126
X141.224Y-27.178
X141.323Y-28.26
X141.323Y-29.312
X141.399Y-21.834
X141.399Y-22.885
X141.478Y-42.799
X142.367Y-21.834
X142.367Y-22.885
X142.367Y-28.285
X142.367Y-29.337
X142.494Y-58.293
X143.256Y-40.513
X144.018Y-21.834
X144.018Y-22.885
X144.018Y-28.26
X144.018Y-29.312
X144.018Y-67.437
X144.018Y-70.993
X144.526Y-58.293
X144.907Y-21.834
X144.907Y-22.885
X144.907Y-67.437
X144.907Y-70.993
X144.958Y-28.26
X144.958Y-29.312
X145.034Y-24.094
X145.034Y-25.146
X145.034Y-26.126
X145.034Y-27.178
X145.796Y-67.437
X145.796Y-70.993
X146.177Y-88.225
X146.809Y-21.935
X146.809Y-22.987
X146.812Y-24.094
X146.812Y-25.146
X146.812Y-26.126
X146.812Y-27.178
X146.86Y-28.321
X146.86Y-29.373
X147.066Y-83.907
X147.904Y-21.935
X147.904Y-22.987
X147.955Y-28.321
X147.955Y-29.373
X148.336Y-58.293
X149.095Y-21.935
X149.095Y-22.987
X149.146Y-28.321
X149.146Y-29.373
X150.114Y-24.094
X150.114Y-25.146
X150.114Y-26.126
X150.114Y-27.178
X150.19Y-21.935
X150.19Y-22.987
X150.241Y-28.321
X150.241Y-29.373
X150.368Y-58.293
X151.384Y-31.369
X151.384Y-32.131
X151.384Y-32.893
X151.384Y-33.655
X151.384Y-34.417
X151.384Y-38.735
X151.384Y-39.497
X151.384Y-40.386
X151.384Y-41.148
X152.273Y-31.369
X152.273Y-32.131
X152.273Y-32.893
X152.273Y-33.655
X152.273Y-34.417
X152.273Y-35.941
X152.4Y-38.735
X152.4Y-39.497
X152.4Y-40.386
X152.4Y-41.148
X153.035Y-35.941
X153.797Y-35.941
X154.559Y-35.941
X155.321Y-35.941
X156.083Y-35.941
X156.591Y-50.927
X156.845Y-35.941
X156.845Y-47.879
X156.972Y-38.735
X156.972Y-39.497
X156.972Y-40.386
X156.972Y-41.148
X157.099Y-31.369
X157.099Y-32.131
X157.099Y-32.893
X157.099Y-33.655
X157.099Y-34.417
X157.607Y-35.941
X157.988Y-31.369
X157.988Y-32.131
X157.988Y-32.893
X157.988Y-33.655
X157.988Y-34.417
X157.988Y-38.735
X157.988Y-39.497
X157.988Y-40.386
X157.988Y-41.148
X158.115Y-47.879
X159.385Y-48.895
X159.512Y-50.038
X159.893Y-88.479
X160.02Y-83.907
X163.195Y-55.372
X163.195Y-57.404
X163.195Y-59.436
X163.195Y-61.214
X163.576Y-29.464
X163.576Y-30.226
X163.576Y-30.988
X164.392Y-29.464
X164.973Y-33.782
X164.973Y-34.671
X165.154Y-29.464
X165.481Y-55.372
X165.481Y-57.404
X165.481Y-59.436
X165.481Y-61.214
X165.916Y-29.464
X166.243Y-33.782
X166.243Y-34.671
X166.678Y-29.464
X166.751Y-44.069
X167.44Y-29.464
X167.513Y-46.101
X168.021Y-55.372
X168.021Y-57.404
X168.021Y-59.436
X168.021Y-61.214
X169.291Y-46.101
X169.901Y-30.81
X169.926Y-29.972
X169.977Y-22.073
X170.078Y-24.562
X170.078Y-25.273
X170.078Y-26.035
X170.561Y-30.353
X170.561Y-31.242
X170.688Y-22.073
X171.348Y-30.749
X171.348Y-31.511
X171.348Y-32.258
X171.45Y-22.098
X171.577Y-87.209
X171.958Y-30.749
X171.958Y-31.511
X171.958Y-32.258
X172.39Y-22.073
X173.028Y-32.766
X173.028Y-31.589
X173.028Y-32.152
X173.101Y-22.073
X173.609Y-26.035
X173.634Y-24.562
X173.634Y-25.273
X173.736Y-84.034
X173.79Y-31.598
X173.79Y-32.161
X173.79Y-32.766
X173.863Y-22.098
X174.371Y-59.309
X174.371Y-61.087
X174.371Y-63.119
X175.06Y-32.766
X175.06Y-31.589
X175.06Y-32.152
X175.26Y-22.098
X175.26Y-24.511
X175.26Y-25.273
X175.26Y-26.035
X175.641Y-59.309
X175.641Y-61.087
X175.641Y-63.119
X175.822Y-31.598
X175.822Y-32.161
X175.822Y-32.766
X176.022Y-22.098
X176.064Y-41.783
X176.149Y-51.145
X176.149Y-52.197
X176.149Y-53.177
X176.149Y-54.229
X176.784Y-22.098
X177.19Y-31.242
X177.19Y-32.004
X177.19Y-32.751
X177.673Y-22.098
X177.8Y-30.353
X177.981Y-31.242
X177.981Y-32.004
X177.981Y-32.751
X178.41Y-29.601
X178.41Y-30.353
X178.435Y-22.098
X178.816Y-44.577
X178.994Y-24.511
X178.994Y-25.273
X178.994Y-26.035
X179.019Y-28.956
X179.019Y-29.601
X179.197Y-22.098
X179.629Y-28.956
X181.102Y-50.891
X181.102Y-51.943
X181.102Y-52.923
X181.102Y-53.975
X181.356Y-39.116
X181.483Y-59.309
X181.483Y-61.087
X181.483Y-63.119
X182.753Y-59.309
X182.753Y-61.087
X182.753Y-63.119
X183.823Y-40.894
X183.823Y-41.656
X183.823Y-42.418
X183.823Y-43.18
X184.585Y-40.894
X184.585Y-41.656
X184.585Y-42.418
X184.585Y-43.18
X185.347Y-40.894
X185.347Y-41.656
X185.347Y-42.418
X185.347Y-43.18
T2
X169.889Y-35.959
X169.889Y-37.259
X169.889Y-38.559
X171.189Y-35.959
X171.189Y-37.259
X171.189Y-38.559
X172.489Y-35.959
X172.489Y-37.259
X172.489Y-38.559
X173.789Y-35.959
X173.789Y-37.259
X173.789Y-38.559
X175.089Y-35.959
X175.089Y-37.259
X175.089Y-38.559
X176.389Y-35.959
X176.389Y-37.259
X176.389Y-38.559
T3
X127.5Y-88.0
X127.5Y-92.0
X131.0Y-88.0
X131.0Y-92.0
X140.5Y-88.0
X140.5Y-92.0
X144.0Y-88.0
X144.0Y-92.0
X153.5Y-88.0
X153.5Y-92.0
X157.0Y-88.0
X157.0Y-92.0
X166.5Y-88.0
X166.5Y-92.0
X170.0Y-88.0
X170.0Y-92.0
X179.5Y-88.0
X179.5Y-92.0
X183.0Y-88.0
X183.0Y-92.0
T4
X83.3Y-45.645
X83.3Y-60.885
X83.3Y-76.76
X83.3Y-92.0
X85.84Y-45.645
X85.84Y-60.885
X85.84Y-76.76
X85.84Y-92.0
X88.38Y-45.645
X88.38Y-60.885
X88.38Y-76.76
X88.38Y-92.0
X90.92Y-45.645
X90.92Y-60.885
X90.92Y-76.76
X90.92Y-92.0
X93.46Y-45.645
X93.46Y-60.885
X93.46Y-76.76
X93.46Y-92.0
X96.0Y-45.645
X96.0Y-60.885
X96.0Y-76.76
X96.0Y-92.0
T5
X24.256Y-25.307
X24.256Y-27.847
X24.256Y-30.387
X24.256Y-32.927
X24.256Y-35.467
X24.256Y-38.007
X24.256Y-40.547
X24.256Y-43.087
X24.256Y-45.627
X24.256Y-48.167
X24.256Y-50.707
X24.256Y-53.247
X24.256Y-55.787
X24.256Y-58.327
X24.256Y-60.867
X24.256Y-63.407
X24.256Y-65.947
X24.256Y-68.487
X24.256Y-71.027
X24.256Y-73.567
X24.256Y-76.107
X26.796Y-25.307
X26.796Y-27.847
X26.796Y-30.387
X26.796Y-32.927
X26.796Y-35.467
X26.796Y-38.007
X26.796Y-40.547
X26.796Y-43.087
X26.796Y-45.627
X26.796Y-48.167
X26.796Y-50.707
X26.796Y-53.247
X26.796Y-55.787
X26.796Y-58.327
X26.796Y-60.867
X26.796Y-63.407
X26.796Y-65.947
X26.796Y-68.487
X26.796Y-71.027
X26.796Y-73.567
X26.796Y-76.107
X36.956Y-73.567
X36.956Y-76.107
X39.496Y-73.567
X39.496Y-76.107
X42.036Y-73.567
X42.036Y-76.107
X49.656Y-73.567
X49.656Y-76.107
X52.196Y-73.567
X52.196Y-76.107
X54.736Y-73.567
X54.736Y-76.107
X57.276Y-38.007
X57.276Y-40.547
X57.276Y-43.087
X57.276Y-45.627
X57.276Y-48.167
X57.276Y-50.707
X57.276Y-53.247
X57.276Y-55.787
X57.276Y-58.327
X57.276Y-60.867
X57.276Y-63.407
X57.276Y-65.947
X57.276Y-68.487
X57.276Y-71.027
X57.276Y-73.567
X57.276Y-76.107
X59.816Y-38.007
X59.816Y-40.547
X59.816Y-43.087
X59.816Y-45.627
X59.816Y-48.167
X59.816Y-50.707
X59.816Y-53.247
X59.816Y-55.787
X59.816Y-58.327
X59.816Y-60.867
X59.816Y-63.407
X59.816Y-65.947
X59.816Y-68.487
X59.816Y-71.027
X59.816Y-73.567
X59.816Y-76.107
T6
X86.23Y-25.932
X90.04Y-25.932
X93.85Y-25.932
X97.66Y-25.932
X143.201Y-25.488
X148.281Y-25.488
X171.907Y-25.578
X176.987Y-25.578
T4
X128.139Y-30.876G85X128.139Y-31.476
G05
X132.539Y-28.176G85X133.139Y-28.176
G05
X132.539Y-34.176G85X133.139Y-34.176
G05
M30
