G04 #@! TF.GenerationSoftware,KiCad,Pcbnew,8.0.3*
G04 #@! TF.CreationDate,2024-07-06T19:44:18-04:00*
G04 #@! TF.ProjectId,UMTK,554d544b-2e6b-4696-9361-645f70636258,rev?*
G04 #@! TF.SameCoordinates,Original*
G04 #@! TF.FileFunction,Paste,Top*
G04 #@! TF.FilePolarity,Positive*
%FSLAX46Y46*%
G04 Gerber Fmt 4.6, Leading zero omitted, Abs format (unit mm)*
G04 Created by KiCad (PCBNEW 8.0.3) date 2024-07-06 19:44:18*
%MOMM*%
%LPD*%
G01*
G04 APERTURE LIST*
G04 Aperture macros list*
%AMRoundRect*
0 Rectangle with rounded corners*
0 $1 Rounding radius*
0 $2 $3 $4 $5 $6 $7 $8 $9 X,Y pos of 4 corners*
0 Add a 4 corners polygon primitive as box body*
4,1,4,$2,$3,$4,$5,$6,$7,$8,$9,$2,$3,0*
0 Add four circle primitives for the rounded corners*
1,1,$1+$1,$2,$3*
1,1,$1+$1,$4,$5*
1,1,$1+$1,$6,$7*
1,1,$1+$1,$8,$9*
0 Add four rect primitives between the rounded corners*
20,1,$1+$1,$2,$3,$4,$5,0*
20,1,$1+$1,$4,$5,$6,$7,0*
20,1,$1+$1,$6,$7,$8,$9,0*
20,1,$1+$1,$8,$9,$2,$3,0*%
G04 Aperture macros list end*
%ADD10RoundRect,0.135000X0.135000X0.185000X-0.135000X0.185000X-0.135000X-0.185000X0.135000X-0.185000X0*%
%ADD11RoundRect,0.250000X-0.475000X0.250000X-0.475000X-0.250000X0.475000X-0.250000X0.475000X0.250000X0*%
%ADD12RoundRect,0.225000X0.250000X-0.225000X0.250000X0.225000X-0.250000X0.225000X-0.250000X-0.225000X0*%
%ADD13RoundRect,0.135000X0.185000X-0.135000X0.185000X0.135000X-0.185000X0.135000X-0.185000X-0.135000X0*%
%ADD14RoundRect,0.150000X-0.150000X0.875000X-0.150000X-0.875000X0.150000X-0.875000X0.150000X0.875000X0*%
%ADD15RoundRect,0.140000X0.170000X-0.140000X0.170000X0.140000X-0.170000X0.140000X-0.170000X-0.140000X0*%
%ADD16RoundRect,0.250000X-2.050000X-0.300000X2.050000X-0.300000X2.050000X0.300000X-2.050000X0.300000X0*%
%ADD17RoundRect,0.250000X-2.025000X-2.375000X2.025000X-2.375000X2.025000X2.375000X-2.025000X2.375000X0*%
%ADD18RoundRect,0.135000X-0.185000X0.135000X-0.185000X-0.135000X0.185000X-0.135000X0.185000X0.135000X0*%
%ADD19RoundRect,0.200000X0.200000X0.275000X-0.200000X0.275000X-0.200000X-0.275000X0.200000X-0.275000X0*%
%ADD20RoundRect,0.100000X0.100000X-0.225000X0.100000X0.225000X-0.100000X0.225000X-0.100000X-0.225000X0*%
%ADD21RoundRect,0.135000X-0.135000X-0.185000X0.135000X-0.185000X0.135000X0.185000X-0.135000X0.185000X0*%
%ADD22RoundRect,0.250000X0.475000X-0.250000X0.475000X0.250000X-0.475000X0.250000X-0.475000X-0.250000X0*%
%ADD23RoundRect,0.100000X-0.100000X0.225000X-0.100000X-0.225000X0.100000X-0.225000X0.100000X0.225000X0*%
%ADD24RoundRect,0.250000X-1.000000X1.950000X-1.000000X-1.950000X1.000000X-1.950000X1.000000X1.950000X0*%
%ADD25RoundRect,0.375000X-0.375000X0.625000X-0.375000X-0.625000X0.375000X-0.625000X0.375000X0.625000X0*%
%ADD26RoundRect,0.500000X-1.400000X0.500000X-1.400000X-0.500000X1.400000X-0.500000X1.400000X0.500000X0*%
%ADD27RoundRect,0.150000X0.850000X0.150000X-0.850000X0.150000X-0.850000X-0.150000X0.850000X-0.150000X0*%
%ADD28RoundRect,0.140000X-0.170000X0.140000X-0.170000X-0.140000X0.170000X-0.140000X0.170000X0.140000X0*%
%ADD29R,1.400000X2.100000*%
%ADD30RoundRect,0.250000X1.000000X-1.950000X1.000000X1.950000X-1.000000X1.950000X-1.000000X-1.950000X0*%
%ADD31RoundRect,0.225000X-0.225000X-0.375000X0.225000X-0.375000X0.225000X0.375000X-0.225000X0.375000X0*%
%ADD32R,0.500000X2.500000*%
%ADD33R,2.000000X2.500000*%
%ADD34RoundRect,0.250000X0.695000X-0.715000X0.695000X0.715000X-0.695000X0.715000X-0.695000X-0.715000X0*%
%ADD35RoundRect,0.100000X0.100000X-0.687500X0.100000X0.687500X-0.100000X0.687500X-0.100000X-0.687500X0*%
%ADD36RoundRect,0.150000X0.150000X-0.587500X0.150000X0.587500X-0.150000X0.587500X-0.150000X-0.587500X0*%
%ADD37RoundRect,0.250000X0.250000X0.475000X-0.250000X0.475000X-0.250000X-0.475000X0.250000X-0.475000X0*%
%ADD38RoundRect,0.140000X0.140000X0.170000X-0.140000X0.170000X-0.140000X-0.170000X0.140000X-0.170000X0*%
%ADD39RoundRect,0.140000X-0.140000X-0.170000X0.140000X-0.170000X0.140000X0.170000X-0.140000X0.170000X0*%
%ADD40R,5.500000X3.250000*%
G04 APERTURE END LIST*
D10*
X34292000Y-57277000D03*
X33272000Y-57277000D03*
X34292000Y-55245000D03*
X33272000Y-55245000D03*
X34292000Y-53213000D03*
X33272000Y-53213000D03*
D11*
X79314000Y-29100500D03*
X79314000Y-31000500D03*
D12*
X167487600Y-40307600D03*
X167487600Y-38757600D03*
D13*
X147066000Y-39370000D03*
X147066000Y-38350000D03*
X134960652Y-90510000D03*
X134960652Y-89490000D03*
D14*
X53974000Y-83141000D03*
X52704000Y-83141000D03*
X51434000Y-83141000D03*
X50164000Y-83141000D03*
X48894000Y-83141000D03*
X47624000Y-83141000D03*
X46354000Y-83141000D03*
X45084000Y-83141000D03*
X43814000Y-83141000D03*
X42544000Y-83141000D03*
X41274000Y-83141000D03*
X40004000Y-83141000D03*
X40004000Y-92441000D03*
X41274000Y-92441000D03*
X42544000Y-92441000D03*
X43814000Y-92441000D03*
X45084000Y-92441000D03*
X46354000Y-92441000D03*
X47624000Y-92441000D03*
X48894000Y-92441000D03*
X50164000Y-92441000D03*
X51434000Y-92441000D03*
X52704000Y-92441000D03*
X53974000Y-92441000D03*
D13*
X174500000Y-86010000D03*
X174500000Y-84990000D03*
D15*
X174500000Y-81480000D03*
X174500000Y-80520000D03*
D16*
X156150000Y-54829000D03*
X156150000Y-56529000D03*
X156150000Y-58229000D03*
D17*
X162875000Y-55454000D03*
X162875000Y-61004000D03*
X167725000Y-55454000D03*
X167725000Y-61004000D03*
D16*
X156150000Y-59929000D03*
X156150000Y-61629000D03*
D10*
X79316000Y-24970500D03*
X78296000Y-24970500D03*
D18*
X171069000Y-43557000D03*
X171069000Y-44577000D03*
D13*
X37500000Y-93020000D03*
X37500000Y-92000000D03*
D19*
X182552667Y-43000000D03*
X180902667Y-43000000D03*
D20*
X107514000Y-39873000D03*
X108164000Y-39873000D03*
X108814000Y-39873000D03*
X108814000Y-37973000D03*
X108164000Y-37973000D03*
X107514000Y-37973000D03*
D18*
X139954000Y-38352000D03*
X139954000Y-39372000D03*
D21*
X36826000Y-55245000D03*
X37846000Y-55245000D03*
D12*
X164957667Y-32372500D03*
X164957667Y-30822500D03*
D22*
X64000000Y-31550000D03*
X64000000Y-33450000D03*
D18*
X145796000Y-38350000D03*
X145796000Y-39370000D03*
D23*
X36056000Y-82050000D03*
X35406000Y-82050000D03*
X34756000Y-82050000D03*
X34756000Y-83950000D03*
X35406000Y-83950000D03*
X36056000Y-83950000D03*
D13*
X160881956Y-86010000D03*
X160881956Y-84990000D03*
X169799000Y-44579000D03*
X169799000Y-43559000D03*
X147921304Y-86010000D03*
X147921304Y-84990000D03*
D23*
X33650000Y-91050000D03*
X33000000Y-91050000D03*
X32350000Y-91050000D03*
X32350000Y-92950000D03*
X33000000Y-92950000D03*
X33650000Y-92950000D03*
D13*
X144526000Y-39366000D03*
X144526000Y-38346000D03*
D24*
X178689000Y-52696000D03*
X178689000Y-61096000D03*
D25*
X122061000Y-63754000D03*
X119761000Y-63754000D03*
D26*
X119761000Y-70054000D03*
D25*
X117461000Y-63754000D03*
D10*
X78046000Y-34114500D03*
X77026000Y-34114500D03*
D27*
X72710000Y-33733500D03*
X72710000Y-32463500D03*
X72710000Y-31193500D03*
X72710000Y-29923500D03*
X72710000Y-28653500D03*
X72710000Y-27383500D03*
X72710000Y-26113500D03*
X72710000Y-24843500D03*
X67710000Y-24843500D03*
X67710000Y-26113500D03*
X67710000Y-27383500D03*
X67710000Y-28653500D03*
X67710000Y-29923500D03*
X67710000Y-31193500D03*
X67710000Y-32463500D03*
X67710000Y-33733500D03*
D21*
X36826000Y-53255000D03*
X37846000Y-53255000D03*
D28*
X75758000Y-24998500D03*
X75758000Y-25958500D03*
D20*
X112014000Y-39878000D03*
X112664000Y-39878000D03*
X113314000Y-39878000D03*
X113314000Y-37978000D03*
X112664000Y-37978000D03*
X112014000Y-37978000D03*
D13*
X141097000Y-39370000D03*
X141097000Y-38350000D03*
X134960652Y-86010000D03*
X134960652Y-84990000D03*
X147921304Y-90510000D03*
X147921304Y-89490000D03*
D29*
X155250000Y-81075000D03*
X155250000Y-90175000D03*
X150750000Y-81075000D03*
X150750000Y-90175000D03*
D10*
X79316000Y-26240500D03*
X78296000Y-26240500D03*
D30*
X131699000Y-58700000D03*
X131699000Y-51300000D03*
D10*
X121510000Y-88000000D03*
X120490000Y-88000000D03*
D31*
X154433000Y-49530000D03*
X157733000Y-49530000D03*
D29*
X181250000Y-81075000D03*
X181250000Y-90175000D03*
X176750000Y-81075000D03*
X176750000Y-90175000D03*
X168250000Y-81075000D03*
X168250000Y-90175000D03*
X163750000Y-81075000D03*
X163750000Y-90175000D03*
D13*
X75250000Y-31068500D03*
X75250000Y-30048500D03*
D32*
X110300000Y-28959000D03*
X109500000Y-28959000D03*
X108700000Y-28959000D03*
X107900000Y-28959000D03*
X107100000Y-28959000D03*
D33*
X113100000Y-28959000D03*
X113100000Y-23459000D03*
X104300000Y-28959000D03*
X104300000Y-23459000D03*
D34*
X171969000Y-37259500D03*
X174309000Y-37259500D03*
D35*
X169564000Y-40122000D03*
X170214000Y-40122000D03*
X170864000Y-40122000D03*
X171514000Y-40122000D03*
X172164000Y-40122000D03*
X172814000Y-40122000D03*
X173464000Y-40122000D03*
X174114000Y-40122000D03*
X174764000Y-40122000D03*
X175414000Y-40122000D03*
X176064000Y-40122000D03*
X176714000Y-40122000D03*
X176714000Y-34397000D03*
X176064000Y-34397000D03*
X175414000Y-34397000D03*
X174764000Y-34397000D03*
X174114000Y-34397000D03*
X173464000Y-34397000D03*
X172814000Y-34397000D03*
X172164000Y-34397000D03*
X171514000Y-34397000D03*
X170864000Y-34397000D03*
X170214000Y-34397000D03*
X169564000Y-34397000D03*
D13*
X122000000Y-86010000D03*
X122000000Y-84990000D03*
D15*
X147921304Y-81480000D03*
X147921304Y-80520000D03*
D13*
X174500000Y-90510000D03*
X174500000Y-89490000D03*
D29*
X142250000Y-81075000D03*
X142250000Y-90175000D03*
X137750000Y-81075000D03*
X137750000Y-90175000D03*
D36*
X82174000Y-33782000D03*
X84074000Y-33782000D03*
X83124000Y-31907000D03*
D37*
X123251000Y-59919000D03*
X121351000Y-59919000D03*
D13*
X160881956Y-90510000D03*
X160881956Y-89490000D03*
D21*
X37846000Y-57235000D03*
X36826000Y-57235000D03*
D13*
X168529000Y-44579000D03*
X168529000Y-43559000D03*
D12*
X166735667Y-32372500D03*
X166735667Y-30822500D03*
D18*
X143256000Y-38346000D03*
X143256000Y-39366000D03*
D38*
X169593200Y-32496800D03*
X168633200Y-32496800D03*
D15*
X134960652Y-81480000D03*
X134960652Y-80520000D03*
D19*
X182552667Y-41148000D03*
X180902667Y-41148000D03*
D13*
X76520000Y-31068500D03*
X76520000Y-30048500D03*
D24*
X154744000Y-32985500D03*
X154744000Y-41385500D03*
D29*
X129250000Y-80950000D03*
X129250000Y-90050000D03*
X124750000Y-80950000D03*
X124750000Y-90050000D03*
D39*
X75532000Y-28018500D03*
X76492000Y-28018500D03*
D15*
X122000000Y-81480000D03*
X122000000Y-80520000D03*
D12*
X178968400Y-36218200D03*
X178968400Y-34668200D03*
D40*
X144645000Y-51335000D03*
X144645000Y-62585000D03*
D13*
X138811000Y-39370000D03*
X138811000Y-38350000D03*
D15*
X160881956Y-81480000D03*
X160881956Y-80520000D03*
D23*
X36056000Y-86675000D03*
X35406000Y-86675000D03*
X34756000Y-86675000D03*
X34756000Y-88575000D03*
X35406000Y-88575000D03*
X36056000Y-88575000D03*
D18*
X137668000Y-38350000D03*
X137668000Y-39370000D03*
D37*
X118679000Y-59919000D03*
X116779000Y-59919000D03*
M02*
