%TF.GenerationSoftware,KiCad,Pcbnew,8.0.3*%
%TF.CreationDate,2024-07-10T22:37:33-04:00*%
%TF.ProjectId,UMTK,554d544b-2e6b-4696-9361-645f70636258,rev?*%
%TF.SameCoordinates,Original*%
%TF.FileFunction,Soldermask,Bot*%
%TF.FilePolarity,Negative*%
%FSLAX46Y46*%
G04 Gerber Fmt 4.6, Leading zero omitted, Abs format (unit mm)*
G04 Created by KiCad (PCBNEW 8.0.3) date 2024-07-10 22:37:33*
%MOMM*%
%LPD*%
G01*
G04 APERTURE LIST*
G04 APERTURE END LIST*
G36*
X25417085Y-92992878D02*
G01*
X25686503Y-93068365D01*
X25943133Y-93179835D01*
X26182195Y-93325212D01*
X26399234Y-93501786D01*
X26590208Y-93706270D01*
X26751560Y-93934853D01*
X26880283Y-94183278D01*
X26973980Y-94446917D01*
X27030906Y-94720858D01*
X27050000Y-95000000D01*
X27030906Y-95279142D01*
X26973980Y-95553083D01*
X26880283Y-95816722D01*
X26751560Y-96065147D01*
X26590208Y-96293730D01*
X26399234Y-96498214D01*
X26182195Y-96674788D01*
X25943133Y-96820165D01*
X25686503Y-96931635D01*
X25417085Y-97007122D01*
X25139897Y-97045221D01*
X24860103Y-97045221D01*
X24582915Y-97007122D01*
X24313497Y-96931635D01*
X24056867Y-96820165D01*
X23817805Y-96674788D01*
X23600766Y-96498214D01*
X23409792Y-96293730D01*
X23248440Y-96065147D01*
X23119717Y-95816722D01*
X23026020Y-95553083D01*
X22969094Y-95279142D01*
X22950000Y-95000000D01*
X22969094Y-94720858D01*
X23026020Y-94446917D01*
X23119717Y-94183278D01*
X23248440Y-93934853D01*
X23409792Y-93706270D01*
X23600766Y-93501786D01*
X23817805Y-93325212D01*
X24056867Y-93179835D01*
X24313497Y-93068365D01*
X24582915Y-92992878D01*
X24860103Y-92954779D01*
X25139897Y-92954779D01*
X25417085Y-92992878D01*
G37*
G36*
X120417085Y-92992878D02*
G01*
X120686503Y-93068365D01*
X120943133Y-93179835D01*
X121182195Y-93325212D01*
X121399234Y-93501786D01*
X121590208Y-93706270D01*
X121751560Y-93934853D01*
X121880283Y-94183278D01*
X121973980Y-94446917D01*
X122030906Y-94720858D01*
X122050000Y-95000000D01*
X122030906Y-95279142D01*
X121973980Y-95553083D01*
X121880283Y-95816722D01*
X121751560Y-96065147D01*
X121590208Y-96293730D01*
X121399234Y-96498214D01*
X121182195Y-96674788D01*
X120943133Y-96820165D01*
X120686503Y-96931635D01*
X120417085Y-97007122D01*
X120139897Y-97045221D01*
X119860103Y-97045221D01*
X119582915Y-97007122D01*
X119313497Y-96931635D01*
X119056867Y-96820165D01*
X118817805Y-96674788D01*
X118600766Y-96498214D01*
X118409792Y-96293730D01*
X118248440Y-96065147D01*
X118119717Y-95816722D01*
X118026020Y-95553083D01*
X117969094Y-95279142D01*
X117950000Y-95000000D01*
X117969094Y-94720858D01*
X118026020Y-94446917D01*
X118119717Y-94183278D01*
X118248440Y-93934853D01*
X118409792Y-93706270D01*
X118600766Y-93501786D01*
X118817805Y-93325212D01*
X119056867Y-93179835D01*
X119313497Y-93068365D01*
X119582915Y-92992878D01*
X119860103Y-92954779D01*
X120139897Y-92954779D01*
X120417085Y-92992878D01*
G37*
G36*
X185417085Y-92992878D02*
G01*
X185686503Y-93068365D01*
X185943133Y-93179835D01*
X186182195Y-93325212D01*
X186399234Y-93501786D01*
X186590208Y-93706270D01*
X186751560Y-93934853D01*
X186880283Y-94183278D01*
X186973980Y-94446917D01*
X187030906Y-94720858D01*
X187050000Y-95000000D01*
X187030906Y-95279142D01*
X186973980Y-95553083D01*
X186880283Y-95816722D01*
X186751560Y-96065147D01*
X186590208Y-96293730D01*
X186399234Y-96498214D01*
X186182195Y-96674788D01*
X185943133Y-96820165D01*
X185686503Y-96931635D01*
X185417085Y-97007122D01*
X185139897Y-97045221D01*
X184860103Y-97045221D01*
X184582915Y-97007122D01*
X184313497Y-96931635D01*
X184056867Y-96820165D01*
X183817805Y-96674788D01*
X183600766Y-96498214D01*
X183409792Y-96293730D01*
X183248440Y-96065147D01*
X183119717Y-95816722D01*
X183026020Y-95553083D01*
X182969094Y-95279142D01*
X182950000Y-95000000D01*
X182969094Y-94720858D01*
X183026020Y-94446917D01*
X183119717Y-94183278D01*
X183248440Y-93934853D01*
X183409792Y-93706270D01*
X183600766Y-93501786D01*
X183817805Y-93325212D01*
X184056867Y-93179835D01*
X184313497Y-93068365D01*
X184582915Y-92992878D01*
X184860103Y-92954779D01*
X185139897Y-92954779D01*
X185417085Y-92992878D01*
G37*
G36*
X84069134Y-91203806D02*
G01*
X84085355Y-91214645D01*
X84096194Y-91230866D01*
X84100000Y-91250000D01*
X84100000Y-92750000D01*
X84096194Y-92769134D01*
X84085355Y-92785355D01*
X84069134Y-92796194D01*
X84050000Y-92800000D01*
X82550000Y-92800000D01*
X82530866Y-92796194D01*
X82514645Y-92785355D01*
X82503806Y-92769134D01*
X82500000Y-92750000D01*
X82500000Y-91250000D01*
X82503806Y-91230866D01*
X82514645Y-91214645D01*
X82530866Y-91203806D01*
X82550000Y-91200000D01*
X84050000Y-91200000D01*
X84069134Y-91203806D01*
G37*
G36*
X85880107Y-91204519D02*
G01*
X85923607Y-91204519D01*
X85972680Y-91214949D01*
X86018017Y-91220058D01*
X86050982Y-91231592D01*
X86087171Y-91239285D01*
X86139321Y-91262504D01*
X86187107Y-91279225D01*
X86211982Y-91294855D01*
X86239931Y-91307299D01*
X86292042Y-91345160D01*
X86338792Y-91374535D01*
X86355580Y-91391323D01*
X86375211Y-91405586D01*
X86423742Y-91459485D01*
X86465465Y-91501208D01*
X86475061Y-91516481D01*
X86487101Y-91529852D01*
X86528288Y-91601190D01*
X86560775Y-91652893D01*
X86564831Y-91664485D01*
X86570712Y-91674671D01*
X86600829Y-91767361D01*
X86619942Y-91821983D01*
X86620666Y-91828414D01*
X86622383Y-91833697D01*
X86637946Y-91981773D01*
X86640000Y-92000000D01*
X86637946Y-92018228D01*
X86622383Y-92166302D01*
X86620666Y-92171583D01*
X86619942Y-92178017D01*
X86600824Y-92232651D01*
X86570712Y-92325328D01*
X86564832Y-92335512D01*
X86560775Y-92347107D01*
X86528280Y-92398820D01*
X86487101Y-92470147D01*
X86475063Y-92483515D01*
X86465465Y-92498792D01*
X86423733Y-92540523D01*
X86375211Y-92594413D01*
X86355584Y-92608672D01*
X86338792Y-92625465D01*
X86292032Y-92654846D01*
X86239931Y-92692700D01*
X86211988Y-92705141D01*
X86187107Y-92720775D01*
X86139310Y-92737499D01*
X86087171Y-92760714D01*
X86050987Y-92768405D01*
X86018017Y-92779942D01*
X85972677Y-92785050D01*
X85923607Y-92795481D01*
X85880107Y-92795481D01*
X85840000Y-92800000D01*
X85799893Y-92795481D01*
X85756393Y-92795481D01*
X85707321Y-92785050D01*
X85661983Y-92779942D01*
X85629013Y-92768405D01*
X85592828Y-92760714D01*
X85540684Y-92737497D01*
X85492893Y-92720775D01*
X85468014Y-92705142D01*
X85440068Y-92692700D01*
X85387960Y-92654841D01*
X85341208Y-92625465D01*
X85324418Y-92608675D01*
X85304788Y-92594413D01*
X85256256Y-92540513D01*
X85214535Y-92498792D01*
X85204938Y-92483519D01*
X85192898Y-92470147D01*
X85151706Y-92398801D01*
X85119225Y-92347107D01*
X85115169Y-92335516D01*
X85109287Y-92325328D01*
X85079161Y-92232611D01*
X85060058Y-92178017D01*
X85059333Y-92171588D01*
X85057616Y-92166302D01*
X85042038Y-92018096D01*
X85040000Y-92000000D01*
X85042038Y-91981905D01*
X85057616Y-91833697D01*
X85059333Y-91828410D01*
X85060058Y-91821983D01*
X85079156Y-91767401D01*
X85109287Y-91674671D01*
X85115170Y-91664480D01*
X85119225Y-91652893D01*
X85151699Y-91601209D01*
X85192898Y-91529852D01*
X85204940Y-91516477D01*
X85214535Y-91501208D01*
X85256247Y-91459495D01*
X85304788Y-91405586D01*
X85324421Y-91391321D01*
X85341208Y-91374535D01*
X85387954Y-91345162D01*
X85440069Y-91307299D01*
X85468017Y-91294855D01*
X85492893Y-91279225D01*
X85540675Y-91262505D01*
X85592828Y-91239285D01*
X85629019Y-91231592D01*
X85661983Y-91220058D01*
X85707318Y-91214949D01*
X85756393Y-91204519D01*
X85799893Y-91204519D01*
X85840000Y-91200000D01*
X85880107Y-91204519D01*
G37*
G36*
X88420107Y-91204519D02*
G01*
X88463607Y-91204519D01*
X88512680Y-91214949D01*
X88558017Y-91220058D01*
X88590982Y-91231592D01*
X88627171Y-91239285D01*
X88679321Y-91262504D01*
X88727107Y-91279225D01*
X88751982Y-91294855D01*
X88779931Y-91307299D01*
X88832042Y-91345160D01*
X88878792Y-91374535D01*
X88895580Y-91391323D01*
X88915211Y-91405586D01*
X88963742Y-91459485D01*
X89005465Y-91501208D01*
X89015061Y-91516481D01*
X89027101Y-91529852D01*
X89068288Y-91601190D01*
X89100775Y-91652893D01*
X89104831Y-91664485D01*
X89110712Y-91674671D01*
X89140829Y-91767361D01*
X89159942Y-91821983D01*
X89160666Y-91828414D01*
X89162383Y-91833697D01*
X89177946Y-91981773D01*
X89180000Y-92000000D01*
X89177946Y-92018228D01*
X89162383Y-92166302D01*
X89160666Y-92171583D01*
X89159942Y-92178017D01*
X89140824Y-92232651D01*
X89110712Y-92325328D01*
X89104832Y-92335512D01*
X89100775Y-92347107D01*
X89068280Y-92398820D01*
X89027101Y-92470147D01*
X89015063Y-92483515D01*
X89005465Y-92498792D01*
X88963733Y-92540523D01*
X88915211Y-92594413D01*
X88895584Y-92608672D01*
X88878792Y-92625465D01*
X88832032Y-92654846D01*
X88779931Y-92692700D01*
X88751988Y-92705141D01*
X88727107Y-92720775D01*
X88679310Y-92737499D01*
X88627171Y-92760714D01*
X88590987Y-92768405D01*
X88558017Y-92779942D01*
X88512677Y-92785050D01*
X88463607Y-92795481D01*
X88420107Y-92795481D01*
X88380000Y-92800000D01*
X88339893Y-92795481D01*
X88296393Y-92795481D01*
X88247321Y-92785050D01*
X88201983Y-92779942D01*
X88169013Y-92768405D01*
X88132828Y-92760714D01*
X88080684Y-92737497D01*
X88032893Y-92720775D01*
X88008014Y-92705142D01*
X87980068Y-92692700D01*
X87927960Y-92654841D01*
X87881208Y-92625465D01*
X87864418Y-92608675D01*
X87844788Y-92594413D01*
X87796256Y-92540513D01*
X87754535Y-92498792D01*
X87744938Y-92483519D01*
X87732898Y-92470147D01*
X87691706Y-92398801D01*
X87659225Y-92347107D01*
X87655169Y-92335516D01*
X87649287Y-92325328D01*
X87619161Y-92232611D01*
X87600058Y-92178017D01*
X87599333Y-92171588D01*
X87597616Y-92166302D01*
X87582038Y-92018096D01*
X87580000Y-92000000D01*
X87582038Y-91981905D01*
X87597616Y-91833697D01*
X87599333Y-91828410D01*
X87600058Y-91821983D01*
X87619156Y-91767401D01*
X87649287Y-91674671D01*
X87655170Y-91664480D01*
X87659225Y-91652893D01*
X87691699Y-91601209D01*
X87732898Y-91529852D01*
X87744940Y-91516477D01*
X87754535Y-91501208D01*
X87796247Y-91459495D01*
X87844788Y-91405586D01*
X87864421Y-91391321D01*
X87881208Y-91374535D01*
X87927954Y-91345162D01*
X87980069Y-91307299D01*
X88008017Y-91294855D01*
X88032893Y-91279225D01*
X88080675Y-91262505D01*
X88132828Y-91239285D01*
X88169019Y-91231592D01*
X88201983Y-91220058D01*
X88247318Y-91214949D01*
X88296393Y-91204519D01*
X88339893Y-91204519D01*
X88380000Y-91200000D01*
X88420107Y-91204519D01*
G37*
G36*
X90960107Y-91204519D02*
G01*
X91003607Y-91204519D01*
X91052680Y-91214949D01*
X91098017Y-91220058D01*
X91130982Y-91231592D01*
X91167171Y-91239285D01*
X91219321Y-91262504D01*
X91267107Y-91279225D01*
X91291982Y-91294855D01*
X91319931Y-91307299D01*
X91372042Y-91345160D01*
X91418792Y-91374535D01*
X91435580Y-91391323D01*
X91455211Y-91405586D01*
X91503742Y-91459485D01*
X91545465Y-91501208D01*
X91555061Y-91516481D01*
X91567101Y-91529852D01*
X91608288Y-91601190D01*
X91640775Y-91652893D01*
X91644831Y-91664485D01*
X91650712Y-91674671D01*
X91680829Y-91767361D01*
X91699942Y-91821983D01*
X91700666Y-91828414D01*
X91702383Y-91833697D01*
X91717946Y-91981773D01*
X91720000Y-92000000D01*
X91717946Y-92018228D01*
X91702383Y-92166302D01*
X91700666Y-92171583D01*
X91699942Y-92178017D01*
X91680824Y-92232651D01*
X91650712Y-92325328D01*
X91644832Y-92335512D01*
X91640775Y-92347107D01*
X91608280Y-92398820D01*
X91567101Y-92470147D01*
X91555063Y-92483515D01*
X91545465Y-92498792D01*
X91503733Y-92540523D01*
X91455211Y-92594413D01*
X91435584Y-92608672D01*
X91418792Y-92625465D01*
X91372032Y-92654846D01*
X91319931Y-92692700D01*
X91291988Y-92705141D01*
X91267107Y-92720775D01*
X91219310Y-92737499D01*
X91167171Y-92760714D01*
X91130987Y-92768405D01*
X91098017Y-92779942D01*
X91052677Y-92785050D01*
X91003607Y-92795481D01*
X90960107Y-92795481D01*
X90920000Y-92800000D01*
X90879893Y-92795481D01*
X90836393Y-92795481D01*
X90787321Y-92785050D01*
X90741983Y-92779942D01*
X90709013Y-92768405D01*
X90672828Y-92760714D01*
X90620684Y-92737497D01*
X90572893Y-92720775D01*
X90548014Y-92705142D01*
X90520068Y-92692700D01*
X90467960Y-92654841D01*
X90421208Y-92625465D01*
X90404418Y-92608675D01*
X90384788Y-92594413D01*
X90336256Y-92540513D01*
X90294535Y-92498792D01*
X90284938Y-92483519D01*
X90272898Y-92470147D01*
X90231706Y-92398801D01*
X90199225Y-92347107D01*
X90195169Y-92335516D01*
X90189287Y-92325328D01*
X90159161Y-92232611D01*
X90140058Y-92178017D01*
X90139333Y-92171588D01*
X90137616Y-92166302D01*
X90122038Y-92018096D01*
X90120000Y-92000000D01*
X90122038Y-91981905D01*
X90137616Y-91833697D01*
X90139333Y-91828410D01*
X90140058Y-91821983D01*
X90159156Y-91767401D01*
X90189287Y-91674671D01*
X90195170Y-91664480D01*
X90199225Y-91652893D01*
X90231699Y-91601209D01*
X90272898Y-91529852D01*
X90284940Y-91516477D01*
X90294535Y-91501208D01*
X90336247Y-91459495D01*
X90384788Y-91405586D01*
X90404421Y-91391321D01*
X90421208Y-91374535D01*
X90467954Y-91345162D01*
X90520069Y-91307299D01*
X90548017Y-91294855D01*
X90572893Y-91279225D01*
X90620675Y-91262505D01*
X90672828Y-91239285D01*
X90709019Y-91231592D01*
X90741983Y-91220058D01*
X90787318Y-91214949D01*
X90836393Y-91204519D01*
X90879893Y-91204519D01*
X90920000Y-91200000D01*
X90960107Y-91204519D01*
G37*
G36*
X93500107Y-91204519D02*
G01*
X93543607Y-91204519D01*
X93592680Y-91214949D01*
X93638017Y-91220058D01*
X93670982Y-91231592D01*
X93707171Y-91239285D01*
X93759321Y-91262504D01*
X93807107Y-91279225D01*
X93831982Y-91294855D01*
X93859931Y-91307299D01*
X93912042Y-91345160D01*
X93958792Y-91374535D01*
X93975580Y-91391323D01*
X93995211Y-91405586D01*
X94043742Y-91459485D01*
X94085465Y-91501208D01*
X94095061Y-91516481D01*
X94107101Y-91529852D01*
X94148288Y-91601190D01*
X94180775Y-91652893D01*
X94184831Y-91664485D01*
X94190712Y-91674671D01*
X94220829Y-91767361D01*
X94239942Y-91821983D01*
X94240666Y-91828414D01*
X94242383Y-91833697D01*
X94257946Y-91981773D01*
X94260000Y-92000000D01*
X94257946Y-92018228D01*
X94242383Y-92166302D01*
X94240666Y-92171583D01*
X94239942Y-92178017D01*
X94220824Y-92232651D01*
X94190712Y-92325328D01*
X94184832Y-92335512D01*
X94180775Y-92347107D01*
X94148280Y-92398820D01*
X94107101Y-92470147D01*
X94095063Y-92483515D01*
X94085465Y-92498792D01*
X94043733Y-92540523D01*
X93995211Y-92594413D01*
X93975584Y-92608672D01*
X93958792Y-92625465D01*
X93912032Y-92654846D01*
X93859931Y-92692700D01*
X93831988Y-92705141D01*
X93807107Y-92720775D01*
X93759310Y-92737499D01*
X93707171Y-92760714D01*
X93670987Y-92768405D01*
X93638017Y-92779942D01*
X93592677Y-92785050D01*
X93543607Y-92795481D01*
X93500107Y-92795481D01*
X93460000Y-92800000D01*
X93419893Y-92795481D01*
X93376393Y-92795481D01*
X93327321Y-92785050D01*
X93281983Y-92779942D01*
X93249013Y-92768405D01*
X93212828Y-92760714D01*
X93160684Y-92737497D01*
X93112893Y-92720775D01*
X93088014Y-92705142D01*
X93060068Y-92692700D01*
X93007960Y-92654841D01*
X92961208Y-92625465D01*
X92944418Y-92608675D01*
X92924788Y-92594413D01*
X92876256Y-92540513D01*
X92834535Y-92498792D01*
X92824938Y-92483519D01*
X92812898Y-92470147D01*
X92771706Y-92398801D01*
X92739225Y-92347107D01*
X92735169Y-92335516D01*
X92729287Y-92325328D01*
X92699161Y-92232611D01*
X92680058Y-92178017D01*
X92679333Y-92171588D01*
X92677616Y-92166302D01*
X92662038Y-92018096D01*
X92660000Y-92000000D01*
X92662038Y-91981905D01*
X92677616Y-91833697D01*
X92679333Y-91828410D01*
X92680058Y-91821983D01*
X92699156Y-91767401D01*
X92729287Y-91674671D01*
X92735170Y-91664480D01*
X92739225Y-91652893D01*
X92771699Y-91601209D01*
X92812898Y-91529852D01*
X92824940Y-91516477D01*
X92834535Y-91501208D01*
X92876247Y-91459495D01*
X92924788Y-91405586D01*
X92944421Y-91391321D01*
X92961208Y-91374535D01*
X93007954Y-91345162D01*
X93060069Y-91307299D01*
X93088017Y-91294855D01*
X93112893Y-91279225D01*
X93160675Y-91262505D01*
X93212828Y-91239285D01*
X93249019Y-91231592D01*
X93281983Y-91220058D01*
X93327318Y-91214949D01*
X93376393Y-91204519D01*
X93419893Y-91204519D01*
X93460000Y-91200000D01*
X93500107Y-91204519D01*
G37*
G36*
X96040107Y-91204519D02*
G01*
X96083607Y-91204519D01*
X96132680Y-91214949D01*
X96178017Y-91220058D01*
X96210982Y-91231592D01*
X96247171Y-91239285D01*
X96299321Y-91262504D01*
X96347107Y-91279225D01*
X96371982Y-91294855D01*
X96399931Y-91307299D01*
X96452042Y-91345160D01*
X96498792Y-91374535D01*
X96515580Y-91391323D01*
X96535211Y-91405586D01*
X96583742Y-91459485D01*
X96625465Y-91501208D01*
X96635061Y-91516481D01*
X96647101Y-91529852D01*
X96688288Y-91601190D01*
X96720775Y-91652893D01*
X96724831Y-91664485D01*
X96730712Y-91674671D01*
X96760829Y-91767361D01*
X96779942Y-91821983D01*
X96780666Y-91828414D01*
X96782383Y-91833697D01*
X96797946Y-91981773D01*
X96800000Y-92000000D01*
X96797946Y-92018228D01*
X96782383Y-92166302D01*
X96780666Y-92171583D01*
X96779942Y-92178017D01*
X96760824Y-92232651D01*
X96730712Y-92325328D01*
X96724832Y-92335512D01*
X96720775Y-92347107D01*
X96688280Y-92398820D01*
X96647101Y-92470147D01*
X96635063Y-92483515D01*
X96625465Y-92498792D01*
X96583733Y-92540523D01*
X96535211Y-92594413D01*
X96515584Y-92608672D01*
X96498792Y-92625465D01*
X96452032Y-92654846D01*
X96399931Y-92692700D01*
X96371988Y-92705141D01*
X96347107Y-92720775D01*
X96299310Y-92737499D01*
X96247171Y-92760714D01*
X96210987Y-92768405D01*
X96178017Y-92779942D01*
X96132677Y-92785050D01*
X96083607Y-92795481D01*
X96040107Y-92795481D01*
X96000000Y-92800000D01*
X95959893Y-92795481D01*
X95916393Y-92795481D01*
X95867321Y-92785050D01*
X95821983Y-92779942D01*
X95789013Y-92768405D01*
X95752828Y-92760714D01*
X95700684Y-92737497D01*
X95652893Y-92720775D01*
X95628014Y-92705142D01*
X95600068Y-92692700D01*
X95547960Y-92654841D01*
X95501208Y-92625465D01*
X95484418Y-92608675D01*
X95464788Y-92594413D01*
X95416256Y-92540513D01*
X95374535Y-92498792D01*
X95364938Y-92483519D01*
X95352898Y-92470147D01*
X95311706Y-92398801D01*
X95279225Y-92347107D01*
X95275169Y-92335516D01*
X95269287Y-92325328D01*
X95239161Y-92232611D01*
X95220058Y-92178017D01*
X95219333Y-92171588D01*
X95217616Y-92166302D01*
X95202038Y-92018096D01*
X95200000Y-92000000D01*
X95202038Y-91981905D01*
X95217616Y-91833697D01*
X95219333Y-91828410D01*
X95220058Y-91821983D01*
X95239156Y-91767401D01*
X95269287Y-91674671D01*
X95275170Y-91664480D01*
X95279225Y-91652893D01*
X95311699Y-91601209D01*
X95352898Y-91529852D01*
X95364940Y-91516477D01*
X95374535Y-91501208D01*
X95416247Y-91459495D01*
X95464788Y-91405586D01*
X95484421Y-91391321D01*
X95501208Y-91374535D01*
X95547954Y-91345162D01*
X95600069Y-91307299D01*
X95628017Y-91294855D01*
X95652893Y-91279225D01*
X95700675Y-91262505D01*
X95752828Y-91239285D01*
X95789019Y-91231592D01*
X95821983Y-91220058D01*
X95867318Y-91214949D01*
X95916393Y-91204519D01*
X95959893Y-91204519D01*
X96000000Y-91200000D01*
X96040107Y-91204519D01*
G37*
G36*
X83340107Y-75964519D02*
G01*
X83383607Y-75964519D01*
X83432680Y-75974949D01*
X83478017Y-75980058D01*
X83510982Y-75991592D01*
X83547171Y-75999285D01*
X83599321Y-76022504D01*
X83647107Y-76039225D01*
X83671982Y-76054855D01*
X83699931Y-76067299D01*
X83752042Y-76105160D01*
X83798792Y-76134535D01*
X83815580Y-76151323D01*
X83835211Y-76165586D01*
X83883742Y-76219485D01*
X83925465Y-76261208D01*
X83935061Y-76276481D01*
X83947101Y-76289852D01*
X83988288Y-76361190D01*
X84020775Y-76412893D01*
X84024831Y-76424485D01*
X84030712Y-76434671D01*
X84060829Y-76527361D01*
X84079942Y-76581983D01*
X84080666Y-76588414D01*
X84082383Y-76593697D01*
X84097946Y-76741773D01*
X84100000Y-76760000D01*
X84097946Y-76778228D01*
X84082383Y-76926302D01*
X84080666Y-76931583D01*
X84079942Y-76938017D01*
X84060824Y-76992651D01*
X84030712Y-77085328D01*
X84024832Y-77095512D01*
X84020775Y-77107107D01*
X83988280Y-77158820D01*
X83947101Y-77230147D01*
X83935063Y-77243515D01*
X83925465Y-77258792D01*
X83883733Y-77300523D01*
X83835211Y-77354413D01*
X83815584Y-77368672D01*
X83798792Y-77385465D01*
X83752032Y-77414846D01*
X83699931Y-77452700D01*
X83671988Y-77465141D01*
X83647107Y-77480775D01*
X83599310Y-77497499D01*
X83547171Y-77520714D01*
X83510987Y-77528405D01*
X83478017Y-77539942D01*
X83432677Y-77545050D01*
X83383607Y-77555481D01*
X83340107Y-77555481D01*
X83300000Y-77560000D01*
X83259893Y-77555481D01*
X83216393Y-77555481D01*
X83167321Y-77545050D01*
X83121983Y-77539942D01*
X83089013Y-77528405D01*
X83052828Y-77520714D01*
X83000684Y-77497497D01*
X82952893Y-77480775D01*
X82928014Y-77465142D01*
X82900068Y-77452700D01*
X82847960Y-77414841D01*
X82801208Y-77385465D01*
X82784418Y-77368675D01*
X82764788Y-77354413D01*
X82716256Y-77300513D01*
X82674535Y-77258792D01*
X82664938Y-77243519D01*
X82652898Y-77230147D01*
X82611706Y-77158801D01*
X82579225Y-77107107D01*
X82575169Y-77095516D01*
X82569287Y-77085328D01*
X82539161Y-76992611D01*
X82520058Y-76938017D01*
X82519333Y-76931588D01*
X82517616Y-76926302D01*
X82502038Y-76778096D01*
X82500000Y-76760000D01*
X82502038Y-76741905D01*
X82517616Y-76593697D01*
X82519333Y-76588410D01*
X82520058Y-76581983D01*
X82539156Y-76527401D01*
X82569287Y-76434671D01*
X82575170Y-76424480D01*
X82579225Y-76412893D01*
X82611699Y-76361209D01*
X82652898Y-76289852D01*
X82664940Y-76276477D01*
X82674535Y-76261208D01*
X82716247Y-76219495D01*
X82764788Y-76165586D01*
X82784421Y-76151321D01*
X82801208Y-76134535D01*
X82847954Y-76105162D01*
X82900069Y-76067299D01*
X82928017Y-76054855D01*
X82952893Y-76039225D01*
X83000675Y-76022505D01*
X83052828Y-75999285D01*
X83089019Y-75991592D01*
X83121983Y-75980058D01*
X83167318Y-75974949D01*
X83216393Y-75964519D01*
X83259893Y-75964519D01*
X83300000Y-75960000D01*
X83340107Y-75964519D01*
G37*
G36*
X85880107Y-75964519D02*
G01*
X85923607Y-75964519D01*
X85972680Y-75974949D01*
X86018017Y-75980058D01*
X86050982Y-75991592D01*
X86087171Y-75999285D01*
X86139321Y-76022504D01*
X86187107Y-76039225D01*
X86211982Y-76054855D01*
X86239931Y-76067299D01*
X86292042Y-76105160D01*
X86338792Y-76134535D01*
X86355580Y-76151323D01*
X86375211Y-76165586D01*
X86423742Y-76219485D01*
X86465465Y-76261208D01*
X86475061Y-76276481D01*
X86487101Y-76289852D01*
X86528288Y-76361190D01*
X86560775Y-76412893D01*
X86564831Y-76424485D01*
X86570712Y-76434671D01*
X86600829Y-76527361D01*
X86619942Y-76581983D01*
X86620666Y-76588414D01*
X86622383Y-76593697D01*
X86637946Y-76741773D01*
X86640000Y-76760000D01*
X86637946Y-76778228D01*
X86622383Y-76926302D01*
X86620666Y-76931583D01*
X86619942Y-76938017D01*
X86600824Y-76992651D01*
X86570712Y-77085328D01*
X86564832Y-77095512D01*
X86560775Y-77107107D01*
X86528280Y-77158820D01*
X86487101Y-77230147D01*
X86475063Y-77243515D01*
X86465465Y-77258792D01*
X86423733Y-77300523D01*
X86375211Y-77354413D01*
X86355584Y-77368672D01*
X86338792Y-77385465D01*
X86292032Y-77414846D01*
X86239931Y-77452700D01*
X86211988Y-77465141D01*
X86187107Y-77480775D01*
X86139310Y-77497499D01*
X86087171Y-77520714D01*
X86050987Y-77528405D01*
X86018017Y-77539942D01*
X85972677Y-77545050D01*
X85923607Y-77555481D01*
X85880107Y-77555481D01*
X85840000Y-77560000D01*
X85799893Y-77555481D01*
X85756393Y-77555481D01*
X85707321Y-77545050D01*
X85661983Y-77539942D01*
X85629013Y-77528405D01*
X85592828Y-77520714D01*
X85540684Y-77497497D01*
X85492893Y-77480775D01*
X85468014Y-77465142D01*
X85440068Y-77452700D01*
X85387960Y-77414841D01*
X85341208Y-77385465D01*
X85324418Y-77368675D01*
X85304788Y-77354413D01*
X85256256Y-77300513D01*
X85214535Y-77258792D01*
X85204938Y-77243519D01*
X85192898Y-77230147D01*
X85151706Y-77158801D01*
X85119225Y-77107107D01*
X85115169Y-77095516D01*
X85109287Y-77085328D01*
X85079161Y-76992611D01*
X85060058Y-76938017D01*
X85059333Y-76931588D01*
X85057616Y-76926302D01*
X85042038Y-76778096D01*
X85040000Y-76760000D01*
X85042038Y-76741905D01*
X85057616Y-76593697D01*
X85059333Y-76588410D01*
X85060058Y-76581983D01*
X85079156Y-76527401D01*
X85109287Y-76434671D01*
X85115170Y-76424480D01*
X85119225Y-76412893D01*
X85151699Y-76361209D01*
X85192898Y-76289852D01*
X85204940Y-76276477D01*
X85214535Y-76261208D01*
X85256247Y-76219495D01*
X85304788Y-76165586D01*
X85324421Y-76151321D01*
X85341208Y-76134535D01*
X85387954Y-76105162D01*
X85440069Y-76067299D01*
X85468017Y-76054855D01*
X85492893Y-76039225D01*
X85540675Y-76022505D01*
X85592828Y-75999285D01*
X85629019Y-75991592D01*
X85661983Y-75980058D01*
X85707318Y-75974949D01*
X85756393Y-75964519D01*
X85799893Y-75964519D01*
X85840000Y-75960000D01*
X85880107Y-75964519D01*
G37*
G36*
X88420107Y-75964519D02*
G01*
X88463607Y-75964519D01*
X88512680Y-75974949D01*
X88558017Y-75980058D01*
X88590982Y-75991592D01*
X88627171Y-75999285D01*
X88679321Y-76022504D01*
X88727107Y-76039225D01*
X88751982Y-76054855D01*
X88779931Y-76067299D01*
X88832042Y-76105160D01*
X88878792Y-76134535D01*
X88895580Y-76151323D01*
X88915211Y-76165586D01*
X88963742Y-76219485D01*
X89005465Y-76261208D01*
X89015061Y-76276481D01*
X89027101Y-76289852D01*
X89068288Y-76361190D01*
X89100775Y-76412893D01*
X89104831Y-76424485D01*
X89110712Y-76434671D01*
X89140829Y-76527361D01*
X89159942Y-76581983D01*
X89160666Y-76588414D01*
X89162383Y-76593697D01*
X89177946Y-76741773D01*
X89180000Y-76760000D01*
X89177946Y-76778228D01*
X89162383Y-76926302D01*
X89160666Y-76931583D01*
X89159942Y-76938017D01*
X89140824Y-76992651D01*
X89110712Y-77085328D01*
X89104832Y-77095512D01*
X89100775Y-77107107D01*
X89068280Y-77158820D01*
X89027101Y-77230147D01*
X89015063Y-77243515D01*
X89005465Y-77258792D01*
X88963733Y-77300523D01*
X88915211Y-77354413D01*
X88895584Y-77368672D01*
X88878792Y-77385465D01*
X88832032Y-77414846D01*
X88779931Y-77452700D01*
X88751988Y-77465141D01*
X88727107Y-77480775D01*
X88679310Y-77497499D01*
X88627171Y-77520714D01*
X88590987Y-77528405D01*
X88558017Y-77539942D01*
X88512677Y-77545050D01*
X88463607Y-77555481D01*
X88420107Y-77555481D01*
X88380000Y-77560000D01*
X88339893Y-77555481D01*
X88296393Y-77555481D01*
X88247321Y-77545050D01*
X88201983Y-77539942D01*
X88169013Y-77528405D01*
X88132828Y-77520714D01*
X88080684Y-77497497D01*
X88032893Y-77480775D01*
X88008014Y-77465142D01*
X87980068Y-77452700D01*
X87927960Y-77414841D01*
X87881208Y-77385465D01*
X87864418Y-77368675D01*
X87844788Y-77354413D01*
X87796256Y-77300513D01*
X87754535Y-77258792D01*
X87744938Y-77243519D01*
X87732898Y-77230147D01*
X87691706Y-77158801D01*
X87659225Y-77107107D01*
X87655169Y-77095516D01*
X87649287Y-77085328D01*
X87619161Y-76992611D01*
X87600058Y-76938017D01*
X87599333Y-76931588D01*
X87597616Y-76926302D01*
X87582038Y-76778096D01*
X87580000Y-76760000D01*
X87582038Y-76741905D01*
X87597616Y-76593697D01*
X87599333Y-76588410D01*
X87600058Y-76581983D01*
X87619156Y-76527401D01*
X87649287Y-76434671D01*
X87655170Y-76424480D01*
X87659225Y-76412893D01*
X87691699Y-76361209D01*
X87732898Y-76289852D01*
X87744940Y-76276477D01*
X87754535Y-76261208D01*
X87796247Y-76219495D01*
X87844788Y-76165586D01*
X87864421Y-76151321D01*
X87881208Y-76134535D01*
X87927954Y-76105162D01*
X87980069Y-76067299D01*
X88008017Y-76054855D01*
X88032893Y-76039225D01*
X88080675Y-76022505D01*
X88132828Y-75999285D01*
X88169019Y-75991592D01*
X88201983Y-75980058D01*
X88247318Y-75974949D01*
X88296393Y-75964519D01*
X88339893Y-75964519D01*
X88380000Y-75960000D01*
X88420107Y-75964519D01*
G37*
G36*
X90960107Y-75964519D02*
G01*
X91003607Y-75964519D01*
X91052680Y-75974949D01*
X91098017Y-75980058D01*
X91130982Y-75991592D01*
X91167171Y-75999285D01*
X91219321Y-76022504D01*
X91267107Y-76039225D01*
X91291982Y-76054855D01*
X91319931Y-76067299D01*
X91372042Y-76105160D01*
X91418792Y-76134535D01*
X91435580Y-76151323D01*
X91455211Y-76165586D01*
X91503742Y-76219485D01*
X91545465Y-76261208D01*
X91555061Y-76276481D01*
X91567101Y-76289852D01*
X91608288Y-76361190D01*
X91640775Y-76412893D01*
X91644831Y-76424485D01*
X91650712Y-76434671D01*
X91680829Y-76527361D01*
X91699942Y-76581983D01*
X91700666Y-76588414D01*
X91702383Y-76593697D01*
X91717946Y-76741773D01*
X91720000Y-76760000D01*
X91717946Y-76778228D01*
X91702383Y-76926302D01*
X91700666Y-76931583D01*
X91699942Y-76938017D01*
X91680824Y-76992651D01*
X91650712Y-77085328D01*
X91644832Y-77095512D01*
X91640775Y-77107107D01*
X91608280Y-77158820D01*
X91567101Y-77230147D01*
X91555063Y-77243515D01*
X91545465Y-77258792D01*
X91503733Y-77300523D01*
X91455211Y-77354413D01*
X91435584Y-77368672D01*
X91418792Y-77385465D01*
X91372032Y-77414846D01*
X91319931Y-77452700D01*
X91291988Y-77465141D01*
X91267107Y-77480775D01*
X91219310Y-77497499D01*
X91167171Y-77520714D01*
X91130987Y-77528405D01*
X91098017Y-77539942D01*
X91052677Y-77545050D01*
X91003607Y-77555481D01*
X90960107Y-77555481D01*
X90920000Y-77560000D01*
X90879893Y-77555481D01*
X90836393Y-77555481D01*
X90787321Y-77545050D01*
X90741983Y-77539942D01*
X90709013Y-77528405D01*
X90672828Y-77520714D01*
X90620684Y-77497497D01*
X90572893Y-77480775D01*
X90548014Y-77465142D01*
X90520068Y-77452700D01*
X90467960Y-77414841D01*
X90421208Y-77385465D01*
X90404418Y-77368675D01*
X90384788Y-77354413D01*
X90336256Y-77300513D01*
X90294535Y-77258792D01*
X90284938Y-77243519D01*
X90272898Y-77230147D01*
X90231706Y-77158801D01*
X90199225Y-77107107D01*
X90195169Y-77095516D01*
X90189287Y-77085328D01*
X90159161Y-76992611D01*
X90140058Y-76938017D01*
X90139333Y-76931588D01*
X90137616Y-76926302D01*
X90122038Y-76778096D01*
X90120000Y-76760000D01*
X90122038Y-76741905D01*
X90137616Y-76593697D01*
X90139333Y-76588410D01*
X90140058Y-76581983D01*
X90159156Y-76527401D01*
X90189287Y-76434671D01*
X90195170Y-76424480D01*
X90199225Y-76412893D01*
X90231699Y-76361209D01*
X90272898Y-76289852D01*
X90284940Y-76276477D01*
X90294535Y-76261208D01*
X90336247Y-76219495D01*
X90384788Y-76165586D01*
X90404421Y-76151321D01*
X90421208Y-76134535D01*
X90467954Y-76105162D01*
X90520069Y-76067299D01*
X90548017Y-76054855D01*
X90572893Y-76039225D01*
X90620675Y-76022505D01*
X90672828Y-75999285D01*
X90709019Y-75991592D01*
X90741983Y-75980058D01*
X90787318Y-75974949D01*
X90836393Y-75964519D01*
X90879893Y-75964519D01*
X90920000Y-75960000D01*
X90960107Y-75964519D01*
G37*
G36*
X93500107Y-75964519D02*
G01*
X93543607Y-75964519D01*
X93592680Y-75974949D01*
X93638017Y-75980058D01*
X93670982Y-75991592D01*
X93707171Y-75999285D01*
X93759321Y-76022504D01*
X93807107Y-76039225D01*
X93831982Y-76054855D01*
X93859931Y-76067299D01*
X93912042Y-76105160D01*
X93958792Y-76134535D01*
X93975580Y-76151323D01*
X93995211Y-76165586D01*
X94043742Y-76219485D01*
X94085465Y-76261208D01*
X94095061Y-76276481D01*
X94107101Y-76289852D01*
X94148288Y-76361190D01*
X94180775Y-76412893D01*
X94184831Y-76424485D01*
X94190712Y-76434671D01*
X94220829Y-76527361D01*
X94239942Y-76581983D01*
X94240666Y-76588414D01*
X94242383Y-76593697D01*
X94257946Y-76741773D01*
X94260000Y-76760000D01*
X94257946Y-76778228D01*
X94242383Y-76926302D01*
X94240666Y-76931583D01*
X94239942Y-76938017D01*
X94220824Y-76992651D01*
X94190712Y-77085328D01*
X94184832Y-77095512D01*
X94180775Y-77107107D01*
X94148280Y-77158820D01*
X94107101Y-77230147D01*
X94095063Y-77243515D01*
X94085465Y-77258792D01*
X94043733Y-77300523D01*
X93995211Y-77354413D01*
X93975584Y-77368672D01*
X93958792Y-77385465D01*
X93912032Y-77414846D01*
X93859931Y-77452700D01*
X93831988Y-77465141D01*
X93807107Y-77480775D01*
X93759310Y-77497499D01*
X93707171Y-77520714D01*
X93670987Y-77528405D01*
X93638017Y-77539942D01*
X93592677Y-77545050D01*
X93543607Y-77555481D01*
X93500107Y-77555481D01*
X93460000Y-77560000D01*
X93419893Y-77555481D01*
X93376393Y-77555481D01*
X93327321Y-77545050D01*
X93281983Y-77539942D01*
X93249013Y-77528405D01*
X93212828Y-77520714D01*
X93160684Y-77497497D01*
X93112893Y-77480775D01*
X93088014Y-77465142D01*
X93060068Y-77452700D01*
X93007960Y-77414841D01*
X92961208Y-77385465D01*
X92944418Y-77368675D01*
X92924788Y-77354413D01*
X92876256Y-77300513D01*
X92834535Y-77258792D01*
X92824938Y-77243519D01*
X92812898Y-77230147D01*
X92771706Y-77158801D01*
X92739225Y-77107107D01*
X92735169Y-77095516D01*
X92729287Y-77085328D01*
X92699161Y-76992611D01*
X92680058Y-76938017D01*
X92679333Y-76931588D01*
X92677616Y-76926302D01*
X92662038Y-76778096D01*
X92660000Y-76760000D01*
X92662038Y-76741905D01*
X92677616Y-76593697D01*
X92679333Y-76588410D01*
X92680058Y-76581983D01*
X92699156Y-76527401D01*
X92729287Y-76434671D01*
X92735170Y-76424480D01*
X92739225Y-76412893D01*
X92771699Y-76361209D01*
X92812898Y-76289852D01*
X92824940Y-76276477D01*
X92834535Y-76261208D01*
X92876247Y-76219495D01*
X92924788Y-76165586D01*
X92944421Y-76151321D01*
X92961208Y-76134535D01*
X93007954Y-76105162D01*
X93060069Y-76067299D01*
X93088017Y-76054855D01*
X93112893Y-76039225D01*
X93160675Y-76022505D01*
X93212828Y-75999285D01*
X93249019Y-75991592D01*
X93281983Y-75980058D01*
X93327318Y-75974949D01*
X93376393Y-75964519D01*
X93419893Y-75964519D01*
X93460000Y-75960000D01*
X93500107Y-75964519D01*
G37*
G36*
X96040107Y-75964519D02*
G01*
X96083607Y-75964519D01*
X96132680Y-75974949D01*
X96178017Y-75980058D01*
X96210982Y-75991592D01*
X96247171Y-75999285D01*
X96299321Y-76022504D01*
X96347107Y-76039225D01*
X96371982Y-76054855D01*
X96399931Y-76067299D01*
X96452042Y-76105160D01*
X96498792Y-76134535D01*
X96515580Y-76151323D01*
X96535211Y-76165586D01*
X96583742Y-76219485D01*
X96625465Y-76261208D01*
X96635061Y-76276481D01*
X96647101Y-76289852D01*
X96688288Y-76361190D01*
X96720775Y-76412893D01*
X96724831Y-76424485D01*
X96730712Y-76434671D01*
X96760829Y-76527361D01*
X96779942Y-76581983D01*
X96780666Y-76588414D01*
X96782383Y-76593697D01*
X96797946Y-76741773D01*
X96800000Y-76760000D01*
X96797946Y-76778228D01*
X96782383Y-76926302D01*
X96780666Y-76931583D01*
X96779942Y-76938017D01*
X96760824Y-76992651D01*
X96730712Y-77085328D01*
X96724832Y-77095512D01*
X96720775Y-77107107D01*
X96688280Y-77158820D01*
X96647101Y-77230147D01*
X96635063Y-77243515D01*
X96625465Y-77258792D01*
X96583733Y-77300523D01*
X96535211Y-77354413D01*
X96515584Y-77368672D01*
X96498792Y-77385465D01*
X96452032Y-77414846D01*
X96399931Y-77452700D01*
X96371988Y-77465141D01*
X96347107Y-77480775D01*
X96299310Y-77497499D01*
X96247171Y-77520714D01*
X96210987Y-77528405D01*
X96178017Y-77539942D01*
X96132677Y-77545050D01*
X96083607Y-77555481D01*
X96040107Y-77555481D01*
X96000000Y-77560000D01*
X95959893Y-77555481D01*
X95916393Y-77555481D01*
X95867321Y-77545050D01*
X95821983Y-77539942D01*
X95789013Y-77528405D01*
X95752828Y-77520714D01*
X95700684Y-77497497D01*
X95652893Y-77480775D01*
X95628014Y-77465142D01*
X95600068Y-77452700D01*
X95547960Y-77414841D01*
X95501208Y-77385465D01*
X95484418Y-77368675D01*
X95464788Y-77354413D01*
X95416256Y-77300513D01*
X95374535Y-77258792D01*
X95364938Y-77243519D01*
X95352898Y-77230147D01*
X95311706Y-77158801D01*
X95279225Y-77107107D01*
X95275169Y-77095516D01*
X95269287Y-77085328D01*
X95239161Y-76992611D01*
X95220058Y-76938017D01*
X95219333Y-76931588D01*
X95217616Y-76926302D01*
X95202038Y-76778096D01*
X95200000Y-76760000D01*
X95202038Y-76741905D01*
X95217616Y-76593697D01*
X95219333Y-76588410D01*
X95220058Y-76581983D01*
X95239156Y-76527401D01*
X95269287Y-76434671D01*
X95275170Y-76424480D01*
X95279225Y-76412893D01*
X95311699Y-76361209D01*
X95352898Y-76289852D01*
X95364940Y-76276477D01*
X95374535Y-76261208D01*
X95416247Y-76219495D01*
X95464788Y-76165586D01*
X95484421Y-76151321D01*
X95501208Y-76134535D01*
X95547954Y-76105162D01*
X95600069Y-76067299D01*
X95628017Y-76054855D01*
X95652893Y-76039225D01*
X95700675Y-76022505D01*
X95752828Y-75999285D01*
X95789019Y-75991592D01*
X95821983Y-75980058D01*
X95867318Y-75974949D01*
X95916393Y-75964519D01*
X95959893Y-75964519D01*
X96000000Y-75960000D01*
X96040107Y-75964519D01*
G37*
G36*
X37838734Y-75197206D02*
G01*
X37854955Y-75208045D01*
X37865794Y-75224266D01*
X37869600Y-75243400D01*
X37869600Y-76970600D01*
X37865794Y-76989734D01*
X37854955Y-77005955D01*
X37838734Y-77016794D01*
X37819600Y-77020600D01*
X36092400Y-77020600D01*
X36073266Y-77016794D01*
X36057045Y-77005955D01*
X36046206Y-76989734D01*
X36042400Y-76970600D01*
X36042400Y-75243400D01*
X36046206Y-75224266D01*
X36057045Y-75208045D01*
X36073266Y-75197206D01*
X36092400Y-75193400D01*
X37819600Y-75193400D01*
X37838734Y-75197206D01*
G37*
G36*
X24538318Y-75238115D02*
G01*
X24712800Y-75315799D01*
X24867318Y-75428063D01*
X24995118Y-75569999D01*
X25090615Y-75735405D01*
X25149636Y-75917052D01*
X25169600Y-76107000D01*
X25149636Y-76296948D01*
X25090615Y-76478595D01*
X24995118Y-76644001D01*
X24867318Y-76785937D01*
X24712800Y-76898201D01*
X24538318Y-76975885D01*
X24351497Y-77015595D01*
X24160503Y-77015595D01*
X23973682Y-76975885D01*
X23799200Y-76898201D01*
X23644682Y-76785937D01*
X23516882Y-76644001D01*
X23421385Y-76478595D01*
X23362364Y-76296948D01*
X23342400Y-76107000D01*
X23362364Y-75917052D01*
X23421385Y-75735405D01*
X23516882Y-75569999D01*
X23644682Y-75428063D01*
X23799200Y-75315799D01*
X23973682Y-75238115D01*
X24160503Y-75198405D01*
X24351497Y-75198405D01*
X24538318Y-75238115D01*
G37*
G36*
X27078318Y-75238115D02*
G01*
X27252800Y-75315799D01*
X27407318Y-75428063D01*
X27535118Y-75569999D01*
X27630615Y-75735405D01*
X27689636Y-75917052D01*
X27709600Y-76107000D01*
X27689636Y-76296948D01*
X27630615Y-76478595D01*
X27535118Y-76644001D01*
X27407318Y-76785937D01*
X27252800Y-76898201D01*
X27078318Y-76975885D01*
X26891497Y-77015595D01*
X26700503Y-77015595D01*
X26513682Y-76975885D01*
X26339200Y-76898201D01*
X26184682Y-76785937D01*
X26056882Y-76644001D01*
X25961385Y-76478595D01*
X25902364Y-76296948D01*
X25882400Y-76107000D01*
X25902364Y-75917052D01*
X25961385Y-75735405D01*
X26056882Y-75569999D01*
X26184682Y-75428063D01*
X26339200Y-75315799D01*
X26513682Y-75238115D01*
X26700503Y-75198405D01*
X26891497Y-75198405D01*
X27078318Y-75238115D01*
G37*
G36*
X39778318Y-75238115D02*
G01*
X39952800Y-75315799D01*
X40107318Y-75428063D01*
X40235118Y-75569999D01*
X40330615Y-75735405D01*
X40389636Y-75917052D01*
X40409600Y-76107000D01*
X40389636Y-76296948D01*
X40330615Y-76478595D01*
X40235118Y-76644001D01*
X40107318Y-76785937D01*
X39952800Y-76898201D01*
X39778318Y-76975885D01*
X39591497Y-77015595D01*
X39400503Y-77015595D01*
X39213682Y-76975885D01*
X39039200Y-76898201D01*
X38884682Y-76785937D01*
X38756882Y-76644001D01*
X38661385Y-76478595D01*
X38602364Y-76296948D01*
X38582400Y-76107000D01*
X38602364Y-75917052D01*
X38661385Y-75735405D01*
X38756882Y-75569999D01*
X38884682Y-75428063D01*
X39039200Y-75315799D01*
X39213682Y-75238115D01*
X39400503Y-75198405D01*
X39591497Y-75198405D01*
X39778318Y-75238115D01*
G37*
G36*
X42318318Y-75238115D02*
G01*
X42492800Y-75315799D01*
X42647318Y-75428063D01*
X42775118Y-75569999D01*
X42870615Y-75735405D01*
X42929636Y-75917052D01*
X42949600Y-76107000D01*
X42929636Y-76296948D01*
X42870615Y-76478595D01*
X42775118Y-76644001D01*
X42647318Y-76785937D01*
X42492800Y-76898201D01*
X42318318Y-76975885D01*
X42131497Y-77015595D01*
X41940503Y-77015595D01*
X41753682Y-76975885D01*
X41579200Y-76898201D01*
X41424682Y-76785937D01*
X41296882Y-76644001D01*
X41201385Y-76478595D01*
X41142364Y-76296948D01*
X41122400Y-76107000D01*
X41142364Y-75917052D01*
X41201385Y-75735405D01*
X41296882Y-75569999D01*
X41424682Y-75428063D01*
X41579200Y-75315799D01*
X41753682Y-75238115D01*
X41940503Y-75198405D01*
X42131497Y-75198405D01*
X42318318Y-75238115D01*
G37*
G36*
X49938318Y-75238115D02*
G01*
X50112800Y-75315799D01*
X50267318Y-75428063D01*
X50395118Y-75569999D01*
X50490615Y-75735405D01*
X50549636Y-75917052D01*
X50569600Y-76107000D01*
X50549636Y-76296948D01*
X50490615Y-76478595D01*
X50395118Y-76644001D01*
X50267318Y-76785937D01*
X50112800Y-76898201D01*
X49938318Y-76975885D01*
X49751497Y-77015595D01*
X49560503Y-77015595D01*
X49373682Y-76975885D01*
X49199200Y-76898201D01*
X49044682Y-76785937D01*
X48916882Y-76644001D01*
X48821385Y-76478595D01*
X48762364Y-76296948D01*
X48742400Y-76107000D01*
X48762364Y-75917052D01*
X48821385Y-75735405D01*
X48916882Y-75569999D01*
X49044682Y-75428063D01*
X49199200Y-75315799D01*
X49373682Y-75238115D01*
X49560503Y-75198405D01*
X49751497Y-75198405D01*
X49938318Y-75238115D01*
G37*
G36*
X52478318Y-75238115D02*
G01*
X52652800Y-75315799D01*
X52807318Y-75428063D01*
X52935118Y-75569999D01*
X53030615Y-75735405D01*
X53089636Y-75917052D01*
X53109600Y-76107000D01*
X53089636Y-76296948D01*
X53030615Y-76478595D01*
X52935118Y-76644001D01*
X52807318Y-76785937D01*
X52652800Y-76898201D01*
X52478318Y-76975885D01*
X52291497Y-77015595D01*
X52100503Y-77015595D01*
X51913682Y-76975885D01*
X51739200Y-76898201D01*
X51584682Y-76785937D01*
X51456882Y-76644001D01*
X51361385Y-76478595D01*
X51302364Y-76296948D01*
X51282400Y-76107000D01*
X51302364Y-75917052D01*
X51361385Y-75735405D01*
X51456882Y-75569999D01*
X51584682Y-75428063D01*
X51739200Y-75315799D01*
X51913682Y-75238115D01*
X52100503Y-75198405D01*
X52291497Y-75198405D01*
X52478318Y-75238115D01*
G37*
G36*
X55018318Y-75238115D02*
G01*
X55192800Y-75315799D01*
X55347318Y-75428063D01*
X55475118Y-75569999D01*
X55570615Y-75735405D01*
X55629636Y-75917052D01*
X55649600Y-76107000D01*
X55629636Y-76296948D01*
X55570615Y-76478595D01*
X55475118Y-76644001D01*
X55347318Y-76785937D01*
X55192800Y-76898201D01*
X55018318Y-76975885D01*
X54831497Y-77015595D01*
X54640503Y-77015595D01*
X54453682Y-76975885D01*
X54279200Y-76898201D01*
X54124682Y-76785937D01*
X53996882Y-76644001D01*
X53901385Y-76478595D01*
X53842364Y-76296948D01*
X53822400Y-76107000D01*
X53842364Y-75917052D01*
X53901385Y-75735405D01*
X53996882Y-75569999D01*
X54124682Y-75428063D01*
X54279200Y-75315799D01*
X54453682Y-75238115D01*
X54640503Y-75198405D01*
X54831497Y-75198405D01*
X55018318Y-75238115D01*
G37*
G36*
X57558318Y-75238115D02*
G01*
X57732800Y-75315799D01*
X57887318Y-75428063D01*
X58015118Y-75569999D01*
X58110615Y-75735405D01*
X58169636Y-75917052D01*
X58189600Y-76107000D01*
X58169636Y-76296948D01*
X58110615Y-76478595D01*
X58015118Y-76644001D01*
X57887318Y-76785937D01*
X57732800Y-76898201D01*
X57558318Y-76975885D01*
X57371497Y-77015595D01*
X57180503Y-77015595D01*
X56993682Y-76975885D01*
X56819200Y-76898201D01*
X56664682Y-76785937D01*
X56536882Y-76644001D01*
X56441385Y-76478595D01*
X56382364Y-76296948D01*
X56362400Y-76107000D01*
X56382364Y-75917052D01*
X56441385Y-75735405D01*
X56536882Y-75569999D01*
X56664682Y-75428063D01*
X56819200Y-75315799D01*
X56993682Y-75238115D01*
X57180503Y-75198405D01*
X57371497Y-75198405D01*
X57558318Y-75238115D01*
G37*
G36*
X60098318Y-75238115D02*
G01*
X60272800Y-75315799D01*
X60427318Y-75428063D01*
X60555118Y-75569999D01*
X60650615Y-75735405D01*
X60709636Y-75917052D01*
X60729600Y-76107000D01*
X60709636Y-76296948D01*
X60650615Y-76478595D01*
X60555118Y-76644001D01*
X60427318Y-76785937D01*
X60272800Y-76898201D01*
X60098318Y-76975885D01*
X59911497Y-77015595D01*
X59720503Y-77015595D01*
X59533682Y-76975885D01*
X59359200Y-76898201D01*
X59204682Y-76785937D01*
X59076882Y-76644001D01*
X58981385Y-76478595D01*
X58922364Y-76296948D01*
X58902400Y-76107000D01*
X58922364Y-75917052D01*
X58981385Y-75735405D01*
X59076882Y-75569999D01*
X59204682Y-75428063D01*
X59359200Y-75315799D01*
X59533682Y-75238115D01*
X59720503Y-75198405D01*
X59911497Y-75198405D01*
X60098318Y-75238115D01*
G37*
G36*
X45905517Y-73318684D02*
G01*
X45969298Y-73318684D01*
X46038991Y-73329188D01*
X46104117Y-73334314D01*
X46156610Y-73346916D01*
X46213146Y-73355438D01*
X46287031Y-73378228D01*
X46355878Y-73394757D01*
X46400386Y-73413193D01*
X46448786Y-73428122D01*
X46524773Y-73464715D01*
X46595084Y-73493839D01*
X46631176Y-73515956D01*
X46670966Y-73535118D01*
X46746650Y-73586719D01*
X46815846Y-73629122D01*
X46843553Y-73652786D01*
X46874709Y-73674028D01*
X46947462Y-73741533D01*
X47012726Y-73797274D01*
X47032543Y-73820477D01*
X47055485Y-73841764D01*
X47122549Y-73925859D01*
X47180878Y-73994154D01*
X47193707Y-74015089D01*
X47209236Y-74034562D01*
X47267806Y-74136008D01*
X47316161Y-74214916D01*
X47323262Y-74232060D01*
X47332535Y-74248121D01*
X47379830Y-74368627D01*
X47415243Y-74454122D01*
X47418171Y-74466320D01*
X47422628Y-74477675D01*
X47455993Y-74623857D01*
X47475686Y-74705883D01*
X47476196Y-74712375D01*
X47477501Y-74718089D01*
X47494534Y-74945378D01*
X47496000Y-74964000D01*
X47494534Y-74982623D01*
X47477501Y-75209910D01*
X47476197Y-75215622D01*
X47475686Y-75222117D01*
X47455988Y-75304161D01*
X47422628Y-75450324D01*
X47418172Y-75461677D01*
X47415243Y-75473878D01*
X47379822Y-75559390D01*
X47332535Y-75679878D01*
X47323264Y-75695935D01*
X47316161Y-75713084D01*
X47267796Y-75792007D01*
X47209236Y-75893437D01*
X47193710Y-75912905D01*
X47180878Y-75933846D01*
X47122537Y-76002154D01*
X47055485Y-76086235D01*
X47032548Y-76107517D01*
X47012726Y-76130726D01*
X46947448Y-76186478D01*
X46874709Y-76253971D01*
X46843559Y-76275208D01*
X46815846Y-76298878D01*
X46746636Y-76341289D01*
X46670966Y-76392881D01*
X46631183Y-76412039D01*
X46595084Y-76434161D01*
X46524758Y-76463290D01*
X46448786Y-76499877D01*
X46400396Y-76514802D01*
X46355878Y-76533243D01*
X46287017Y-76549775D01*
X46213146Y-76572561D01*
X46156619Y-76581081D01*
X46104117Y-76593686D01*
X46038987Y-76598811D01*
X45969298Y-76609316D01*
X45905517Y-76609316D01*
X45846000Y-76614000D01*
X45786483Y-76609316D01*
X45722702Y-76609316D01*
X45653011Y-76598811D01*
X45587883Y-76593686D01*
X45535382Y-76581081D01*
X45478853Y-76572561D01*
X45404978Y-76549774D01*
X45336122Y-76533243D01*
X45291606Y-76514804D01*
X45243213Y-76499877D01*
X45167236Y-76463288D01*
X45096916Y-76434161D01*
X45060816Y-76412039D01*
X45021034Y-76392881D01*
X44945365Y-76341290D01*
X44876154Y-76298878D01*
X44848439Y-76275207D01*
X44817290Y-76253970D01*
X44744546Y-76186474D01*
X44679274Y-76130726D01*
X44659455Y-76107521D01*
X44636514Y-76086235D01*
X44569447Y-76002136D01*
X44511122Y-75933846D01*
X44498293Y-75912911D01*
X44482763Y-75893437D01*
X44424186Y-75791979D01*
X44375839Y-75713084D01*
X44368738Y-75695941D01*
X44359464Y-75679878D01*
X44312158Y-75559344D01*
X44276757Y-75473878D01*
X44273829Y-75461683D01*
X44269371Y-75450324D01*
X44235991Y-75304077D01*
X44216314Y-75222117D01*
X44215803Y-75215629D01*
X44214498Y-75209910D01*
X44197444Y-74982357D01*
X44196000Y-74964000D01*
X44197444Y-74945644D01*
X44214498Y-74718089D01*
X44215803Y-74712369D01*
X44216314Y-74705883D01*
X44235986Y-74623941D01*
X44269371Y-74477675D01*
X44273830Y-74466313D01*
X44276757Y-74454122D01*
X44312150Y-74368673D01*
X44359464Y-74248121D01*
X44368739Y-74232054D01*
X44375839Y-74214916D01*
X44424176Y-74136036D01*
X44482763Y-74034562D01*
X44498295Y-74015084D01*
X44511122Y-73994154D01*
X44569435Y-73925877D01*
X44636514Y-73841764D01*
X44659459Y-73820473D01*
X44679274Y-73797274D01*
X44744533Y-73741536D01*
X44817290Y-73674029D01*
X44848445Y-73652787D01*
X44876154Y-73629122D01*
X44945350Y-73586718D01*
X45021034Y-73535118D01*
X45060824Y-73515955D01*
X45096916Y-73493839D01*
X45167222Y-73464717D01*
X45243213Y-73428122D01*
X45291615Y-73413191D01*
X45336122Y-73394757D01*
X45404963Y-73378229D01*
X45478853Y-73355438D01*
X45535390Y-73346916D01*
X45587883Y-73334314D01*
X45653007Y-73329188D01*
X45722702Y-73318684D01*
X45786483Y-73318684D01*
X45846000Y-73314000D01*
X45905517Y-73318684D01*
G37*
G36*
X24538318Y-72698115D02*
G01*
X24712800Y-72775799D01*
X24867318Y-72888063D01*
X24995118Y-73029999D01*
X25090615Y-73195405D01*
X25149636Y-73377052D01*
X25169600Y-73567000D01*
X25149636Y-73756948D01*
X25090615Y-73938595D01*
X24995118Y-74104001D01*
X24867318Y-74245937D01*
X24712800Y-74358201D01*
X24538318Y-74435885D01*
X24351497Y-74475595D01*
X24160503Y-74475595D01*
X23973682Y-74435885D01*
X23799200Y-74358201D01*
X23644682Y-74245937D01*
X23516882Y-74104001D01*
X23421385Y-73938595D01*
X23362364Y-73756948D01*
X23342400Y-73567000D01*
X23362364Y-73377052D01*
X23421385Y-73195405D01*
X23516882Y-73029999D01*
X23644682Y-72888063D01*
X23799200Y-72775799D01*
X23973682Y-72698115D01*
X24160503Y-72658405D01*
X24351497Y-72658405D01*
X24538318Y-72698115D01*
G37*
G36*
X27078318Y-72698115D02*
G01*
X27252800Y-72775799D01*
X27407318Y-72888063D01*
X27535118Y-73029999D01*
X27630615Y-73195405D01*
X27689636Y-73377052D01*
X27709600Y-73567000D01*
X27689636Y-73756948D01*
X27630615Y-73938595D01*
X27535118Y-74104001D01*
X27407318Y-74245937D01*
X27252800Y-74358201D01*
X27078318Y-74435885D01*
X26891497Y-74475595D01*
X26700503Y-74475595D01*
X26513682Y-74435885D01*
X26339200Y-74358201D01*
X26184682Y-74245937D01*
X26056882Y-74104001D01*
X25961385Y-73938595D01*
X25902364Y-73756948D01*
X25882400Y-73567000D01*
X25902364Y-73377052D01*
X25961385Y-73195405D01*
X26056882Y-73029999D01*
X26184682Y-72888063D01*
X26339200Y-72775799D01*
X26513682Y-72698115D01*
X26700503Y-72658405D01*
X26891497Y-72658405D01*
X27078318Y-72698115D01*
G37*
G36*
X37238318Y-72698115D02*
G01*
X37412800Y-72775799D01*
X37567318Y-72888063D01*
X37695118Y-73029999D01*
X37790615Y-73195405D01*
X37849636Y-73377052D01*
X37869600Y-73567000D01*
X37849636Y-73756948D01*
X37790615Y-73938595D01*
X37695118Y-74104001D01*
X37567318Y-74245937D01*
X37412800Y-74358201D01*
X37238318Y-74435885D01*
X37051497Y-74475595D01*
X36860503Y-74475595D01*
X36673682Y-74435885D01*
X36499200Y-74358201D01*
X36344682Y-74245937D01*
X36216882Y-74104001D01*
X36121385Y-73938595D01*
X36062364Y-73756948D01*
X36042400Y-73567000D01*
X36062364Y-73377052D01*
X36121385Y-73195405D01*
X36216882Y-73029999D01*
X36344682Y-72888063D01*
X36499200Y-72775799D01*
X36673682Y-72698115D01*
X36860503Y-72658405D01*
X37051497Y-72658405D01*
X37238318Y-72698115D01*
G37*
G36*
X39778318Y-72698115D02*
G01*
X39952800Y-72775799D01*
X40107318Y-72888063D01*
X40235118Y-73029999D01*
X40330615Y-73195405D01*
X40389636Y-73377052D01*
X40409600Y-73567000D01*
X40389636Y-73756948D01*
X40330615Y-73938595D01*
X40235118Y-74104001D01*
X40107318Y-74245937D01*
X39952800Y-74358201D01*
X39778318Y-74435885D01*
X39591497Y-74475595D01*
X39400503Y-74475595D01*
X39213682Y-74435885D01*
X39039200Y-74358201D01*
X38884682Y-74245937D01*
X38756882Y-74104001D01*
X38661385Y-73938595D01*
X38602364Y-73756948D01*
X38582400Y-73567000D01*
X38602364Y-73377052D01*
X38661385Y-73195405D01*
X38756882Y-73029999D01*
X38884682Y-72888063D01*
X39039200Y-72775799D01*
X39213682Y-72698115D01*
X39400503Y-72658405D01*
X39591497Y-72658405D01*
X39778318Y-72698115D01*
G37*
G36*
X42318318Y-72698115D02*
G01*
X42492800Y-72775799D01*
X42647318Y-72888063D01*
X42775118Y-73029999D01*
X42870615Y-73195405D01*
X42929636Y-73377052D01*
X42949600Y-73567000D01*
X42929636Y-73756948D01*
X42870615Y-73938595D01*
X42775118Y-74104001D01*
X42647318Y-74245937D01*
X42492800Y-74358201D01*
X42318318Y-74435885D01*
X42131497Y-74475595D01*
X41940503Y-74475595D01*
X41753682Y-74435885D01*
X41579200Y-74358201D01*
X41424682Y-74245937D01*
X41296882Y-74104001D01*
X41201385Y-73938595D01*
X41142364Y-73756948D01*
X41122400Y-73567000D01*
X41142364Y-73377052D01*
X41201385Y-73195405D01*
X41296882Y-73029999D01*
X41424682Y-72888063D01*
X41579200Y-72775799D01*
X41753682Y-72698115D01*
X41940503Y-72658405D01*
X42131497Y-72658405D01*
X42318318Y-72698115D01*
G37*
G36*
X49938318Y-72698115D02*
G01*
X50112800Y-72775799D01*
X50267318Y-72888063D01*
X50395118Y-73029999D01*
X50490615Y-73195405D01*
X50549636Y-73377052D01*
X50569600Y-73567000D01*
X50549636Y-73756948D01*
X50490615Y-73938595D01*
X50395118Y-74104001D01*
X50267318Y-74245937D01*
X50112800Y-74358201D01*
X49938318Y-74435885D01*
X49751497Y-74475595D01*
X49560503Y-74475595D01*
X49373682Y-74435885D01*
X49199200Y-74358201D01*
X49044682Y-74245937D01*
X48916882Y-74104001D01*
X48821385Y-73938595D01*
X48762364Y-73756948D01*
X48742400Y-73567000D01*
X48762364Y-73377052D01*
X48821385Y-73195405D01*
X48916882Y-73029999D01*
X49044682Y-72888063D01*
X49199200Y-72775799D01*
X49373682Y-72698115D01*
X49560503Y-72658405D01*
X49751497Y-72658405D01*
X49938318Y-72698115D01*
G37*
G36*
X52478318Y-72698115D02*
G01*
X52652800Y-72775799D01*
X52807318Y-72888063D01*
X52935118Y-73029999D01*
X53030615Y-73195405D01*
X53089636Y-73377052D01*
X53109600Y-73567000D01*
X53089636Y-73756948D01*
X53030615Y-73938595D01*
X52935118Y-74104001D01*
X52807318Y-74245937D01*
X52652800Y-74358201D01*
X52478318Y-74435885D01*
X52291497Y-74475595D01*
X52100503Y-74475595D01*
X51913682Y-74435885D01*
X51739200Y-74358201D01*
X51584682Y-74245937D01*
X51456882Y-74104001D01*
X51361385Y-73938595D01*
X51302364Y-73756948D01*
X51282400Y-73567000D01*
X51302364Y-73377052D01*
X51361385Y-73195405D01*
X51456882Y-73029999D01*
X51584682Y-72888063D01*
X51739200Y-72775799D01*
X51913682Y-72698115D01*
X52100503Y-72658405D01*
X52291497Y-72658405D01*
X52478318Y-72698115D01*
G37*
G36*
X55018318Y-72698115D02*
G01*
X55192800Y-72775799D01*
X55347318Y-72888063D01*
X55475118Y-73029999D01*
X55570615Y-73195405D01*
X55629636Y-73377052D01*
X55649600Y-73567000D01*
X55629636Y-73756948D01*
X55570615Y-73938595D01*
X55475118Y-74104001D01*
X55347318Y-74245937D01*
X55192800Y-74358201D01*
X55018318Y-74435885D01*
X54831497Y-74475595D01*
X54640503Y-74475595D01*
X54453682Y-74435885D01*
X54279200Y-74358201D01*
X54124682Y-74245937D01*
X53996882Y-74104001D01*
X53901385Y-73938595D01*
X53842364Y-73756948D01*
X53822400Y-73567000D01*
X53842364Y-73377052D01*
X53901385Y-73195405D01*
X53996882Y-73029999D01*
X54124682Y-72888063D01*
X54279200Y-72775799D01*
X54453682Y-72698115D01*
X54640503Y-72658405D01*
X54831497Y-72658405D01*
X55018318Y-72698115D01*
G37*
G36*
X57558318Y-72698115D02*
G01*
X57732800Y-72775799D01*
X57887318Y-72888063D01*
X58015118Y-73029999D01*
X58110615Y-73195405D01*
X58169636Y-73377052D01*
X58189600Y-73567000D01*
X58169636Y-73756948D01*
X58110615Y-73938595D01*
X58015118Y-74104001D01*
X57887318Y-74245937D01*
X57732800Y-74358201D01*
X57558318Y-74435885D01*
X57371497Y-74475595D01*
X57180503Y-74475595D01*
X56993682Y-74435885D01*
X56819200Y-74358201D01*
X56664682Y-74245937D01*
X56536882Y-74104001D01*
X56441385Y-73938595D01*
X56382364Y-73756948D01*
X56362400Y-73567000D01*
X56382364Y-73377052D01*
X56441385Y-73195405D01*
X56536882Y-73029999D01*
X56664682Y-72888063D01*
X56819200Y-72775799D01*
X56993682Y-72698115D01*
X57180503Y-72658405D01*
X57371497Y-72658405D01*
X57558318Y-72698115D01*
G37*
G36*
X60098318Y-72698115D02*
G01*
X60272800Y-72775799D01*
X60427318Y-72888063D01*
X60555118Y-73029999D01*
X60650615Y-73195405D01*
X60709636Y-73377052D01*
X60729600Y-73567000D01*
X60709636Y-73756948D01*
X60650615Y-73938595D01*
X60555118Y-74104001D01*
X60427318Y-74245937D01*
X60272800Y-74358201D01*
X60098318Y-74435885D01*
X59911497Y-74475595D01*
X59720503Y-74475595D01*
X59533682Y-74435885D01*
X59359200Y-74358201D01*
X59204682Y-74245937D01*
X59076882Y-74104001D01*
X58981385Y-73938595D01*
X58922364Y-73756948D01*
X58902400Y-73567000D01*
X58922364Y-73377052D01*
X58981385Y-73195405D01*
X59076882Y-73029999D01*
X59204682Y-72888063D01*
X59359200Y-72775799D01*
X59533682Y-72698115D01*
X59720503Y-72658405D01*
X59911497Y-72658405D01*
X60098318Y-72698115D01*
G37*
G36*
X135417085Y-69992878D02*
G01*
X135686503Y-70068365D01*
X135943133Y-70179835D01*
X136182195Y-70325212D01*
X136399234Y-70501786D01*
X136590208Y-70706270D01*
X136751560Y-70934853D01*
X136880283Y-71183278D01*
X136973980Y-71446917D01*
X137030906Y-71720858D01*
X137050000Y-72000000D01*
X137030906Y-72279142D01*
X136973980Y-72553083D01*
X136880283Y-72816722D01*
X136751560Y-73065147D01*
X136590208Y-73293730D01*
X136399234Y-73498214D01*
X136182195Y-73674788D01*
X135943133Y-73820165D01*
X135686503Y-73931635D01*
X135417085Y-74007122D01*
X135139897Y-74045221D01*
X134860103Y-74045221D01*
X134582915Y-74007122D01*
X134313497Y-73931635D01*
X134056867Y-73820165D01*
X133817805Y-73674788D01*
X133600766Y-73498214D01*
X133409792Y-73293730D01*
X133248440Y-73065147D01*
X133119717Y-72816722D01*
X133026020Y-72553083D01*
X132969094Y-72279142D01*
X132950000Y-72000000D01*
X132969094Y-71720858D01*
X133026020Y-71446917D01*
X133119717Y-71183278D01*
X133248440Y-70934853D01*
X133409792Y-70706270D01*
X133600766Y-70501786D01*
X133817805Y-70325212D01*
X134056867Y-70179835D01*
X134313497Y-70068365D01*
X134582915Y-69992878D01*
X134860103Y-69954779D01*
X135139897Y-69954779D01*
X135417085Y-69992878D01*
G37*
G36*
X170417085Y-69992878D02*
G01*
X170686503Y-70068365D01*
X170943133Y-70179835D01*
X171182195Y-70325212D01*
X171399234Y-70501786D01*
X171590208Y-70706270D01*
X171751560Y-70934853D01*
X171880283Y-71183278D01*
X171973980Y-71446917D01*
X172030906Y-71720858D01*
X172050000Y-72000000D01*
X172030906Y-72279142D01*
X171973980Y-72553083D01*
X171880283Y-72816722D01*
X171751560Y-73065147D01*
X171590208Y-73293730D01*
X171399234Y-73498214D01*
X171182195Y-73674788D01*
X170943133Y-73820165D01*
X170686503Y-73931635D01*
X170417085Y-74007122D01*
X170139897Y-74045221D01*
X169860103Y-74045221D01*
X169582915Y-74007122D01*
X169313497Y-73931635D01*
X169056867Y-73820165D01*
X168817805Y-73674788D01*
X168600766Y-73498214D01*
X168409792Y-73293730D01*
X168248440Y-73065147D01*
X168119717Y-72816722D01*
X168026020Y-72553083D01*
X167969094Y-72279142D01*
X167950000Y-72000000D01*
X167969094Y-71720858D01*
X168026020Y-71446917D01*
X168119717Y-71183278D01*
X168248440Y-70934853D01*
X168409792Y-70706270D01*
X168600766Y-70501786D01*
X168817805Y-70325212D01*
X169056867Y-70179835D01*
X169313497Y-70068365D01*
X169582915Y-69992878D01*
X169860103Y-69954779D01*
X170139897Y-69954779D01*
X170417085Y-69992878D01*
G37*
G36*
X24538318Y-70158115D02*
G01*
X24712800Y-70235799D01*
X24867318Y-70348063D01*
X24995118Y-70489999D01*
X25090615Y-70655405D01*
X25149636Y-70837052D01*
X25169600Y-71027000D01*
X25149636Y-71216948D01*
X25090615Y-71398595D01*
X24995118Y-71564001D01*
X24867318Y-71705937D01*
X24712800Y-71818201D01*
X24538318Y-71895885D01*
X24351497Y-71935595D01*
X24160503Y-71935595D01*
X23973682Y-71895885D01*
X23799200Y-71818201D01*
X23644682Y-71705937D01*
X23516882Y-71564001D01*
X23421385Y-71398595D01*
X23362364Y-71216948D01*
X23342400Y-71027000D01*
X23362364Y-70837052D01*
X23421385Y-70655405D01*
X23516882Y-70489999D01*
X23644682Y-70348063D01*
X23799200Y-70235799D01*
X23973682Y-70158115D01*
X24160503Y-70118405D01*
X24351497Y-70118405D01*
X24538318Y-70158115D01*
G37*
G36*
X27078318Y-70158115D02*
G01*
X27252800Y-70235799D01*
X27407318Y-70348063D01*
X27535118Y-70489999D01*
X27630615Y-70655405D01*
X27689636Y-70837052D01*
X27709600Y-71027000D01*
X27689636Y-71216948D01*
X27630615Y-71398595D01*
X27535118Y-71564001D01*
X27407318Y-71705937D01*
X27252800Y-71818201D01*
X27078318Y-71895885D01*
X26891497Y-71935595D01*
X26700503Y-71935595D01*
X26513682Y-71895885D01*
X26339200Y-71818201D01*
X26184682Y-71705937D01*
X26056882Y-71564001D01*
X25961385Y-71398595D01*
X25902364Y-71216948D01*
X25882400Y-71027000D01*
X25902364Y-70837052D01*
X25961385Y-70655405D01*
X26056882Y-70489999D01*
X26184682Y-70348063D01*
X26339200Y-70235799D01*
X26513682Y-70158115D01*
X26700503Y-70118405D01*
X26891497Y-70118405D01*
X27078318Y-70158115D01*
G37*
G36*
X57558318Y-70158115D02*
G01*
X57732800Y-70235799D01*
X57887318Y-70348063D01*
X58015118Y-70489999D01*
X58110615Y-70655405D01*
X58169636Y-70837052D01*
X58189600Y-71027000D01*
X58169636Y-71216948D01*
X58110615Y-71398595D01*
X58015118Y-71564001D01*
X57887318Y-71705937D01*
X57732800Y-71818201D01*
X57558318Y-71895885D01*
X57371497Y-71935595D01*
X57180503Y-71935595D01*
X56993682Y-71895885D01*
X56819200Y-71818201D01*
X56664682Y-71705937D01*
X56536882Y-71564001D01*
X56441385Y-71398595D01*
X56382364Y-71216948D01*
X56362400Y-71027000D01*
X56382364Y-70837052D01*
X56441385Y-70655405D01*
X56536882Y-70489999D01*
X56664682Y-70348063D01*
X56819200Y-70235799D01*
X56993682Y-70158115D01*
X57180503Y-70118405D01*
X57371497Y-70118405D01*
X57558318Y-70158115D01*
G37*
G36*
X60098318Y-70158115D02*
G01*
X60272800Y-70235799D01*
X60427318Y-70348063D01*
X60555118Y-70489999D01*
X60650615Y-70655405D01*
X60709636Y-70837052D01*
X60729600Y-71027000D01*
X60709636Y-71216948D01*
X60650615Y-71398595D01*
X60555118Y-71564001D01*
X60427318Y-71705937D01*
X60272800Y-71818201D01*
X60098318Y-71895885D01*
X59911497Y-71935595D01*
X59720503Y-71935595D01*
X59533682Y-71895885D01*
X59359200Y-71818201D01*
X59204682Y-71705937D01*
X59076882Y-71564001D01*
X58981385Y-71398595D01*
X58922364Y-71216948D01*
X58902400Y-71027000D01*
X58922364Y-70837052D01*
X58981385Y-70655405D01*
X59076882Y-70489999D01*
X59204682Y-70348063D01*
X59359200Y-70235799D01*
X59533682Y-70158115D01*
X59720503Y-70118405D01*
X59911497Y-70118405D01*
X60098318Y-70158115D01*
G37*
G36*
X24538318Y-67618115D02*
G01*
X24712800Y-67695799D01*
X24867318Y-67808063D01*
X24995118Y-67949999D01*
X25090615Y-68115405D01*
X25149636Y-68297052D01*
X25169600Y-68487000D01*
X25149636Y-68676948D01*
X25090615Y-68858595D01*
X24995118Y-69024001D01*
X24867318Y-69165937D01*
X24712800Y-69278201D01*
X24538318Y-69355885D01*
X24351497Y-69395595D01*
X24160503Y-69395595D01*
X23973682Y-69355885D01*
X23799200Y-69278201D01*
X23644682Y-69165937D01*
X23516882Y-69024001D01*
X23421385Y-68858595D01*
X23362364Y-68676948D01*
X23342400Y-68487000D01*
X23362364Y-68297052D01*
X23421385Y-68115405D01*
X23516882Y-67949999D01*
X23644682Y-67808063D01*
X23799200Y-67695799D01*
X23973682Y-67618115D01*
X24160503Y-67578405D01*
X24351497Y-67578405D01*
X24538318Y-67618115D01*
G37*
G36*
X27078318Y-67618115D02*
G01*
X27252800Y-67695799D01*
X27407318Y-67808063D01*
X27535118Y-67949999D01*
X27630615Y-68115405D01*
X27689636Y-68297052D01*
X27709600Y-68487000D01*
X27689636Y-68676948D01*
X27630615Y-68858595D01*
X27535118Y-69024001D01*
X27407318Y-69165937D01*
X27252800Y-69278201D01*
X27078318Y-69355885D01*
X26891497Y-69395595D01*
X26700503Y-69395595D01*
X26513682Y-69355885D01*
X26339200Y-69278201D01*
X26184682Y-69165937D01*
X26056882Y-69024001D01*
X25961385Y-68858595D01*
X25902364Y-68676948D01*
X25882400Y-68487000D01*
X25902364Y-68297052D01*
X25961385Y-68115405D01*
X26056882Y-67949999D01*
X26184682Y-67808063D01*
X26339200Y-67695799D01*
X26513682Y-67618115D01*
X26700503Y-67578405D01*
X26891497Y-67578405D01*
X27078318Y-67618115D01*
G37*
G36*
X57558318Y-67618115D02*
G01*
X57732800Y-67695799D01*
X57887318Y-67808063D01*
X58015118Y-67949999D01*
X58110615Y-68115405D01*
X58169636Y-68297052D01*
X58189600Y-68487000D01*
X58169636Y-68676948D01*
X58110615Y-68858595D01*
X58015118Y-69024001D01*
X57887318Y-69165937D01*
X57732800Y-69278201D01*
X57558318Y-69355885D01*
X57371497Y-69395595D01*
X57180503Y-69395595D01*
X56993682Y-69355885D01*
X56819200Y-69278201D01*
X56664682Y-69165937D01*
X56536882Y-69024001D01*
X56441385Y-68858595D01*
X56382364Y-68676948D01*
X56362400Y-68487000D01*
X56382364Y-68297052D01*
X56441385Y-68115405D01*
X56536882Y-67949999D01*
X56664682Y-67808063D01*
X56819200Y-67695799D01*
X56993682Y-67618115D01*
X57180503Y-67578405D01*
X57371497Y-67578405D01*
X57558318Y-67618115D01*
G37*
G36*
X60098318Y-67618115D02*
G01*
X60272800Y-67695799D01*
X60427318Y-67808063D01*
X60555118Y-67949999D01*
X60650615Y-68115405D01*
X60709636Y-68297052D01*
X60729600Y-68487000D01*
X60709636Y-68676948D01*
X60650615Y-68858595D01*
X60555118Y-69024001D01*
X60427318Y-69165937D01*
X60272800Y-69278201D01*
X60098318Y-69355885D01*
X59911497Y-69395595D01*
X59720503Y-69395595D01*
X59533682Y-69355885D01*
X59359200Y-69278201D01*
X59204682Y-69165937D01*
X59076882Y-69024001D01*
X58981385Y-68858595D01*
X58922364Y-68676948D01*
X58902400Y-68487000D01*
X58922364Y-68297052D01*
X58981385Y-68115405D01*
X59076882Y-67949999D01*
X59204682Y-67808063D01*
X59359200Y-67695799D01*
X59533682Y-67618115D01*
X59720503Y-67578405D01*
X59911497Y-67578405D01*
X60098318Y-67618115D01*
G37*
G36*
X24538318Y-65078115D02*
G01*
X24712800Y-65155799D01*
X24867318Y-65268063D01*
X24995118Y-65409999D01*
X25090615Y-65575405D01*
X25149636Y-65757052D01*
X25169600Y-65947000D01*
X25149636Y-66136948D01*
X25090615Y-66318595D01*
X24995118Y-66484001D01*
X24867318Y-66625937D01*
X24712800Y-66738201D01*
X24538318Y-66815885D01*
X24351497Y-66855595D01*
X24160503Y-66855595D01*
X23973682Y-66815885D01*
X23799200Y-66738201D01*
X23644682Y-66625937D01*
X23516882Y-66484001D01*
X23421385Y-66318595D01*
X23362364Y-66136948D01*
X23342400Y-65947000D01*
X23362364Y-65757052D01*
X23421385Y-65575405D01*
X23516882Y-65409999D01*
X23644682Y-65268063D01*
X23799200Y-65155799D01*
X23973682Y-65078115D01*
X24160503Y-65038405D01*
X24351497Y-65038405D01*
X24538318Y-65078115D01*
G37*
G36*
X27078318Y-65078115D02*
G01*
X27252800Y-65155799D01*
X27407318Y-65268063D01*
X27535118Y-65409999D01*
X27630615Y-65575405D01*
X27689636Y-65757052D01*
X27709600Y-65947000D01*
X27689636Y-66136948D01*
X27630615Y-66318595D01*
X27535118Y-66484001D01*
X27407318Y-66625937D01*
X27252800Y-66738201D01*
X27078318Y-66815885D01*
X26891497Y-66855595D01*
X26700503Y-66855595D01*
X26513682Y-66815885D01*
X26339200Y-66738201D01*
X26184682Y-66625937D01*
X26056882Y-66484001D01*
X25961385Y-66318595D01*
X25902364Y-66136948D01*
X25882400Y-65947000D01*
X25902364Y-65757052D01*
X25961385Y-65575405D01*
X26056882Y-65409999D01*
X26184682Y-65268063D01*
X26339200Y-65155799D01*
X26513682Y-65078115D01*
X26700503Y-65038405D01*
X26891497Y-65038405D01*
X27078318Y-65078115D01*
G37*
G36*
X57558318Y-65078115D02*
G01*
X57732800Y-65155799D01*
X57887318Y-65268063D01*
X58015118Y-65409999D01*
X58110615Y-65575405D01*
X58169636Y-65757052D01*
X58189600Y-65947000D01*
X58169636Y-66136948D01*
X58110615Y-66318595D01*
X58015118Y-66484001D01*
X57887318Y-66625937D01*
X57732800Y-66738201D01*
X57558318Y-66815885D01*
X57371497Y-66855595D01*
X57180503Y-66855595D01*
X56993682Y-66815885D01*
X56819200Y-66738201D01*
X56664682Y-66625937D01*
X56536882Y-66484001D01*
X56441385Y-66318595D01*
X56382364Y-66136948D01*
X56362400Y-65947000D01*
X56382364Y-65757052D01*
X56441385Y-65575405D01*
X56536882Y-65409999D01*
X56664682Y-65268063D01*
X56819200Y-65155799D01*
X56993682Y-65078115D01*
X57180503Y-65038405D01*
X57371497Y-65038405D01*
X57558318Y-65078115D01*
G37*
G36*
X60098318Y-65078115D02*
G01*
X60272800Y-65155799D01*
X60427318Y-65268063D01*
X60555118Y-65409999D01*
X60650615Y-65575405D01*
X60709636Y-65757052D01*
X60729600Y-65947000D01*
X60709636Y-66136948D01*
X60650615Y-66318595D01*
X60555118Y-66484001D01*
X60427318Y-66625937D01*
X60272800Y-66738201D01*
X60098318Y-66815885D01*
X59911497Y-66855595D01*
X59720503Y-66855595D01*
X59533682Y-66815885D01*
X59359200Y-66738201D01*
X59204682Y-66625937D01*
X59076882Y-66484001D01*
X58981385Y-66318595D01*
X58922364Y-66136948D01*
X58902400Y-65947000D01*
X58922364Y-65757052D01*
X58981385Y-65575405D01*
X59076882Y-65409999D01*
X59204682Y-65268063D01*
X59359200Y-65155799D01*
X59533682Y-65078115D01*
X59720503Y-65038405D01*
X59911497Y-65038405D01*
X60098318Y-65078115D01*
G37*
G36*
X24538318Y-62538115D02*
G01*
X24712800Y-62615799D01*
X24867318Y-62728063D01*
X24995118Y-62869999D01*
X25090615Y-63035405D01*
X25149636Y-63217052D01*
X25169600Y-63407000D01*
X25149636Y-63596948D01*
X25090615Y-63778595D01*
X24995118Y-63944001D01*
X24867318Y-64085937D01*
X24712800Y-64198201D01*
X24538318Y-64275885D01*
X24351497Y-64315595D01*
X24160503Y-64315595D01*
X23973682Y-64275885D01*
X23799200Y-64198201D01*
X23644682Y-64085937D01*
X23516882Y-63944001D01*
X23421385Y-63778595D01*
X23362364Y-63596948D01*
X23342400Y-63407000D01*
X23362364Y-63217052D01*
X23421385Y-63035405D01*
X23516882Y-62869999D01*
X23644682Y-62728063D01*
X23799200Y-62615799D01*
X23973682Y-62538115D01*
X24160503Y-62498405D01*
X24351497Y-62498405D01*
X24538318Y-62538115D01*
G37*
G36*
X27078318Y-62538115D02*
G01*
X27252800Y-62615799D01*
X27407318Y-62728063D01*
X27535118Y-62869999D01*
X27630615Y-63035405D01*
X27689636Y-63217052D01*
X27709600Y-63407000D01*
X27689636Y-63596948D01*
X27630615Y-63778595D01*
X27535118Y-63944001D01*
X27407318Y-64085937D01*
X27252800Y-64198201D01*
X27078318Y-64275885D01*
X26891497Y-64315595D01*
X26700503Y-64315595D01*
X26513682Y-64275885D01*
X26339200Y-64198201D01*
X26184682Y-64085937D01*
X26056882Y-63944001D01*
X25961385Y-63778595D01*
X25902364Y-63596948D01*
X25882400Y-63407000D01*
X25902364Y-63217052D01*
X25961385Y-63035405D01*
X26056882Y-62869999D01*
X26184682Y-62728063D01*
X26339200Y-62615799D01*
X26513682Y-62538115D01*
X26700503Y-62498405D01*
X26891497Y-62498405D01*
X27078318Y-62538115D01*
G37*
G36*
X57558318Y-62538115D02*
G01*
X57732800Y-62615799D01*
X57887318Y-62728063D01*
X58015118Y-62869999D01*
X58110615Y-63035405D01*
X58169636Y-63217052D01*
X58189600Y-63407000D01*
X58169636Y-63596948D01*
X58110615Y-63778595D01*
X58015118Y-63944001D01*
X57887318Y-64085937D01*
X57732800Y-64198201D01*
X57558318Y-64275885D01*
X57371497Y-64315595D01*
X57180503Y-64315595D01*
X56993682Y-64275885D01*
X56819200Y-64198201D01*
X56664682Y-64085937D01*
X56536882Y-63944001D01*
X56441385Y-63778595D01*
X56382364Y-63596948D01*
X56362400Y-63407000D01*
X56382364Y-63217052D01*
X56441385Y-63035405D01*
X56536882Y-62869999D01*
X56664682Y-62728063D01*
X56819200Y-62615799D01*
X56993682Y-62538115D01*
X57180503Y-62498405D01*
X57371497Y-62498405D01*
X57558318Y-62538115D01*
G37*
G36*
X60098318Y-62538115D02*
G01*
X60272800Y-62615799D01*
X60427318Y-62728063D01*
X60555118Y-62869999D01*
X60650615Y-63035405D01*
X60709636Y-63217052D01*
X60729600Y-63407000D01*
X60709636Y-63596948D01*
X60650615Y-63778595D01*
X60555118Y-63944001D01*
X60427318Y-64085937D01*
X60272800Y-64198201D01*
X60098318Y-64275885D01*
X59911497Y-64315595D01*
X59720503Y-64315595D01*
X59533682Y-64275885D01*
X59359200Y-64198201D01*
X59204682Y-64085937D01*
X59076882Y-63944001D01*
X58981385Y-63778595D01*
X58922364Y-63596948D01*
X58902400Y-63407000D01*
X58922364Y-63217052D01*
X58981385Y-63035405D01*
X59076882Y-62869999D01*
X59204682Y-62728063D01*
X59359200Y-62615799D01*
X59533682Y-62538115D01*
X59720503Y-62498405D01*
X59911497Y-62498405D01*
X60098318Y-62538115D01*
G37*
G36*
X24538318Y-59998115D02*
G01*
X24712800Y-60075799D01*
X24867318Y-60188063D01*
X24995118Y-60329999D01*
X25090615Y-60495405D01*
X25149636Y-60677052D01*
X25169600Y-60867000D01*
X25149636Y-61056948D01*
X25090615Y-61238595D01*
X24995118Y-61404001D01*
X24867318Y-61545937D01*
X24712800Y-61658201D01*
X24538318Y-61735885D01*
X24351497Y-61775595D01*
X24160503Y-61775595D01*
X23973682Y-61735885D01*
X23799200Y-61658201D01*
X23644682Y-61545937D01*
X23516882Y-61404001D01*
X23421385Y-61238595D01*
X23362364Y-61056948D01*
X23342400Y-60867000D01*
X23362364Y-60677052D01*
X23421385Y-60495405D01*
X23516882Y-60329999D01*
X23644682Y-60188063D01*
X23799200Y-60075799D01*
X23973682Y-59998115D01*
X24160503Y-59958405D01*
X24351497Y-59958405D01*
X24538318Y-59998115D01*
G37*
G36*
X27078318Y-59998115D02*
G01*
X27252800Y-60075799D01*
X27407318Y-60188063D01*
X27535118Y-60329999D01*
X27630615Y-60495405D01*
X27689636Y-60677052D01*
X27709600Y-60867000D01*
X27689636Y-61056948D01*
X27630615Y-61238595D01*
X27535118Y-61404001D01*
X27407318Y-61545937D01*
X27252800Y-61658201D01*
X27078318Y-61735885D01*
X26891497Y-61775595D01*
X26700503Y-61775595D01*
X26513682Y-61735885D01*
X26339200Y-61658201D01*
X26184682Y-61545937D01*
X26056882Y-61404001D01*
X25961385Y-61238595D01*
X25902364Y-61056948D01*
X25882400Y-60867000D01*
X25902364Y-60677052D01*
X25961385Y-60495405D01*
X26056882Y-60329999D01*
X26184682Y-60188063D01*
X26339200Y-60075799D01*
X26513682Y-59998115D01*
X26700503Y-59958405D01*
X26891497Y-59958405D01*
X27078318Y-59998115D01*
G37*
G36*
X57558318Y-59998115D02*
G01*
X57732800Y-60075799D01*
X57887318Y-60188063D01*
X58015118Y-60329999D01*
X58110615Y-60495405D01*
X58169636Y-60677052D01*
X58189600Y-60867000D01*
X58169636Y-61056948D01*
X58110615Y-61238595D01*
X58015118Y-61404001D01*
X57887318Y-61545937D01*
X57732800Y-61658201D01*
X57558318Y-61735885D01*
X57371497Y-61775595D01*
X57180503Y-61775595D01*
X56993682Y-61735885D01*
X56819200Y-61658201D01*
X56664682Y-61545937D01*
X56536882Y-61404001D01*
X56441385Y-61238595D01*
X56382364Y-61056948D01*
X56362400Y-60867000D01*
X56382364Y-60677052D01*
X56441385Y-60495405D01*
X56536882Y-60329999D01*
X56664682Y-60188063D01*
X56819200Y-60075799D01*
X56993682Y-59998115D01*
X57180503Y-59958405D01*
X57371497Y-59958405D01*
X57558318Y-59998115D01*
G37*
G36*
X60098318Y-59998115D02*
G01*
X60272800Y-60075799D01*
X60427318Y-60188063D01*
X60555118Y-60329999D01*
X60650615Y-60495405D01*
X60709636Y-60677052D01*
X60729600Y-60867000D01*
X60709636Y-61056948D01*
X60650615Y-61238595D01*
X60555118Y-61404001D01*
X60427318Y-61545937D01*
X60272800Y-61658201D01*
X60098318Y-61735885D01*
X59911497Y-61775595D01*
X59720503Y-61775595D01*
X59533682Y-61735885D01*
X59359200Y-61658201D01*
X59204682Y-61545937D01*
X59076882Y-61404001D01*
X58981385Y-61238595D01*
X58922364Y-61056948D01*
X58902400Y-60867000D01*
X58922364Y-60677052D01*
X58981385Y-60495405D01*
X59076882Y-60329999D01*
X59204682Y-60188063D01*
X59359200Y-60075799D01*
X59533682Y-59998115D01*
X59720503Y-59958405D01*
X59911497Y-59958405D01*
X60098318Y-59998115D01*
G37*
G36*
X84069134Y-60088806D02*
G01*
X84085355Y-60099645D01*
X84096194Y-60115866D01*
X84100000Y-60135000D01*
X84100000Y-61635000D01*
X84096194Y-61654134D01*
X84085355Y-61670355D01*
X84069134Y-61681194D01*
X84050000Y-61685000D01*
X82550000Y-61685000D01*
X82530866Y-61681194D01*
X82514645Y-61670355D01*
X82503806Y-61654134D01*
X82500000Y-61635000D01*
X82500000Y-60135000D01*
X82503806Y-60115866D01*
X82514645Y-60099645D01*
X82530866Y-60088806D01*
X82550000Y-60085000D01*
X84050000Y-60085000D01*
X84069134Y-60088806D01*
G37*
G36*
X85880107Y-60089519D02*
G01*
X85923607Y-60089519D01*
X85972680Y-60099949D01*
X86018017Y-60105058D01*
X86050982Y-60116592D01*
X86087171Y-60124285D01*
X86139321Y-60147504D01*
X86187107Y-60164225D01*
X86211982Y-60179855D01*
X86239931Y-60192299D01*
X86292042Y-60230160D01*
X86338792Y-60259535D01*
X86355580Y-60276323D01*
X86375211Y-60290586D01*
X86423742Y-60344485D01*
X86465465Y-60386208D01*
X86475061Y-60401481D01*
X86487101Y-60414852D01*
X86528288Y-60486190D01*
X86560775Y-60537893D01*
X86564831Y-60549485D01*
X86570712Y-60559671D01*
X86600829Y-60652361D01*
X86619942Y-60706983D01*
X86620666Y-60713414D01*
X86622383Y-60718697D01*
X86637946Y-60866773D01*
X86640000Y-60885000D01*
X86637946Y-60903228D01*
X86622383Y-61051302D01*
X86620666Y-61056583D01*
X86619942Y-61063017D01*
X86600824Y-61117651D01*
X86570712Y-61210328D01*
X86564832Y-61220512D01*
X86560775Y-61232107D01*
X86528280Y-61283820D01*
X86487101Y-61355147D01*
X86475063Y-61368515D01*
X86465465Y-61383792D01*
X86423733Y-61425523D01*
X86375211Y-61479413D01*
X86355584Y-61493672D01*
X86338792Y-61510465D01*
X86292032Y-61539846D01*
X86239931Y-61577700D01*
X86211988Y-61590141D01*
X86187107Y-61605775D01*
X86139310Y-61622499D01*
X86087171Y-61645714D01*
X86050987Y-61653405D01*
X86018017Y-61664942D01*
X85972677Y-61670050D01*
X85923607Y-61680481D01*
X85880107Y-61680481D01*
X85840000Y-61685000D01*
X85799893Y-61680481D01*
X85756393Y-61680481D01*
X85707321Y-61670050D01*
X85661983Y-61664942D01*
X85629013Y-61653405D01*
X85592828Y-61645714D01*
X85540684Y-61622497D01*
X85492893Y-61605775D01*
X85468014Y-61590142D01*
X85440068Y-61577700D01*
X85387960Y-61539841D01*
X85341208Y-61510465D01*
X85324418Y-61493675D01*
X85304788Y-61479413D01*
X85256256Y-61425513D01*
X85214535Y-61383792D01*
X85204938Y-61368519D01*
X85192898Y-61355147D01*
X85151706Y-61283801D01*
X85119225Y-61232107D01*
X85115169Y-61220516D01*
X85109287Y-61210328D01*
X85079161Y-61117611D01*
X85060058Y-61063017D01*
X85059333Y-61056588D01*
X85057616Y-61051302D01*
X85042038Y-60903096D01*
X85040000Y-60885000D01*
X85042038Y-60866905D01*
X85057616Y-60718697D01*
X85059333Y-60713410D01*
X85060058Y-60706983D01*
X85079156Y-60652401D01*
X85109287Y-60559671D01*
X85115170Y-60549480D01*
X85119225Y-60537893D01*
X85151699Y-60486209D01*
X85192898Y-60414852D01*
X85204940Y-60401477D01*
X85214535Y-60386208D01*
X85256247Y-60344495D01*
X85304788Y-60290586D01*
X85324421Y-60276321D01*
X85341208Y-60259535D01*
X85387954Y-60230162D01*
X85440069Y-60192299D01*
X85468017Y-60179855D01*
X85492893Y-60164225D01*
X85540675Y-60147505D01*
X85592828Y-60124285D01*
X85629019Y-60116592D01*
X85661983Y-60105058D01*
X85707318Y-60099949D01*
X85756393Y-60089519D01*
X85799893Y-60089519D01*
X85840000Y-60085000D01*
X85880107Y-60089519D01*
G37*
G36*
X88420107Y-60089519D02*
G01*
X88463607Y-60089519D01*
X88512680Y-60099949D01*
X88558017Y-60105058D01*
X88590982Y-60116592D01*
X88627171Y-60124285D01*
X88679321Y-60147504D01*
X88727107Y-60164225D01*
X88751982Y-60179855D01*
X88779931Y-60192299D01*
X88832042Y-60230160D01*
X88878792Y-60259535D01*
X88895580Y-60276323D01*
X88915211Y-60290586D01*
X88963742Y-60344485D01*
X89005465Y-60386208D01*
X89015061Y-60401481D01*
X89027101Y-60414852D01*
X89068288Y-60486190D01*
X89100775Y-60537893D01*
X89104831Y-60549485D01*
X89110712Y-60559671D01*
X89140829Y-60652361D01*
X89159942Y-60706983D01*
X89160666Y-60713414D01*
X89162383Y-60718697D01*
X89177946Y-60866773D01*
X89180000Y-60885000D01*
X89177946Y-60903228D01*
X89162383Y-61051302D01*
X89160666Y-61056583D01*
X89159942Y-61063017D01*
X89140824Y-61117651D01*
X89110712Y-61210328D01*
X89104832Y-61220512D01*
X89100775Y-61232107D01*
X89068280Y-61283820D01*
X89027101Y-61355147D01*
X89015063Y-61368515D01*
X89005465Y-61383792D01*
X88963733Y-61425523D01*
X88915211Y-61479413D01*
X88895584Y-61493672D01*
X88878792Y-61510465D01*
X88832032Y-61539846D01*
X88779931Y-61577700D01*
X88751988Y-61590141D01*
X88727107Y-61605775D01*
X88679310Y-61622499D01*
X88627171Y-61645714D01*
X88590987Y-61653405D01*
X88558017Y-61664942D01*
X88512677Y-61670050D01*
X88463607Y-61680481D01*
X88420107Y-61680481D01*
X88380000Y-61685000D01*
X88339893Y-61680481D01*
X88296393Y-61680481D01*
X88247321Y-61670050D01*
X88201983Y-61664942D01*
X88169013Y-61653405D01*
X88132828Y-61645714D01*
X88080684Y-61622497D01*
X88032893Y-61605775D01*
X88008014Y-61590142D01*
X87980068Y-61577700D01*
X87927960Y-61539841D01*
X87881208Y-61510465D01*
X87864418Y-61493675D01*
X87844788Y-61479413D01*
X87796256Y-61425513D01*
X87754535Y-61383792D01*
X87744938Y-61368519D01*
X87732898Y-61355147D01*
X87691706Y-61283801D01*
X87659225Y-61232107D01*
X87655169Y-61220516D01*
X87649287Y-61210328D01*
X87619161Y-61117611D01*
X87600058Y-61063017D01*
X87599333Y-61056588D01*
X87597616Y-61051302D01*
X87582038Y-60903096D01*
X87580000Y-60885000D01*
X87582038Y-60866905D01*
X87597616Y-60718697D01*
X87599333Y-60713410D01*
X87600058Y-60706983D01*
X87619156Y-60652401D01*
X87649287Y-60559671D01*
X87655170Y-60549480D01*
X87659225Y-60537893D01*
X87691699Y-60486209D01*
X87732898Y-60414852D01*
X87744940Y-60401477D01*
X87754535Y-60386208D01*
X87796247Y-60344495D01*
X87844788Y-60290586D01*
X87864421Y-60276321D01*
X87881208Y-60259535D01*
X87927954Y-60230162D01*
X87980069Y-60192299D01*
X88008017Y-60179855D01*
X88032893Y-60164225D01*
X88080675Y-60147505D01*
X88132828Y-60124285D01*
X88169019Y-60116592D01*
X88201983Y-60105058D01*
X88247318Y-60099949D01*
X88296393Y-60089519D01*
X88339893Y-60089519D01*
X88380000Y-60085000D01*
X88420107Y-60089519D01*
G37*
G36*
X90960107Y-60089519D02*
G01*
X91003607Y-60089519D01*
X91052680Y-60099949D01*
X91098017Y-60105058D01*
X91130982Y-60116592D01*
X91167171Y-60124285D01*
X91219321Y-60147504D01*
X91267107Y-60164225D01*
X91291982Y-60179855D01*
X91319931Y-60192299D01*
X91372042Y-60230160D01*
X91418792Y-60259535D01*
X91435580Y-60276323D01*
X91455211Y-60290586D01*
X91503742Y-60344485D01*
X91545465Y-60386208D01*
X91555061Y-60401481D01*
X91567101Y-60414852D01*
X91608288Y-60486190D01*
X91640775Y-60537893D01*
X91644831Y-60549485D01*
X91650712Y-60559671D01*
X91680829Y-60652361D01*
X91699942Y-60706983D01*
X91700666Y-60713414D01*
X91702383Y-60718697D01*
X91717946Y-60866773D01*
X91720000Y-60885000D01*
X91717946Y-60903228D01*
X91702383Y-61051302D01*
X91700666Y-61056583D01*
X91699942Y-61063017D01*
X91680824Y-61117651D01*
X91650712Y-61210328D01*
X91644832Y-61220512D01*
X91640775Y-61232107D01*
X91608280Y-61283820D01*
X91567101Y-61355147D01*
X91555063Y-61368515D01*
X91545465Y-61383792D01*
X91503733Y-61425523D01*
X91455211Y-61479413D01*
X91435584Y-61493672D01*
X91418792Y-61510465D01*
X91372032Y-61539846D01*
X91319931Y-61577700D01*
X91291988Y-61590141D01*
X91267107Y-61605775D01*
X91219310Y-61622499D01*
X91167171Y-61645714D01*
X91130987Y-61653405D01*
X91098017Y-61664942D01*
X91052677Y-61670050D01*
X91003607Y-61680481D01*
X90960107Y-61680481D01*
X90920000Y-61685000D01*
X90879893Y-61680481D01*
X90836393Y-61680481D01*
X90787321Y-61670050D01*
X90741983Y-61664942D01*
X90709013Y-61653405D01*
X90672828Y-61645714D01*
X90620684Y-61622497D01*
X90572893Y-61605775D01*
X90548014Y-61590142D01*
X90520068Y-61577700D01*
X90467960Y-61539841D01*
X90421208Y-61510465D01*
X90404418Y-61493675D01*
X90384788Y-61479413D01*
X90336256Y-61425513D01*
X90294535Y-61383792D01*
X90284938Y-61368519D01*
X90272898Y-61355147D01*
X90231706Y-61283801D01*
X90199225Y-61232107D01*
X90195169Y-61220516D01*
X90189287Y-61210328D01*
X90159161Y-61117611D01*
X90140058Y-61063017D01*
X90139333Y-61056588D01*
X90137616Y-61051302D01*
X90122038Y-60903096D01*
X90120000Y-60885000D01*
X90122038Y-60866905D01*
X90137616Y-60718697D01*
X90139333Y-60713410D01*
X90140058Y-60706983D01*
X90159156Y-60652401D01*
X90189287Y-60559671D01*
X90195170Y-60549480D01*
X90199225Y-60537893D01*
X90231699Y-60486209D01*
X90272898Y-60414852D01*
X90284940Y-60401477D01*
X90294535Y-60386208D01*
X90336247Y-60344495D01*
X90384788Y-60290586D01*
X90404421Y-60276321D01*
X90421208Y-60259535D01*
X90467954Y-60230162D01*
X90520069Y-60192299D01*
X90548017Y-60179855D01*
X90572893Y-60164225D01*
X90620675Y-60147505D01*
X90672828Y-60124285D01*
X90709019Y-60116592D01*
X90741983Y-60105058D01*
X90787318Y-60099949D01*
X90836393Y-60089519D01*
X90879893Y-60089519D01*
X90920000Y-60085000D01*
X90960107Y-60089519D01*
G37*
G36*
X93500107Y-60089519D02*
G01*
X93543607Y-60089519D01*
X93592680Y-60099949D01*
X93638017Y-60105058D01*
X93670982Y-60116592D01*
X93707171Y-60124285D01*
X93759321Y-60147504D01*
X93807107Y-60164225D01*
X93831982Y-60179855D01*
X93859931Y-60192299D01*
X93912042Y-60230160D01*
X93958792Y-60259535D01*
X93975580Y-60276323D01*
X93995211Y-60290586D01*
X94043742Y-60344485D01*
X94085465Y-60386208D01*
X94095061Y-60401481D01*
X94107101Y-60414852D01*
X94148288Y-60486190D01*
X94180775Y-60537893D01*
X94184831Y-60549485D01*
X94190712Y-60559671D01*
X94220829Y-60652361D01*
X94239942Y-60706983D01*
X94240666Y-60713414D01*
X94242383Y-60718697D01*
X94257946Y-60866773D01*
X94260000Y-60885000D01*
X94257946Y-60903228D01*
X94242383Y-61051302D01*
X94240666Y-61056583D01*
X94239942Y-61063017D01*
X94220824Y-61117651D01*
X94190712Y-61210328D01*
X94184832Y-61220512D01*
X94180775Y-61232107D01*
X94148280Y-61283820D01*
X94107101Y-61355147D01*
X94095063Y-61368515D01*
X94085465Y-61383792D01*
X94043733Y-61425523D01*
X93995211Y-61479413D01*
X93975584Y-61493672D01*
X93958792Y-61510465D01*
X93912032Y-61539846D01*
X93859931Y-61577700D01*
X93831988Y-61590141D01*
X93807107Y-61605775D01*
X93759310Y-61622499D01*
X93707171Y-61645714D01*
X93670987Y-61653405D01*
X93638017Y-61664942D01*
X93592677Y-61670050D01*
X93543607Y-61680481D01*
X93500107Y-61680481D01*
X93460000Y-61685000D01*
X93419893Y-61680481D01*
X93376393Y-61680481D01*
X93327321Y-61670050D01*
X93281983Y-61664942D01*
X93249013Y-61653405D01*
X93212828Y-61645714D01*
X93160684Y-61622497D01*
X93112893Y-61605775D01*
X93088014Y-61590142D01*
X93060068Y-61577700D01*
X93007960Y-61539841D01*
X92961208Y-61510465D01*
X92944418Y-61493675D01*
X92924788Y-61479413D01*
X92876256Y-61425513D01*
X92834535Y-61383792D01*
X92824938Y-61368519D01*
X92812898Y-61355147D01*
X92771706Y-61283801D01*
X92739225Y-61232107D01*
X92735169Y-61220516D01*
X92729287Y-61210328D01*
X92699161Y-61117611D01*
X92680058Y-61063017D01*
X92679333Y-61056588D01*
X92677616Y-61051302D01*
X92662038Y-60903096D01*
X92660000Y-60885000D01*
X92662038Y-60866905D01*
X92677616Y-60718697D01*
X92679333Y-60713410D01*
X92680058Y-60706983D01*
X92699156Y-60652401D01*
X92729287Y-60559671D01*
X92735170Y-60549480D01*
X92739225Y-60537893D01*
X92771699Y-60486209D01*
X92812898Y-60414852D01*
X92824940Y-60401477D01*
X92834535Y-60386208D01*
X92876247Y-60344495D01*
X92924788Y-60290586D01*
X92944421Y-60276321D01*
X92961208Y-60259535D01*
X93007954Y-60230162D01*
X93060069Y-60192299D01*
X93088017Y-60179855D01*
X93112893Y-60164225D01*
X93160675Y-60147505D01*
X93212828Y-60124285D01*
X93249019Y-60116592D01*
X93281983Y-60105058D01*
X93327318Y-60099949D01*
X93376393Y-60089519D01*
X93419893Y-60089519D01*
X93460000Y-60085000D01*
X93500107Y-60089519D01*
G37*
G36*
X96040107Y-60089519D02*
G01*
X96083607Y-60089519D01*
X96132680Y-60099949D01*
X96178017Y-60105058D01*
X96210982Y-60116592D01*
X96247171Y-60124285D01*
X96299321Y-60147504D01*
X96347107Y-60164225D01*
X96371982Y-60179855D01*
X96399931Y-60192299D01*
X96452042Y-60230160D01*
X96498792Y-60259535D01*
X96515580Y-60276323D01*
X96535211Y-60290586D01*
X96583742Y-60344485D01*
X96625465Y-60386208D01*
X96635061Y-60401481D01*
X96647101Y-60414852D01*
X96688288Y-60486190D01*
X96720775Y-60537893D01*
X96724831Y-60549485D01*
X96730712Y-60559671D01*
X96760829Y-60652361D01*
X96779942Y-60706983D01*
X96780666Y-60713414D01*
X96782383Y-60718697D01*
X96797946Y-60866773D01*
X96800000Y-60885000D01*
X96797946Y-60903228D01*
X96782383Y-61051302D01*
X96780666Y-61056583D01*
X96779942Y-61063017D01*
X96760824Y-61117651D01*
X96730712Y-61210328D01*
X96724832Y-61220512D01*
X96720775Y-61232107D01*
X96688280Y-61283820D01*
X96647101Y-61355147D01*
X96635063Y-61368515D01*
X96625465Y-61383792D01*
X96583733Y-61425523D01*
X96535211Y-61479413D01*
X96515584Y-61493672D01*
X96498792Y-61510465D01*
X96452032Y-61539846D01*
X96399931Y-61577700D01*
X96371988Y-61590141D01*
X96347107Y-61605775D01*
X96299310Y-61622499D01*
X96247171Y-61645714D01*
X96210987Y-61653405D01*
X96178017Y-61664942D01*
X96132677Y-61670050D01*
X96083607Y-61680481D01*
X96040107Y-61680481D01*
X96000000Y-61685000D01*
X95959893Y-61680481D01*
X95916393Y-61680481D01*
X95867321Y-61670050D01*
X95821983Y-61664942D01*
X95789013Y-61653405D01*
X95752828Y-61645714D01*
X95700684Y-61622497D01*
X95652893Y-61605775D01*
X95628014Y-61590142D01*
X95600068Y-61577700D01*
X95547960Y-61539841D01*
X95501208Y-61510465D01*
X95484418Y-61493675D01*
X95464788Y-61479413D01*
X95416256Y-61425513D01*
X95374535Y-61383792D01*
X95364938Y-61368519D01*
X95352898Y-61355147D01*
X95311706Y-61283801D01*
X95279225Y-61232107D01*
X95275169Y-61220516D01*
X95269287Y-61210328D01*
X95239161Y-61117611D01*
X95220058Y-61063017D01*
X95219333Y-61056588D01*
X95217616Y-61051302D01*
X95202038Y-60903096D01*
X95200000Y-60885000D01*
X95202038Y-60866905D01*
X95217616Y-60718697D01*
X95219333Y-60713410D01*
X95220058Y-60706983D01*
X95239156Y-60652401D01*
X95269287Y-60559671D01*
X95275170Y-60549480D01*
X95279225Y-60537893D01*
X95311699Y-60486209D01*
X95352898Y-60414852D01*
X95364940Y-60401477D01*
X95374535Y-60386208D01*
X95416247Y-60344495D01*
X95464788Y-60290586D01*
X95484421Y-60276321D01*
X95501208Y-60259535D01*
X95547954Y-60230162D01*
X95600069Y-60192299D01*
X95628017Y-60179855D01*
X95652893Y-60164225D01*
X95700675Y-60147505D01*
X95752828Y-60124285D01*
X95789019Y-60116592D01*
X95821983Y-60105058D01*
X95867318Y-60099949D01*
X95916393Y-60089519D01*
X95959893Y-60089519D01*
X96000000Y-60085000D01*
X96040107Y-60089519D01*
G37*
G36*
X24538318Y-57458115D02*
G01*
X24712800Y-57535799D01*
X24867318Y-57648063D01*
X24995118Y-57789999D01*
X25090615Y-57955405D01*
X25149636Y-58137052D01*
X25169600Y-58327000D01*
X25149636Y-58516948D01*
X25090615Y-58698595D01*
X24995118Y-58864001D01*
X24867318Y-59005937D01*
X24712800Y-59118201D01*
X24538318Y-59195885D01*
X24351497Y-59235595D01*
X24160503Y-59235595D01*
X23973682Y-59195885D01*
X23799200Y-59118201D01*
X23644682Y-59005937D01*
X23516882Y-58864001D01*
X23421385Y-58698595D01*
X23362364Y-58516948D01*
X23342400Y-58327000D01*
X23362364Y-58137052D01*
X23421385Y-57955405D01*
X23516882Y-57789999D01*
X23644682Y-57648063D01*
X23799200Y-57535799D01*
X23973682Y-57458115D01*
X24160503Y-57418405D01*
X24351497Y-57418405D01*
X24538318Y-57458115D01*
G37*
G36*
X27078318Y-57458115D02*
G01*
X27252800Y-57535799D01*
X27407318Y-57648063D01*
X27535118Y-57789999D01*
X27630615Y-57955405D01*
X27689636Y-58137052D01*
X27709600Y-58327000D01*
X27689636Y-58516948D01*
X27630615Y-58698595D01*
X27535118Y-58864001D01*
X27407318Y-59005937D01*
X27252800Y-59118201D01*
X27078318Y-59195885D01*
X26891497Y-59235595D01*
X26700503Y-59235595D01*
X26513682Y-59195885D01*
X26339200Y-59118201D01*
X26184682Y-59005937D01*
X26056882Y-58864001D01*
X25961385Y-58698595D01*
X25902364Y-58516948D01*
X25882400Y-58327000D01*
X25902364Y-58137052D01*
X25961385Y-57955405D01*
X26056882Y-57789999D01*
X26184682Y-57648063D01*
X26339200Y-57535799D01*
X26513682Y-57458115D01*
X26700503Y-57418405D01*
X26891497Y-57418405D01*
X27078318Y-57458115D01*
G37*
G36*
X57558318Y-57458115D02*
G01*
X57732800Y-57535799D01*
X57887318Y-57648063D01*
X58015118Y-57789999D01*
X58110615Y-57955405D01*
X58169636Y-58137052D01*
X58189600Y-58327000D01*
X58169636Y-58516948D01*
X58110615Y-58698595D01*
X58015118Y-58864001D01*
X57887318Y-59005937D01*
X57732800Y-59118201D01*
X57558318Y-59195885D01*
X57371497Y-59235595D01*
X57180503Y-59235595D01*
X56993682Y-59195885D01*
X56819200Y-59118201D01*
X56664682Y-59005937D01*
X56536882Y-58864001D01*
X56441385Y-58698595D01*
X56382364Y-58516948D01*
X56362400Y-58327000D01*
X56382364Y-58137052D01*
X56441385Y-57955405D01*
X56536882Y-57789999D01*
X56664682Y-57648063D01*
X56819200Y-57535799D01*
X56993682Y-57458115D01*
X57180503Y-57418405D01*
X57371497Y-57418405D01*
X57558318Y-57458115D01*
G37*
G36*
X60098318Y-57458115D02*
G01*
X60272800Y-57535799D01*
X60427318Y-57648063D01*
X60555118Y-57789999D01*
X60650615Y-57955405D01*
X60709636Y-58137052D01*
X60729600Y-58327000D01*
X60709636Y-58516948D01*
X60650615Y-58698595D01*
X60555118Y-58864001D01*
X60427318Y-59005937D01*
X60272800Y-59118201D01*
X60098318Y-59195885D01*
X59911497Y-59235595D01*
X59720503Y-59235595D01*
X59533682Y-59195885D01*
X59359200Y-59118201D01*
X59204682Y-59005937D01*
X59076882Y-58864001D01*
X58981385Y-58698595D01*
X58922364Y-58516948D01*
X58902400Y-58327000D01*
X58922364Y-58137052D01*
X58981385Y-57955405D01*
X59076882Y-57789999D01*
X59204682Y-57648063D01*
X59359200Y-57535799D01*
X59533682Y-57458115D01*
X59720503Y-57418405D01*
X59911497Y-57418405D01*
X60098318Y-57458115D01*
G37*
G36*
X24538318Y-54918115D02*
G01*
X24712800Y-54995799D01*
X24867318Y-55108063D01*
X24995118Y-55249999D01*
X25090615Y-55415405D01*
X25149636Y-55597052D01*
X25169600Y-55787000D01*
X25149636Y-55976948D01*
X25090615Y-56158595D01*
X24995118Y-56324001D01*
X24867318Y-56465937D01*
X24712800Y-56578201D01*
X24538318Y-56655885D01*
X24351497Y-56695595D01*
X24160503Y-56695595D01*
X23973682Y-56655885D01*
X23799200Y-56578201D01*
X23644682Y-56465937D01*
X23516882Y-56324001D01*
X23421385Y-56158595D01*
X23362364Y-55976948D01*
X23342400Y-55787000D01*
X23362364Y-55597052D01*
X23421385Y-55415405D01*
X23516882Y-55249999D01*
X23644682Y-55108063D01*
X23799200Y-54995799D01*
X23973682Y-54918115D01*
X24160503Y-54878405D01*
X24351497Y-54878405D01*
X24538318Y-54918115D01*
G37*
G36*
X27078318Y-54918115D02*
G01*
X27252800Y-54995799D01*
X27407318Y-55108063D01*
X27535118Y-55249999D01*
X27630615Y-55415405D01*
X27689636Y-55597052D01*
X27709600Y-55787000D01*
X27689636Y-55976948D01*
X27630615Y-56158595D01*
X27535118Y-56324001D01*
X27407318Y-56465937D01*
X27252800Y-56578201D01*
X27078318Y-56655885D01*
X26891497Y-56695595D01*
X26700503Y-56695595D01*
X26513682Y-56655885D01*
X26339200Y-56578201D01*
X26184682Y-56465937D01*
X26056882Y-56324001D01*
X25961385Y-56158595D01*
X25902364Y-55976948D01*
X25882400Y-55787000D01*
X25902364Y-55597052D01*
X25961385Y-55415405D01*
X26056882Y-55249999D01*
X26184682Y-55108063D01*
X26339200Y-54995799D01*
X26513682Y-54918115D01*
X26700503Y-54878405D01*
X26891497Y-54878405D01*
X27078318Y-54918115D01*
G37*
G36*
X57558318Y-54918115D02*
G01*
X57732800Y-54995799D01*
X57887318Y-55108063D01*
X58015118Y-55249999D01*
X58110615Y-55415405D01*
X58169636Y-55597052D01*
X58189600Y-55787000D01*
X58169636Y-55976948D01*
X58110615Y-56158595D01*
X58015118Y-56324001D01*
X57887318Y-56465937D01*
X57732800Y-56578201D01*
X57558318Y-56655885D01*
X57371497Y-56695595D01*
X57180503Y-56695595D01*
X56993682Y-56655885D01*
X56819200Y-56578201D01*
X56664682Y-56465937D01*
X56536882Y-56324001D01*
X56441385Y-56158595D01*
X56382364Y-55976948D01*
X56362400Y-55787000D01*
X56382364Y-55597052D01*
X56441385Y-55415405D01*
X56536882Y-55249999D01*
X56664682Y-55108063D01*
X56819200Y-54995799D01*
X56993682Y-54918115D01*
X57180503Y-54878405D01*
X57371497Y-54878405D01*
X57558318Y-54918115D01*
G37*
G36*
X60098318Y-54918115D02*
G01*
X60272800Y-54995799D01*
X60427318Y-55108063D01*
X60555118Y-55249999D01*
X60650615Y-55415405D01*
X60709636Y-55597052D01*
X60729600Y-55787000D01*
X60709636Y-55976948D01*
X60650615Y-56158595D01*
X60555118Y-56324001D01*
X60427318Y-56465937D01*
X60272800Y-56578201D01*
X60098318Y-56655885D01*
X59911497Y-56695595D01*
X59720503Y-56695595D01*
X59533682Y-56655885D01*
X59359200Y-56578201D01*
X59204682Y-56465937D01*
X59076882Y-56324001D01*
X58981385Y-56158595D01*
X58922364Y-55976948D01*
X58902400Y-55787000D01*
X58922364Y-55597052D01*
X58981385Y-55415405D01*
X59076882Y-55249999D01*
X59204682Y-55108063D01*
X59359200Y-54995799D01*
X59533682Y-54918115D01*
X59720503Y-54878405D01*
X59911497Y-54878405D01*
X60098318Y-54918115D01*
G37*
G36*
X24538318Y-52378115D02*
G01*
X24712800Y-52455799D01*
X24867318Y-52568063D01*
X24995118Y-52709999D01*
X25090615Y-52875405D01*
X25149636Y-53057052D01*
X25169600Y-53247000D01*
X25149636Y-53436948D01*
X25090615Y-53618595D01*
X24995118Y-53784001D01*
X24867318Y-53925937D01*
X24712800Y-54038201D01*
X24538318Y-54115885D01*
X24351497Y-54155595D01*
X24160503Y-54155595D01*
X23973682Y-54115885D01*
X23799200Y-54038201D01*
X23644682Y-53925937D01*
X23516882Y-53784001D01*
X23421385Y-53618595D01*
X23362364Y-53436948D01*
X23342400Y-53247000D01*
X23362364Y-53057052D01*
X23421385Y-52875405D01*
X23516882Y-52709999D01*
X23644682Y-52568063D01*
X23799200Y-52455799D01*
X23973682Y-52378115D01*
X24160503Y-52338405D01*
X24351497Y-52338405D01*
X24538318Y-52378115D01*
G37*
G36*
X27078318Y-52378115D02*
G01*
X27252800Y-52455799D01*
X27407318Y-52568063D01*
X27535118Y-52709999D01*
X27630615Y-52875405D01*
X27689636Y-53057052D01*
X27709600Y-53247000D01*
X27689636Y-53436948D01*
X27630615Y-53618595D01*
X27535118Y-53784001D01*
X27407318Y-53925937D01*
X27252800Y-54038201D01*
X27078318Y-54115885D01*
X26891497Y-54155595D01*
X26700503Y-54155595D01*
X26513682Y-54115885D01*
X26339200Y-54038201D01*
X26184682Y-53925937D01*
X26056882Y-53784001D01*
X25961385Y-53618595D01*
X25902364Y-53436948D01*
X25882400Y-53247000D01*
X25902364Y-53057052D01*
X25961385Y-52875405D01*
X26056882Y-52709999D01*
X26184682Y-52568063D01*
X26339200Y-52455799D01*
X26513682Y-52378115D01*
X26700503Y-52338405D01*
X26891497Y-52338405D01*
X27078318Y-52378115D01*
G37*
G36*
X57558318Y-52378115D02*
G01*
X57732800Y-52455799D01*
X57887318Y-52568063D01*
X58015118Y-52709999D01*
X58110615Y-52875405D01*
X58169636Y-53057052D01*
X58189600Y-53247000D01*
X58169636Y-53436948D01*
X58110615Y-53618595D01*
X58015118Y-53784001D01*
X57887318Y-53925937D01*
X57732800Y-54038201D01*
X57558318Y-54115885D01*
X57371497Y-54155595D01*
X57180503Y-54155595D01*
X56993682Y-54115885D01*
X56819200Y-54038201D01*
X56664682Y-53925937D01*
X56536882Y-53784001D01*
X56441385Y-53618595D01*
X56382364Y-53436948D01*
X56362400Y-53247000D01*
X56382364Y-53057052D01*
X56441385Y-52875405D01*
X56536882Y-52709999D01*
X56664682Y-52568063D01*
X56819200Y-52455799D01*
X56993682Y-52378115D01*
X57180503Y-52338405D01*
X57371497Y-52338405D01*
X57558318Y-52378115D01*
G37*
G36*
X60098318Y-52378115D02*
G01*
X60272800Y-52455799D01*
X60427318Y-52568063D01*
X60555118Y-52709999D01*
X60650615Y-52875405D01*
X60709636Y-53057052D01*
X60729600Y-53247000D01*
X60709636Y-53436948D01*
X60650615Y-53618595D01*
X60555118Y-53784001D01*
X60427318Y-53925937D01*
X60272800Y-54038201D01*
X60098318Y-54115885D01*
X59911497Y-54155595D01*
X59720503Y-54155595D01*
X59533682Y-54115885D01*
X59359200Y-54038201D01*
X59204682Y-53925937D01*
X59076882Y-53784001D01*
X58981385Y-53618595D01*
X58922364Y-53436948D01*
X58902400Y-53247000D01*
X58922364Y-53057052D01*
X58981385Y-52875405D01*
X59076882Y-52709999D01*
X59204682Y-52568063D01*
X59359200Y-52455799D01*
X59533682Y-52378115D01*
X59720503Y-52338405D01*
X59911497Y-52338405D01*
X60098318Y-52378115D01*
G37*
G36*
X24538318Y-49838115D02*
G01*
X24712800Y-49915799D01*
X24867318Y-50028063D01*
X24995118Y-50169999D01*
X25090615Y-50335405D01*
X25149636Y-50517052D01*
X25169600Y-50707000D01*
X25149636Y-50896948D01*
X25090615Y-51078595D01*
X24995118Y-51244001D01*
X24867318Y-51385937D01*
X24712800Y-51498201D01*
X24538318Y-51575885D01*
X24351497Y-51615595D01*
X24160503Y-51615595D01*
X23973682Y-51575885D01*
X23799200Y-51498201D01*
X23644682Y-51385937D01*
X23516882Y-51244001D01*
X23421385Y-51078595D01*
X23362364Y-50896948D01*
X23342400Y-50707000D01*
X23362364Y-50517052D01*
X23421385Y-50335405D01*
X23516882Y-50169999D01*
X23644682Y-50028063D01*
X23799200Y-49915799D01*
X23973682Y-49838115D01*
X24160503Y-49798405D01*
X24351497Y-49798405D01*
X24538318Y-49838115D01*
G37*
G36*
X27078318Y-49838115D02*
G01*
X27252800Y-49915799D01*
X27407318Y-50028063D01*
X27535118Y-50169999D01*
X27630615Y-50335405D01*
X27689636Y-50517052D01*
X27709600Y-50707000D01*
X27689636Y-50896948D01*
X27630615Y-51078595D01*
X27535118Y-51244001D01*
X27407318Y-51385937D01*
X27252800Y-51498201D01*
X27078318Y-51575885D01*
X26891497Y-51615595D01*
X26700503Y-51615595D01*
X26513682Y-51575885D01*
X26339200Y-51498201D01*
X26184682Y-51385937D01*
X26056882Y-51244001D01*
X25961385Y-51078595D01*
X25902364Y-50896948D01*
X25882400Y-50707000D01*
X25902364Y-50517052D01*
X25961385Y-50335405D01*
X26056882Y-50169999D01*
X26184682Y-50028063D01*
X26339200Y-49915799D01*
X26513682Y-49838115D01*
X26700503Y-49798405D01*
X26891497Y-49798405D01*
X27078318Y-49838115D01*
G37*
G36*
X57558318Y-49838115D02*
G01*
X57732800Y-49915799D01*
X57887318Y-50028063D01*
X58015118Y-50169999D01*
X58110615Y-50335405D01*
X58169636Y-50517052D01*
X58189600Y-50707000D01*
X58169636Y-50896948D01*
X58110615Y-51078595D01*
X58015118Y-51244001D01*
X57887318Y-51385937D01*
X57732800Y-51498201D01*
X57558318Y-51575885D01*
X57371497Y-51615595D01*
X57180503Y-51615595D01*
X56993682Y-51575885D01*
X56819200Y-51498201D01*
X56664682Y-51385937D01*
X56536882Y-51244001D01*
X56441385Y-51078595D01*
X56382364Y-50896948D01*
X56362400Y-50707000D01*
X56382364Y-50517052D01*
X56441385Y-50335405D01*
X56536882Y-50169999D01*
X56664682Y-50028063D01*
X56819200Y-49915799D01*
X56993682Y-49838115D01*
X57180503Y-49798405D01*
X57371497Y-49798405D01*
X57558318Y-49838115D01*
G37*
G36*
X60098318Y-49838115D02*
G01*
X60272800Y-49915799D01*
X60427318Y-50028063D01*
X60555118Y-50169999D01*
X60650615Y-50335405D01*
X60709636Y-50517052D01*
X60729600Y-50707000D01*
X60709636Y-50896948D01*
X60650615Y-51078595D01*
X60555118Y-51244001D01*
X60427318Y-51385937D01*
X60272800Y-51498201D01*
X60098318Y-51575885D01*
X59911497Y-51615595D01*
X59720503Y-51615595D01*
X59533682Y-51575885D01*
X59359200Y-51498201D01*
X59204682Y-51385937D01*
X59076882Y-51244001D01*
X58981385Y-51078595D01*
X58922364Y-50896948D01*
X58902400Y-50707000D01*
X58922364Y-50517052D01*
X58981385Y-50335405D01*
X59076882Y-50169999D01*
X59204682Y-50028063D01*
X59359200Y-49915799D01*
X59533682Y-49838115D01*
X59720503Y-49798405D01*
X59911497Y-49798405D01*
X60098318Y-49838115D01*
G37*
G36*
X24538318Y-47298115D02*
G01*
X24712800Y-47375799D01*
X24867318Y-47488063D01*
X24995118Y-47629999D01*
X25090615Y-47795405D01*
X25149636Y-47977052D01*
X25169600Y-48167000D01*
X25149636Y-48356948D01*
X25090615Y-48538595D01*
X24995118Y-48704001D01*
X24867318Y-48845937D01*
X24712800Y-48958201D01*
X24538318Y-49035885D01*
X24351497Y-49075595D01*
X24160503Y-49075595D01*
X23973682Y-49035885D01*
X23799200Y-48958201D01*
X23644682Y-48845937D01*
X23516882Y-48704001D01*
X23421385Y-48538595D01*
X23362364Y-48356948D01*
X23342400Y-48167000D01*
X23362364Y-47977052D01*
X23421385Y-47795405D01*
X23516882Y-47629999D01*
X23644682Y-47488063D01*
X23799200Y-47375799D01*
X23973682Y-47298115D01*
X24160503Y-47258405D01*
X24351497Y-47258405D01*
X24538318Y-47298115D01*
G37*
G36*
X27078318Y-47298115D02*
G01*
X27252800Y-47375799D01*
X27407318Y-47488063D01*
X27535118Y-47629999D01*
X27630615Y-47795405D01*
X27689636Y-47977052D01*
X27709600Y-48167000D01*
X27689636Y-48356948D01*
X27630615Y-48538595D01*
X27535118Y-48704001D01*
X27407318Y-48845937D01*
X27252800Y-48958201D01*
X27078318Y-49035885D01*
X26891497Y-49075595D01*
X26700503Y-49075595D01*
X26513682Y-49035885D01*
X26339200Y-48958201D01*
X26184682Y-48845937D01*
X26056882Y-48704001D01*
X25961385Y-48538595D01*
X25902364Y-48356948D01*
X25882400Y-48167000D01*
X25902364Y-47977052D01*
X25961385Y-47795405D01*
X26056882Y-47629999D01*
X26184682Y-47488063D01*
X26339200Y-47375799D01*
X26513682Y-47298115D01*
X26700503Y-47258405D01*
X26891497Y-47258405D01*
X27078318Y-47298115D01*
G37*
G36*
X57558318Y-47298115D02*
G01*
X57732800Y-47375799D01*
X57887318Y-47488063D01*
X58015118Y-47629999D01*
X58110615Y-47795405D01*
X58169636Y-47977052D01*
X58189600Y-48167000D01*
X58169636Y-48356948D01*
X58110615Y-48538595D01*
X58015118Y-48704001D01*
X57887318Y-48845937D01*
X57732800Y-48958201D01*
X57558318Y-49035885D01*
X57371497Y-49075595D01*
X57180503Y-49075595D01*
X56993682Y-49035885D01*
X56819200Y-48958201D01*
X56664682Y-48845937D01*
X56536882Y-48704001D01*
X56441385Y-48538595D01*
X56382364Y-48356948D01*
X56362400Y-48167000D01*
X56382364Y-47977052D01*
X56441385Y-47795405D01*
X56536882Y-47629999D01*
X56664682Y-47488063D01*
X56819200Y-47375799D01*
X56993682Y-47298115D01*
X57180503Y-47258405D01*
X57371497Y-47258405D01*
X57558318Y-47298115D01*
G37*
G36*
X60098318Y-47298115D02*
G01*
X60272800Y-47375799D01*
X60427318Y-47488063D01*
X60555118Y-47629999D01*
X60650615Y-47795405D01*
X60709636Y-47977052D01*
X60729600Y-48167000D01*
X60709636Y-48356948D01*
X60650615Y-48538595D01*
X60555118Y-48704001D01*
X60427318Y-48845937D01*
X60272800Y-48958201D01*
X60098318Y-49035885D01*
X59911497Y-49075595D01*
X59720503Y-49075595D01*
X59533682Y-49035885D01*
X59359200Y-48958201D01*
X59204682Y-48845937D01*
X59076882Y-48704001D01*
X58981385Y-48538595D01*
X58922364Y-48356948D01*
X58902400Y-48167000D01*
X58922364Y-47977052D01*
X58981385Y-47795405D01*
X59076882Y-47629999D01*
X59204682Y-47488063D01*
X59359200Y-47375799D01*
X59533682Y-47298115D01*
X59720503Y-47258405D01*
X59911497Y-47258405D01*
X60098318Y-47298115D01*
G37*
G36*
X24538318Y-44758115D02*
G01*
X24712800Y-44835799D01*
X24867318Y-44948063D01*
X24995118Y-45089999D01*
X25090615Y-45255405D01*
X25149636Y-45437052D01*
X25169600Y-45627000D01*
X25149636Y-45816948D01*
X25090615Y-45998595D01*
X24995118Y-46164001D01*
X24867318Y-46305937D01*
X24712800Y-46418201D01*
X24538318Y-46495885D01*
X24351497Y-46535595D01*
X24160503Y-46535595D01*
X23973682Y-46495885D01*
X23799200Y-46418201D01*
X23644682Y-46305937D01*
X23516882Y-46164001D01*
X23421385Y-45998595D01*
X23362364Y-45816948D01*
X23342400Y-45627000D01*
X23362364Y-45437052D01*
X23421385Y-45255405D01*
X23516882Y-45089999D01*
X23644682Y-44948063D01*
X23799200Y-44835799D01*
X23973682Y-44758115D01*
X24160503Y-44718405D01*
X24351497Y-44718405D01*
X24538318Y-44758115D01*
G37*
G36*
X27078318Y-44758115D02*
G01*
X27252800Y-44835799D01*
X27407318Y-44948063D01*
X27535118Y-45089999D01*
X27630615Y-45255405D01*
X27689636Y-45437052D01*
X27709600Y-45627000D01*
X27689636Y-45816948D01*
X27630615Y-45998595D01*
X27535118Y-46164001D01*
X27407318Y-46305937D01*
X27252800Y-46418201D01*
X27078318Y-46495885D01*
X26891497Y-46535595D01*
X26700503Y-46535595D01*
X26513682Y-46495885D01*
X26339200Y-46418201D01*
X26184682Y-46305937D01*
X26056882Y-46164001D01*
X25961385Y-45998595D01*
X25902364Y-45816948D01*
X25882400Y-45627000D01*
X25902364Y-45437052D01*
X25961385Y-45255405D01*
X26056882Y-45089999D01*
X26184682Y-44948063D01*
X26339200Y-44835799D01*
X26513682Y-44758115D01*
X26700503Y-44718405D01*
X26891497Y-44718405D01*
X27078318Y-44758115D01*
G37*
G36*
X57558318Y-44758115D02*
G01*
X57732800Y-44835799D01*
X57887318Y-44948063D01*
X58015118Y-45089999D01*
X58110615Y-45255405D01*
X58169636Y-45437052D01*
X58189600Y-45627000D01*
X58169636Y-45816948D01*
X58110615Y-45998595D01*
X58015118Y-46164001D01*
X57887318Y-46305937D01*
X57732800Y-46418201D01*
X57558318Y-46495885D01*
X57371497Y-46535595D01*
X57180503Y-46535595D01*
X56993682Y-46495885D01*
X56819200Y-46418201D01*
X56664682Y-46305937D01*
X56536882Y-46164001D01*
X56441385Y-45998595D01*
X56382364Y-45816948D01*
X56362400Y-45627000D01*
X56382364Y-45437052D01*
X56441385Y-45255405D01*
X56536882Y-45089999D01*
X56664682Y-44948063D01*
X56819200Y-44835799D01*
X56993682Y-44758115D01*
X57180503Y-44718405D01*
X57371497Y-44718405D01*
X57558318Y-44758115D01*
G37*
G36*
X60098318Y-44758115D02*
G01*
X60272800Y-44835799D01*
X60427318Y-44948063D01*
X60555118Y-45089999D01*
X60650615Y-45255405D01*
X60709636Y-45437052D01*
X60729600Y-45627000D01*
X60709636Y-45816948D01*
X60650615Y-45998595D01*
X60555118Y-46164001D01*
X60427318Y-46305937D01*
X60272800Y-46418201D01*
X60098318Y-46495885D01*
X59911497Y-46535595D01*
X59720503Y-46535595D01*
X59533682Y-46495885D01*
X59359200Y-46418201D01*
X59204682Y-46305937D01*
X59076882Y-46164001D01*
X58981385Y-45998595D01*
X58922364Y-45816948D01*
X58902400Y-45627000D01*
X58922364Y-45437052D01*
X58981385Y-45255405D01*
X59076882Y-45089999D01*
X59204682Y-44948063D01*
X59359200Y-44835799D01*
X59533682Y-44758115D01*
X59720503Y-44718405D01*
X59911497Y-44718405D01*
X60098318Y-44758115D01*
G37*
G36*
X83340107Y-44849519D02*
G01*
X83383607Y-44849519D01*
X83432680Y-44859949D01*
X83478017Y-44865058D01*
X83510982Y-44876592D01*
X83547171Y-44884285D01*
X83599321Y-44907504D01*
X83647107Y-44924225D01*
X83671982Y-44939855D01*
X83699931Y-44952299D01*
X83752042Y-44990160D01*
X83798792Y-45019535D01*
X83815580Y-45036323D01*
X83835211Y-45050586D01*
X83883742Y-45104485D01*
X83925465Y-45146208D01*
X83935061Y-45161481D01*
X83947101Y-45174852D01*
X83988288Y-45246190D01*
X84020775Y-45297893D01*
X84024831Y-45309485D01*
X84030712Y-45319671D01*
X84060829Y-45412361D01*
X84079942Y-45466983D01*
X84080666Y-45473414D01*
X84082383Y-45478697D01*
X84097946Y-45626773D01*
X84100000Y-45645000D01*
X84097946Y-45663228D01*
X84082383Y-45811302D01*
X84080666Y-45816583D01*
X84079942Y-45823017D01*
X84060824Y-45877651D01*
X84030712Y-45970328D01*
X84024832Y-45980512D01*
X84020775Y-45992107D01*
X83988280Y-46043820D01*
X83947101Y-46115147D01*
X83935063Y-46128515D01*
X83925465Y-46143792D01*
X83883733Y-46185523D01*
X83835211Y-46239413D01*
X83815584Y-46253672D01*
X83798792Y-46270465D01*
X83752032Y-46299846D01*
X83699931Y-46337700D01*
X83671988Y-46350141D01*
X83647107Y-46365775D01*
X83599310Y-46382499D01*
X83547171Y-46405714D01*
X83510987Y-46413405D01*
X83478017Y-46424942D01*
X83432677Y-46430050D01*
X83383607Y-46440481D01*
X83340107Y-46440481D01*
X83300000Y-46445000D01*
X83259893Y-46440481D01*
X83216393Y-46440481D01*
X83167321Y-46430050D01*
X83121983Y-46424942D01*
X83089013Y-46413405D01*
X83052828Y-46405714D01*
X83000684Y-46382497D01*
X82952893Y-46365775D01*
X82928014Y-46350142D01*
X82900068Y-46337700D01*
X82847960Y-46299841D01*
X82801208Y-46270465D01*
X82784418Y-46253675D01*
X82764788Y-46239413D01*
X82716256Y-46185513D01*
X82674535Y-46143792D01*
X82664938Y-46128519D01*
X82652898Y-46115147D01*
X82611706Y-46043801D01*
X82579225Y-45992107D01*
X82575169Y-45980516D01*
X82569287Y-45970328D01*
X82539161Y-45877611D01*
X82520058Y-45823017D01*
X82519333Y-45816588D01*
X82517616Y-45811302D01*
X82502038Y-45663096D01*
X82500000Y-45645000D01*
X82502038Y-45626905D01*
X82517616Y-45478697D01*
X82519333Y-45473410D01*
X82520058Y-45466983D01*
X82539156Y-45412401D01*
X82569287Y-45319671D01*
X82575170Y-45309480D01*
X82579225Y-45297893D01*
X82611699Y-45246209D01*
X82652898Y-45174852D01*
X82664940Y-45161477D01*
X82674535Y-45146208D01*
X82716247Y-45104495D01*
X82764788Y-45050586D01*
X82784421Y-45036321D01*
X82801208Y-45019535D01*
X82847954Y-44990162D01*
X82900069Y-44952299D01*
X82928017Y-44939855D01*
X82952893Y-44924225D01*
X83000675Y-44907505D01*
X83052828Y-44884285D01*
X83089019Y-44876592D01*
X83121983Y-44865058D01*
X83167318Y-44859949D01*
X83216393Y-44849519D01*
X83259893Y-44849519D01*
X83300000Y-44845000D01*
X83340107Y-44849519D01*
G37*
G36*
X85880107Y-44849519D02*
G01*
X85923607Y-44849519D01*
X85972680Y-44859949D01*
X86018017Y-44865058D01*
X86050982Y-44876592D01*
X86087171Y-44884285D01*
X86139321Y-44907504D01*
X86187107Y-44924225D01*
X86211982Y-44939855D01*
X86239931Y-44952299D01*
X86292042Y-44990160D01*
X86338792Y-45019535D01*
X86355580Y-45036323D01*
X86375211Y-45050586D01*
X86423742Y-45104485D01*
X86465465Y-45146208D01*
X86475061Y-45161481D01*
X86487101Y-45174852D01*
X86528288Y-45246190D01*
X86560775Y-45297893D01*
X86564831Y-45309485D01*
X86570712Y-45319671D01*
X86600829Y-45412361D01*
X86619942Y-45466983D01*
X86620666Y-45473414D01*
X86622383Y-45478697D01*
X86637946Y-45626773D01*
X86640000Y-45645000D01*
X86637946Y-45663228D01*
X86622383Y-45811302D01*
X86620666Y-45816583D01*
X86619942Y-45823017D01*
X86600824Y-45877651D01*
X86570712Y-45970328D01*
X86564832Y-45980512D01*
X86560775Y-45992107D01*
X86528280Y-46043820D01*
X86487101Y-46115147D01*
X86475063Y-46128515D01*
X86465465Y-46143792D01*
X86423733Y-46185523D01*
X86375211Y-46239413D01*
X86355584Y-46253672D01*
X86338792Y-46270465D01*
X86292032Y-46299846D01*
X86239931Y-46337700D01*
X86211988Y-46350141D01*
X86187107Y-46365775D01*
X86139310Y-46382499D01*
X86087171Y-46405714D01*
X86050987Y-46413405D01*
X86018017Y-46424942D01*
X85972677Y-46430050D01*
X85923607Y-46440481D01*
X85880107Y-46440481D01*
X85840000Y-46445000D01*
X85799893Y-46440481D01*
X85756393Y-46440481D01*
X85707321Y-46430050D01*
X85661983Y-46424942D01*
X85629013Y-46413405D01*
X85592828Y-46405714D01*
X85540684Y-46382497D01*
X85492893Y-46365775D01*
X85468014Y-46350142D01*
X85440068Y-46337700D01*
X85387960Y-46299841D01*
X85341208Y-46270465D01*
X85324418Y-46253675D01*
X85304788Y-46239413D01*
X85256256Y-46185513D01*
X85214535Y-46143792D01*
X85204938Y-46128519D01*
X85192898Y-46115147D01*
X85151706Y-46043801D01*
X85119225Y-45992107D01*
X85115169Y-45980516D01*
X85109287Y-45970328D01*
X85079161Y-45877611D01*
X85060058Y-45823017D01*
X85059333Y-45816588D01*
X85057616Y-45811302D01*
X85042038Y-45663096D01*
X85040000Y-45645000D01*
X85042038Y-45626905D01*
X85057616Y-45478697D01*
X85059333Y-45473410D01*
X85060058Y-45466983D01*
X85079156Y-45412401D01*
X85109287Y-45319671D01*
X85115170Y-45309480D01*
X85119225Y-45297893D01*
X85151699Y-45246209D01*
X85192898Y-45174852D01*
X85204940Y-45161477D01*
X85214535Y-45146208D01*
X85256247Y-45104495D01*
X85304788Y-45050586D01*
X85324421Y-45036321D01*
X85341208Y-45019535D01*
X85387954Y-44990162D01*
X85440069Y-44952299D01*
X85468017Y-44939855D01*
X85492893Y-44924225D01*
X85540675Y-44907505D01*
X85592828Y-44884285D01*
X85629019Y-44876592D01*
X85661983Y-44865058D01*
X85707318Y-44859949D01*
X85756393Y-44849519D01*
X85799893Y-44849519D01*
X85840000Y-44845000D01*
X85880107Y-44849519D01*
G37*
G36*
X88420107Y-44849519D02*
G01*
X88463607Y-44849519D01*
X88512680Y-44859949D01*
X88558017Y-44865058D01*
X88590982Y-44876592D01*
X88627171Y-44884285D01*
X88679321Y-44907504D01*
X88727107Y-44924225D01*
X88751982Y-44939855D01*
X88779931Y-44952299D01*
X88832042Y-44990160D01*
X88878792Y-45019535D01*
X88895580Y-45036323D01*
X88915211Y-45050586D01*
X88963742Y-45104485D01*
X89005465Y-45146208D01*
X89015061Y-45161481D01*
X89027101Y-45174852D01*
X89068288Y-45246190D01*
X89100775Y-45297893D01*
X89104831Y-45309485D01*
X89110712Y-45319671D01*
X89140829Y-45412361D01*
X89159942Y-45466983D01*
X89160666Y-45473414D01*
X89162383Y-45478697D01*
X89177946Y-45626773D01*
X89180000Y-45645000D01*
X89177946Y-45663228D01*
X89162383Y-45811302D01*
X89160666Y-45816583D01*
X89159942Y-45823017D01*
X89140824Y-45877651D01*
X89110712Y-45970328D01*
X89104832Y-45980512D01*
X89100775Y-45992107D01*
X89068280Y-46043820D01*
X89027101Y-46115147D01*
X89015063Y-46128515D01*
X89005465Y-46143792D01*
X88963733Y-46185523D01*
X88915211Y-46239413D01*
X88895584Y-46253672D01*
X88878792Y-46270465D01*
X88832032Y-46299846D01*
X88779931Y-46337700D01*
X88751988Y-46350141D01*
X88727107Y-46365775D01*
X88679310Y-46382499D01*
X88627171Y-46405714D01*
X88590987Y-46413405D01*
X88558017Y-46424942D01*
X88512677Y-46430050D01*
X88463607Y-46440481D01*
X88420107Y-46440481D01*
X88380000Y-46445000D01*
X88339893Y-46440481D01*
X88296393Y-46440481D01*
X88247321Y-46430050D01*
X88201983Y-46424942D01*
X88169013Y-46413405D01*
X88132828Y-46405714D01*
X88080684Y-46382497D01*
X88032893Y-46365775D01*
X88008014Y-46350142D01*
X87980068Y-46337700D01*
X87927960Y-46299841D01*
X87881208Y-46270465D01*
X87864418Y-46253675D01*
X87844788Y-46239413D01*
X87796256Y-46185513D01*
X87754535Y-46143792D01*
X87744938Y-46128519D01*
X87732898Y-46115147D01*
X87691706Y-46043801D01*
X87659225Y-45992107D01*
X87655169Y-45980516D01*
X87649287Y-45970328D01*
X87619161Y-45877611D01*
X87600058Y-45823017D01*
X87599333Y-45816588D01*
X87597616Y-45811302D01*
X87582038Y-45663096D01*
X87580000Y-45645000D01*
X87582038Y-45626905D01*
X87597616Y-45478697D01*
X87599333Y-45473410D01*
X87600058Y-45466983D01*
X87619156Y-45412401D01*
X87649287Y-45319671D01*
X87655170Y-45309480D01*
X87659225Y-45297893D01*
X87691699Y-45246209D01*
X87732898Y-45174852D01*
X87744940Y-45161477D01*
X87754535Y-45146208D01*
X87796247Y-45104495D01*
X87844788Y-45050586D01*
X87864421Y-45036321D01*
X87881208Y-45019535D01*
X87927954Y-44990162D01*
X87980069Y-44952299D01*
X88008017Y-44939855D01*
X88032893Y-44924225D01*
X88080675Y-44907505D01*
X88132828Y-44884285D01*
X88169019Y-44876592D01*
X88201983Y-44865058D01*
X88247318Y-44859949D01*
X88296393Y-44849519D01*
X88339893Y-44849519D01*
X88380000Y-44845000D01*
X88420107Y-44849519D01*
G37*
G36*
X90960107Y-44849519D02*
G01*
X91003607Y-44849519D01*
X91052680Y-44859949D01*
X91098017Y-44865058D01*
X91130982Y-44876592D01*
X91167171Y-44884285D01*
X91219321Y-44907504D01*
X91267107Y-44924225D01*
X91291982Y-44939855D01*
X91319931Y-44952299D01*
X91372042Y-44990160D01*
X91418792Y-45019535D01*
X91435580Y-45036323D01*
X91455211Y-45050586D01*
X91503742Y-45104485D01*
X91545465Y-45146208D01*
X91555061Y-45161481D01*
X91567101Y-45174852D01*
X91608288Y-45246190D01*
X91640775Y-45297893D01*
X91644831Y-45309485D01*
X91650712Y-45319671D01*
X91680829Y-45412361D01*
X91699942Y-45466983D01*
X91700666Y-45473414D01*
X91702383Y-45478697D01*
X91717946Y-45626773D01*
X91720000Y-45645000D01*
X91717946Y-45663228D01*
X91702383Y-45811302D01*
X91700666Y-45816583D01*
X91699942Y-45823017D01*
X91680824Y-45877651D01*
X91650712Y-45970328D01*
X91644832Y-45980512D01*
X91640775Y-45992107D01*
X91608280Y-46043820D01*
X91567101Y-46115147D01*
X91555063Y-46128515D01*
X91545465Y-46143792D01*
X91503733Y-46185523D01*
X91455211Y-46239413D01*
X91435584Y-46253672D01*
X91418792Y-46270465D01*
X91372032Y-46299846D01*
X91319931Y-46337700D01*
X91291988Y-46350141D01*
X91267107Y-46365775D01*
X91219310Y-46382499D01*
X91167171Y-46405714D01*
X91130987Y-46413405D01*
X91098017Y-46424942D01*
X91052677Y-46430050D01*
X91003607Y-46440481D01*
X90960107Y-46440481D01*
X90920000Y-46445000D01*
X90879893Y-46440481D01*
X90836393Y-46440481D01*
X90787321Y-46430050D01*
X90741983Y-46424942D01*
X90709013Y-46413405D01*
X90672828Y-46405714D01*
X90620684Y-46382497D01*
X90572893Y-46365775D01*
X90548014Y-46350142D01*
X90520068Y-46337700D01*
X90467960Y-46299841D01*
X90421208Y-46270465D01*
X90404418Y-46253675D01*
X90384788Y-46239413D01*
X90336256Y-46185513D01*
X90294535Y-46143792D01*
X90284938Y-46128519D01*
X90272898Y-46115147D01*
X90231706Y-46043801D01*
X90199225Y-45992107D01*
X90195169Y-45980516D01*
X90189287Y-45970328D01*
X90159161Y-45877611D01*
X90140058Y-45823017D01*
X90139333Y-45816588D01*
X90137616Y-45811302D01*
X90122038Y-45663096D01*
X90120000Y-45645000D01*
X90122038Y-45626905D01*
X90137616Y-45478697D01*
X90139333Y-45473410D01*
X90140058Y-45466983D01*
X90159156Y-45412401D01*
X90189287Y-45319671D01*
X90195170Y-45309480D01*
X90199225Y-45297893D01*
X90231699Y-45246209D01*
X90272898Y-45174852D01*
X90284940Y-45161477D01*
X90294535Y-45146208D01*
X90336247Y-45104495D01*
X90384788Y-45050586D01*
X90404421Y-45036321D01*
X90421208Y-45019535D01*
X90467954Y-44990162D01*
X90520069Y-44952299D01*
X90548017Y-44939855D01*
X90572893Y-44924225D01*
X90620675Y-44907505D01*
X90672828Y-44884285D01*
X90709019Y-44876592D01*
X90741983Y-44865058D01*
X90787318Y-44859949D01*
X90836393Y-44849519D01*
X90879893Y-44849519D01*
X90920000Y-44845000D01*
X90960107Y-44849519D01*
G37*
G36*
X93500107Y-44849519D02*
G01*
X93543607Y-44849519D01*
X93592680Y-44859949D01*
X93638017Y-44865058D01*
X93670982Y-44876592D01*
X93707171Y-44884285D01*
X93759321Y-44907504D01*
X93807107Y-44924225D01*
X93831982Y-44939855D01*
X93859931Y-44952299D01*
X93912042Y-44990160D01*
X93958792Y-45019535D01*
X93975580Y-45036323D01*
X93995211Y-45050586D01*
X94043742Y-45104485D01*
X94085465Y-45146208D01*
X94095061Y-45161481D01*
X94107101Y-45174852D01*
X94148288Y-45246190D01*
X94180775Y-45297893D01*
X94184831Y-45309485D01*
X94190712Y-45319671D01*
X94220829Y-45412361D01*
X94239942Y-45466983D01*
X94240666Y-45473414D01*
X94242383Y-45478697D01*
X94257946Y-45626773D01*
X94260000Y-45645000D01*
X94257946Y-45663228D01*
X94242383Y-45811302D01*
X94240666Y-45816583D01*
X94239942Y-45823017D01*
X94220824Y-45877651D01*
X94190712Y-45970328D01*
X94184832Y-45980512D01*
X94180775Y-45992107D01*
X94148280Y-46043820D01*
X94107101Y-46115147D01*
X94095063Y-46128515D01*
X94085465Y-46143792D01*
X94043733Y-46185523D01*
X93995211Y-46239413D01*
X93975584Y-46253672D01*
X93958792Y-46270465D01*
X93912032Y-46299846D01*
X93859931Y-46337700D01*
X93831988Y-46350141D01*
X93807107Y-46365775D01*
X93759310Y-46382499D01*
X93707171Y-46405714D01*
X93670987Y-46413405D01*
X93638017Y-46424942D01*
X93592677Y-46430050D01*
X93543607Y-46440481D01*
X93500107Y-46440481D01*
X93460000Y-46445000D01*
X93419893Y-46440481D01*
X93376393Y-46440481D01*
X93327321Y-46430050D01*
X93281983Y-46424942D01*
X93249013Y-46413405D01*
X93212828Y-46405714D01*
X93160684Y-46382497D01*
X93112893Y-46365775D01*
X93088014Y-46350142D01*
X93060068Y-46337700D01*
X93007960Y-46299841D01*
X92961208Y-46270465D01*
X92944418Y-46253675D01*
X92924788Y-46239413D01*
X92876256Y-46185513D01*
X92834535Y-46143792D01*
X92824938Y-46128519D01*
X92812898Y-46115147D01*
X92771706Y-46043801D01*
X92739225Y-45992107D01*
X92735169Y-45980516D01*
X92729287Y-45970328D01*
X92699161Y-45877611D01*
X92680058Y-45823017D01*
X92679333Y-45816588D01*
X92677616Y-45811302D01*
X92662038Y-45663096D01*
X92660000Y-45645000D01*
X92662038Y-45626905D01*
X92677616Y-45478697D01*
X92679333Y-45473410D01*
X92680058Y-45466983D01*
X92699156Y-45412401D01*
X92729287Y-45319671D01*
X92735170Y-45309480D01*
X92739225Y-45297893D01*
X92771699Y-45246209D01*
X92812898Y-45174852D01*
X92824940Y-45161477D01*
X92834535Y-45146208D01*
X92876247Y-45104495D01*
X92924788Y-45050586D01*
X92944421Y-45036321D01*
X92961208Y-45019535D01*
X93007954Y-44990162D01*
X93060069Y-44952299D01*
X93088017Y-44939855D01*
X93112893Y-44924225D01*
X93160675Y-44907505D01*
X93212828Y-44884285D01*
X93249019Y-44876592D01*
X93281983Y-44865058D01*
X93327318Y-44859949D01*
X93376393Y-44849519D01*
X93419893Y-44849519D01*
X93460000Y-44845000D01*
X93500107Y-44849519D01*
G37*
G36*
X96040107Y-44849519D02*
G01*
X96083607Y-44849519D01*
X96132680Y-44859949D01*
X96178017Y-44865058D01*
X96210982Y-44876592D01*
X96247171Y-44884285D01*
X96299321Y-44907504D01*
X96347107Y-44924225D01*
X96371982Y-44939855D01*
X96399931Y-44952299D01*
X96452042Y-44990160D01*
X96498792Y-45019535D01*
X96515580Y-45036323D01*
X96535211Y-45050586D01*
X96583742Y-45104485D01*
X96625465Y-45146208D01*
X96635061Y-45161481D01*
X96647101Y-45174852D01*
X96688288Y-45246190D01*
X96720775Y-45297893D01*
X96724831Y-45309485D01*
X96730712Y-45319671D01*
X96760829Y-45412361D01*
X96779942Y-45466983D01*
X96780666Y-45473414D01*
X96782383Y-45478697D01*
X96797946Y-45626773D01*
X96800000Y-45645000D01*
X96797946Y-45663228D01*
X96782383Y-45811302D01*
X96780666Y-45816583D01*
X96779942Y-45823017D01*
X96760824Y-45877651D01*
X96730712Y-45970328D01*
X96724832Y-45980512D01*
X96720775Y-45992107D01*
X96688280Y-46043820D01*
X96647101Y-46115147D01*
X96635063Y-46128515D01*
X96625465Y-46143792D01*
X96583733Y-46185523D01*
X96535211Y-46239413D01*
X96515584Y-46253672D01*
X96498792Y-46270465D01*
X96452032Y-46299846D01*
X96399931Y-46337700D01*
X96371988Y-46350141D01*
X96347107Y-46365775D01*
X96299310Y-46382499D01*
X96247171Y-46405714D01*
X96210987Y-46413405D01*
X96178017Y-46424942D01*
X96132677Y-46430050D01*
X96083607Y-46440481D01*
X96040107Y-46440481D01*
X96000000Y-46445000D01*
X95959893Y-46440481D01*
X95916393Y-46440481D01*
X95867321Y-46430050D01*
X95821983Y-46424942D01*
X95789013Y-46413405D01*
X95752828Y-46405714D01*
X95700684Y-46382497D01*
X95652893Y-46365775D01*
X95628014Y-46350142D01*
X95600068Y-46337700D01*
X95547960Y-46299841D01*
X95501208Y-46270465D01*
X95484418Y-46253675D01*
X95464788Y-46239413D01*
X95416256Y-46185513D01*
X95374535Y-46143792D01*
X95364938Y-46128519D01*
X95352898Y-46115147D01*
X95311706Y-46043801D01*
X95279225Y-45992107D01*
X95275169Y-45980516D01*
X95269287Y-45970328D01*
X95239161Y-45877611D01*
X95220058Y-45823017D01*
X95219333Y-45816588D01*
X95217616Y-45811302D01*
X95202038Y-45663096D01*
X95200000Y-45645000D01*
X95202038Y-45626905D01*
X95217616Y-45478697D01*
X95219333Y-45473410D01*
X95220058Y-45466983D01*
X95239156Y-45412401D01*
X95269287Y-45319671D01*
X95275170Y-45309480D01*
X95279225Y-45297893D01*
X95311699Y-45246209D01*
X95352898Y-45174852D01*
X95364940Y-45161477D01*
X95374535Y-45146208D01*
X95416247Y-45104495D01*
X95464788Y-45050586D01*
X95484421Y-45036321D01*
X95501208Y-45019535D01*
X95547954Y-44990162D01*
X95600069Y-44952299D01*
X95628017Y-44939855D01*
X95652893Y-44924225D01*
X95700675Y-44907505D01*
X95752828Y-44884285D01*
X95789019Y-44876592D01*
X95821983Y-44865058D01*
X95867318Y-44859949D01*
X95916393Y-44849519D01*
X95959893Y-44849519D01*
X96000000Y-44845000D01*
X96040107Y-44849519D01*
G37*
G36*
X24538318Y-42218115D02*
G01*
X24712800Y-42295799D01*
X24867318Y-42408063D01*
X24995118Y-42549999D01*
X25090615Y-42715405D01*
X25149636Y-42897052D01*
X25169600Y-43087000D01*
X25149636Y-43276948D01*
X25090615Y-43458595D01*
X24995118Y-43624001D01*
X24867318Y-43765937D01*
X24712800Y-43878201D01*
X24538318Y-43955885D01*
X24351497Y-43995595D01*
X24160503Y-43995595D01*
X23973682Y-43955885D01*
X23799200Y-43878201D01*
X23644682Y-43765937D01*
X23516882Y-43624001D01*
X23421385Y-43458595D01*
X23362364Y-43276948D01*
X23342400Y-43087000D01*
X23362364Y-42897052D01*
X23421385Y-42715405D01*
X23516882Y-42549999D01*
X23644682Y-42408063D01*
X23799200Y-42295799D01*
X23973682Y-42218115D01*
X24160503Y-42178405D01*
X24351497Y-42178405D01*
X24538318Y-42218115D01*
G37*
G36*
X27078318Y-42218115D02*
G01*
X27252800Y-42295799D01*
X27407318Y-42408063D01*
X27535118Y-42549999D01*
X27630615Y-42715405D01*
X27689636Y-42897052D01*
X27709600Y-43087000D01*
X27689636Y-43276948D01*
X27630615Y-43458595D01*
X27535118Y-43624001D01*
X27407318Y-43765937D01*
X27252800Y-43878201D01*
X27078318Y-43955885D01*
X26891497Y-43995595D01*
X26700503Y-43995595D01*
X26513682Y-43955885D01*
X26339200Y-43878201D01*
X26184682Y-43765937D01*
X26056882Y-43624001D01*
X25961385Y-43458595D01*
X25902364Y-43276948D01*
X25882400Y-43087000D01*
X25902364Y-42897052D01*
X25961385Y-42715405D01*
X26056882Y-42549999D01*
X26184682Y-42408063D01*
X26339200Y-42295799D01*
X26513682Y-42218115D01*
X26700503Y-42178405D01*
X26891497Y-42178405D01*
X27078318Y-42218115D01*
G37*
G36*
X57558318Y-42218115D02*
G01*
X57732800Y-42295799D01*
X57887318Y-42408063D01*
X58015118Y-42549999D01*
X58110615Y-42715405D01*
X58169636Y-42897052D01*
X58189600Y-43087000D01*
X58169636Y-43276948D01*
X58110615Y-43458595D01*
X58015118Y-43624001D01*
X57887318Y-43765937D01*
X57732800Y-43878201D01*
X57558318Y-43955885D01*
X57371497Y-43995595D01*
X57180503Y-43995595D01*
X56993682Y-43955885D01*
X56819200Y-43878201D01*
X56664682Y-43765937D01*
X56536882Y-43624001D01*
X56441385Y-43458595D01*
X56382364Y-43276948D01*
X56362400Y-43087000D01*
X56382364Y-42897052D01*
X56441385Y-42715405D01*
X56536882Y-42549999D01*
X56664682Y-42408063D01*
X56819200Y-42295799D01*
X56993682Y-42218115D01*
X57180503Y-42178405D01*
X57371497Y-42178405D01*
X57558318Y-42218115D01*
G37*
G36*
X60098318Y-42218115D02*
G01*
X60272800Y-42295799D01*
X60427318Y-42408063D01*
X60555118Y-42549999D01*
X60650615Y-42715405D01*
X60709636Y-42897052D01*
X60729600Y-43087000D01*
X60709636Y-43276948D01*
X60650615Y-43458595D01*
X60555118Y-43624001D01*
X60427318Y-43765937D01*
X60272800Y-43878201D01*
X60098318Y-43955885D01*
X59911497Y-43995595D01*
X59720503Y-43995595D01*
X59533682Y-43955885D01*
X59359200Y-43878201D01*
X59204682Y-43765937D01*
X59076882Y-43624001D01*
X58981385Y-43458595D01*
X58922364Y-43276948D01*
X58902400Y-43087000D01*
X58922364Y-42897052D01*
X58981385Y-42715405D01*
X59076882Y-42549999D01*
X59204682Y-42408063D01*
X59359200Y-42295799D01*
X59533682Y-42218115D01*
X59720503Y-42178405D01*
X59911497Y-42178405D01*
X60098318Y-42218115D01*
G37*
G36*
X24538318Y-39678115D02*
G01*
X24712800Y-39755799D01*
X24867318Y-39868063D01*
X24995118Y-40009999D01*
X25090615Y-40175405D01*
X25149636Y-40357052D01*
X25169600Y-40547000D01*
X25149636Y-40736948D01*
X25090615Y-40918595D01*
X24995118Y-41084001D01*
X24867318Y-41225937D01*
X24712800Y-41338201D01*
X24538318Y-41415885D01*
X24351497Y-41455595D01*
X24160503Y-41455595D01*
X23973682Y-41415885D01*
X23799200Y-41338201D01*
X23644682Y-41225937D01*
X23516882Y-41084001D01*
X23421385Y-40918595D01*
X23362364Y-40736948D01*
X23342400Y-40547000D01*
X23362364Y-40357052D01*
X23421385Y-40175405D01*
X23516882Y-40009999D01*
X23644682Y-39868063D01*
X23799200Y-39755799D01*
X23973682Y-39678115D01*
X24160503Y-39638405D01*
X24351497Y-39638405D01*
X24538318Y-39678115D01*
G37*
G36*
X27078318Y-39678115D02*
G01*
X27252800Y-39755799D01*
X27407318Y-39868063D01*
X27535118Y-40009999D01*
X27630615Y-40175405D01*
X27689636Y-40357052D01*
X27709600Y-40547000D01*
X27689636Y-40736948D01*
X27630615Y-40918595D01*
X27535118Y-41084001D01*
X27407318Y-41225937D01*
X27252800Y-41338201D01*
X27078318Y-41415885D01*
X26891497Y-41455595D01*
X26700503Y-41455595D01*
X26513682Y-41415885D01*
X26339200Y-41338201D01*
X26184682Y-41225937D01*
X26056882Y-41084001D01*
X25961385Y-40918595D01*
X25902364Y-40736948D01*
X25882400Y-40547000D01*
X25902364Y-40357052D01*
X25961385Y-40175405D01*
X26056882Y-40009999D01*
X26184682Y-39868063D01*
X26339200Y-39755799D01*
X26513682Y-39678115D01*
X26700503Y-39638405D01*
X26891497Y-39638405D01*
X27078318Y-39678115D01*
G37*
G36*
X57558318Y-39678115D02*
G01*
X57732800Y-39755799D01*
X57887318Y-39868063D01*
X58015118Y-40009999D01*
X58110615Y-40175405D01*
X58169636Y-40357052D01*
X58189600Y-40547000D01*
X58169636Y-40736948D01*
X58110615Y-40918595D01*
X58015118Y-41084001D01*
X57887318Y-41225937D01*
X57732800Y-41338201D01*
X57558318Y-41415885D01*
X57371497Y-41455595D01*
X57180503Y-41455595D01*
X56993682Y-41415885D01*
X56819200Y-41338201D01*
X56664682Y-41225937D01*
X56536882Y-41084001D01*
X56441385Y-40918595D01*
X56382364Y-40736948D01*
X56362400Y-40547000D01*
X56382364Y-40357052D01*
X56441385Y-40175405D01*
X56536882Y-40009999D01*
X56664682Y-39868063D01*
X56819200Y-39755799D01*
X56993682Y-39678115D01*
X57180503Y-39638405D01*
X57371497Y-39638405D01*
X57558318Y-39678115D01*
G37*
G36*
X60098318Y-39678115D02*
G01*
X60272800Y-39755799D01*
X60427318Y-39868063D01*
X60555118Y-40009999D01*
X60650615Y-40175405D01*
X60709636Y-40357052D01*
X60729600Y-40547000D01*
X60709636Y-40736948D01*
X60650615Y-40918595D01*
X60555118Y-41084001D01*
X60427318Y-41225937D01*
X60272800Y-41338201D01*
X60098318Y-41415885D01*
X59911497Y-41455595D01*
X59720503Y-41455595D01*
X59533682Y-41415885D01*
X59359200Y-41338201D01*
X59204682Y-41225937D01*
X59076882Y-41084001D01*
X58981385Y-40918595D01*
X58922364Y-40736948D01*
X58902400Y-40547000D01*
X58922364Y-40357052D01*
X58981385Y-40175405D01*
X59076882Y-40009999D01*
X59204682Y-39868063D01*
X59359200Y-39755799D01*
X59533682Y-39678115D01*
X59720503Y-39638405D01*
X59911497Y-39638405D01*
X60098318Y-39678115D01*
G37*
G36*
X24538318Y-37138115D02*
G01*
X24712800Y-37215799D01*
X24867318Y-37328063D01*
X24995118Y-37469999D01*
X25090615Y-37635405D01*
X25149636Y-37817052D01*
X25169600Y-38007000D01*
X25149636Y-38196948D01*
X25090615Y-38378595D01*
X24995118Y-38544001D01*
X24867318Y-38685937D01*
X24712800Y-38798201D01*
X24538318Y-38875885D01*
X24351497Y-38915595D01*
X24160503Y-38915595D01*
X23973682Y-38875885D01*
X23799200Y-38798201D01*
X23644682Y-38685937D01*
X23516882Y-38544001D01*
X23421385Y-38378595D01*
X23362364Y-38196948D01*
X23342400Y-38007000D01*
X23362364Y-37817052D01*
X23421385Y-37635405D01*
X23516882Y-37469999D01*
X23644682Y-37328063D01*
X23799200Y-37215799D01*
X23973682Y-37138115D01*
X24160503Y-37098405D01*
X24351497Y-37098405D01*
X24538318Y-37138115D01*
G37*
G36*
X27078318Y-37138115D02*
G01*
X27252800Y-37215799D01*
X27407318Y-37328063D01*
X27535118Y-37469999D01*
X27630615Y-37635405D01*
X27689636Y-37817052D01*
X27709600Y-38007000D01*
X27689636Y-38196948D01*
X27630615Y-38378595D01*
X27535118Y-38544001D01*
X27407318Y-38685937D01*
X27252800Y-38798201D01*
X27078318Y-38875885D01*
X26891497Y-38915595D01*
X26700503Y-38915595D01*
X26513682Y-38875885D01*
X26339200Y-38798201D01*
X26184682Y-38685937D01*
X26056882Y-38544001D01*
X25961385Y-38378595D01*
X25902364Y-38196948D01*
X25882400Y-38007000D01*
X25902364Y-37817052D01*
X25961385Y-37635405D01*
X26056882Y-37469999D01*
X26184682Y-37328063D01*
X26339200Y-37215799D01*
X26513682Y-37138115D01*
X26700503Y-37098405D01*
X26891497Y-37098405D01*
X27078318Y-37138115D01*
G37*
G36*
X57558318Y-37138115D02*
G01*
X57732800Y-37215799D01*
X57887318Y-37328063D01*
X58015118Y-37469999D01*
X58110615Y-37635405D01*
X58169636Y-37817052D01*
X58189600Y-38007000D01*
X58169636Y-38196948D01*
X58110615Y-38378595D01*
X58015118Y-38544001D01*
X57887318Y-38685937D01*
X57732800Y-38798201D01*
X57558318Y-38875885D01*
X57371497Y-38915595D01*
X57180503Y-38915595D01*
X56993682Y-38875885D01*
X56819200Y-38798201D01*
X56664682Y-38685937D01*
X56536882Y-38544001D01*
X56441385Y-38378595D01*
X56382364Y-38196948D01*
X56362400Y-38007000D01*
X56382364Y-37817052D01*
X56441385Y-37635405D01*
X56536882Y-37469999D01*
X56664682Y-37328063D01*
X56819200Y-37215799D01*
X56993682Y-37138115D01*
X57180503Y-37098405D01*
X57371497Y-37098405D01*
X57558318Y-37138115D01*
G37*
G36*
X60098318Y-37138115D02*
G01*
X60272800Y-37215799D01*
X60427318Y-37328063D01*
X60555118Y-37469999D01*
X60650615Y-37635405D01*
X60709636Y-37817052D01*
X60729600Y-38007000D01*
X60709636Y-38196948D01*
X60650615Y-38378595D01*
X60555118Y-38544001D01*
X60427318Y-38685937D01*
X60272800Y-38798201D01*
X60098318Y-38875885D01*
X59911497Y-38915595D01*
X59720503Y-38915595D01*
X59533682Y-38875885D01*
X59359200Y-38798201D01*
X59204682Y-38685937D01*
X59076882Y-38544001D01*
X58981385Y-38378595D01*
X58922364Y-38196948D01*
X58902400Y-38007000D01*
X58922364Y-37817052D01*
X58981385Y-37635405D01*
X59076882Y-37469999D01*
X59204682Y-37328063D01*
X59359200Y-37215799D01*
X59533682Y-37138115D01*
X59720503Y-37098405D01*
X59911497Y-37098405D01*
X60098318Y-37138115D01*
G37*
G36*
X52763517Y-35294884D02*
G01*
X52827298Y-35294884D01*
X52896991Y-35305388D01*
X52962117Y-35310514D01*
X53014610Y-35323116D01*
X53071146Y-35331638D01*
X53145031Y-35354428D01*
X53213878Y-35370957D01*
X53258386Y-35389393D01*
X53306786Y-35404322D01*
X53382773Y-35440915D01*
X53453084Y-35470039D01*
X53489176Y-35492156D01*
X53528966Y-35511318D01*
X53604650Y-35562919D01*
X53673846Y-35605322D01*
X53701553Y-35628986D01*
X53732709Y-35650228D01*
X53805462Y-35717733D01*
X53870726Y-35773474D01*
X53890543Y-35796677D01*
X53913485Y-35817964D01*
X53980549Y-35902059D01*
X54038878Y-35970354D01*
X54051707Y-35991289D01*
X54067236Y-36010762D01*
X54125806Y-36112208D01*
X54174161Y-36191116D01*
X54181262Y-36208260D01*
X54190535Y-36224321D01*
X54237830Y-36344827D01*
X54273243Y-36430322D01*
X54276171Y-36442520D01*
X54280628Y-36453875D01*
X54313993Y-36600057D01*
X54333686Y-36682083D01*
X54334196Y-36688575D01*
X54335501Y-36694289D01*
X54352534Y-36921578D01*
X54354000Y-36940200D01*
X54352534Y-36958823D01*
X54335501Y-37186110D01*
X54334197Y-37191822D01*
X54333686Y-37198317D01*
X54313988Y-37280361D01*
X54280628Y-37426524D01*
X54276172Y-37437877D01*
X54273243Y-37450078D01*
X54237822Y-37535590D01*
X54190535Y-37656078D01*
X54181264Y-37672135D01*
X54174161Y-37689284D01*
X54125796Y-37768207D01*
X54067236Y-37869637D01*
X54051710Y-37889105D01*
X54038878Y-37910046D01*
X53980537Y-37978354D01*
X53913485Y-38062435D01*
X53890548Y-38083717D01*
X53870726Y-38106926D01*
X53805448Y-38162678D01*
X53732709Y-38230171D01*
X53701559Y-38251408D01*
X53673846Y-38275078D01*
X53604636Y-38317489D01*
X53528966Y-38369081D01*
X53489183Y-38388239D01*
X53453084Y-38410361D01*
X53382758Y-38439490D01*
X53306786Y-38476077D01*
X53258396Y-38491002D01*
X53213878Y-38509443D01*
X53145017Y-38525975D01*
X53071146Y-38548761D01*
X53014619Y-38557281D01*
X52962117Y-38569886D01*
X52896987Y-38575011D01*
X52827298Y-38585516D01*
X52763517Y-38585516D01*
X52704000Y-38590200D01*
X52644483Y-38585516D01*
X52580702Y-38585516D01*
X52511011Y-38575011D01*
X52445883Y-38569886D01*
X52393382Y-38557281D01*
X52336853Y-38548761D01*
X52262978Y-38525974D01*
X52194122Y-38509443D01*
X52149606Y-38491004D01*
X52101213Y-38476077D01*
X52025236Y-38439488D01*
X51954916Y-38410361D01*
X51918816Y-38388239D01*
X51879034Y-38369081D01*
X51803365Y-38317490D01*
X51734154Y-38275078D01*
X51706439Y-38251407D01*
X51675290Y-38230170D01*
X51602546Y-38162674D01*
X51537274Y-38106926D01*
X51517455Y-38083721D01*
X51494514Y-38062435D01*
X51427447Y-37978336D01*
X51369122Y-37910046D01*
X51356293Y-37889111D01*
X51340763Y-37869637D01*
X51282186Y-37768179D01*
X51233839Y-37689284D01*
X51226738Y-37672141D01*
X51217464Y-37656078D01*
X51170158Y-37535544D01*
X51134757Y-37450078D01*
X51131829Y-37437883D01*
X51127371Y-37426524D01*
X51093991Y-37280277D01*
X51074314Y-37198317D01*
X51073803Y-37191829D01*
X51072498Y-37186110D01*
X51055444Y-36958557D01*
X51054000Y-36940200D01*
X51055444Y-36921844D01*
X51072498Y-36694289D01*
X51073803Y-36688569D01*
X51074314Y-36682083D01*
X51093986Y-36600141D01*
X51127371Y-36453875D01*
X51131830Y-36442513D01*
X51134757Y-36430322D01*
X51170150Y-36344873D01*
X51217464Y-36224321D01*
X51226739Y-36208254D01*
X51233839Y-36191116D01*
X51282176Y-36112236D01*
X51340763Y-36010762D01*
X51356295Y-35991284D01*
X51369122Y-35970354D01*
X51427435Y-35902077D01*
X51494514Y-35817964D01*
X51517459Y-35796673D01*
X51537274Y-35773474D01*
X51602533Y-35717736D01*
X51675290Y-35650229D01*
X51706445Y-35628987D01*
X51734154Y-35605322D01*
X51803350Y-35562918D01*
X51879034Y-35511318D01*
X51918824Y-35492155D01*
X51954916Y-35470039D01*
X52025222Y-35440917D01*
X52101213Y-35404322D01*
X52149615Y-35389391D01*
X52194122Y-35370957D01*
X52262963Y-35354429D01*
X52336853Y-35331638D01*
X52393390Y-35323116D01*
X52445883Y-35310514D01*
X52511007Y-35305388D01*
X52580702Y-35294884D01*
X52644483Y-35294884D01*
X52704000Y-35290200D01*
X52763517Y-35294884D01*
G37*
G36*
X24538318Y-34598115D02*
G01*
X24712800Y-34675799D01*
X24867318Y-34788063D01*
X24995118Y-34929999D01*
X25090615Y-35095405D01*
X25149636Y-35277052D01*
X25169600Y-35467000D01*
X25149636Y-35656948D01*
X25090615Y-35838595D01*
X24995118Y-36004001D01*
X24867318Y-36145937D01*
X24712800Y-36258201D01*
X24538318Y-36335885D01*
X24351497Y-36375595D01*
X24160503Y-36375595D01*
X23973682Y-36335885D01*
X23799200Y-36258201D01*
X23644682Y-36145937D01*
X23516882Y-36004001D01*
X23421385Y-35838595D01*
X23362364Y-35656948D01*
X23342400Y-35467000D01*
X23362364Y-35277052D01*
X23421385Y-35095405D01*
X23516882Y-34929999D01*
X23644682Y-34788063D01*
X23799200Y-34675799D01*
X23973682Y-34598115D01*
X24160503Y-34558405D01*
X24351497Y-34558405D01*
X24538318Y-34598115D01*
G37*
G36*
X27078318Y-34598115D02*
G01*
X27252800Y-34675799D01*
X27407318Y-34788063D01*
X27535118Y-34929999D01*
X27630615Y-35095405D01*
X27689636Y-35277052D01*
X27709600Y-35467000D01*
X27689636Y-35656948D01*
X27630615Y-35838595D01*
X27535118Y-36004001D01*
X27407318Y-36145937D01*
X27252800Y-36258201D01*
X27078318Y-36335885D01*
X26891497Y-36375595D01*
X26700503Y-36375595D01*
X26513682Y-36335885D01*
X26339200Y-36258201D01*
X26184682Y-36145937D01*
X26056882Y-36004001D01*
X25961385Y-35838595D01*
X25902364Y-35656948D01*
X25882400Y-35467000D01*
X25902364Y-35277052D01*
X25961385Y-35095405D01*
X26056882Y-34929999D01*
X26184682Y-34788063D01*
X26339200Y-34675799D01*
X26513682Y-34598115D01*
X26700503Y-34558405D01*
X26891497Y-34558405D01*
X27078318Y-34598115D01*
G37*
G36*
X134158267Y-33129806D02*
G01*
X134174488Y-33140645D01*
X134185327Y-33156866D01*
X134189133Y-33176000D01*
X134189133Y-35176000D01*
X134185327Y-35195134D01*
X134174488Y-35211355D01*
X134158267Y-35222194D01*
X134139133Y-35226000D01*
X131539133Y-35226000D01*
X131519999Y-35222194D01*
X131503778Y-35211355D01*
X131492939Y-35195134D01*
X131489133Y-35176000D01*
X131489133Y-33176000D01*
X131492939Y-33156866D01*
X131503778Y-33140645D01*
X131519999Y-33129806D01*
X131539133Y-33126000D01*
X134139133Y-33126000D01*
X134158267Y-33129806D01*
G37*
G36*
X24538318Y-32058115D02*
G01*
X24712800Y-32135799D01*
X24867318Y-32248063D01*
X24995118Y-32389999D01*
X25090615Y-32555405D01*
X25149636Y-32737052D01*
X25169600Y-32927000D01*
X25149636Y-33116948D01*
X25090615Y-33298595D01*
X24995118Y-33464001D01*
X24867318Y-33605937D01*
X24712800Y-33718201D01*
X24538318Y-33795885D01*
X24351497Y-33835595D01*
X24160503Y-33835595D01*
X23973682Y-33795885D01*
X23799200Y-33718201D01*
X23644682Y-33605937D01*
X23516882Y-33464001D01*
X23421385Y-33298595D01*
X23362364Y-33116948D01*
X23342400Y-32927000D01*
X23362364Y-32737052D01*
X23421385Y-32555405D01*
X23516882Y-32389999D01*
X23644682Y-32248063D01*
X23799200Y-32135799D01*
X23973682Y-32058115D01*
X24160503Y-32018405D01*
X24351497Y-32018405D01*
X24538318Y-32058115D01*
G37*
G36*
X27078318Y-32058115D02*
G01*
X27252800Y-32135799D01*
X27407318Y-32248063D01*
X27535118Y-32389999D01*
X27630615Y-32555405D01*
X27689636Y-32737052D01*
X27709600Y-32927000D01*
X27689636Y-33116948D01*
X27630615Y-33298595D01*
X27535118Y-33464001D01*
X27407318Y-33605937D01*
X27252800Y-33718201D01*
X27078318Y-33795885D01*
X26891497Y-33835595D01*
X26700503Y-33835595D01*
X26513682Y-33795885D01*
X26339200Y-33718201D01*
X26184682Y-33605937D01*
X26056882Y-33464001D01*
X25961385Y-33298595D01*
X25902364Y-33116948D01*
X25882400Y-32927000D01*
X25902364Y-32737052D01*
X25961385Y-32555405D01*
X26056882Y-32389999D01*
X26184682Y-32248063D01*
X26339200Y-32135799D01*
X26513682Y-32058115D01*
X26700503Y-32018405D01*
X26891497Y-32018405D01*
X27078318Y-32058115D01*
G37*
G36*
X129158267Y-29829806D02*
G01*
X129174488Y-29840645D01*
X129185327Y-29856866D01*
X129189133Y-29876000D01*
X129189133Y-32476000D01*
X129185327Y-32495134D01*
X129174488Y-32511355D01*
X129158267Y-32522194D01*
X129139133Y-32526000D01*
X127139133Y-32526000D01*
X127119999Y-32522194D01*
X127103778Y-32511355D01*
X127092939Y-32495134D01*
X127089133Y-32476000D01*
X127089133Y-29876000D01*
X127092939Y-29856866D01*
X127103778Y-29840645D01*
X127119999Y-29829806D01*
X127139133Y-29826000D01*
X129139133Y-29826000D01*
X129158267Y-29829806D01*
G37*
G36*
X24538318Y-29518115D02*
G01*
X24712800Y-29595799D01*
X24867318Y-29708063D01*
X24995118Y-29849999D01*
X25090615Y-30015405D01*
X25149636Y-30197052D01*
X25169600Y-30387000D01*
X25149636Y-30576948D01*
X25090615Y-30758595D01*
X24995118Y-30924001D01*
X24867318Y-31065937D01*
X24712800Y-31178201D01*
X24538318Y-31255885D01*
X24351497Y-31295595D01*
X24160503Y-31295595D01*
X23973682Y-31255885D01*
X23799200Y-31178201D01*
X23644682Y-31065937D01*
X23516882Y-30924001D01*
X23421385Y-30758595D01*
X23362364Y-30576948D01*
X23342400Y-30387000D01*
X23362364Y-30197052D01*
X23421385Y-30015405D01*
X23516882Y-29849999D01*
X23644682Y-29708063D01*
X23799200Y-29595799D01*
X23973682Y-29518115D01*
X24160503Y-29478405D01*
X24351497Y-29478405D01*
X24538318Y-29518115D01*
G37*
G36*
X27078318Y-29518115D02*
G01*
X27252800Y-29595799D01*
X27407318Y-29708063D01*
X27535118Y-29849999D01*
X27630615Y-30015405D01*
X27689636Y-30197052D01*
X27709600Y-30387000D01*
X27689636Y-30576948D01*
X27630615Y-30758595D01*
X27535118Y-30924001D01*
X27407318Y-31065937D01*
X27252800Y-31178201D01*
X27078318Y-31255885D01*
X26891497Y-31295595D01*
X26700503Y-31295595D01*
X26513682Y-31255885D01*
X26339200Y-31178201D01*
X26184682Y-31065937D01*
X26056882Y-30924001D01*
X25961385Y-30758595D01*
X25902364Y-30576948D01*
X25882400Y-30387000D01*
X25902364Y-30197052D01*
X25961385Y-30015405D01*
X26056882Y-29849999D01*
X26184682Y-29708063D01*
X26339200Y-29595799D01*
X26513682Y-29518115D01*
X26700503Y-29478405D01*
X26891497Y-29478405D01*
X27078318Y-29518115D01*
G37*
G36*
X134158267Y-27129806D02*
G01*
X134174488Y-27140645D01*
X134185327Y-27156866D01*
X134189133Y-27176000D01*
X134189133Y-29176000D01*
X134185327Y-29195134D01*
X134174488Y-29211355D01*
X134158267Y-29222194D01*
X134139133Y-29226000D01*
X131539133Y-29226000D01*
X131519999Y-29222194D01*
X131503778Y-29211355D01*
X131492939Y-29195134D01*
X131489133Y-29176000D01*
X131489133Y-27176000D01*
X131492939Y-27156866D01*
X131503778Y-27140645D01*
X131519999Y-27129806D01*
X131539133Y-27126000D01*
X134139133Y-27126000D01*
X134158267Y-27129806D01*
G37*
G36*
X25138734Y-26937206D02*
G01*
X25154955Y-26948045D01*
X25165794Y-26964266D01*
X25169600Y-26983400D01*
X25169600Y-28710600D01*
X25165794Y-28729734D01*
X25154955Y-28745955D01*
X25138734Y-28756794D01*
X25119600Y-28760600D01*
X23392400Y-28760600D01*
X23373266Y-28756794D01*
X23357045Y-28745955D01*
X23346206Y-28729734D01*
X23342400Y-28710600D01*
X23342400Y-26983400D01*
X23346206Y-26964266D01*
X23357045Y-26948045D01*
X23373266Y-26937206D01*
X23392400Y-26933400D01*
X25119600Y-26933400D01*
X25138734Y-26937206D01*
G37*
G36*
X27678734Y-26937206D02*
G01*
X27694955Y-26948045D01*
X27705794Y-26964266D01*
X27709600Y-26983400D01*
X27709600Y-28710600D01*
X27705794Y-28729734D01*
X27694955Y-28745955D01*
X27678734Y-28756794D01*
X27659600Y-28760600D01*
X25932400Y-28760600D01*
X25913266Y-28756794D01*
X25897045Y-28745955D01*
X25886206Y-28729734D01*
X25882400Y-28710600D01*
X25882400Y-26983400D01*
X25886206Y-26964266D01*
X25897045Y-26948045D01*
X25913266Y-26937206D01*
X25932400Y-26933400D01*
X27659600Y-26933400D01*
X27678734Y-26937206D01*
G37*
G36*
X98378685Y-24090469D02*
G01*
X98382842Y-24092304D01*
X98387037Y-24092857D01*
X98439514Y-24117327D01*
X98479541Y-24135001D01*
X98481398Y-24136858D01*
X98481852Y-24137070D01*
X98555429Y-24210647D01*
X98555640Y-24211100D01*
X98557499Y-24212959D01*
X98575181Y-24253007D01*
X98599642Y-24305462D01*
X98600193Y-24309654D01*
X98602031Y-24313815D01*
X98610000Y-24382500D01*
X98610000Y-27482500D01*
X98602031Y-27551185D01*
X98600193Y-27555346D01*
X98599642Y-27559537D01*
X98575190Y-27611974D01*
X98557499Y-27652041D01*
X98555639Y-27653900D01*
X98555429Y-27654352D01*
X98481852Y-27727929D01*
X98481400Y-27728139D01*
X98479541Y-27729999D01*
X98439474Y-27747690D01*
X98387037Y-27772142D01*
X98382846Y-27772693D01*
X98378685Y-27774531D01*
X98310000Y-27782500D01*
X97010000Y-27782500D01*
X96941315Y-27774531D01*
X96937154Y-27772693D01*
X96932962Y-27772142D01*
X96880507Y-27747681D01*
X96840459Y-27729999D01*
X96838600Y-27728140D01*
X96838147Y-27727929D01*
X96764570Y-27654352D01*
X96764358Y-27653898D01*
X96762501Y-27652041D01*
X96744827Y-27612014D01*
X96720357Y-27559537D01*
X96719804Y-27555342D01*
X96717969Y-27551185D01*
X96710000Y-27482500D01*
X96710000Y-24382500D01*
X96717969Y-24313815D01*
X96719804Y-24309657D01*
X96720357Y-24305462D01*
X96744836Y-24252966D01*
X96762501Y-24212959D01*
X96764357Y-24211102D01*
X96764570Y-24210647D01*
X96838147Y-24137070D01*
X96838602Y-24136857D01*
X96840459Y-24135001D01*
X96880466Y-24117336D01*
X96932962Y-24092857D01*
X96937157Y-24092304D01*
X96941315Y-24090469D01*
X97010000Y-24082500D01*
X98310000Y-24082500D01*
X98378685Y-24090469D01*
G37*
G36*
X86505770Y-24123407D02*
G01*
X86677827Y-24194675D01*
X86832674Y-24298140D01*
X86964360Y-24429826D01*
X87067825Y-24584673D01*
X87139093Y-24756730D01*
X87175425Y-24939384D01*
X87180000Y-26832500D01*
X87175425Y-26925616D01*
X87139093Y-27108270D01*
X87067825Y-27280327D01*
X86964360Y-27435174D01*
X86832674Y-27566860D01*
X86677827Y-27670325D01*
X86505770Y-27741593D01*
X86323116Y-27777925D01*
X86136884Y-27777925D01*
X85954230Y-27741593D01*
X85782173Y-27670325D01*
X85627326Y-27566860D01*
X85495640Y-27435174D01*
X85392175Y-27280327D01*
X85320907Y-27108270D01*
X85284575Y-26925616D01*
X85280000Y-25032500D01*
X85284575Y-24939384D01*
X85320907Y-24756730D01*
X85392175Y-24584673D01*
X85495640Y-24429826D01*
X85627326Y-24298140D01*
X85782173Y-24194675D01*
X85954230Y-24123407D01*
X86136884Y-24087075D01*
X86323116Y-24087075D01*
X86505770Y-24123407D01*
G37*
G36*
X90315770Y-24123407D02*
G01*
X90487827Y-24194675D01*
X90642674Y-24298140D01*
X90774360Y-24429826D01*
X90877825Y-24584673D01*
X90949093Y-24756730D01*
X90985425Y-24939384D01*
X90990000Y-26832500D01*
X90985425Y-26925616D01*
X90949093Y-27108270D01*
X90877825Y-27280327D01*
X90774360Y-27435174D01*
X90642674Y-27566860D01*
X90487827Y-27670325D01*
X90315770Y-27741593D01*
X90133116Y-27777925D01*
X89946884Y-27777925D01*
X89764230Y-27741593D01*
X89592173Y-27670325D01*
X89437326Y-27566860D01*
X89305640Y-27435174D01*
X89202175Y-27280327D01*
X89130907Y-27108270D01*
X89094575Y-26925616D01*
X89090000Y-25032500D01*
X89094575Y-24939384D01*
X89130907Y-24756730D01*
X89202175Y-24584673D01*
X89305640Y-24429826D01*
X89437326Y-24298140D01*
X89592173Y-24194675D01*
X89764230Y-24123407D01*
X89946884Y-24087075D01*
X90133116Y-24087075D01*
X90315770Y-24123407D01*
G37*
G36*
X94125770Y-24123407D02*
G01*
X94297827Y-24194675D01*
X94452674Y-24298140D01*
X94584360Y-24429826D01*
X94687825Y-24584673D01*
X94759093Y-24756730D01*
X94795425Y-24939384D01*
X94800000Y-26832500D01*
X94795425Y-26925616D01*
X94759093Y-27108270D01*
X94687825Y-27280327D01*
X94584360Y-27435174D01*
X94452674Y-27566860D01*
X94297827Y-27670325D01*
X94125770Y-27741593D01*
X93943116Y-27777925D01*
X93756884Y-27777925D01*
X93574230Y-27741593D01*
X93402173Y-27670325D01*
X93247326Y-27566860D01*
X93115640Y-27435174D01*
X93012175Y-27280327D01*
X92940907Y-27108270D01*
X92904575Y-26925616D01*
X92900000Y-25032500D01*
X92904575Y-24939384D01*
X92940907Y-24756730D01*
X93012175Y-24584673D01*
X93115640Y-24429826D01*
X93247326Y-24298140D01*
X93402173Y-24194675D01*
X93574230Y-24123407D01*
X93756884Y-24087075D01*
X93943116Y-24087075D01*
X94125770Y-24123407D01*
G37*
G36*
X177705885Y-23735769D02*
G01*
X177710042Y-23737604D01*
X177714237Y-23738157D01*
X177766714Y-23762627D01*
X177806741Y-23780301D01*
X177808598Y-23782158D01*
X177809052Y-23782370D01*
X177882629Y-23855947D01*
X177882840Y-23856400D01*
X177884699Y-23858259D01*
X177902381Y-23898307D01*
X177926842Y-23950762D01*
X177927393Y-23954954D01*
X177929231Y-23959115D01*
X177937200Y-24027800D01*
X177937200Y-27127800D01*
X177929231Y-27196485D01*
X177927393Y-27200646D01*
X177926842Y-27204837D01*
X177902390Y-27257274D01*
X177884699Y-27297341D01*
X177882839Y-27299200D01*
X177882629Y-27299652D01*
X177809052Y-27373229D01*
X177808600Y-27373439D01*
X177806741Y-27375299D01*
X177766674Y-27392990D01*
X177714237Y-27417442D01*
X177710046Y-27417993D01*
X177705885Y-27419831D01*
X177637200Y-27427800D01*
X176337200Y-27427800D01*
X176268515Y-27419831D01*
X176264354Y-27417993D01*
X176260162Y-27417442D01*
X176207707Y-27392981D01*
X176167659Y-27375299D01*
X176165800Y-27373440D01*
X176165347Y-27373229D01*
X176091770Y-27299652D01*
X176091558Y-27299198D01*
X176089701Y-27297341D01*
X176072027Y-27257314D01*
X176047557Y-27204837D01*
X176047004Y-27200642D01*
X176045169Y-27196485D01*
X176037200Y-27127800D01*
X176037200Y-24027800D01*
X176045169Y-23959115D01*
X176047004Y-23954957D01*
X176047557Y-23950762D01*
X176072036Y-23898266D01*
X176089701Y-23858259D01*
X176091557Y-23856402D01*
X176091770Y-23855947D01*
X176165347Y-23782370D01*
X176165802Y-23782157D01*
X176167659Y-23780301D01*
X176207666Y-23762636D01*
X176260162Y-23738157D01*
X176264357Y-23737604D01*
X176268515Y-23735769D01*
X176337200Y-23727800D01*
X177637200Y-23727800D01*
X177705885Y-23735769D01*
G37*
G36*
X172182970Y-23768707D02*
G01*
X172355027Y-23839975D01*
X172509874Y-23943440D01*
X172641560Y-24075126D01*
X172745025Y-24229973D01*
X172816293Y-24402030D01*
X172852625Y-24584684D01*
X172857200Y-26477800D01*
X172852625Y-26570916D01*
X172816293Y-26753570D01*
X172745025Y-26925627D01*
X172641560Y-27080474D01*
X172509874Y-27212160D01*
X172355027Y-27315625D01*
X172182970Y-27386893D01*
X172000316Y-27423225D01*
X171814084Y-27423225D01*
X171631430Y-27386893D01*
X171459373Y-27315625D01*
X171304526Y-27212160D01*
X171172840Y-27080474D01*
X171069375Y-26925627D01*
X170998107Y-26753570D01*
X170961775Y-26570916D01*
X170957200Y-24677800D01*
X170961775Y-24584684D01*
X170998107Y-24402030D01*
X171069375Y-24229973D01*
X171172840Y-24075126D01*
X171304526Y-23943440D01*
X171459373Y-23839975D01*
X171631430Y-23768707D01*
X171814084Y-23732375D01*
X172000316Y-23732375D01*
X172182970Y-23768707D01*
G37*
G36*
X148999685Y-23645669D02*
G01*
X149003842Y-23647504D01*
X149008037Y-23648057D01*
X149060514Y-23672527D01*
X149100541Y-23690201D01*
X149102398Y-23692058D01*
X149102852Y-23692270D01*
X149176429Y-23765847D01*
X149176640Y-23766300D01*
X149178499Y-23768159D01*
X149196181Y-23808207D01*
X149220642Y-23860662D01*
X149221193Y-23864854D01*
X149223031Y-23869015D01*
X149231000Y-23937700D01*
X149231000Y-27037700D01*
X149223031Y-27106385D01*
X149221193Y-27110546D01*
X149220642Y-27114737D01*
X149196190Y-27167174D01*
X149178499Y-27207241D01*
X149176639Y-27209100D01*
X149176429Y-27209552D01*
X149102852Y-27283129D01*
X149102400Y-27283339D01*
X149100541Y-27285199D01*
X149060474Y-27302890D01*
X149008037Y-27327342D01*
X149003846Y-27327893D01*
X148999685Y-27329731D01*
X148931000Y-27337700D01*
X147631000Y-27337700D01*
X147562315Y-27329731D01*
X147558154Y-27327893D01*
X147553962Y-27327342D01*
X147501507Y-27302881D01*
X147461459Y-27285199D01*
X147459600Y-27283340D01*
X147459147Y-27283129D01*
X147385570Y-27209552D01*
X147385358Y-27209098D01*
X147383501Y-27207241D01*
X147365827Y-27167214D01*
X147341357Y-27114737D01*
X147340804Y-27110542D01*
X147338969Y-27106385D01*
X147331000Y-27037700D01*
X147331000Y-23937700D01*
X147338969Y-23869015D01*
X147340804Y-23864857D01*
X147341357Y-23860662D01*
X147365836Y-23808166D01*
X147383501Y-23768159D01*
X147385357Y-23766302D01*
X147385570Y-23765847D01*
X147459147Y-23692270D01*
X147459602Y-23692057D01*
X147461459Y-23690201D01*
X147501466Y-23672536D01*
X147553962Y-23648057D01*
X147558157Y-23647504D01*
X147562315Y-23645669D01*
X147631000Y-23637700D01*
X148931000Y-23637700D01*
X148999685Y-23645669D01*
G37*
G36*
X143476770Y-23678607D02*
G01*
X143648827Y-23749875D01*
X143803674Y-23853340D01*
X143935360Y-23985026D01*
X144038825Y-24139873D01*
X144110093Y-24311930D01*
X144146425Y-24494584D01*
X144151000Y-26387700D01*
X144146425Y-26480816D01*
X144110093Y-26663470D01*
X144038825Y-26835527D01*
X143935360Y-26990374D01*
X143803674Y-27122060D01*
X143648827Y-27225525D01*
X143476770Y-27296793D01*
X143294116Y-27333125D01*
X143107884Y-27333125D01*
X142925230Y-27296793D01*
X142753173Y-27225525D01*
X142598326Y-27122060D01*
X142466640Y-26990374D01*
X142363175Y-26835527D01*
X142291907Y-26663470D01*
X142255575Y-26480816D01*
X142251000Y-24587700D01*
X142255575Y-24494584D01*
X142291907Y-24311930D01*
X142363175Y-24139873D01*
X142466640Y-23985026D01*
X142598326Y-23853340D01*
X142753173Y-23749875D01*
X142925230Y-23678607D01*
X143107884Y-23642275D01*
X143294116Y-23642275D01*
X143476770Y-23678607D01*
G37*
G36*
X35417085Y-22992878D02*
G01*
X35686503Y-23068365D01*
X35943133Y-23179835D01*
X36182195Y-23325212D01*
X36399234Y-23501786D01*
X36590208Y-23706270D01*
X36751560Y-23934853D01*
X36880283Y-24183278D01*
X36973980Y-24446917D01*
X37030906Y-24720858D01*
X37050000Y-25000000D01*
X37030906Y-25279142D01*
X36973980Y-25553083D01*
X36880283Y-25816722D01*
X36751560Y-26065147D01*
X36590208Y-26293730D01*
X36399234Y-26498214D01*
X36182195Y-26674788D01*
X35943133Y-26820165D01*
X35686503Y-26931635D01*
X35417085Y-27007122D01*
X35139897Y-27045221D01*
X34860103Y-27045221D01*
X34582915Y-27007122D01*
X34313497Y-26931635D01*
X34056867Y-26820165D01*
X33817805Y-26674788D01*
X33600766Y-26498214D01*
X33409792Y-26293730D01*
X33248440Y-26065147D01*
X33119717Y-25816722D01*
X33026020Y-25553083D01*
X32969094Y-25279142D01*
X32950000Y-25000000D01*
X32969094Y-24720858D01*
X33026020Y-24446917D01*
X33119717Y-24183278D01*
X33248440Y-23934853D01*
X33409792Y-23706270D01*
X33600766Y-23501786D01*
X33817805Y-23325212D01*
X34056867Y-23179835D01*
X34313497Y-23068365D01*
X34582915Y-22992878D01*
X34860103Y-22954779D01*
X35139897Y-22954779D01*
X35417085Y-22992878D01*
G37*
G36*
X120417085Y-22992878D02*
G01*
X120686503Y-23068365D01*
X120943133Y-23179835D01*
X121182195Y-23325212D01*
X121399234Y-23501786D01*
X121590208Y-23706270D01*
X121751560Y-23934853D01*
X121880283Y-24183278D01*
X121973980Y-24446917D01*
X122030906Y-24720858D01*
X122050000Y-25000000D01*
X122030906Y-25279142D01*
X121973980Y-25553083D01*
X121880283Y-25816722D01*
X121751560Y-26065147D01*
X121590208Y-26293730D01*
X121399234Y-26498214D01*
X121182195Y-26674788D01*
X120943133Y-26820165D01*
X120686503Y-26931635D01*
X120417085Y-27007122D01*
X120139897Y-27045221D01*
X119860103Y-27045221D01*
X119582915Y-27007122D01*
X119313497Y-26931635D01*
X119056867Y-26820165D01*
X118817805Y-26674788D01*
X118600766Y-26498214D01*
X118409792Y-26293730D01*
X118248440Y-26065147D01*
X118119717Y-25816722D01*
X118026020Y-25553083D01*
X117969094Y-25279142D01*
X117950000Y-25000000D01*
X117969094Y-24720858D01*
X118026020Y-24446917D01*
X118119717Y-24183278D01*
X118248440Y-23934853D01*
X118409792Y-23706270D01*
X118600766Y-23501786D01*
X118817805Y-23325212D01*
X119056867Y-23179835D01*
X119313497Y-23068365D01*
X119582915Y-22992878D01*
X119860103Y-22954779D01*
X120139897Y-22954779D01*
X120417085Y-22992878D01*
G37*
G36*
X160417085Y-22992878D02*
G01*
X160686503Y-23068365D01*
X160943133Y-23179835D01*
X161182195Y-23325212D01*
X161399234Y-23501786D01*
X161590208Y-23706270D01*
X161751560Y-23934853D01*
X161880283Y-24183278D01*
X161973980Y-24446917D01*
X162030906Y-24720858D01*
X162050000Y-25000000D01*
X162030906Y-25279142D01*
X161973980Y-25553083D01*
X161880283Y-25816722D01*
X161751560Y-26065147D01*
X161590208Y-26293730D01*
X161399234Y-26498214D01*
X161182195Y-26674788D01*
X160943133Y-26820165D01*
X160686503Y-26931635D01*
X160417085Y-27007122D01*
X160139897Y-27045221D01*
X159860103Y-27045221D01*
X159582915Y-27007122D01*
X159313497Y-26931635D01*
X159056867Y-26820165D01*
X158817805Y-26674788D01*
X158600766Y-26498214D01*
X158409792Y-26293730D01*
X158248440Y-26065147D01*
X158119717Y-25816722D01*
X158026020Y-25553083D01*
X157969094Y-25279142D01*
X157950000Y-25000000D01*
X157969094Y-24720858D01*
X158026020Y-24446917D01*
X158119717Y-24183278D01*
X158248440Y-23934853D01*
X158409792Y-23706270D01*
X158600766Y-23501786D01*
X158817805Y-23325212D01*
X159056867Y-23179835D01*
X159313497Y-23068365D01*
X159582915Y-22992878D01*
X159860103Y-22954779D01*
X160139897Y-22954779D01*
X160417085Y-22992878D01*
G37*
G36*
X185417085Y-22992878D02*
G01*
X185686503Y-23068365D01*
X185943133Y-23179835D01*
X186182195Y-23325212D01*
X186399234Y-23501786D01*
X186590208Y-23706270D01*
X186751560Y-23934853D01*
X186880283Y-24183278D01*
X186973980Y-24446917D01*
X187030906Y-24720858D01*
X187050000Y-25000000D01*
X187030906Y-25279142D01*
X186973980Y-25553083D01*
X186880283Y-25816722D01*
X186751560Y-26065147D01*
X186590208Y-26293730D01*
X186399234Y-26498214D01*
X186182195Y-26674788D01*
X185943133Y-26820165D01*
X185686503Y-26931635D01*
X185417085Y-27007122D01*
X185139897Y-27045221D01*
X184860103Y-27045221D01*
X184582915Y-27007122D01*
X184313497Y-26931635D01*
X184056867Y-26820165D01*
X183817805Y-26674788D01*
X183600766Y-26498214D01*
X183409792Y-26293730D01*
X183248440Y-26065147D01*
X183119717Y-25816722D01*
X183026020Y-25553083D01*
X182969094Y-25279142D01*
X182950000Y-25000000D01*
X182969094Y-24720858D01*
X183026020Y-24446917D01*
X183119717Y-24183278D01*
X183248440Y-23934853D01*
X183409792Y-23706270D01*
X183600766Y-23501786D01*
X183817805Y-23325212D01*
X184056867Y-23179835D01*
X184313497Y-23068365D01*
X184582915Y-22992878D01*
X184860103Y-22954779D01*
X185139897Y-22954779D01*
X185417085Y-22992878D01*
G37*
G36*
X106537021Y-25864089D02*
G01*
X106571157Y-25864089D01*
X106598903Y-25872236D01*
X106629353Y-25876245D01*
X106670250Y-25893185D01*
X106707708Y-25904184D01*
X106727481Y-25916891D01*
X106749893Y-25926175D01*
X106790960Y-25957687D01*
X106827430Y-25981125D01*
X106839186Y-25994692D01*
X106853400Y-26005599D01*
X106890249Y-26053622D01*
X106920627Y-26088680D01*
X106925738Y-26099873D01*
X106932824Y-26109107D01*
X106960809Y-26176667D01*
X106979746Y-26218134D01*
X106980682Y-26224643D01*
X106982754Y-26229646D01*
X106997439Y-26341189D01*
X107000000Y-26359000D01*
X106997438Y-26376811D01*
X106982754Y-26488353D01*
X106980682Y-26493354D01*
X106979746Y-26499866D01*
X106960806Y-26541337D01*
X106932824Y-26608893D01*
X106925738Y-26618126D01*
X106920627Y-26629320D01*
X106890246Y-26664381D01*
X106853400Y-26712400D01*
X106839188Y-26723304D01*
X106827430Y-26736875D01*
X106790952Y-26760317D01*
X106749893Y-26791824D01*
X106727485Y-26801105D01*
X106707708Y-26813816D01*
X106670241Y-26824817D01*
X106629353Y-26841754D01*
X106598910Y-26845761D01*
X106571157Y-26853911D01*
X106537013Y-26853911D01*
X106500000Y-26858784D01*
X106462986Y-26853911D01*
X106428843Y-26853911D01*
X106401090Y-26845762D01*
X106370646Y-26841754D01*
X106329754Y-26824816D01*
X106292292Y-26813816D01*
X106272515Y-26801106D01*
X106250106Y-26791824D01*
X106209040Y-26760313D01*
X106172570Y-26736875D01*
X106160813Y-26723307D01*
X106146599Y-26712400D01*
X106109745Y-26664371D01*
X106079373Y-26629320D01*
X106074262Y-26618129D01*
X106067175Y-26608893D01*
X106039182Y-26541314D01*
X106020254Y-26499866D01*
X106019318Y-26493358D01*
X106017245Y-26488353D01*
X106002549Y-26376729D01*
X106000000Y-26359000D01*
X106002548Y-26341272D01*
X106017245Y-26229646D01*
X106019318Y-26224640D01*
X106020254Y-26218134D01*
X106039180Y-26176691D01*
X106067175Y-26109107D01*
X106074262Y-26099870D01*
X106079373Y-26088680D01*
X106109741Y-26053632D01*
X106146599Y-26005599D01*
X106160815Y-25994690D01*
X106172570Y-25981125D01*
X106209036Y-25957689D01*
X106250107Y-25926175D01*
X106272518Y-25916891D01*
X106292292Y-25904184D01*
X106329747Y-25893186D01*
X106370646Y-25876245D01*
X106401096Y-25872236D01*
X106428843Y-25864089D01*
X106462979Y-25864089D01*
X106500000Y-25859215D01*
X106537021Y-25864089D01*
G37*
G36*
X110937021Y-25864089D02*
G01*
X110971157Y-25864089D01*
X110998903Y-25872236D01*
X111029353Y-25876245D01*
X111070250Y-25893185D01*
X111107708Y-25904184D01*
X111127481Y-25916891D01*
X111149893Y-25926175D01*
X111190960Y-25957687D01*
X111227430Y-25981125D01*
X111239186Y-25994692D01*
X111253400Y-26005599D01*
X111290249Y-26053622D01*
X111320627Y-26088680D01*
X111325738Y-26099873D01*
X111332824Y-26109107D01*
X111360809Y-26176667D01*
X111379746Y-26218134D01*
X111380682Y-26224643D01*
X111382754Y-26229646D01*
X111397439Y-26341189D01*
X111400000Y-26359000D01*
X111397438Y-26376811D01*
X111382754Y-26488353D01*
X111380682Y-26493354D01*
X111379746Y-26499866D01*
X111360806Y-26541337D01*
X111332824Y-26608893D01*
X111325738Y-26618126D01*
X111320627Y-26629320D01*
X111290246Y-26664381D01*
X111253400Y-26712400D01*
X111239188Y-26723304D01*
X111227430Y-26736875D01*
X111190952Y-26760317D01*
X111149893Y-26791824D01*
X111127485Y-26801105D01*
X111107708Y-26813816D01*
X111070241Y-26824817D01*
X111029353Y-26841754D01*
X110998910Y-26845761D01*
X110971157Y-26853911D01*
X110937013Y-26853911D01*
X110900000Y-26858784D01*
X110862986Y-26853911D01*
X110828843Y-26853911D01*
X110801090Y-26845762D01*
X110770646Y-26841754D01*
X110729754Y-26824816D01*
X110692292Y-26813816D01*
X110672515Y-26801106D01*
X110650106Y-26791824D01*
X110609040Y-26760313D01*
X110572570Y-26736875D01*
X110560813Y-26723307D01*
X110546599Y-26712400D01*
X110509745Y-26664371D01*
X110479373Y-26629320D01*
X110474262Y-26618129D01*
X110467175Y-26608893D01*
X110439182Y-26541314D01*
X110420254Y-26499866D01*
X110419318Y-26493358D01*
X110417245Y-26488353D01*
X110402549Y-26376729D01*
X110400000Y-26359000D01*
X110402548Y-26341272D01*
X110417245Y-26229646D01*
X110419318Y-26224640D01*
X110420254Y-26218134D01*
X110439180Y-26176691D01*
X110467175Y-26109107D01*
X110474262Y-26099870D01*
X110479373Y-26088680D01*
X110509741Y-26053632D01*
X110546599Y-26005599D01*
X110560815Y-25994690D01*
X110572570Y-25981125D01*
X110609036Y-25957689D01*
X110650107Y-25926175D01*
X110672518Y-25916891D01*
X110692292Y-25904184D01*
X110729747Y-25893186D01*
X110770646Y-25876245D01*
X110801096Y-25872236D01*
X110828843Y-25864089D01*
X110862979Y-25864089D01*
X110900000Y-25859215D01*
X110937021Y-25864089D01*
G37*
G36*
X24538318Y-24438115D02*
G01*
X24712800Y-24515799D01*
X24867318Y-24628063D01*
X24995118Y-24769999D01*
X25090615Y-24935405D01*
X25149636Y-25117052D01*
X25169600Y-25307000D01*
X25149636Y-25496948D01*
X25090615Y-25678595D01*
X24995118Y-25844001D01*
X24867318Y-25985937D01*
X24712800Y-26098201D01*
X24538318Y-26175885D01*
X24351497Y-26215595D01*
X24160503Y-26215595D01*
X23973682Y-26175885D01*
X23799200Y-26098201D01*
X23644682Y-25985937D01*
X23516882Y-25844001D01*
X23421385Y-25678595D01*
X23362364Y-25496948D01*
X23342400Y-25307000D01*
X23362364Y-25117052D01*
X23421385Y-24935405D01*
X23516882Y-24769999D01*
X23644682Y-24628063D01*
X23799200Y-24515799D01*
X23973682Y-24438115D01*
X24160503Y-24398405D01*
X24351497Y-24398405D01*
X24538318Y-24438115D01*
G37*
G36*
X27078318Y-24438115D02*
G01*
X27252800Y-24515799D01*
X27407318Y-24628063D01*
X27535118Y-24769999D01*
X27630615Y-24935405D01*
X27689636Y-25117052D01*
X27709600Y-25307000D01*
X27689636Y-25496948D01*
X27630615Y-25678595D01*
X27535118Y-25844001D01*
X27407318Y-25985937D01*
X27252800Y-26098201D01*
X27078318Y-26175885D01*
X26891497Y-26215595D01*
X26700503Y-26215595D01*
X26513682Y-26175885D01*
X26339200Y-26098201D01*
X26184682Y-25985937D01*
X26056882Y-25844001D01*
X25961385Y-25678595D01*
X25902364Y-25496948D01*
X25882400Y-25307000D01*
X25902364Y-25117052D01*
X25961385Y-24935405D01*
X26056882Y-24769999D01*
X26184682Y-24628063D01*
X26339200Y-24515799D01*
X26513682Y-24438115D01*
X26700503Y-24398405D01*
X26891497Y-24398405D01*
X27078318Y-24438115D01*
G37*
M02*
