M48
; DRILL file {KiCad 8.0.3} date 2024-08-05T00:08:35-0400
; FORMAT={-:-/ absolute / inch / decimal}
; #@! TF.CreationDate,2024-08-05T00:08:35-04:00
; #@! TF.GenerationSoftware,Kicad,Pcbnew,8.0.3
; #@! TF.FileFunction,Plated,1,4,PTH
FMAT,2
INCH
; #@! TA.AperFunction,Plated,PTH,ViaDrill
T1C0.0118
; #@! TA.AperFunction,Plated,PTH,ComponentDrill
T2C0.0118
; #@! TA.AperFunction,Plated,PTH,ViaDrill
T3C0.0157
; #@! TA.AperFunction,Plated,PTH,ComponentDrill
T4C0.0394
; #@! TA.AperFunction,Plated,PTH,ComponentDrill
T5C0.0400
; #@! TA.AperFunction,Plated,PTH,ComponentDrill
T6C0.0472
; #@! TA.AperFunction,Plated,PTH,ComponentDrill
T7C0.0551
%
G90
G05
T1
X0.8268Y-0.8268
X0.8268Y-0.9449
X0.8268Y-1.063
X0.8268Y-1.1811
X0.8268Y-1.2992
X0.8268Y-1.4173
X0.8268Y-1.5354
X0.8268Y-1.6535
X0.8268Y-1.7717
X0.8268Y-1.8898
X0.8268Y-2.0079
X0.8268Y-2.126
X0.8268Y-2.2441
X0.8268Y-2.3622
X0.8268Y-2.4803
X0.8268Y-2.5984
X0.8268Y-2.7165
X0.8268Y-2.8346
X0.8268Y-2.9528
X0.8268Y-3.0709
X0.8268Y-3.189
X0.8268Y-3.3071
X0.8268Y-3.4252
X0.8268Y-3.5433
X0.8268Y-3.6614
X0.8268Y-3.7795
X0.8268Y-3.8976
X0.9449Y-0.8268
X0.9449Y-3.8976
X1.063Y-0.8268
X1.063Y-3.8976
X1.1417Y-2.185
X1.16Y-1.6
X1.16Y-2.35
X1.174Y-1.77
X1.1811Y-0.8268
X1.1811Y-0.9449
X1.1811Y-1.063
X1.1811Y-1.1811
X1.1811Y-3.8976
X1.182Y-2.626
X1.19Y-2.35
X1.212Y-2.626
X1.25Y-2.095
X1.25Y-2.255
X1.256Y-2.181
X1.2871Y-1.6421
X1.2992Y-0.8268
X1.2992Y-3.8976
X1.3Y-3.535
X1.3Y-3.57
X1.315Y-1.365
X1.33Y-3.535
X1.33Y-3.57
X1.345Y-1.365
X1.36Y-3.535
X1.36Y-3.57
X1.41Y-1.91
X1.415Y-1.595
X1.4173Y-0.8268
X1.4173Y-3.8976
X1.495Y-3.71
X1.52Y-3.785
X1.525Y-3.71
X1.528Y-1.694
X1.5354Y-0.8268
X1.5354Y-3.8976
X1.558Y-1.694
X1.575Y-2.152
X1.575Y-2.187
X1.575Y-2.227
X1.59Y-2.67
X1.608Y-1.394
X1.615Y-1.48
X1.62Y-2.67
X1.638Y-1.394
X1.6535Y-0.8268
X1.6535Y-0.96
X1.6535Y-3.8976
X1.654Y-1.948
X1.684Y-1.948
X1.695Y-3.4
X1.7Y-1.48
X1.725Y-3.185
X1.7336Y-3.3495
X1.77Y-3.185
X1.7717Y-0.8268
X1.7717Y-0.96
X1.7717Y-3.8976
X1.8Y-1.31
X1.82Y-1.445
X1.822Y-1.952
X1.85Y-1.445
X1.852Y-1.952
X1.8898Y-0.8268
X1.8898Y-0.96
X1.8898Y-3.8976
X1.92Y-1.305
X1.975Y-3.19
X1.975Y-3.345
X2.0Y-2.21
X2.0079Y-0.8268
X2.0079Y-0.96
X2.0079Y-3.8976
X2.015Y-3.19
X2.03Y-2.21
X2.04Y-2.5
X2.065Y-1.925
X2.07Y-2.5
X2.095Y-1.925
X2.126Y-0.8268
X2.126Y-0.96
X2.126Y-3.8976
X2.15Y-2.09
X2.195Y-3.24
X2.2441Y-0.8268
X2.2441Y-0.96
X2.2441Y-3.8976
X2.265Y-1.18
X2.295Y-1.335
X2.35Y-3.25
X2.3622Y-0.8268
X2.3622Y-3.8976
X2.3759Y-3.622
X2.445Y-2.105
X2.445Y-2.4
X2.45Y-2.5988
X2.45Y-2.7169
X2.45Y-2.835
X2.46Y-2.195
X2.475Y-1.79
X2.4803Y-0.8268
X2.4803Y-3.8976
X2.49Y-1.14
X2.49Y-1.17
X2.4953Y-3.622
X2.5Y-3.25
X2.54Y-1.14
X2.54Y-1.17
X2.57Y-1.04
X2.57Y-1.08
X2.5984Y-0.8268
X2.5984Y-3.8976
X2.6Y-1.945
X2.6046Y-3.622
X2.615Y-3.1
X2.62Y-2.315
X2.625Y-1.46
X2.63Y-1.39
X2.6597Y-2.2603
X2.665Y-1.39
X2.665Y-1.915
X2.67Y-2.31
X2.686Y-3.19
X2.7Y-1.39
X2.71Y-1.9
X2.71Y-2.4
X2.715Y-2.315
X2.716Y-3.19
X2.7165Y-0.8268
X2.7165Y-3.8976
X2.724Y-3.622
X2.77Y-1.26
X2.77Y-1.29
X2.77Y-1.32
X2.7756Y-1.1117
X2.7756Y-1.1417
X2.7802Y-2.9987
X2.805Y-2.995
X2.8334Y-3.622
X2.8346Y-0.8268
X2.8346Y-3.8976
X2.895Y-2.625
X2.925Y-2.625
X2.9528Y-0.8268
X2.9528Y-3.622
X2.9528Y-3.8976
X2.955Y-1.895
X2.985Y-1.895
X3.0709Y-0.8268
X3.0709Y-3.8976
X3.085Y-1.16
X3.1102Y-0.8661
X3.1319Y-1.59
X3.1496Y-0.8661
X3.189Y-0.8268
X3.189Y-3.8976
X3.22Y-1.06
X3.22Y-1.09
X3.25Y-1.06
X3.25Y-1.09
X3.28Y-3.37
X3.3071Y-0.8268
X3.3071Y-3.8976
X3.31Y-3.37
X3.37Y-1.29
X3.37Y-1.33
X3.41Y-1.29
X3.41Y-1.33
X3.4252Y-0.8268
X3.4252Y-3.3268
X3.4252Y-3.8976
X3.4449Y-3.3465
X3.4646Y-3.189
X3.4646Y-3.2283
X3.4646Y-3.2571
X3.4646Y-3.3661
X3.52Y-2.145
X3.52Y-2.22
X3.5433Y-0.8268
X3.5433Y-1.2598
X3.5433Y-3.8976
X3.556Y-3.206
X3.586Y-3.206
X3.622Y-1.2598
X3.6614Y-0.8268
X3.6614Y-3.8976
X3.675Y-2.04
X3.7008Y-1.2598
X3.715Y-1.99
X3.715Y-2.185
X3.7795Y-0.8268
X3.7795Y-1.2598
X3.7795Y-3.8976
X3.8189Y-3.5039
X3.8583Y-0.8661
X3.89Y-2.245
X3.895Y-2.06
X3.8976Y-0.8268
X3.8976Y-3.3268
X3.8976Y-3.8976
X3.9Y-1.6
X3.925Y-2.06
X3.988Y-2.57
X4.0157Y-0.8268
X4.0157Y-3.8976
X4.018Y-2.57
X4.05Y-2.36
X4.08Y-1.6
X4.132Y-3.082
X4.1339Y-0.8268
X4.1339Y-3.8976
X4.14Y-2.015
X4.14Y-2.065
X4.145Y-1.235
X4.162Y-3.082
X4.1675Y-1.615
X4.175Y-1.235
X4.176Y-3.526
X4.1975Y-1.615
X4.2Y-2.015
X4.2Y-2.065
X4.205Y-1.235
X4.206Y-3.526
X4.24Y-1.62
X4.252Y-0.8268
X4.252Y-3.8976
X4.345Y-1.47
X4.35Y-2.24
X4.35Y-2.29
X4.37Y-1.615
X4.3701Y-0.8268
X4.3701Y-3.8976
X4.4Y-1.615
X4.41Y-2.24
X4.41Y-2.29
X4.455Y-1.455
X4.465Y-1.615
X4.4882Y-0.8268
X4.4882Y-3.8976
X4.51Y-1.84
X4.523Y-2.18
X4.523Y-2.21
X4.523Y-2.24
X4.53Y-1.1
X4.53Y-1.13
X4.53Y-1.16
X4.53Y-1.19
X4.558Y-2.18
X4.558Y-2.21
X4.558Y-2.24
X4.56Y-1.92
X4.56Y-1.96
X4.6063Y-0.8268
X4.6063Y-3.8976
X4.6213Y-3.0
X4.6326Y-2.2531
X4.6326Y-2.2831
X4.634Y-2.188
X4.634Y-2.22
X4.645Y-1.415
X4.6626Y-2.2531
X4.6626Y-2.2831
X4.664Y-2.188
X4.664Y-2.22
X4.695Y-3.365
X4.695Y-3.405
X4.72Y-1.465
X4.7244Y-0.8268
X4.7244Y-3.8976
X4.7394Y-3.0
X4.74Y-1.775
X4.78Y-1.155
X4.786Y-2.6
X4.786Y-2.63
X4.786Y-2.66
X4.816Y-2.6
X4.816Y-2.63
X4.816Y-2.66
X4.842Y-2.222
X4.8425Y-0.8268
X4.8425Y-3.8976
X4.8426Y-2.2581
X4.8426Y-2.2881
X4.85Y-1.58
X4.85Y-1.66
X4.8576Y-3.0
X4.872Y-2.222
X4.8726Y-2.2581
X4.8726Y-2.2881
X4.875Y-1.55
X4.88Y-1.825
X4.905Y-1.51
X4.915Y-1.7
X4.925Y-1.08
X4.925Y-1.155
X4.925Y-1.255
X4.93Y-0.965
X4.96Y-0.965
X4.96Y-1.155
X4.9606Y-0.8268
X4.9606Y-3.8976
X4.965Y-1.08
X4.965Y-1.255
X4.9757Y-3.0
X5.002Y-1.08
X5.005Y-1.39
X5.022Y-1.622
X5.025Y-1.02
X5.045Y-1.08
X5.062Y-2.022
X5.065Y-1.8654
X5.065Y-1.9454
X5.07Y-1.02
X5.0787Y-0.8268
X5.0787Y-3.8976
X5.0938Y-3.0
X5.14Y-0.9139
X5.14Y-0.9589
X5.145Y-1.0039
X5.145Y-1.8654
X5.16Y-1.232
X5.16Y-1.262
X5.16Y-1.42
X5.16Y-1.45
X5.1969Y-0.8268
X5.1969Y-3.8976
X5.2Y-0.9139
X5.2Y-0.9589
X5.2Y-1.232
X5.2Y-1.262
X5.2Y-1.42
X5.2Y-1.45
X5.205Y-1.0039
X5.21Y-3.37
X5.2119Y-3.0
X5.225Y-1.8654
X5.235Y-3.345
X5.26Y-0.9139
X5.26Y-0.9589
X5.26Y-1.232
X5.26Y-1.262
X5.26Y-1.42
X5.26Y-1.45
X5.26Y-3.4534
X5.265Y-1.0039
X5.293Y-2.588
X5.3Y-1.232
X5.3Y-1.262
X5.3Y-1.42
X5.3Y-1.45
X5.305Y-1.8654
X5.305Y-2.1054
X5.306Y-1.942
X5.306Y-2.022
X5.31Y-1.622
X5.315Y-0.8268
X5.315Y-3.8976
X5.32Y-0.9139
X5.32Y-0.9589
X5.323Y-2.588
X5.325Y-1.0039
X5.328Y-2.633
X5.33Y-3.0
X5.353Y-2.588
X5.358Y-2.633
X5.363Y-2.678
X5.364Y-1.228
X5.364Y-1.268
X5.366Y-1.322
X5.366Y-1.362
X5.366Y-1.412
X5.366Y-1.452
X5.383Y-2.588
X5.388Y-2.633
X5.393Y-2.678
X5.394Y-1.228
X5.394Y-1.268
X5.396Y-1.322
X5.396Y-1.362
X5.396Y-1.412
X5.396Y-1.452
X5.413Y-2.588
X5.418Y-2.633
X5.423Y-2.678
X5.4331Y-3.8976
X5.448Y-2.588
X5.448Y-2.633
X5.453Y-2.678
X5.483Y-2.633
X5.483Y-2.678
X5.5Y-1.62
X5.518Y-2.678
X5.54Y-1.59
X5.5512Y-3.8976
X5.56Y-0.9486
X5.56Y-0.99
X5.56Y-1.0286
X5.56Y-1.07
X5.5619Y-0.8436
X5.5619Y-0.885
X5.5639Y-1.1126
X5.5639Y-1.154
X5.564Y-1.6683
X5.605Y-1.1136
X5.605Y-1.155
X5.61Y-0.8436
X5.61Y-0.885
X5.61Y-2.295
X5.614Y-1.7161
X5.655Y-0.8436
X5.655Y-0.885
X5.6693Y-3.8976
X5.67Y-1.1126
X5.67Y-1.154
X5.69Y-2.295
X5.7Y-0.8436
X5.7Y-0.885
X5.707Y-1.1126
X5.707Y-1.154
X5.71Y-1.62
X5.7457Y-2.93
X5.75Y-3.305
X5.755Y-3.4734
X5.7819Y-0.8436
X5.7819Y-0.885
X5.7819Y-1.115
X5.7819Y-1.1564
X5.7874Y-3.8976
X5.79Y-3.3034
X5.825Y-0.8436
X5.825Y-0.885
X5.825Y-1.115
X5.825Y-1.1564
X5.84Y-2.295
X5.8638Y-2.93
X5.8719Y-0.8436
X5.8719Y-0.885
X5.8719Y-1.115
X5.8719Y-1.1564
X5.9055Y-3.8976
X5.915Y-0.8436
X5.915Y-0.885
X5.915Y-1.115
X5.915Y-1.1564
X5.916Y-0.9486
X5.916Y-0.99
X5.916Y-1.0286
X5.916Y-1.07
X5.92Y-2.295
X5.96Y-1.265
X5.96Y-1.295
X5.96Y-1.325
X5.96Y-1.355
X5.9819Y-2.93
X5.995Y-1.265
X5.995Y-1.295
X5.995Y-1.325
X5.995Y-1.355
X5.995Y-1.43
X6.0236Y-3.8976
X6.025Y-1.43
X6.055Y-1.43
X6.074Y-1.5
X6.085Y-1.43
X6.1Y-2.93
X6.114Y-1.5
X6.115Y-1.43
X6.12Y-1.89
X6.12Y-1.9442
X6.12Y-2.02
X6.1417Y-3.8976
X6.145Y-1.43
X6.168Y-2.01
X6.175Y-1.43
X6.18Y-1.525
X6.18Y-1.555
X6.18Y-1.59
X6.18Y-1.62
X6.185Y-1.265
X6.185Y-1.295
X6.185Y-1.325
X6.185Y-1.355
X6.205Y-1.43
X6.22Y-1.265
X6.22Y-1.295
X6.22Y-1.325
X6.22Y-1.355
X6.22Y-1.525
X6.22Y-1.555
X6.22Y-1.59
X6.22Y-1.62
X6.235Y-1.985
X6.24Y-1.94
X6.2469Y-2.93
X6.2598Y-3.8976
X6.265Y-3.305
X6.28Y-3.4834
X6.3Y-3.3034
X6.365Y-2.93
X6.378Y-3.8976
X6.396Y-1.8
X6.4Y-1.16
X6.4Y-1.19
X6.4Y-1.22
X6.425Y-2.18
X6.425Y-2.26
X6.425Y-2.34
X6.425Y-2.41
X6.428Y-1.379
X6.428Y-1.436
X6.428Y-1.492
X6.43Y-1.12
X6.4313Y-1.7304
X6.434Y-2.672
X6.458Y-1.828
X6.46Y-1.12
X6.464Y-2.672
X6.478Y-1.379
X6.478Y-1.436
X6.478Y-1.492
X6.48Y-1.74
X6.49Y-1.12
X6.4961Y-3.8976
X6.515Y-2.18
X6.515Y-2.26
X6.515Y-2.34
X6.515Y-2.41
X6.52Y-1.12
X6.54Y-1.815
X6.55Y-1.12
X6.6142Y-3.8976
X6.615Y-2.18
X6.615Y-2.26
X6.615Y-2.34
X6.615Y-2.41
X6.66Y-0.87
X6.66Y-0.935
X6.66Y-0.995
X6.66Y-1.06
X6.665Y-1.815
X6.689Y-1.213
X6.69Y-1.18
X6.7Y-0.935
X6.7Y-0.995
X6.7Y-1.06
X6.705Y-0.87
X6.715Y-1.195
X6.715Y-1.23
X6.7323Y-3.8976
X6.746Y-1.2106
X6.746Y-1.2406
X6.746Y-1.27
X6.75Y-0.87
X6.755Y-3.4334
X6.77Y-1.2406
X6.77Y-1.27
X6.775Y-3.23
X6.8Y-3.28
X6.81Y-0.87
X6.8121Y-1.29
X6.8121Y-1.2436
X6.8121Y-1.2658
X6.8421Y-1.244
X6.8421Y-1.2662
X6.8421Y-1.29
X6.8504Y-3.8976
X6.865Y-2.335
X6.865Y-2.405
X6.865Y-2.485
X6.8921Y-1.29
X6.8921Y-1.2436
X6.8921Y-1.2658
X6.895Y-0.87
X6.91Y-1.88
X6.915Y-2.335
X6.915Y-2.405
X6.915Y-2.485
X6.9221Y-1.244
X6.9221Y-1.2662
X6.9221Y-1.29
X6.935Y-2.0136
X6.935Y-2.055
X6.935Y-2.0936
X6.935Y-2.135
X6.95Y-0.87
X6.9685Y-3.8976
X6.976Y-1.23
X6.976Y-1.26
X6.976Y-1.2894
X6.98Y-1.85
X7.0Y-0.87
X7.0Y-1.195
X7.0071Y-1.23
X7.0071Y-1.26
X7.0071Y-1.2894
X7.01Y-0.93
X7.01Y-0.995
X7.01Y-1.055
X7.024Y-1.168
X7.032Y-1.196
X7.04Y-1.755
X7.05Y-0.87
X7.05Y-0.93
X7.05Y-0.995
X7.05Y-1.055
X7.052Y-1.138
X7.056Y-1.168
X7.079Y-1.656
X7.084Y-1.138
X7.0866Y-3.8976
X7.13Y-2.0036
X7.13Y-2.045
X7.13Y-2.0836
X7.13Y-2.125
X7.13Y-2.776
X7.145Y-2.335
X7.145Y-2.405
X7.145Y-2.485
X7.16Y-2.776
X7.195Y-2.335
X7.195Y-2.405
X7.195Y-2.485
X7.2047Y-3.8976
X7.258Y-1.61
X7.258Y-1.694
X7.285Y-1.197
X7.285Y-1.247
X7.285Y-1.291
X7.285Y-1.335
X7.3228Y-1.6142
X7.3228Y-1.6929
X7.3228Y-3.8976
X7.345Y-1.197
X7.345Y-1.247
X7.345Y-1.291
X7.345Y-1.335
X7.375Y-2.105
X7.4409Y-0.8268
X7.4409Y-0.9449
X7.4409Y-1.063
X7.4409Y-1.1811
X7.4409Y-1.2992
X7.4409Y-1.4173
X7.4409Y-1.5354
X7.4409Y-1.6535
X7.4409Y-1.7717
X7.4409Y-1.8898
X7.4409Y-2.0079
X7.4409Y-2.126
X7.4409Y-2.2441
X7.4409Y-2.3622
X7.4409Y-2.4803
X7.4409Y-2.5984
X7.4409Y-2.7165
X7.4409Y-2.8346
X7.4409Y-2.9528
X7.4409Y-3.0709
X7.4409Y-3.189
X7.4409Y-3.3071
X7.4409Y-3.4252
X7.4409Y-3.5433
X7.4409Y-3.6614
X7.4409Y-3.7795
X7.4409Y-3.8976
T2
X6.6885Y-1.4157
X6.6885Y-1.4669
X6.6885Y-1.5181
X6.7397Y-1.4157
X6.7397Y-1.4669
X6.7397Y-1.5181
X6.7909Y-1.4157
X6.7909Y-1.4669
X6.7909Y-1.5181
X6.8421Y-1.4157
X6.8421Y-1.4669
X6.8421Y-1.5181
X6.8933Y-1.4157
X6.8933Y-1.4669
X6.8933Y-1.5181
X6.9444Y-1.4157
X6.9444Y-1.4669
X6.9444Y-1.5181
T3
X1.14Y-2.025
X5.0197Y-3.4646
X5.0197Y-3.622
X5.1575Y-3.4646
X5.1575Y-3.622
X5.5315Y-3.4646
X5.5315Y-3.622
X5.6693Y-3.4646
X5.6693Y-3.622
X6.0433Y-3.4646
X6.0433Y-3.622
X6.1811Y-3.4646
X6.1811Y-3.622
X6.5551Y-3.4646
X6.5551Y-3.622
X6.6929Y-3.4646
X6.6929Y-3.622
X7.0669Y-3.4646
X7.0669Y-3.622
X7.2047Y-3.4646
X7.2047Y-3.622
T4
X3.2795Y-1.797
X3.2795Y-2.397
X3.2795Y-3.022
X3.2795Y-3.622
X3.3795Y-1.797
X3.3795Y-2.397
X3.3795Y-3.022
X3.3795Y-3.622
X3.4795Y-1.797
X3.4795Y-2.397
X3.4795Y-3.022
X3.4795Y-3.622
X3.5795Y-1.797
X3.5795Y-2.397
X3.5795Y-3.022
X3.5795Y-3.622
X3.6795Y-1.797
X3.6795Y-2.397
X3.6795Y-3.022
X3.6795Y-3.622
X3.7795Y-1.797
X3.7795Y-2.397
X3.7795Y-3.022
X3.7795Y-3.622
T5
X0.955Y-0.995
X0.955Y-1.095
X0.955Y-1.195
X0.955Y-1.295
X0.955Y-1.395
X0.955Y-1.495
X0.955Y-1.595
X0.955Y-1.695
X0.955Y-1.795
X0.955Y-1.895
X0.955Y-1.995
X0.955Y-2.095
X0.955Y-2.195
X0.955Y-2.295
X0.955Y-2.395
X0.955Y-2.495
X0.955Y-2.595
X0.955Y-2.695
X0.955Y-2.795
X0.955Y-2.895
X0.955Y-2.995
X1.055Y-0.995
X1.055Y-1.095
X1.055Y-1.195
X1.055Y-1.295
X1.055Y-1.395
X1.055Y-1.495
X1.055Y-1.595
X1.055Y-1.695
X1.055Y-1.795
X1.055Y-1.895
X1.055Y-1.995
X1.055Y-2.095
X1.055Y-2.195
X1.055Y-2.295
X1.055Y-2.395
X1.055Y-2.495
X1.055Y-2.595
X1.055Y-2.695
X1.055Y-2.795
X1.055Y-2.895
X1.055Y-2.995
X1.455Y-2.895
X1.455Y-2.995
X1.555Y-2.895
X1.555Y-2.995
X1.655Y-2.895
X1.655Y-2.995
X1.955Y-2.895
X1.955Y-2.995
X2.055Y-2.895
X2.055Y-2.995
X2.155Y-2.895
X2.155Y-2.995
X2.255Y-1.495
X2.255Y-1.595
X2.255Y-1.695
X2.255Y-1.795
X2.255Y-1.895
X2.255Y-1.995
X2.255Y-2.095
X2.255Y-2.195
X2.255Y-2.295
X2.255Y-2.395
X2.255Y-2.495
X2.255Y-2.595
X2.255Y-2.695
X2.255Y-2.795
X2.255Y-2.895
X2.255Y-2.995
X2.355Y-1.495
X2.355Y-1.595
X2.355Y-1.695
X2.355Y-1.795
X2.355Y-1.895
X2.355Y-1.995
X2.355Y-2.095
X2.355Y-2.195
X2.355Y-2.295
X2.355Y-2.395
X2.355Y-2.495
X2.355Y-2.595
X2.355Y-2.695
X2.355Y-2.795
X2.355Y-2.895
X2.355Y-2.995
T6
X3.3949Y-1.021
X3.5449Y-1.021
X3.6949Y-1.021
X3.8449Y-1.021
X6.7778Y-1.0005
X6.9278Y-1.0005
T7
X5.6378Y-1.0035
X5.8378Y-1.0035
T4
G00X5.0448Y-1.1782
M15
G01X5.0448Y-1.2766
M16
G05
G00X5.1807Y-1.1093
M15
G01X5.2791Y-1.1093
M16
G05
G00X5.1807Y-1.3455
M15
G01X5.2791Y-1.3455
M16
G05
M30
