M48
; DRILL file {KiCad 8.0.3} date 2024-07-10T22:32:38-0400
; FORMAT={-:-/ absolute / inch / decimal}
; #@! TF.CreationDate,2024-07-10T22:32:38-04:00
; #@! TF.GenerationSoftware,Kicad,Pcbnew,8.0.3
; #@! TF.FileFunction,Plated,1,4,PTH
FMAT,2
INCH
; #@! TA.AperFunction,Plated,PTH,ViaDrill
T1C0.0118
; #@! TA.AperFunction,Plated,PTH,ComponentDrill
T2C0.0118
; #@! TA.AperFunction,Plated,PTH,ViaDrill
T3C0.0157
; #@! TA.AperFunction,Plated,PTH,ComponentDrill
T4C0.0394
; #@! TA.AperFunction,Plated,PTH,ComponentDrill
T5C0.0400
; #@! TA.AperFunction,Plated,PTH,ComponentDrill
T6C0.0472
%
G90
G05
T1
X0.9449Y-0.8661
X0.9843Y-0.8661
X1.015Y-3.135
X1.0236Y-0.8661
X1.045Y-3.135
X1.063Y-0.8661
X1.095Y-3.31
X1.1024Y-0.8661
X1.125Y-3.31
X1.16Y-1.6
X1.16Y-2.35
X1.174Y-1.77
X1.1811Y-0.9843
X1.1811Y-1.0236
X1.1811Y-1.063
X1.1811Y-1.1024
X1.182Y-2.626
X1.19Y-2.35
X1.21Y-2.095
X1.212Y-2.626
X1.25Y-2.095
X1.25Y-2.175
X1.25Y-2.255
X1.295Y-1.65
X1.3Y-3.625
X1.305Y-3.54
X1.315Y-1.365
X1.327Y-3.189
X1.345Y-1.365
X1.356Y-1.816
X1.375Y-3.365
X1.395Y-3.185
X1.395Y-3.27
X1.395Y-3.45
X1.41Y-1.91
X1.415Y-1.595
X1.485Y-3.84
X1.495Y-3.285
X1.495Y-3.475
X1.495Y-3.71
X1.52Y-3.84
X1.525Y-3.71
X1.528Y-1.694
X1.555Y-3.84
X1.558Y-1.694
X1.5748Y-3.5039
X1.575Y-2.152
X1.575Y-2.187
X1.575Y-2.227
X1.59Y-2.67
X1.59Y-3.84
X1.608Y-1.394
X1.615Y-1.48
X1.62Y-2.67
X1.625Y-3.84
X1.638Y-1.394
X1.6535Y-0.8661
X1.654Y-1.948
X1.66Y-3.84
X1.684Y-1.948
X1.7Y-1.48
X1.7023Y-3.3465
X1.7323Y-3.3465
X1.752Y-3.5039
X1.8Y-1.31
X1.82Y-1.445
X1.822Y-1.952
X1.85Y-1.445
X1.852Y-1.952
X1.88Y-3.565
X1.8898Y-3.7205
X1.9094Y-3.7402
X1.91Y-3.565
X1.92Y-1.305
X1.9291Y-3.7598
X1.94Y-3.565
X1.975Y-3.36
X1.975Y-3.395
X2.0Y-2.21
X2.03Y-2.21
X2.04Y-2.5
X2.045Y-1.145
X2.052Y-0.968
X2.065Y-1.925
X2.07Y-2.5
X2.075Y-1.145
X2.082Y-0.968
X2.095Y-1.925
X2.1063Y-3.3661
X2.15Y-2.09
X2.2638Y-3.3858
X2.265Y-1.18
X2.28Y-3.652
X2.295Y-1.335
X2.31Y-3.652
X2.4Y-3.285
X2.43Y-3.285
X2.445Y-2.105
X2.445Y-2.4
X2.46Y-2.195
X2.49Y-1.14
X2.49Y-1.17
X2.54Y-1.14
X2.54Y-1.17
X2.57Y-1.04
X2.57Y-1.08
X2.6Y-1.945
X2.62Y-2.315
X2.625Y-1.46
X2.63Y-1.39
X2.6597Y-2.2603
X2.665Y-1.39
X2.665Y-1.915
X2.67Y-2.31
X2.686Y-3.19
X2.7Y-1.39
X2.71Y-1.9
X2.71Y-2.4
X2.715Y-2.315
X2.716Y-3.19
X2.72Y-0.87
X2.75Y-0.87
X2.77Y-1.26
X2.77Y-1.29
X2.77Y-1.32
X2.7756Y-1.1117
X2.7756Y-1.1417
X2.78Y-0.87
X2.81Y-0.87
X2.84Y-0.87
X2.87Y-0.87
X2.895Y-2.625
X2.9Y-0.87
X2.9Y-3.644
X2.925Y-2.625
X2.93Y-0.87
X2.93Y-3.644
X2.95Y-2.992
X2.955Y-1.895
X2.96Y-0.87
X2.98Y-2.992
X2.985Y-1.895
X2.99Y-0.87
X3.08Y-1.1031
X3.08Y-1.172
X3.1102Y-0.8661
X3.12Y-1.604
X3.1496Y-0.8661
X3.15Y-1.604
X3.23Y-1.1131
X3.23Y-1.1431
X3.252Y-3.45
X3.26Y-1.1131
X3.26Y-1.1431
X3.282Y-3.45
X3.37Y-1.29
X3.37Y-1.33
X3.41Y-1.29
X3.41Y-1.33
X3.4252Y-3.3268
X3.4449Y-3.3465
X3.4646Y-3.189
X3.4646Y-3.2283
X3.4646Y-3.2571
X3.4646Y-3.3661
X3.52Y-2.145
X3.52Y-2.22
X3.5433Y-1.2598
X3.556Y-3.206
X3.586Y-3.206
X3.622Y-1.2598
X3.675Y-2.04
X3.7008Y-1.2598
X3.715Y-1.99
X3.715Y-2.185
X3.768Y-1.562
X3.7795Y-1.2598
X3.798Y-1.562
X3.8189Y-3.5039
X3.842Y-2.096
X3.8583Y-0.8661
X3.872Y-2.096
X3.89Y-2.245
X3.8976Y-3.3268
X3.93Y-1.28
X3.96Y-1.31
X3.988Y-2.57
X4.018Y-2.57
X4.05Y-2.36
X4.085Y-1.54
X4.132Y-3.082
X4.145Y-1.235
X4.162Y-3.082
X4.175Y-1.235
X4.176Y-3.526
X4.205Y-1.235
X4.206Y-3.526
X4.22Y-1.615
X4.245Y-1.98
X4.245Y-2.03
X4.25Y-1.615
X4.285Y-1.62
X4.305Y-1.98
X4.305Y-2.03
X4.32Y-1.35
X4.395Y-1.615
X4.425Y-1.615
X4.465Y-1.615
X4.485Y-2.435
X4.485Y-2.465
X4.485Y-2.495
X4.52Y-2.435
X4.52Y-2.465
X4.52Y-2.495
X4.53Y-1.1
X4.53Y-1.13
X4.53Y-1.16
X4.53Y-1.19
X4.545Y-1.375
X4.56Y-1.92
X4.56Y-1.96
X4.585Y-1.855
X4.615Y-1.855
X4.6326Y-2.2531
X4.6326Y-2.2831
X4.6626Y-2.2531
X4.6626Y-2.2831
X4.6926Y-2.2531
X4.6926Y-2.2831
X4.7876Y-2.5781
X4.7876Y-2.6081
X4.7876Y-2.6381
X4.8126Y-2.2581
X4.8126Y-2.2881
X4.8176Y-2.5781
X4.8176Y-2.6081
X4.8176Y-2.6381
X4.84Y-1.5
X4.8426Y-2.2581
X4.8426Y-2.2881
X4.85Y-1.58
X4.85Y-1.66
X4.8726Y-2.2581
X4.8726Y-2.2881
X4.875Y-1.55
X4.905Y-1.51
X4.915Y-1.7
X4.93Y-1.075
X4.93Y-1.115
X4.93Y-1.155
X4.93Y-1.195
X4.93Y-1.255
X4.96Y-1.075
X4.96Y-1.115
X4.96Y-1.155
X4.96Y-1.195
X4.96Y-1.255
X5.02Y-1.13
X5.022Y-1.622
X5.05Y-1.13
X5.052Y-1.622
X5.065Y-1.8654
X5.065Y-1.9454
X5.065Y-2.0254
X5.09Y-1.13
X5.092Y-1.622
X5.12Y-1.13
X5.122Y-1.622
X5.145Y-1.8654
X5.16Y-1.24
X5.16Y-1.27
X5.16Y-1.42
X5.16Y-1.45
X5.165Y-0.93
X5.165Y-0.96
X5.165Y-0.995
X5.165Y-1.025
X5.2Y-1.24
X5.2Y-1.27
X5.2Y-1.42
X5.2Y-1.45
X5.205Y-0.93
X5.205Y-0.96
X5.205Y-0.995
X5.205Y-1.025
X5.21Y-1.622
X5.225Y-1.8654
X5.233Y-2.555
X5.233Y-2.59
X5.24Y-1.622
X5.26Y-1.24
X5.26Y-1.27
X5.26Y-1.42
X5.26Y-1.45
X5.26Y-3.4534
X5.263Y-2.555
X5.263Y-2.59
X5.265Y-0.93
X5.265Y-0.96
X5.265Y-0.995
X5.265Y-1.025
X5.28Y-1.622
X5.293Y-2.555
X5.293Y-2.59
X5.3Y-1.24
X5.3Y-1.27
X5.3Y-1.42
X5.3Y-1.45
X5.305Y-0.93
X5.305Y-0.96
X5.305Y-0.995
X5.305Y-1.025
X5.305Y-1.8654
X5.305Y-1.9454
X5.305Y-2.0254
X5.305Y-2.1054
X5.31Y-1.622
X5.323Y-2.555
X5.323Y-2.59
X5.325Y-2.215
X5.353Y-2.555
X5.353Y-2.59
X5.388Y-2.555
X5.388Y-2.59
X5.42Y-1.59
X5.56Y-0.9486
X5.56Y-0.99
X5.56Y-1.0286
X5.56Y-1.07
X5.5639Y-1.1126
X5.5639Y-1.154
X5.564Y-1.6683
X5.5669Y-0.8596
X5.5669Y-0.901
X5.605Y-0.8596
X5.605Y-0.901
X5.605Y-1.1136
X5.605Y-1.155
X5.61Y-2.295
X5.614Y-1.7161
X5.67Y-0.8596
X5.67Y-0.901
X5.67Y-1.1126
X5.67Y-1.154
X5.68Y-1.595
X5.69Y-2.295
X5.705Y-0.8596
X5.705Y-0.901
X5.707Y-1.1126
X5.707Y-1.154
X5.71Y-0.9486
X5.71Y-0.99
X5.71Y-1.0286
X5.71Y-1.07
X5.755Y-3.4734
X5.7799Y-0.8636
X5.7799Y-0.905
X5.78Y-0.9486
X5.78Y-0.99
X5.78Y-1.0286
X5.78Y-1.07
X5.7819Y-1.115
X5.7819Y-1.1564
X5.79Y-3.3034
X5.7962Y-2.7162
X5.823Y-0.8636
X5.823Y-0.905
X5.825Y-1.115
X5.825Y-1.1564
X5.8312Y-2.7162
X5.84Y-2.295
X5.8662Y-2.7162
X5.8662Y-2.86
X5.8699Y-0.8636
X5.8699Y-0.905
X5.8719Y-1.115
X5.8719Y-1.1564
X5.9012Y-2.86
X5.91Y-0.9486
X5.91Y-0.99
X5.91Y-1.0286
X5.91Y-1.07
X5.913Y-0.8636
X5.913Y-0.905
X5.915Y-1.115
X5.915Y-1.1564
X5.92Y-2.295
X5.9362Y-2.86
X5.96Y-1.265
X5.96Y-1.295
X5.96Y-1.325
X5.96Y-1.355
X5.96Y-1.525
X5.96Y-1.555
X5.96Y-1.59
X5.96Y-1.62
X5.995Y-1.265
X5.995Y-1.295
X5.995Y-1.325
X5.995Y-1.355
X5.995Y-1.43
X6.0Y-1.525
X6.0Y-1.555
X6.0Y-1.59
X6.0Y-1.62
X6.025Y-1.43
X6.055Y-1.43
X6.074Y-1.5
X6.085Y-1.43
X6.114Y-1.5
X6.115Y-1.43
X6.145Y-1.43
X6.165Y-2.005
X6.175Y-1.43
X6.175Y-1.885
X6.18Y-1.525
X6.18Y-1.555
X6.18Y-1.59
X6.18Y-1.62
X6.185Y-1.265
X6.185Y-1.295
X6.185Y-1.325
X6.185Y-1.355
X6.205Y-1.43
X6.22Y-1.265
X6.22Y-1.295
X6.22Y-1.325
X6.22Y-1.355
X6.22Y-1.525
X6.22Y-1.555
X6.22Y-1.59
X6.22Y-1.62
X6.225Y-1.885
X6.234Y-2.934
X6.264Y-2.934
X6.275Y-1.925
X6.28Y-1.97
X6.295Y-3.4834
X6.3Y-3.3034
X6.4Y-1.16
X6.4Y-1.19
X6.4Y-1.22
X6.425Y-2.18
X6.425Y-2.26
X6.425Y-2.34
X6.425Y-2.41
X6.426Y-1.372
X6.426Y-1.429
X6.426Y-1.485
X6.43Y-1.12
X6.434Y-2.672
X6.46Y-1.12
X6.464Y-2.672
X6.476Y-1.372
X6.476Y-1.429
X6.476Y-1.485
X6.49Y-1.12
X6.502Y-1.7432
X6.515Y-2.18
X6.515Y-2.26
X6.515Y-2.34
X6.515Y-2.41
X6.52Y-1.12
X6.53Y-1.369
X6.53Y-1.426
X6.53Y-1.482
X6.55Y-1.12
X6.565Y-1.735
X6.595Y-1.815
X6.615Y-2.18
X6.615Y-2.26
X6.615Y-2.34
X6.615Y-2.41
X6.665Y-1.815
X6.689Y-1.213
X6.69Y-1.18
X6.692Y-0.869
X6.696Y-0.967
X6.696Y-0.995
X6.696Y-1.025
X6.715Y-1.195
X6.715Y-1.23
X6.72Y-0.869
X6.746Y-1.2106
X6.746Y-1.2406
X6.746Y-1.27
X6.75Y-0.87
X6.755Y-3.4334
X6.77Y-1.2106
X6.77Y-1.2406
X6.77Y-1.27
X6.787Y-0.869
X6.8121Y-1.29
X6.8121Y-1.2436
X6.8121Y-1.2658
X6.815Y-0.869
X6.835Y-1.025
X6.836Y-0.967
X6.836Y-0.995
X6.84Y-3.3084
X6.8421Y-1.244
X6.8421Y-1.2662
X6.8421Y-1.29
X6.845Y-0.87
X6.865Y-2.335
X6.865Y-2.405
X6.865Y-2.485
X6.8921Y-1.29
X6.8921Y-1.2436
X6.8921Y-1.2658
X6.9Y-0.87
X6.9Y-0.965
X6.9Y-0.995
X6.9Y-1.025
X6.915Y-2.335
X6.915Y-2.405
X6.915Y-2.485
X6.9221Y-1.244
X6.9221Y-1.2662
X6.9221Y-1.29
X6.93Y-0.87
X6.9317Y-1.645
X6.935Y-2.0136
X6.935Y-2.055
X6.935Y-2.0936
X6.935Y-2.135
X6.96Y-0.87
X6.976Y-1.23
X6.976Y-1.26
X6.976Y-1.2894
X6.995Y-0.87
X7.0Y-1.195
X7.0071Y-1.23
X7.0071Y-1.26
X7.0071Y-1.2894
X7.024Y-1.1654
X7.024Y-1.195
X7.025Y-0.87
X7.04Y-1.755
X7.047Y-0.965
X7.047Y-0.995
X7.047Y-1.025
X7.048Y-1.14
X7.048Y-1.1654
X7.055Y-0.87
X7.072Y-1.14
X7.13Y-2.0036
X7.13Y-2.045
X7.13Y-2.0836
X7.13Y-2.125
X7.13Y-2.776
X7.14Y-1.54
X7.145Y-2.335
X7.145Y-2.405
X7.145Y-2.485
X7.16Y-2.776
X7.195Y-2.335
X7.195Y-2.405
X7.195Y-2.485
X7.204Y-1.342
X7.204Y-1.392
X7.204Y-1.436
X7.204Y-1.48
X7.258Y-1.61
X7.258Y-1.694
X7.264Y-1.342
X7.264Y-1.392
X7.264Y-1.436
X7.264Y-1.48
X7.3671Y-1.614
X7.372Y-1.698
T2
X6.6885Y-1.4157
X6.6885Y-1.4669
X6.6885Y-1.5181
X6.7397Y-1.4157
X6.7397Y-1.4669
X6.7397Y-1.5181
X6.7909Y-1.4157
X6.7909Y-1.4669
X6.7909Y-1.5181
X6.8421Y-1.4157
X6.8421Y-1.4669
X6.8421Y-1.5181
X6.8933Y-1.4157
X6.8933Y-1.4669
X6.8933Y-1.5181
X6.9444Y-1.4157
X6.9444Y-1.4669
X6.9444Y-1.5181
T3
X5.0197Y-3.4646
X5.0197Y-3.622
X5.1575Y-3.4646
X5.1575Y-3.622
X5.5315Y-3.4646
X5.5315Y-3.622
X5.6693Y-3.4646
X5.6693Y-3.622
X6.0433Y-3.4646
X6.0433Y-3.622
X6.1811Y-3.4646
X6.1811Y-3.622
X6.5551Y-3.4646
X6.5551Y-3.622
X6.6929Y-3.4646
X6.6929Y-3.622
X7.0669Y-3.4646
X7.0669Y-3.622
X7.2047Y-3.4646
X7.2047Y-3.622
T4
X3.2795Y-1.797
X3.2795Y-2.397
X3.2795Y-3.022
X3.2795Y-3.622
X3.3795Y-1.797
X3.3795Y-2.397
X3.3795Y-3.022
X3.3795Y-3.622
X3.4795Y-1.797
X3.4795Y-2.397
X3.4795Y-3.022
X3.4795Y-3.622
X3.5795Y-1.797
X3.5795Y-2.397
X3.5795Y-3.022
X3.5795Y-3.622
X3.6795Y-1.797
X3.6795Y-2.397
X3.6795Y-3.022
X3.6795Y-3.622
X3.7795Y-1.797
X3.7795Y-2.397
X3.7795Y-3.022
X3.7795Y-3.622
T5
X0.955Y-0.9963
X0.955Y-1.0963
X0.955Y-1.1963
X0.955Y-1.2963
X0.955Y-1.3963
X0.955Y-1.4963
X0.955Y-1.5963
X0.955Y-1.6963
X0.955Y-1.7963
X0.955Y-1.8963
X0.955Y-1.9963
X0.955Y-2.0963
X0.955Y-2.1963
X0.955Y-2.2963
X0.955Y-2.3963
X0.955Y-2.4963
X0.955Y-2.5963
X0.955Y-2.6963
X0.955Y-2.7963
X0.955Y-2.8963
X0.955Y-2.9963
X1.055Y-0.9963
X1.055Y-1.0963
X1.055Y-1.1963
X1.055Y-1.2963
X1.055Y-1.3963
X1.055Y-1.4963
X1.055Y-1.5963
X1.055Y-1.6963
X1.055Y-1.7963
X1.055Y-1.8963
X1.055Y-1.9963
X1.055Y-2.0963
X1.055Y-2.1963
X1.055Y-2.2963
X1.055Y-2.3963
X1.055Y-2.4963
X1.055Y-2.5963
X1.055Y-2.6963
X1.055Y-2.7963
X1.055Y-2.8963
X1.055Y-2.9963
X1.455Y-2.8963
X1.455Y-2.9963
X1.555Y-2.8963
X1.555Y-2.9963
X1.655Y-2.8963
X1.655Y-2.9963
X1.955Y-2.8963
X1.955Y-2.9963
X2.055Y-2.8963
X2.055Y-2.9963
X2.155Y-2.8963
X2.155Y-2.9963
X2.255Y-1.4963
X2.255Y-1.5963
X2.255Y-1.6963
X2.255Y-1.7963
X2.255Y-1.8963
X2.255Y-1.9963
X2.255Y-2.0963
X2.255Y-2.1963
X2.255Y-2.2963
X2.255Y-2.3963
X2.255Y-2.4963
X2.255Y-2.5963
X2.255Y-2.6963
X2.255Y-2.7963
X2.255Y-2.8963
X2.255Y-2.9963
X2.355Y-1.4963
X2.355Y-1.5963
X2.355Y-1.6963
X2.355Y-1.7963
X2.355Y-1.8963
X2.355Y-1.9963
X2.355Y-2.0963
X2.355Y-2.1963
X2.355Y-2.2963
X2.355Y-2.3963
X2.355Y-2.4963
X2.355Y-2.5963
X2.355Y-2.6963
X2.355Y-2.7963
X2.355Y-2.8963
X2.355Y-2.9963
T6
X3.3949Y-1.021
X3.5449Y-1.021
X3.6949Y-1.021
X3.8449Y-1.021
X5.6378Y-1.0035
X5.8378Y-1.0035
X6.768Y-1.007
X6.968Y-1.007
T4
G00X5.0448Y-1.2156
M15
G01X5.0448Y-1.2392
M16
G05
G00X5.2181Y-1.1093
M15
G01X5.2417Y-1.1093
M16
G05
G00X5.2181Y-1.3455
M15
G01X5.2417Y-1.3455
M16
G05
M30
