G04*
G04 #@! TF.GenerationSoftware,Altium Limited,Altium Designer,19.0.10 (269)*
G04*
G04 Layer_Color=65535*
%FSLAX25Y25*%
%MOIN*%
G70*
G01*
G75*
%ADD10C,0.00984*%
%ADD11C,0.01000*%
%ADD12C,0.00598*%
%ADD13C,0.00787*%
%ADD14C,0.02362*%
%ADD15C,0.00600*%
D10*
X770405Y378331D02*
G03*
X770405Y378331I-492J0D01*
G01*
X834366Y391992D02*
G03*
X834366Y391992I-492J0D01*
G01*
X708764Y263562D02*
G03*
X708764Y263562I-492J0D01*
G01*
X374107Y314254D02*
G03*
X374107Y314254I-492J0D01*
G01*
X417107Y314149D02*
G03*
X417107Y314149I-492J0D01*
G01*
X461107Y314317D02*
G03*
X461107Y314317I-492J0D01*
G01*
X507107Y314500D02*
G03*
X507107Y314500I-492J0D01*
G01*
X365349Y123000D02*
G03*
X365349Y123000I-492J0D01*
G01*
X408349Y123183D02*
G03*
X408349Y123183I-492J0D01*
G01*
X453627Y123381D02*
G03*
X453627Y123381I-492J0D01*
G01*
X500627Y123550D02*
G03*
X500627Y123550I-492J0D01*
G01*
X873697Y470000D02*
G03*
X873697Y470000I-492J0D01*
G01*
X697319Y425431D02*
G03*
X697319Y425431I-492J0D01*
G01*
X696138Y465646D02*
G03*
X696138Y465646I-492J0D01*
G01*
X747492Y431730D02*
G03*
X747492Y431730I-492J0D01*
G01*
X819539Y470000D02*
G03*
X819539Y470000I-492J0D01*
G01*
Y418512D02*
G03*
X819539Y418512I-492J0D01*
G01*
X652406Y137887D02*
G03*
X652406Y137887I-492J0D01*
G01*
X652140Y201538D02*
G03*
X652140Y201538I-492J0D01*
G01*
Y265189D02*
G03*
X652140Y265189I-492J0D01*
G01*
Y328840D02*
G03*
X652140Y328840I-492J0D01*
G01*
Y392491D02*
G03*
X652140Y392491I-492J0D01*
G01*
Y456142D02*
G03*
X652140Y456142I-492J0D01*
G01*
X452110Y472500D02*
G03*
X452110Y472500I-492J0D01*
G01*
X345874Y249500D02*
G03*
X345874Y249500I-492J0D01*
G01*
D11*
X773323Y250500D02*
G03*
X773323Y250500I-12402J0D01*
G01*
X765980Y406900D02*
G03*
X765980Y406900I-12402J0D01*
G01*
X662028Y360221D02*
Y383842D01*
X711870Y360221D02*
Y383842D01*
X662028Y360221D02*
X711870D01*
X662028Y383842D02*
X711870D01*
X353827Y432370D02*
X550677D01*
X353827Y353630D02*
X550677D01*
X353827D02*
Y432370D01*
X550677Y353630D02*
Y432370D01*
X349575Y236870D02*
X546425D01*
X349575Y158130D02*
X546425D01*
X349575D02*
Y236870D01*
X546425Y158130D02*
Y236870D01*
X685141Y129323D02*
Y212000D01*
Y129323D02*
X818999Y129323D01*
X685141Y212000D02*
X818999Y212000D01*
Y129323D02*
Y212000D01*
X850158Y269272D02*
X873779D01*
X850158Y319115D02*
X873779D01*
Y269272D02*
Y319115D01*
X850158Y269272D02*
Y319115D01*
X846220Y192000D02*
X869843D01*
X846220Y142157D02*
X869843D01*
X846220D02*
Y192000D01*
X869843Y142157D02*
Y192000D01*
X289999Y185332D02*
X287999D01*
X288999D01*
Y180333D01*
X287999Y179334D01*
X287000D01*
X286000Y180333D01*
X291998Y185332D02*
X295997D01*
Y184332D01*
X291998Y180333D01*
Y179334D01*
X379028Y108718D02*
Y114716D01*
X382027D01*
X383027Y113716D01*
Y111717D01*
X382027Y110717D01*
X379028D01*
X381028D02*
X383027Y108718D01*
X385026D02*
X387026D01*
X386026D01*
Y114716D01*
X385026Y113716D01*
X383108Y347997D02*
Y336000D01*
Y347997D02*
X390535D01*
X383108Y342284D02*
X387679D01*
X395334Y347997D02*
X394192Y347426D01*
X393049Y346284D01*
X392478Y345141D01*
X391906Y343427D01*
Y340570D01*
X392478Y338857D01*
X393049Y337714D01*
X394192Y336571D01*
X395334Y336000D01*
X397620D01*
X398762Y336571D01*
X399905Y337714D01*
X400476Y338857D01*
X401047Y340570D01*
Y343427D01*
X400476Y345141D01*
X399905Y346284D01*
X398762Y347426D01*
X397620Y347997D01*
X395334D01*
X403847D02*
Y336000D01*
Y347997D02*
X408989D01*
X410702Y347426D01*
X411274Y346855D01*
X411845Y345712D01*
Y344570D01*
X411274Y343427D01*
X410702Y342856D01*
X408989Y342284D01*
X403847D01*
X407846D02*
X411845Y336000D01*
X423100Y345141D02*
X422529Y346284D01*
X421386Y347426D01*
X420243Y347997D01*
X417958D01*
X416815Y347426D01*
X415673Y346284D01*
X415101Y345141D01*
X414530Y343427D01*
Y340570D01*
X415101Y338857D01*
X415673Y337714D01*
X416815Y336571D01*
X417958Y336000D01*
X420243D01*
X421386Y336571D01*
X422529Y337714D01*
X423100Y338857D01*
X433897Y347997D02*
X426471D01*
Y336000D01*
X433897D01*
X426471Y342284D02*
X431041D01*
X449323Y350283D02*
X448180Y349140D01*
X447038Y347426D01*
X445895Y345141D01*
X445324Y342284D01*
Y339999D01*
X445895Y337143D01*
X447038Y334857D01*
X448180Y333143D01*
X449323Y332001D01*
X448180Y349140D02*
X447038Y346855D01*
X446466Y345141D01*
X445895Y342284D01*
Y339999D01*
X446466Y337143D01*
X447038Y335429D01*
X448180Y333143D01*
X451608Y347997D02*
Y336000D01*
Y347997D02*
X459606Y336000D01*
Y347997D02*
Y336000D01*
X470347Y347997D02*
X462920D01*
Y336000D01*
X470347D01*
X462920Y342284D02*
X467490D01*
X472346Y347997D02*
X475203Y336000D01*
X478059Y347997D02*
X475203Y336000D01*
X478059Y347997D02*
X480916Y336000D01*
X483773Y347997D02*
X480916Y336000D01*
X490171Y347997D02*
Y336000D01*
X486172Y347997D02*
X494170D01*
X499026D02*
X497884Y347426D01*
X496741Y346284D01*
X496170Y345141D01*
X495599Y343427D01*
Y340570D01*
X496170Y338857D01*
X496741Y337714D01*
X497884Y336571D01*
X499026Y336000D01*
X501312D01*
X502454Y336571D01*
X503597Y337714D01*
X504168Y338857D01*
X504739Y340570D01*
Y343427D01*
X504168Y345141D01*
X503597Y346284D01*
X502454Y347426D01*
X501312Y347997D01*
X499026D01*
X507539D02*
Y336000D01*
Y347997D02*
X515537Y336000D01*
Y347997D02*
Y336000D01*
X526849Y346284D02*
X525706Y347426D01*
X523992Y347997D01*
X521707D01*
X519993Y347426D01*
X518851Y346284D01*
Y345141D01*
X519422Y343998D01*
X519993Y343427D01*
X521136Y342856D01*
X524564Y341713D01*
X525706Y341142D01*
X526278Y340570D01*
X526849Y339428D01*
Y337714D01*
X525706Y336571D01*
X523992Y336000D01*
X521707D01*
X519993Y336571D01*
X518851Y337714D01*
X529534Y350283D02*
X530677Y349140D01*
X531819Y347426D01*
X532962Y345141D01*
X533533Y342284D01*
Y339999D01*
X532962Y337143D01*
X531819Y334857D01*
X530677Y333143D01*
X529534Y332001D01*
X530677Y349140D02*
X531819Y346855D01*
X532391Y345141D01*
X532962Y342284D01*
Y339999D01*
X532391Y337143D01*
X531819Y335429D01*
X530677Y333143D01*
X287399Y297913D02*
X286399Y298913D01*
X284400D01*
X283400Y297913D01*
Y293915D01*
X284400Y292915D01*
X286399D01*
X287399Y293915D01*
X289398Y292915D02*
X291397D01*
X290398D01*
Y298913D01*
X289398Y297913D01*
X294396D02*
X295396Y298913D01*
X297395D01*
X298395Y297913D01*
Y296914D01*
X297395Y295914D01*
X296396D01*
X297395D01*
X298395Y294914D01*
Y293915D01*
X297395Y292915D01*
X295396D01*
X294396Y293915D01*
X663999Y396990D02*
X662999Y397990D01*
X661000D01*
X660000Y396990D01*
Y395991D01*
X661000Y394991D01*
X662999D01*
X663999Y393991D01*
Y392992D01*
X662999Y391992D01*
X661000D01*
X660000Y392992D01*
X669997Y396990D02*
X668997Y397990D01*
X666998D01*
X665998Y396990D01*
Y392992D01*
X666998Y391992D01*
X668997D01*
X669997Y392992D01*
X671996Y391992D02*
Y395991D01*
X673995Y397990D01*
X675995Y395991D01*
Y391992D01*
Y394991D01*
X671996D01*
X677994Y397990D02*
Y391992D01*
X681993D01*
X687991Y397990D02*
X683992D01*
Y391992D01*
X687991D01*
X683992Y394991D02*
X685992D01*
X698987Y397990D02*
X696988D01*
X695988Y396990D01*
Y392992D01*
X696988Y391992D01*
X698987D01*
X699987Y392992D01*
Y396990D01*
X698987Y397990D01*
X701986Y391992D02*
Y397990D01*
X705985Y391992D01*
Y397990D01*
X707984D02*
Y391992D01*
X711983D01*
X713982Y397990D02*
Y396990D01*
X715982Y394991D01*
X717981Y396990D01*
Y397990D01*
X715982Y394991D02*
Y391992D01*
X725979Y393991D02*
Y398990D01*
Y392992D02*
Y391992D01*
X660000Y407998D02*
Y403000D01*
X661000Y402000D01*
X662999D01*
X663999Y403000D01*
Y407998D01*
X669997Y406998D02*
X668997Y407998D01*
X666998D01*
X665998Y406998D01*
Y405999D01*
X666998Y404999D01*
X668997D01*
X669997Y403999D01*
Y403000D01*
X668997Y402000D01*
X666998D01*
X665998Y403000D01*
X675995Y407998D02*
X671996D01*
Y402000D01*
X675995D01*
X671996Y404999D02*
X673995D01*
X683992Y407998D02*
Y402000D01*
X685992Y403999D01*
X687991Y402000D01*
Y407998D01*
X689990D02*
X691990D01*
X690990D01*
Y402000D01*
X689990D01*
X691990D01*
X694989Y407998D02*
X698987D01*
X696988D01*
Y402000D01*
X700987Y407998D02*
Y402000D01*
Y404999D01*
X704986D01*
Y407998D01*
Y402000D01*
X712983Y407998D02*
Y402000D01*
X716982D01*
X718981Y407998D02*
X720980D01*
X719981D01*
Y402000D01*
X718981D01*
X720980D01*
X723979D02*
Y407998D01*
X727978Y402000D01*
Y407998D01*
X729977Y402000D02*
Y403000D01*
X730977D01*
Y402000D01*
X729977D01*
X660000Y412000D02*
Y417998D01*
X663999Y412000D01*
Y417998D01*
X668997D02*
X666998D01*
X665998Y416998D01*
Y413000D01*
X666998Y412000D01*
X668997D01*
X669997Y413000D01*
Y416998D01*
X668997Y417998D01*
X671996D02*
X675995D01*
X673995D01*
Y412000D01*
X683992Y417998D02*
Y413000D01*
X684992Y412000D01*
X686991D01*
X687991Y413000D01*
Y417998D01*
X693989Y416998D02*
X692989Y417998D01*
X690990D01*
X689990Y416998D01*
Y415999D01*
X690990Y414999D01*
X692989D01*
X693989Y413999D01*
Y413000D01*
X692989Y412000D01*
X690990D01*
X689990Y413000D01*
X695988Y417998D02*
Y412000D01*
X698987D01*
X699987Y413000D01*
Y413999D01*
X698987Y414999D01*
X695988D01*
X698987D01*
X699987Y415999D01*
Y416998D01*
X698987Y417998D01*
X695988D01*
X707984Y412000D02*
Y417998D01*
X710984D01*
X711983Y416998D01*
Y414999D01*
X710984Y413999D01*
X707984D01*
X716982Y417998D02*
X714982D01*
X713982Y416998D01*
Y413000D01*
X714982Y412000D01*
X716982D01*
X717981Y413000D01*
Y416998D01*
X716982Y417998D01*
X719981Y412000D02*
Y417998D01*
X722980D01*
X723979Y416998D01*
Y414999D01*
X722980Y413999D01*
X719981D01*
X721980D02*
X723979Y412000D01*
X725979Y417998D02*
X729977D01*
X727978D01*
Y412000D01*
X625745Y193664D02*
Y186047D01*
X625269Y184618D01*
X624793Y184142D01*
X623841Y183666D01*
X622889D01*
X621936Y184142D01*
X621460Y184618D01*
X620984Y186047D01*
Y186999D01*
X631173Y193664D02*
X630220Y193188D01*
X629268Y192236D01*
X628792Y191284D01*
X628316Y189855D01*
Y187475D01*
X628792Y186047D01*
X629268Y185094D01*
X630220Y184142D01*
X631173Y183666D01*
X633077D01*
X634029Y184142D01*
X634981Y185094D01*
X635457Y186047D01*
X635933Y187475D01*
Y189855D01*
X635457Y191284D01*
X634981Y192236D01*
X634029Y193188D01*
X633077Y193664D01*
X631173D01*
X645408Y191284D02*
X644932Y192236D01*
X643979Y193188D01*
X643027Y193664D01*
X641123D01*
X640171Y193188D01*
X639219Y192236D01*
X638742Y191284D01*
X638266Y189855D01*
Y187475D01*
X638742Y186047D01*
X639219Y185094D01*
X640171Y184142D01*
X641123Y183666D01*
X643027D01*
X643979Y184142D01*
X644932Y185094D01*
X645408Y186047D01*
Y187475D01*
X643027D02*
X645408D01*
X616000Y178998D02*
Y169000D01*
Y178998D02*
X619333D01*
X620761Y178522D01*
X621713Y177570D01*
X622189Y176617D01*
X622665Y175189D01*
Y172809D01*
X622189Y171380D01*
X621713Y170428D01*
X620761Y169476D01*
X619333Y169000D01*
X616000D01*
X627759Y178998D02*
X626807Y178522D01*
X625855Y177570D01*
X625379Y176617D01*
X624903Y175189D01*
Y172809D01*
X625379Y171380D01*
X625855Y170428D01*
X626807Y169476D01*
X627759Y169000D01*
X629664D01*
X630616Y169476D01*
X631568Y170428D01*
X632044Y171380D01*
X632520Y172809D01*
Y175189D01*
X632044Y176617D01*
X631568Y177570D01*
X630616Y178522D01*
X629664Y178998D01*
X627759D01*
X634853D02*
X637233Y169000D01*
X639614Y178998D02*
X637233Y169000D01*
X639614Y178998D02*
X641994Y169000D01*
X644375Y178998D02*
X641994Y169000D01*
X646374Y178998D02*
Y169000D01*
Y178998D02*
X653040Y169000D01*
Y178998D02*
Y169000D01*
X624638Y242998D02*
Y235857D01*
X625114Y234428D01*
X626066Y233476D01*
X627494Y233000D01*
X628446D01*
X629875Y233476D01*
X630827Y234428D01*
X631303Y235857D01*
Y242998D01*
X634064Y237761D02*
X638349D01*
X639777Y238237D01*
X640253Y238713D01*
X640730Y239665D01*
Y241093D01*
X640253Y242046D01*
X639777Y242522D01*
X638349Y242998D01*
X634064D01*
Y233000D01*
X621000Y368998D02*
Y359000D01*
Y368998D02*
X625285D01*
X626713Y368522D01*
X627189Y368046D01*
X627665Y367093D01*
Y366141D01*
X627189Y365189D01*
X626713Y364713D01*
X625285Y364237D01*
X621000D01*
X624333D02*
X627665Y359000D01*
X636092Y368998D02*
X629903D01*
Y359000D01*
X636092D01*
X629903Y364237D02*
X633712D01*
X644900Y366617D02*
X644423Y367570D01*
X643471Y368522D01*
X642519Y368998D01*
X640615D01*
X639663Y368522D01*
X638710Y367570D01*
X638234Y366617D01*
X637758Y365189D01*
Y362809D01*
X638234Y361380D01*
X638710Y360428D01*
X639663Y359476D01*
X640615Y359000D01*
X642519D01*
X643471Y359476D01*
X644423Y360428D01*
X644900Y361380D01*
X621924Y433998D02*
Y424000D01*
Y433998D02*
X626209D01*
X627637Y433522D01*
X628113Y433046D01*
X628589Y432093D01*
Y431141D01*
X628113Y430189D01*
X627637Y429713D01*
X626209Y429237D01*
X621924D01*
X625256D02*
X628589Y424000D01*
X637016Y433998D02*
X630827D01*
Y424000D01*
X637016D01*
X630827Y429237D02*
X634635D01*
X645823Y431617D02*
X645347Y432570D01*
X644395Y433522D01*
X643443Y433998D01*
X641539D01*
X640587Y433522D01*
X639634Y432570D01*
X639158Y431617D01*
X638682Y430189D01*
Y427809D01*
X639158Y426380D01*
X639634Y425428D01*
X640587Y424476D01*
X641539Y424000D01*
X643443D01*
X644395Y424476D01*
X645347Y425428D01*
X645823Y426380D01*
X368500Y152997D02*
Y141000D01*
Y152997D02*
X372499D01*
X374213Y152426D01*
X375356Y151284D01*
X375927Y150141D01*
X376498Y148427D01*
Y145571D01*
X375927Y143857D01*
X375356Y142714D01*
X374213Y141571D01*
X372499Y141000D01*
X368500D01*
X379183Y152997D02*
Y141000D01*
X389696Y151284D02*
X388553Y152426D01*
X386839Y152997D01*
X384554D01*
X382840Y152426D01*
X381697Y151284D01*
Y150141D01*
X382269Y148998D01*
X382840Y148427D01*
X383982Y147856D01*
X387410Y146713D01*
X388553Y146142D01*
X389124Y145571D01*
X389696Y144428D01*
Y142714D01*
X388553Y141571D01*
X386839Y141000D01*
X384554D01*
X382840Y141571D01*
X381697Y142714D01*
X392381Y146713D02*
X397522D01*
X399236Y147284D01*
X399808Y147856D01*
X400379Y148998D01*
Y150712D01*
X399808Y151855D01*
X399236Y152426D01*
X397522Y152997D01*
X392381D01*
Y141000D01*
X403064Y152997D02*
Y141000D01*
X409920D01*
X420375D02*
X415804Y152997D01*
X411234Y141000D01*
X412948Y144999D02*
X418661D01*
X431744Y150141D02*
X431172Y151284D01*
X430030Y152426D01*
X428887Y152997D01*
X426602D01*
X425459Y152426D01*
X424317Y151284D01*
X423745Y150141D01*
X423174Y148427D01*
Y145571D01*
X423745Y143857D01*
X424317Y142714D01*
X425459Y141571D01*
X426602Y141000D01*
X428887D01*
X430030Y141571D01*
X431172Y142714D01*
X431744Y143857D01*
X442541Y152997D02*
X435114D01*
Y141000D01*
X442541D01*
X435114Y147284D02*
X439685D01*
X444541Y152997D02*
Y141000D01*
Y152997D02*
X449111Y141000D01*
X453682Y152997D02*
X449111Y141000D01*
X453682Y152997D02*
Y141000D01*
X464537Y152997D02*
X457110D01*
Y141000D01*
X464537D01*
X457110Y147284D02*
X461680D01*
X466536Y152997D02*
Y141000D01*
Y152997D02*
X474534Y141000D01*
Y152997D02*
Y141000D01*
X481847Y152997D02*
Y141000D01*
X477848Y152997D02*
X485846D01*
X500700Y155283D02*
X499558Y154140D01*
X498415Y152426D01*
X497272Y150141D01*
X496701Y147284D01*
Y144999D01*
X497272Y142143D01*
X498415Y139857D01*
X499558Y138144D01*
X500700Y137001D01*
X499558Y154140D02*
X498415Y151855D01*
X497844Y150141D01*
X497272Y147284D01*
Y144999D01*
X497844Y142143D01*
X498415Y140429D01*
X499558Y138144D01*
X502985Y152997D02*
Y141000D01*
Y152997D02*
X507556Y141000D01*
X512126Y152997D02*
X507556Y141000D01*
X512126Y152997D02*
Y141000D01*
X515554Y152997D02*
Y141000D01*
Y152997D02*
X520125Y141000D01*
X524695Y152997D02*
X520125Y141000D01*
X524695Y152997D02*
Y141000D01*
X528123Y155283D02*
X529265Y154140D01*
X530408Y152426D01*
X531551Y150141D01*
X532122Y147284D01*
Y144999D01*
X531551Y142143D01*
X530408Y139857D01*
X529265Y138144D01*
X528123Y137001D01*
X529265Y154140D02*
X530408Y151855D01*
X530979Y150141D01*
X531551Y147284D01*
Y144999D01*
X530979Y142143D01*
X530408Y140429D01*
X529265Y138144D01*
X628557Y117000D02*
X624748Y126998D01*
X620940Y117000D01*
X622368Y120333D02*
X627129D01*
X630890Y126998D02*
Y119857D01*
X631366Y118428D01*
X632318Y117476D01*
X633746Y117000D01*
X634699D01*
X636127Y117476D01*
X637079Y118428D01*
X637555Y119857D01*
Y126998D01*
X640316D02*
X646982Y117000D01*
Y126998D02*
X640316Y117000D01*
X624761Y256998D02*
Y249380D01*
X624285Y247952D01*
X623809Y247476D01*
X622857Y247000D01*
X621904D01*
X620952Y247476D01*
X620476Y247952D01*
X620000Y249380D01*
Y250333D01*
X630188Y256998D02*
X629236Y256522D01*
X628284Y255570D01*
X627808Y254617D01*
X627332Y253189D01*
Y250809D01*
X627808Y249380D01*
X628284Y248428D01*
X629236Y247476D01*
X630188Y247000D01*
X632093D01*
X633045Y247476D01*
X633997Y248428D01*
X634473Y249380D01*
X634949Y250809D01*
Y253189D01*
X634473Y254617D01*
X633997Y255570D01*
X633045Y256522D01*
X632093Y256998D01*
X630188D01*
X644423Y254617D02*
X643947Y255570D01*
X642995Y256522D01*
X642043Y256998D01*
X640138D01*
X639186Y256522D01*
X638234Y255570D01*
X637758Y254617D01*
X637282Y253189D01*
Y250809D01*
X637758Y249380D01*
X638234Y248428D01*
X639186Y247476D01*
X640138Y247000D01*
X642043D01*
X642995Y247476D01*
X643947Y248428D01*
X644423Y249380D01*
Y250809D01*
X642043D02*
X644423D01*
X622665Y319998D02*
X616000Y310000D01*
Y319998D02*
X622665D01*
X616000Y310000D02*
X622665D01*
X631092Y319998D02*
X624903D01*
Y310000D01*
X631092D01*
X624903Y315237D02*
X628712D01*
X632758Y319998D02*
Y310000D01*
Y319998D02*
X637043D01*
X638471Y319522D01*
X638947Y319046D01*
X639424Y318093D01*
Y317141D01*
X638947Y316189D01*
X638471Y315713D01*
X637043Y315237D01*
X632758D01*
X636091D02*
X639424Y310000D01*
X644518Y319998D02*
X643566Y319522D01*
X642613Y318570D01*
X642137Y317617D01*
X641661Y316189D01*
Y313809D01*
X642137Y312380D01*
X642613Y311428D01*
X643566Y310476D01*
X644518Y310000D01*
X646422D01*
X647374Y310476D01*
X648326Y311428D01*
X648803Y312380D01*
X649279Y313809D01*
Y316189D01*
X648803Y317617D01*
X648326Y318570D01*
X647374Y319522D01*
X646422Y319998D01*
X644518D01*
X623665Y380570D02*
X622713Y381522D01*
X621285Y381998D01*
X619380D01*
X617952Y381522D01*
X617000Y380570D01*
Y379617D01*
X617476Y378665D01*
X617952Y378189D01*
X618904Y377713D01*
X621761Y376761D01*
X622713Y376285D01*
X623189Y375809D01*
X623665Y374856D01*
Y373428D01*
X622713Y372476D01*
X621285Y372000D01*
X619380D01*
X617952Y372476D01*
X617000Y373428D01*
X629236Y381998D02*
Y372000D01*
X625903Y381998D02*
X632568D01*
X636615D02*
X635663Y381522D01*
X634711Y380570D01*
X634234Y379617D01*
X633758Y378189D01*
Y375809D01*
X634234Y374380D01*
X634711Y373428D01*
X635663Y372476D01*
X636615Y372000D01*
X638519D01*
X639471Y372476D01*
X640423Y373428D01*
X640900Y374380D01*
X641376Y375809D01*
Y378189D01*
X640900Y379617D01*
X640423Y380570D01*
X639471Y381522D01*
X638519Y381998D01*
X636615D01*
X643709Y376761D02*
X647993D01*
X649422Y377237D01*
X649898Y377713D01*
X650374Y378665D01*
Y380094D01*
X649898Y381046D01*
X649422Y381522D01*
X647993Y381998D01*
X643709D01*
Y372000D01*
X619665Y445570D02*
X618713Y446522D01*
X617285Y446998D01*
X615380D01*
X613952Y446522D01*
X613000Y445570D01*
Y444617D01*
X613476Y443665D01*
X613952Y443189D01*
X614904Y442713D01*
X617761Y441761D01*
X618713Y441285D01*
X619189Y440809D01*
X619665Y439856D01*
Y438428D01*
X618713Y437476D01*
X617285Y437000D01*
X615380D01*
X613952Y437476D01*
X613000Y438428D01*
X625236Y446998D02*
Y437000D01*
X621903Y446998D02*
X628568D01*
X637376Y437000D02*
X633567Y446998D01*
X629758Y437000D01*
X631187Y440333D02*
X635948D01*
X639709Y446998D02*
Y437000D01*
Y446998D02*
X643993D01*
X645422Y446522D01*
X645898Y446046D01*
X646374Y445093D01*
Y444141D01*
X645898Y443189D01*
X645422Y442713D01*
X643993Y442237D01*
X639709D01*
X643041D02*
X646374Y437000D01*
X651944Y446998D02*
Y437000D01*
X648611Y446998D02*
X655277D01*
X395251Y393000D02*
Y398998D01*
X392252Y395999D01*
X396251D01*
X404248Y396999D02*
X408247Y393000D01*
X406248Y394999D01*
X408247Y396999D01*
X404248Y393000D01*
X416244Y398998D02*
X420243D01*
Y397998D01*
X416244Y394000D01*
Y393000D01*
X432239Y397998D02*
X431240Y398998D01*
X429240D01*
X428240Y397998D01*
Y396999D01*
X429240Y395999D01*
X431240D01*
X432239Y394999D01*
Y394000D01*
X431240Y393000D01*
X429240D01*
X428240Y394000D01*
X437238Y393000D02*
X435238D01*
X434239Y394000D01*
Y395999D01*
X435238Y396999D01*
X437238D01*
X438237Y395999D01*
Y394999D01*
X434239D01*
X442236Y391001D02*
X443236D01*
X444235Y392000D01*
Y396999D01*
X441236D01*
X440237Y395999D01*
Y394000D01*
X441236Y393000D01*
X444235D01*
X446235D02*
Y396999D01*
X447234D01*
X448234Y395999D01*
Y393000D01*
Y395999D01*
X449234Y396999D01*
X450233Y395999D01*
Y393000D01*
X455232D02*
X453232D01*
X452233Y394000D01*
Y395999D01*
X453232Y396999D01*
X455232D01*
X456231Y395999D01*
Y394999D01*
X452233D01*
X458231Y393000D02*
Y396999D01*
X461230D01*
X462230Y395999D01*
Y393000D01*
X465229Y397998D02*
Y396999D01*
X464229D01*
X466228D01*
X465229D01*
Y394000D01*
X466228Y393000D01*
X475225Y398998D02*
Y393000D01*
X478224D01*
X479224Y394000D01*
Y397998D01*
X478224Y398998D01*
X475225D01*
X481223Y393000D02*
X483223D01*
X482223D01*
Y396999D01*
X481223D01*
X486222Y393000D02*
X489221D01*
X490220Y394000D01*
X489221Y394999D01*
X487221D01*
X486222Y395999D01*
X487221Y396999D01*
X490220D01*
X492220Y391001D02*
Y396999D01*
X495219D01*
X496218Y395999D01*
Y394000D01*
X495219Y393000D01*
X492220D01*
X498218D02*
X500217D01*
X499218D01*
Y398998D01*
X498218D01*
X504216Y396999D02*
X506215D01*
X507215Y395999D01*
Y393000D01*
X504216D01*
X503216Y394000D01*
X504216Y394999D01*
X507215D01*
X509214Y396999D02*
Y394000D01*
X510214Y393000D01*
X513213D01*
Y392000D01*
X512213Y391001D01*
X511214D01*
X513213Y393000D02*
Y396999D01*
X390999Y197500D02*
Y203498D01*
X388000Y200499D01*
X391999D01*
X399996Y201499D02*
X403995Y197500D01*
X401996Y199499D01*
X403995Y201499D01*
X399996Y197500D01*
X411992Y203498D02*
X415991D01*
Y202498D01*
X411992Y198500D01*
Y197500D01*
X427987Y202498D02*
X426987Y203498D01*
X424988D01*
X423988Y202498D01*
Y201499D01*
X424988Y200499D01*
X426987D01*
X427987Y199499D01*
Y198500D01*
X426987Y197500D01*
X424988D01*
X423988Y198500D01*
X432985Y197500D02*
X430986D01*
X429986Y198500D01*
Y200499D01*
X430986Y201499D01*
X432985D01*
X433985Y200499D01*
Y199499D01*
X429986D01*
X437984Y195501D02*
X438983D01*
X439983Y196500D01*
Y201499D01*
X436984D01*
X435985Y200499D01*
Y198500D01*
X436984Y197500D01*
X439983D01*
X441983D02*
Y201499D01*
X442982D01*
X443982Y200499D01*
Y197500D01*
Y200499D01*
X444982Y201499D01*
X445981Y200499D01*
Y197500D01*
X450980D02*
X448980D01*
X447981Y198500D01*
Y200499D01*
X448980Y201499D01*
X450980D01*
X451979Y200499D01*
Y199499D01*
X447981D01*
X453979Y197500D02*
Y201499D01*
X456978D01*
X457977Y200499D01*
Y197500D01*
X460976Y202498D02*
Y201499D01*
X459977D01*
X461976D01*
X460976D01*
Y198500D01*
X461976Y197500D01*
X470973Y203498D02*
Y197500D01*
X473972D01*
X474972Y198500D01*
Y202498D01*
X473972Y203498D01*
X470973D01*
X476971Y197500D02*
X478971D01*
X477971D01*
Y201499D01*
X476971D01*
X481970Y197500D02*
X484969D01*
X485968Y198500D01*
X484969Y199499D01*
X482969D01*
X481970Y200499D01*
X482969Y201499D01*
X485968D01*
X487968Y195501D02*
Y201499D01*
X490967D01*
X491966Y200499D01*
Y198500D01*
X490967Y197500D01*
X487968D01*
X493966D02*
X495965D01*
X494965D01*
Y203498D01*
X493966D01*
X499964Y201499D02*
X501963D01*
X502963Y200499D01*
Y197500D01*
X499964D01*
X498964Y198500D01*
X499964Y199499D01*
X502963D01*
X504962Y201499D02*
Y198500D01*
X505962Y197500D01*
X508961D01*
Y196500D01*
X507961Y195501D01*
X506961D01*
X508961Y197500D02*
Y201499D01*
X743000Y173449D02*
Y167450D01*
Y170449D01*
X746999D01*
Y173449D01*
Y167450D01*
X748998Y173449D02*
X752997Y167450D01*
Y173449D02*
X748998Y167450D01*
X754996Y173449D02*
X758995D01*
Y172449D01*
X754996Y168450D01*
Y167450D01*
X760994D02*
X762993D01*
X761994D01*
Y173449D01*
X760994Y172449D01*
X765993Y167450D02*
X767992D01*
X766992D01*
Y173449D01*
X765993Y172449D01*
X872000Y394998D02*
X875999Y389000D01*
Y394998D02*
X872000Y389000D01*
X880997D02*
Y394998D01*
X877998Y391999D01*
X881997D01*
X358094Y427998D02*
X362093Y422000D01*
Y427998D02*
X358094Y422000D01*
X364092Y426998D02*
X365092Y427998D01*
X367091D01*
X368091Y426998D01*
Y425999D01*
X367091Y424999D01*
X366092D01*
X367091D01*
X368091Y423999D01*
Y423000D01*
X367091Y422000D01*
X365092D01*
X364092Y423000D01*
X352169Y233498D02*
X356167Y227500D01*
Y233498D02*
X352169Y227500D01*
X362165D02*
X358167D01*
X362165Y231499D01*
Y232498D01*
X361166Y233498D01*
X359166D01*
X358167Y232498D01*
X685600Y221498D02*
X689599Y215500D01*
Y221498D02*
X685600Y215500D01*
X691598D02*
X693597D01*
X692598D01*
Y221498D01*
X691598Y220498D01*
X374500Y462461D02*
Y457463D01*
X375500Y456463D01*
X377499D01*
X378499Y457463D01*
Y462461D01*
X383497Y456463D02*
Y462461D01*
X380498Y459462D01*
X384497D01*
X358486Y269498D02*
Y264500D01*
X359486Y263500D01*
X361485D01*
X362485Y264500D01*
Y269498D01*
X364484Y268498D02*
X365484Y269498D01*
X367483D01*
X368483Y268498D01*
Y267499D01*
X367483Y266499D01*
X366483D01*
X367483D01*
X368483Y265499D01*
Y264500D01*
X367483Y263500D01*
X365484D01*
X364484Y264500D01*
X716888Y246431D02*
X721886D01*
X722886Y247431D01*
Y249430D01*
X721886Y250430D01*
X716888D01*
X722886Y256428D02*
Y252429D01*
X718887Y256428D01*
X717887D01*
X716888Y255429D01*
Y253429D01*
X717887Y252429D01*
X747492Y357998D02*
Y353000D01*
X748492Y352000D01*
X750491D01*
X751491Y353000D01*
Y357998D01*
X753490Y352000D02*
X755489D01*
X754490D01*
Y357998D01*
X753490Y356998D01*
X629999Y148743D02*
X628999Y149743D01*
X627000D01*
X626000Y148743D01*
Y147743D01*
X627000Y146744D01*
X628999D01*
X629999Y145744D01*
Y144745D01*
X628999Y143745D01*
X627000D01*
X626000Y144745D01*
X631998Y149743D02*
Y143745D01*
X633997Y145744D01*
X635997Y143745D01*
Y149743D01*
X641995D02*
X639995Y148743D01*
X637996Y146744D01*
Y144745D01*
X638996Y143745D01*
X640995D01*
X641995Y144745D01*
Y145744D01*
X640995Y146744D01*
X637996D01*
X629660Y212394D02*
X628660Y213394D01*
X626661D01*
X625661Y212394D01*
Y211395D01*
X626661Y210395D01*
X628660D01*
X629660Y209395D01*
Y208396D01*
X628660Y207396D01*
X626661D01*
X625661Y208396D01*
X631660Y213394D02*
Y207396D01*
X633659Y209395D01*
X635658Y207396D01*
Y213394D01*
X641656D02*
X637657D01*
Y210395D01*
X639657Y211395D01*
X640657D01*
X641656Y210395D01*
Y208396D01*
X640657Y207396D01*
X638657D01*
X637657Y208396D01*
X629734Y276073D02*
X628734Y277073D01*
X626735D01*
X625735Y276073D01*
Y275073D01*
X626735Y274074D01*
X628734D01*
X629734Y273074D01*
Y272074D01*
X628734Y271074D01*
X626735D01*
X625735Y272074D01*
X631733Y277073D02*
Y271074D01*
X633732Y273074D01*
X635732Y271074D01*
Y277073D01*
X640730Y271074D02*
Y277073D01*
X637731Y274074D01*
X641730D01*
X629734Y339696D02*
X628734Y340696D01*
X626735D01*
X625735Y339696D01*
Y338697D01*
X626735Y337697D01*
X628734D01*
X629734Y336697D01*
Y335698D01*
X628734Y334698D01*
X626735D01*
X625735Y335698D01*
X631733Y340696D02*
Y334698D01*
X633732Y336697D01*
X635732Y334698D01*
Y340696D01*
X637731Y339696D02*
X638731Y340696D01*
X640730D01*
X641730Y339696D01*
Y338697D01*
X640730Y337697D01*
X639730D01*
X640730D01*
X641730Y336697D01*
Y335698D01*
X640730Y334698D01*
X638731D01*
X637731Y335698D01*
X629734Y403347D02*
X628734Y404347D01*
X626735D01*
X625735Y403347D01*
Y402348D01*
X626735Y401348D01*
X628734D01*
X629734Y400348D01*
Y399349D01*
X628734Y398349D01*
X626735D01*
X625735Y399349D01*
X631733Y404347D02*
Y398349D01*
X633732Y400348D01*
X635732Y398349D01*
Y404347D01*
X641730Y398349D02*
X637731D01*
X641730Y402348D01*
Y403347D01*
X640730Y404347D01*
X638731D01*
X637731Y403347D01*
X629734Y467026D02*
X628734Y468026D01*
X626735D01*
X625735Y467026D01*
Y466026D01*
X626735Y465027D01*
X628734D01*
X629734Y464027D01*
Y463027D01*
X628734Y462028D01*
X626735D01*
X625735Y463027D01*
X631733Y468026D02*
Y462028D01*
X633732Y464027D01*
X635732Y462028D01*
Y468026D01*
X637731Y462028D02*
X639730D01*
X638731D01*
Y468026D01*
X637731Y467026D01*
X801000Y254000D02*
Y259998D01*
X803999D01*
X804999Y258998D01*
Y256999D01*
X803999Y255999D01*
X801000D01*
X802999D02*
X804999Y254000D01*
X810997Y259998D02*
X806998D01*
Y256999D01*
X808997Y257999D01*
X809997D01*
X810997Y256999D01*
Y255000D01*
X809997Y254000D01*
X807998D01*
X806998Y255000D01*
X816995Y259998D02*
X812996D01*
Y256999D01*
X814995Y257999D01*
X815995D01*
X816995Y256999D01*
Y255000D01*
X815995Y254000D01*
X813996D01*
X812996Y255000D01*
X802000Y296048D02*
Y302046D01*
X804999D01*
X805999Y301047D01*
Y299047D01*
X804999Y298048D01*
X802000D01*
X803999D02*
X805999Y296048D01*
X811997Y302046D02*
X807998D01*
Y299047D01*
X809997Y300047D01*
X810997D01*
X811997Y299047D01*
Y297048D01*
X810997Y296048D01*
X808998D01*
X807998Y297048D01*
X816995Y296048D02*
Y302046D01*
X813996Y299047D01*
X817995D01*
X802500Y308500D02*
Y314498D01*
X805499D01*
X806499Y313498D01*
Y311499D01*
X805499Y310499D01*
X802500D01*
X804499D02*
X806499Y308500D01*
X812497Y314498D02*
X808498D01*
Y311499D01*
X810497Y312499D01*
X811497D01*
X812497Y311499D01*
Y309500D01*
X811497Y308500D01*
X809498D01*
X808498Y309500D01*
X814496Y313498D02*
X815496Y314498D01*
X817495D01*
X818495Y313498D01*
Y312499D01*
X817495Y311499D01*
X816496D01*
X817495D01*
X818495Y310499D01*
Y309500D01*
X817495Y308500D01*
X815496D01*
X814496Y309500D01*
X803000Y328500D02*
Y334498D01*
X805999D01*
X806999Y333498D01*
Y331499D01*
X805999Y330499D01*
X803000D01*
X804999D02*
X806999Y328500D01*
X812997Y334498D02*
X808998D01*
Y331499D01*
X810997Y332499D01*
X811997D01*
X812997Y331499D01*
Y329500D01*
X811997Y328500D01*
X809998D01*
X808998Y329500D01*
X818995Y328500D02*
X814996D01*
X818995Y332499D01*
Y333498D01*
X817995Y334498D01*
X815996D01*
X814996Y333498D01*
X802616Y282548D02*
Y288546D01*
X805615D01*
X806615Y287547D01*
Y285547D01*
X805615Y284548D01*
X802616D01*
X804615D02*
X806615Y282548D01*
X812613Y288546D02*
X808614D01*
Y285547D01*
X810614Y286547D01*
X811613D01*
X812613Y285547D01*
Y283548D01*
X811613Y282548D01*
X809614D01*
X808614Y283548D01*
X814612Y282548D02*
X816612D01*
X815612D01*
Y288546D01*
X814612Y287547D01*
X802658Y355048D02*
Y361046D01*
X805657D01*
X806656Y360047D01*
Y358047D01*
X805657Y357048D01*
X802658D01*
X804657D02*
X806656Y355048D01*
X812654Y361046D02*
X808655D01*
Y358047D01*
X810655Y359047D01*
X811655D01*
X812654Y358047D01*
Y356048D01*
X811655Y355048D01*
X809655D01*
X808655Y356048D01*
X814654Y360047D02*
X815653Y361046D01*
X817653D01*
X818652Y360047D01*
Y356048D01*
X817653Y355048D01*
X815653D01*
X814654Y356048D01*
Y360047D01*
X801000Y269548D02*
Y275546D01*
X803999D01*
X804999Y274547D01*
Y272547D01*
X803999Y271548D01*
X801000D01*
X802999D02*
X804999Y269548D01*
X809997D02*
Y275546D01*
X806998Y272547D01*
X810997D01*
X812996Y270548D02*
X813996Y269548D01*
X815995D01*
X816995Y270548D01*
Y274547D01*
X815995Y275546D01*
X813996D01*
X812996Y274547D01*
Y273547D01*
X813996Y272547D01*
X816995D01*
X803000Y342000D02*
Y347998D01*
X805999D01*
X806999Y346998D01*
Y344999D01*
X805999Y343999D01*
X803000D01*
X804999D02*
X806999Y342000D01*
X811997D02*
Y347998D01*
X808998Y344999D01*
X812997D01*
X814996Y346998D02*
X815996Y347998D01*
X817995D01*
X818995Y346998D01*
Y345999D01*
X817995Y344999D01*
X818995Y343999D01*
Y343000D01*
X817995Y342000D01*
X815996D01*
X814996Y343000D01*
Y343999D01*
X815996Y344999D01*
X814996Y345999D01*
Y346998D01*
X815996Y344999D02*
X817995D01*
X590000Y154000D02*
X595998D01*
Y151001D01*
X594998Y150001D01*
X592999D01*
X591999Y151001D01*
Y154000D01*
Y152001D02*
X590000Y150001D01*
Y145003D02*
X595998D01*
X592999Y148002D01*
Y144003D01*
X595998Y142004D02*
Y138005D01*
X594998D01*
X591000Y142004D01*
X590000D01*
Y217541D02*
X595998D01*
Y214542D01*
X594998Y213542D01*
X592999D01*
X591999Y214542D01*
Y217541D01*
Y215542D02*
X590000Y213542D01*
Y208544D02*
X595998D01*
X592999Y211543D01*
Y207544D01*
X595998Y201546D02*
X594998Y203545D01*
X592999Y205545D01*
X591000D01*
X590000Y204545D01*
Y202546D01*
X591000Y201546D01*
X591999D01*
X592999Y202546D01*
Y205545D01*
X602000Y154000D02*
X607998D01*
Y151001D01*
X606998Y150001D01*
X604999D01*
X603999Y151001D01*
Y154000D01*
Y152001D02*
X602000Y150001D01*
Y145003D02*
X607998D01*
X604999Y148002D01*
Y144003D01*
X607998Y138005D02*
Y142004D01*
X604999D01*
X605999Y140005D01*
Y139005D01*
X604999Y138005D01*
X603000D01*
X602000Y139005D01*
Y141004D01*
X603000Y142004D01*
X602000Y217541D02*
X607998D01*
Y214542D01*
X606998Y213542D01*
X604999D01*
X603999Y214542D01*
Y217541D01*
Y215542D02*
X602000Y213542D01*
Y208544D02*
X607998D01*
X604999Y211543D01*
Y207544D01*
X602000Y202546D02*
X607998D01*
X604999Y205545D01*
Y201546D01*
X589129Y281541D02*
X595127D01*
Y278542D01*
X594128Y277542D01*
X592128D01*
X591129Y278542D01*
Y281541D01*
Y279542D02*
X589129Y277542D01*
Y272544D02*
X595127D01*
X592128Y275543D01*
Y271544D01*
X594128Y269545D02*
X595127Y268545D01*
Y266546D01*
X594128Y265546D01*
X593128D01*
X592128Y266546D01*
Y267546D01*
Y266546D01*
X591129Y265546D01*
X590129D01*
X589129Y266546D01*
Y268545D01*
X590129Y269545D01*
X601129Y281541D02*
X607127D01*
Y278542D01*
X606128Y277542D01*
X604128D01*
X603129Y278542D01*
Y281541D01*
Y279542D02*
X601129Y277542D01*
Y272544D02*
X607127D01*
X604128Y275543D01*
Y271544D01*
X601129Y265546D02*
Y269545D01*
X605128Y265546D01*
X606128D01*
X607127Y266546D01*
Y268545D01*
X606128Y269545D01*
X278000Y228000D02*
Y233998D01*
X280999D01*
X281999Y232998D01*
Y230999D01*
X280999Y229999D01*
X278000D01*
X279999D02*
X281999Y228000D01*
X286997D02*
Y233998D01*
X283998Y230999D01*
X287997D01*
X289996Y228000D02*
X291996D01*
X290996D01*
Y233998D01*
X289996Y232998D01*
X277000Y243000D02*
Y248998D01*
X279999D01*
X280999Y247998D01*
Y245999D01*
X279999Y244999D01*
X277000D01*
X278999D02*
X280999Y243000D01*
X285997D02*
Y248998D01*
X282998Y245999D01*
X286997D01*
X288996Y247998D02*
X289996Y248998D01*
X291995D01*
X292995Y247998D01*
Y244000D01*
X291995Y243000D01*
X289996D01*
X288996Y244000D01*
Y247998D01*
X589000Y344000D02*
X594998D01*
Y341001D01*
X593998Y340001D01*
X591999D01*
X590999Y341001D01*
Y344000D01*
Y342001D02*
X589000Y340001D01*
X593998Y338002D02*
X594998Y337002D01*
Y335003D01*
X593998Y334003D01*
X592999D01*
X591999Y335003D01*
Y336003D01*
Y335003D01*
X590999Y334003D01*
X590000D01*
X589000Y335003D01*
Y337002D01*
X590000Y338002D01*
Y332004D02*
X589000Y331004D01*
Y329005D01*
X590000Y328005D01*
X593998D01*
X594998Y329005D01*
Y331004D01*
X593998Y332004D01*
X592999D01*
X591999Y331004D01*
Y328005D01*
X235000Y228000D02*
Y233998D01*
X237999D01*
X238999Y232998D01*
Y230999D01*
X237999Y229999D01*
X235000D01*
X236999D02*
X238999Y228000D01*
X240998Y232998D02*
X241998Y233998D01*
X243997D01*
X244997Y232998D01*
Y231999D01*
X243997Y230999D01*
X242997D01*
X243997D01*
X244997Y229999D01*
Y229000D01*
X243997Y228000D01*
X241998D01*
X240998Y229000D01*
X246996Y232998D02*
X247996Y233998D01*
X249995D01*
X250995Y232998D01*
Y231999D01*
X249995Y230999D01*
X250995Y229999D01*
Y229000D01*
X249995Y228000D01*
X247996D01*
X246996Y229000D01*
Y229999D01*
X247996Y230999D01*
X246996Y231999D01*
Y232998D01*
X247996Y230999D02*
X249995D01*
X235000Y243000D02*
Y248998D01*
X237999D01*
X238999Y247998D01*
Y245999D01*
X237999Y244999D01*
X235000D01*
X236999D02*
X238999Y243000D01*
X240998Y247998D02*
X241998Y248998D01*
X243997D01*
X244997Y247998D01*
Y246999D01*
X243997Y245999D01*
X242997D01*
X243997D01*
X244997Y244999D01*
Y244000D01*
X243997Y243000D01*
X241998D01*
X240998Y244000D01*
X246996Y248998D02*
X250995D01*
Y247998D01*
X246996Y244000D01*
Y243000D01*
X601000Y344000D02*
X606998D01*
Y341001D01*
X605998Y340001D01*
X603999D01*
X602999Y341001D01*
Y344000D01*
Y342001D02*
X601000Y340001D01*
X605998Y338002D02*
X606998Y337002D01*
Y335003D01*
X605998Y334003D01*
X604999D01*
X603999Y335003D01*
Y336003D01*
Y335003D01*
X602999Y334003D01*
X602000D01*
X601000Y335003D01*
Y337002D01*
X602000Y338002D01*
X606998Y328005D02*
X605998Y330005D01*
X603999Y332004D01*
X602000D01*
X601000Y331004D01*
Y329005D01*
X602000Y328005D01*
X602999D01*
X603999Y329005D01*
Y332004D01*
X203500Y296334D02*
X209498D01*
Y293335D01*
X208498Y292335D01*
X206499D01*
X205499Y293335D01*
Y296334D01*
Y294334D02*
X203500Y292335D01*
X208498Y290336D02*
X209498Y289336D01*
Y287337D01*
X208498Y286337D01*
X207499D01*
X206499Y287337D01*
Y288336D01*
Y287337D01*
X205499Y286337D01*
X204500D01*
X203500Y287337D01*
Y289336D01*
X204500Y290336D01*
X209498Y280339D02*
Y284338D01*
X206499D01*
X207499Y282338D01*
Y281339D01*
X206499Y280339D01*
X204500D01*
X203500Y281339D01*
Y283338D01*
X204500Y284338D01*
X218500Y296000D02*
X224498D01*
Y293001D01*
X223498Y292001D01*
X221499D01*
X220499Y293001D01*
Y296000D01*
Y294001D02*
X218500Y292001D01*
X223498Y290002D02*
X224498Y289002D01*
Y287003D01*
X223498Y286003D01*
X222499D01*
X221499Y287003D01*
Y288003D01*
Y287003D01*
X220499Y286003D01*
X219500D01*
X218500Y287003D01*
Y289002D01*
X219500Y290002D01*
X218500Y281005D02*
X224498D01*
X221499Y284004D01*
Y280005D01*
X203500Y337000D02*
X209498D01*
Y334001D01*
X208498Y333001D01*
X206499D01*
X205499Y334001D01*
Y337000D01*
Y335001D02*
X203500Y333001D01*
X208498Y331002D02*
X209498Y330002D01*
Y328003D01*
X208498Y327003D01*
X207499D01*
X206499Y328003D01*
Y329003D01*
Y328003D01*
X205499Y327003D01*
X204500D01*
X203500Y328003D01*
Y330002D01*
X204500Y331002D01*
X208498Y325004D02*
X209498Y324004D01*
Y322005D01*
X208498Y321005D01*
X207499D01*
X206499Y322005D01*
Y323005D01*
Y322005D01*
X205499Y321005D01*
X204500D01*
X203500Y322005D01*
Y324004D01*
X204500Y325004D01*
X218500Y337000D02*
X224498D01*
Y334001D01*
X223498Y333001D01*
X221499D01*
X220499Y334001D01*
Y337000D01*
Y335001D02*
X218500Y333001D01*
X223498Y331002D02*
X224498Y330002D01*
Y328003D01*
X223498Y327003D01*
X222499D01*
X221499Y328003D01*
Y329003D01*
Y328003D01*
X220499Y327003D01*
X219500D01*
X218500Y328003D01*
Y330002D01*
X219500Y331002D01*
X218500Y321005D02*
Y325004D01*
X222499Y321005D01*
X223498D01*
X224498Y322005D01*
Y324004D01*
X223498Y325004D01*
X589000Y407700D02*
X594998D01*
Y404702D01*
X593998Y403702D01*
X591999D01*
X590999Y404702D01*
Y407700D01*
Y405701D02*
X589000Y403702D01*
X593998Y401702D02*
X594998Y400703D01*
Y398703D01*
X593998Y397704D01*
X592999D01*
X591999Y398703D01*
Y399703D01*
Y398703D01*
X590999Y397704D01*
X590000D01*
X589000Y398703D01*
Y400703D01*
X590000Y401702D01*
X589000Y395704D02*
Y393705D01*
Y394705D01*
X594998D01*
X593998Y395704D01*
X600882Y408733D02*
X606880D01*
Y405734D01*
X605880Y404734D01*
X603881D01*
X602881Y405734D01*
Y408733D01*
Y406734D02*
X600882Y404734D01*
X605880Y402735D02*
X606880Y401735D01*
Y399736D01*
X605880Y398736D01*
X604881D01*
X603881Y399736D01*
Y400736D01*
Y399736D01*
X602881Y398736D01*
X601882D01*
X600882Y399736D01*
Y401735D01*
X601882Y402735D01*
X605880Y396737D02*
X606880Y395737D01*
Y393738D01*
X605880Y392738D01*
X601882D01*
X600882Y393738D01*
Y395737D01*
X601882Y396737D01*
X605880D01*
X675000Y341000D02*
Y346998D01*
X677999D01*
X678999Y345998D01*
Y343999D01*
X677999Y342999D01*
X675000D01*
X676999D02*
X678999Y341000D01*
X684997D02*
X680998D01*
X684997Y344999D01*
Y345998D01*
X683997Y346998D01*
X681998D01*
X680998Y345998D01*
X686996Y342000D02*
X687996Y341000D01*
X689995D01*
X690995Y342000D01*
Y345998D01*
X689995Y346998D01*
X687996D01*
X686996Y345998D01*
Y344999D01*
X687996Y343999D01*
X690995D01*
X675000Y324500D02*
Y330498D01*
X677999D01*
X678999Y329498D01*
Y327499D01*
X677999Y326499D01*
X675000D01*
X676999D02*
X678999Y324500D01*
X684997D02*
X680998D01*
X684997Y328499D01*
Y329498D01*
X683997Y330498D01*
X681998D01*
X680998Y329498D01*
X686996D02*
X687996Y330498D01*
X689995D01*
X690995Y329498D01*
Y328499D01*
X689995Y327499D01*
X690995Y326499D01*
Y325500D01*
X689995Y324500D01*
X687996D01*
X686996Y325500D01*
Y326499D01*
X687996Y327499D01*
X686996Y328499D01*
Y329498D01*
X687996Y327499D02*
X689995D01*
X589000Y471612D02*
X594998D01*
Y468613D01*
X593998Y467613D01*
X591999D01*
X590999Y468613D01*
Y471612D01*
Y469613D02*
X589000Y467613D01*
Y461615D02*
Y465614D01*
X592999Y461615D01*
X593998D01*
X594998Y462615D01*
Y464614D01*
X593998Y465614D01*
X594998Y459616D02*
Y455617D01*
X593998D01*
X590000Y459616D01*
X589000D01*
X675347Y309815D02*
Y315813D01*
X678345D01*
X679345Y314814D01*
Y312814D01*
X678345Y311815D01*
X675347D01*
X677346D02*
X679345Y309815D01*
X685343D02*
X681345D01*
X685343Y313814D01*
Y314814D01*
X684343Y315813D01*
X682344D01*
X681345Y314814D01*
X691341Y315813D02*
X689342Y314814D01*
X687343Y312814D01*
Y310815D01*
X688342Y309815D01*
X690342D01*
X691341Y310815D01*
Y311815D01*
X690342Y312814D01*
X687343D01*
X601000Y471398D02*
X606998D01*
Y468399D01*
X605998Y467400D01*
X603999D01*
X602999Y468399D01*
Y471398D01*
Y469399D02*
X601000Y467400D01*
Y461402D02*
Y465400D01*
X604999Y461402D01*
X605998D01*
X606998Y462401D01*
Y464400D01*
X605998Y465400D01*
X606998Y455403D02*
Y459402D01*
X603999D01*
X604999Y457403D01*
Y456403D01*
X603999Y455403D01*
X602000D01*
X601000Y456403D01*
Y458402D01*
X602000Y459402D01*
X515787Y300218D02*
Y306216D01*
X518786D01*
X519785Y305216D01*
Y303217D01*
X518786Y302217D01*
X515787D01*
X517786D02*
X519785Y300218D01*
X525784D02*
X521785D01*
X525784Y304216D01*
Y305216D01*
X524784Y306216D01*
X522785D01*
X521785Y305216D01*
X530782Y300218D02*
Y306216D01*
X527783Y303217D01*
X531782D01*
X556383Y449500D02*
X550385D01*
Y452499D01*
X551385Y453499D01*
X553384D01*
X554384Y452499D01*
Y449500D01*
Y451499D02*
X556383Y453499D01*
Y459497D02*
Y455498D01*
X552384Y459497D01*
X551385D01*
X550385Y458497D01*
Y456498D01*
X551385Y455498D01*
Y461496D02*
X550385Y462496D01*
Y464495D01*
X551385Y465495D01*
X552384D01*
X553384Y464495D01*
Y463495D01*
Y464495D01*
X554384Y465495D01*
X555383D01*
X556383Y464495D01*
Y462496D01*
X555383Y461496D01*
X545909Y449500D02*
X539911D01*
Y452499D01*
X540911Y453499D01*
X542910D01*
X543910Y452499D01*
Y449500D01*
Y451499D02*
X545909Y453499D01*
Y459497D02*
Y455498D01*
X541910Y459497D01*
X540911D01*
X539911Y458497D01*
Y456498D01*
X540911Y455498D01*
X545909Y465495D02*
Y461496D01*
X541910Y465495D01*
X540911D01*
X539911Y464495D01*
Y462496D01*
X540911Y461496D01*
X535341Y450500D02*
X529343D01*
Y453499D01*
X530342Y454499D01*
X532342D01*
X533341Y453499D01*
Y450500D01*
Y452499D02*
X535341Y454499D01*
Y460497D02*
Y456498D01*
X531342Y460497D01*
X530342D01*
X529343Y459497D01*
Y457498D01*
X530342Y456498D01*
X535341Y462496D02*
Y464496D01*
Y463496D01*
X529343D01*
X530342Y462496D01*
X524773Y449500D02*
X518775D01*
Y452499D01*
X519774Y453499D01*
X521774D01*
X522773Y452499D01*
Y449500D01*
Y451499D02*
X524773Y453499D01*
Y459497D02*
Y455498D01*
X520774Y459497D01*
X519774D01*
X518775Y458497D01*
Y456498D01*
X519774Y455498D01*
Y461496D02*
X518775Y462496D01*
Y464495D01*
X519774Y465495D01*
X523773D01*
X524773Y464495D01*
Y462496D01*
X523773Y461496D01*
X519774D01*
X469787Y300034D02*
Y306032D01*
X472786D01*
X473785Y305033D01*
Y303033D01*
X472786Y302034D01*
X469787D01*
X471786D02*
X473785Y300034D01*
X475785D02*
X477784D01*
X476785D01*
Y306032D01*
X475785Y305033D01*
X480783Y301034D02*
X481783Y300034D01*
X483782D01*
X484782Y301034D01*
Y305033D01*
X483782Y306032D01*
X481783D01*
X480783Y305033D01*
Y304033D01*
X481783Y303033D01*
X484782D01*
X514205Y450500D02*
X508206D01*
Y453499D01*
X509206Y454499D01*
X511205D01*
X512205Y453499D01*
Y450500D01*
Y452499D02*
X514205Y454499D01*
Y456498D02*
Y458497D01*
Y457498D01*
X508206D01*
X509206Y456498D01*
Y461496D02*
X508206Y462496D01*
Y464496D01*
X509206Y465495D01*
X510206D01*
X511205Y464496D01*
X512205Y465495D01*
X513205D01*
X514205Y464496D01*
Y462496D01*
X513205Y461496D01*
X512205D01*
X511205Y462496D01*
X510206Y461496D01*
X509206D01*
X511205Y462496D02*
Y464496D01*
X503636Y450500D02*
X497638D01*
Y453499D01*
X498638Y454499D01*
X500637D01*
X501637Y453499D01*
Y450500D01*
Y452499D02*
X503636Y454499D01*
Y456498D02*
Y458497D01*
Y457498D01*
X497638D01*
X498638Y456498D01*
X497638Y461496D02*
Y465495D01*
X498638D01*
X502637Y461496D01*
X503636D01*
X482500Y449500D02*
X476502D01*
Y452499D01*
X477502Y453499D01*
X479501D01*
X480501Y452499D01*
Y449500D01*
Y451499D02*
X482500Y453499D01*
Y455498D02*
Y457497D01*
Y456498D01*
X476502D01*
X477502Y455498D01*
X476502Y464495D02*
X477502Y462496D01*
X479501Y460496D01*
X481500D01*
X482500Y461496D01*
Y463495D01*
X481500Y464495D01*
X480501D01*
X479501Y463495D01*
Y460496D01*
X426787Y299866D02*
Y305864D01*
X429786D01*
X430786Y304865D01*
Y302865D01*
X429786Y301866D01*
X426787D01*
X428786D02*
X430786Y299866D01*
X432785D02*
X434784D01*
X433784D01*
Y305864D01*
X432785Y304865D01*
X441782Y305864D02*
X437783D01*
Y302865D01*
X439783Y303865D01*
X440782D01*
X441782Y302865D01*
Y300866D01*
X440782Y299866D01*
X438783D01*
X437783Y300866D01*
X493068Y450500D02*
X487070D01*
Y453499D01*
X488070Y454499D01*
X490069D01*
X491069Y453499D01*
Y450500D01*
Y452499D02*
X493068Y454499D01*
Y456498D02*
Y458497D01*
Y457498D01*
X487070D01*
X488070Y456498D01*
X493068Y464496D02*
X487070D01*
X490069Y461496D01*
Y465495D01*
X382787Y299971D02*
Y305969D01*
X385786D01*
X386786Y304970D01*
Y302970D01*
X385786Y301971D01*
X382787D01*
X384786D02*
X386786Y299971D01*
X388785D02*
X390784D01*
X389785D01*
Y305969D01*
X388785Y304970D01*
X393783D02*
X394783Y305969D01*
X396782D01*
X397782Y304970D01*
Y303970D01*
X396782Y302970D01*
X395783D01*
X396782D01*
X397782Y301971D01*
Y300971D01*
X396782Y299971D01*
X394783D01*
X393783Y300971D01*
X509306Y109267D02*
Y115265D01*
X512305D01*
X513305Y114266D01*
Y112266D01*
X512305Y111267D01*
X509306D01*
X511306D02*
X513305Y109267D01*
X515305D02*
X517304D01*
X516304D01*
Y115265D01*
X515305Y114266D01*
X524302Y109267D02*
X520303D01*
X524302Y113266D01*
Y114266D01*
X523302Y115265D01*
X521303D01*
X520303Y114266D01*
X540477Y260245D02*
X534479D01*
Y263244D01*
X535479Y264244D01*
X537478D01*
X538478Y263244D01*
Y260245D01*
Y262244D02*
X540477Y264244D01*
Y266243D02*
Y268242D01*
Y267243D01*
X534479D01*
X535479Y266243D01*
X540477Y271241D02*
Y273241D01*
Y272241D01*
X534479D01*
X535479Y271241D01*
X529882Y258245D02*
X523884D01*
Y261244D01*
X524883Y262244D01*
X526883D01*
X527882Y261244D01*
Y258245D01*
Y260244D02*
X529882Y262244D01*
Y264243D02*
Y266242D01*
Y265243D01*
X523884D01*
X524883Y264243D01*
Y269241D02*
X523884Y270241D01*
Y272240D01*
X524883Y273240D01*
X528882D01*
X529882Y272240D01*
Y270241D01*
X528882Y269241D01*
X524883D01*
X519286Y260245D02*
X513288D01*
Y263244D01*
X514288Y264244D01*
X516287D01*
X517287Y263244D01*
Y260245D01*
Y262244D02*
X519286Y264244D01*
X518286Y266243D02*
X519286Y267243D01*
Y269242D01*
X518286Y270242D01*
X514288D01*
X513288Y269242D01*
Y267243D01*
X514288Y266243D01*
X515287D01*
X516287Y267243D01*
Y270242D01*
X508691Y260245D02*
X502693D01*
Y263244D01*
X503692Y264244D01*
X505692D01*
X506691Y263244D01*
Y260245D01*
Y262244D02*
X508691Y264244D01*
X503692Y266243D02*
X502693Y267243D01*
Y269242D01*
X503692Y270242D01*
X504692D01*
X505692Y269242D01*
X506691Y270242D01*
X507691D01*
X508691Y269242D01*
Y267243D01*
X507691Y266243D01*
X506691D01*
X505692Y267243D01*
X504692Y266243D01*
X503692D01*
X505692Y267243D02*
Y269242D01*
X466306Y109098D02*
Y115096D01*
X469306D01*
X470305Y114097D01*
Y112097D01*
X469306Y111098D01*
X466306D01*
X468306D02*
X470305Y109098D01*
X472304Y115096D02*
X476303D01*
Y114097D01*
X472304Y110098D01*
Y109098D01*
X498095Y261245D02*
X492097D01*
Y264244D01*
X493097Y265244D01*
X495096D01*
X496096Y264244D01*
Y261245D01*
Y263244D02*
X498095Y265244D01*
X492097Y271242D02*
X493097Y269242D01*
X495096Y267243D01*
X497095D01*
X498095Y268243D01*
Y270242D01*
X497095Y271242D01*
X496096D01*
X495096Y270242D01*
Y267243D01*
X466309Y261245D02*
X460311D01*
Y264244D01*
X461310Y265244D01*
X463310D01*
X464309Y264244D01*
Y261245D01*
Y263244D02*
X466309Y265244D01*
X460311Y271242D02*
Y267243D01*
X463310D01*
X462310Y269242D01*
Y270242D01*
X463310Y271242D01*
X465309D01*
X466309Y270242D01*
Y268243D01*
X465309Y267243D01*
X476904Y261245D02*
X470906D01*
Y264244D01*
X471906Y265244D01*
X473905D01*
X474905Y264244D01*
Y261245D01*
Y263244D02*
X476904Y265244D01*
Y270242D02*
X470906D01*
X473905Y267243D01*
Y271242D01*
X487500Y261245D02*
X481502D01*
Y264244D01*
X482501Y265244D01*
X484501D01*
X485500Y264244D01*
Y261245D01*
Y263244D02*
X487500Y265244D01*
X482501Y267243D02*
X481502Y268243D01*
Y270242D01*
X482501Y271242D01*
X483501D01*
X484501Y270242D01*
Y269242D01*
Y270242D01*
X485500Y271242D01*
X486500D01*
X487500Y270242D01*
Y268243D01*
X486500Y267243D01*
X420028Y108901D02*
Y114899D01*
X423027D01*
X424027Y113899D01*
Y111900D01*
X423027Y110900D01*
X420028D01*
X422028D02*
X424027Y108901D01*
X430025D02*
X426026D01*
X430025Y112899D01*
Y113899D01*
X429025Y114899D01*
X427026D01*
X426026Y113899D01*
X502679Y315531D02*
X498680D01*
X497680Y314532D01*
Y312532D01*
X498680Y311533D01*
X502679D01*
X503679Y312532D01*
Y314532D01*
X501679Y313532D02*
X503679Y315531D01*
Y314532D02*
X502679Y315531D01*
X498680Y317531D02*
X497680Y318530D01*
Y320530D01*
X498680Y321529D01*
X499680D01*
X500679Y320530D01*
X501679Y321529D01*
X502679D01*
X503679Y320530D01*
Y318530D01*
X502679Y317531D01*
X501679D01*
X500679Y318530D01*
X499680Y317531D01*
X498680D01*
X500679Y318530D02*
Y320530D01*
X456679Y316531D02*
X452680D01*
X451680Y315532D01*
Y313532D01*
X452680Y312533D01*
X456679D01*
X457679Y313532D01*
Y315532D01*
X455679Y314532D02*
X457679Y316531D01*
Y315532D02*
X456679Y316531D01*
X451680Y318531D02*
Y322529D01*
X452680D01*
X456679Y318531D01*
X457679D01*
X412679Y314339D02*
X408680D01*
X407680Y313340D01*
Y311340D01*
X408680Y310341D01*
X412679D01*
X413679Y311340D01*
Y313340D01*
X411679Y312340D02*
X413679Y314339D01*
Y313340D02*
X412679Y314339D01*
X407680Y320338D02*
X408680Y318338D01*
X410679Y316339D01*
X412679D01*
X413679Y317338D01*
Y319338D01*
X412679Y320338D01*
X411679D01*
X410679Y319338D01*
Y316339D01*
X369679Y314531D02*
X365680D01*
X364680Y313532D01*
Y311532D01*
X365680Y310533D01*
X369679D01*
X370678Y311532D01*
Y313532D01*
X368679Y312532D02*
X370678Y314531D01*
Y313532D02*
X369679Y314531D01*
X364680Y320529D02*
Y316531D01*
X367679D01*
X366680Y318530D01*
Y319530D01*
X367679Y320529D01*
X369679D01*
X370678Y319530D01*
Y317530D01*
X369679Y316531D01*
X495000Y123999D02*
X491002D01*
X490002Y122999D01*
Y121000D01*
X491002Y120000D01*
X495000D01*
X496000Y121000D01*
Y122999D01*
X494001Y121999D02*
X496000Y123999D01*
Y122999D02*
X495000Y123999D01*
X496000Y128997D02*
X490002D01*
X493001Y125998D01*
Y129997D01*
X448500Y123999D02*
X444502D01*
X443502Y122999D01*
Y121000D01*
X444502Y120000D01*
X448500D01*
X449500Y121000D01*
Y122999D01*
X447501Y121999D02*
X449500Y123999D01*
Y122999D02*
X448500Y123999D01*
X444502Y125998D02*
X443502Y126998D01*
Y128997D01*
X444502Y129997D01*
X445501D01*
X446501Y128997D01*
Y127997D01*
Y128997D01*
X447501Y129997D01*
X448500D01*
X449500Y128997D01*
Y126998D01*
X448500Y125998D01*
X403850Y123999D02*
X399851D01*
X398851Y122999D01*
Y121000D01*
X399851Y120000D01*
X403850D01*
X404849Y121000D01*
Y122999D01*
X402850Y121999D02*
X404849Y123999D01*
Y122999D02*
X403850Y123999D01*
X404849Y129997D02*
Y125998D01*
X400851Y129997D01*
X399851D01*
X398851Y128997D01*
Y126998D01*
X399851Y125998D01*
X361000Y124372D02*
X357002D01*
X356002Y123373D01*
Y121373D01*
X357002Y120373D01*
X361000D01*
X362000Y121373D01*
Y123373D01*
X360001Y122373D02*
X362000Y124372D01*
Y123373D02*
X361000Y124372D01*
X362000Y126372D02*
Y128371D01*
Y127371D01*
X356002D01*
X357002Y126372D01*
X791575Y453000D02*
Y458998D01*
X794574D01*
X795574Y457998D01*
Y455999D01*
X794574Y454999D01*
X791575D01*
X797573Y457998D02*
X798572Y458998D01*
X800572D01*
X801572Y457998D01*
Y456999D01*
X800572Y455999D01*
X799572D01*
X800572D01*
X801572Y454999D01*
Y454000D01*
X800572Y453000D01*
X798572D01*
X797573Y454000D01*
X845158Y453000D02*
Y458998D01*
X848157D01*
X849156Y457998D01*
Y455999D01*
X848157Y454999D01*
X845158D01*
X855154Y453000D02*
X851155D01*
X855154Y456999D01*
Y457998D01*
X854155Y458998D01*
X852155D01*
X851155Y457998D01*
X792000Y402512D02*
Y408510D01*
X794999D01*
X795999Y407510D01*
Y405511D01*
X794999Y404511D01*
X792000D01*
X797998Y402512D02*
X799997D01*
X798998D01*
Y408510D01*
X797998Y407510D01*
X668999Y368498D02*
X666999D01*
X667999D01*
Y363500D01*
X666999Y362500D01*
X666000D01*
X665000Y363500D01*
X674997Y368498D02*
X672997Y367498D01*
X670998Y365499D01*
Y363500D01*
X671998Y362500D01*
X673997D01*
X674997Y363500D01*
Y364499D01*
X673997Y365499D01*
X670998D01*
X689865Y458673D02*
X687865D01*
X688865D01*
Y453675D01*
X687865Y452675D01*
X686866D01*
X685866Y453675D01*
X695863Y458673D02*
X691864D01*
Y455674D01*
X693864Y456674D01*
X694863D01*
X695863Y455674D01*
Y453675D01*
X694863Y452675D01*
X692864D01*
X691864Y453675D01*
X660002Y476999D02*
Y474999D01*
Y475999D01*
X665000D01*
X666000Y474999D01*
Y474000D01*
X665000Y473000D01*
X666000Y481997D02*
X660002D01*
X663001Y478998D01*
Y482997D01*
X744999Y482469D02*
X742999D01*
X743999D01*
Y477470D01*
X742999Y476471D01*
X742000D01*
X741000Y477470D01*
X746998Y481469D02*
X747998Y482469D01*
X749997D01*
X750997Y481469D01*
Y480469D01*
X749997Y479469D01*
X748997D01*
X749997D01*
X750997Y478470D01*
Y477470D01*
X749997Y476471D01*
X747998D01*
X746998Y477470D01*
X850699Y201483D02*
X848699D01*
X849699D01*
Y196485D01*
X848699Y195485D01*
X847700D01*
X846700Y196485D01*
X856697Y195485D02*
X852698D01*
X856697Y199484D01*
Y200483D01*
X855697Y201483D01*
X853698D01*
X852698Y200483D01*
X854699Y328585D02*
X852699D01*
X853699D01*
Y323587D01*
X852699Y322587D01*
X851700D01*
X850700Y323587D01*
X856698Y322587D02*
X858697D01*
X857698D01*
Y328585D01*
X856698Y327586D01*
X811002Y428499D02*
X810002Y427499D01*
Y425500D01*
X811002Y424500D01*
X815000D01*
X816000Y425500D01*
Y427499D01*
X815000Y428499D01*
X816000Y430498D02*
Y432497D01*
Y431498D01*
X810002D01*
X811002Y430498D01*
X816000Y439495D02*
Y435496D01*
X812001Y439495D01*
X811002D01*
X810002Y438495D01*
Y436496D01*
X811002Y435496D01*
X842722Y434966D02*
X841722Y433966D01*
Y431967D01*
X842722Y430967D01*
X846721D01*
X847721Y431967D01*
Y433966D01*
X846721Y434966D01*
X847721Y436965D02*
Y438965D01*
Y437965D01*
X841722D01*
X842722Y436965D01*
X847721Y441964D02*
Y443963D01*
Y442963D01*
X841722D01*
X842722Y441964D01*
X820999Y377699D02*
X819999Y378699D01*
X818000D01*
X817000Y377699D01*
Y373700D01*
X818000Y372701D01*
X819999D01*
X820999Y373700D01*
X822998Y372701D02*
X824997D01*
X823998D01*
Y378699D01*
X822998Y377699D01*
X827996D02*
X828996Y378699D01*
X830995D01*
X831995Y377699D01*
Y373700D01*
X830995Y372701D01*
X828996D01*
X827996Y373700D01*
Y377699D01*
X576999Y131457D02*
X575999Y132457D01*
X574000D01*
X573000Y131457D01*
Y127459D01*
X574000Y126459D01*
X575999D01*
X576999Y127459D01*
X578998D02*
X579998Y126459D01*
X581997D01*
X582997Y127459D01*
Y131457D01*
X581997Y132457D01*
X579998D01*
X578998Y131457D01*
Y130458D01*
X579998Y129458D01*
X582997D01*
X576999Y194998D02*
X575999Y195998D01*
X574000D01*
X573000Y194998D01*
Y191000D01*
X574000Y190000D01*
X575999D01*
X576999Y191000D01*
X578998Y194998D02*
X579998Y195998D01*
X581997D01*
X582997Y194998D01*
Y193999D01*
X581997Y192999D01*
X582997Y191999D01*
Y191000D01*
X581997Y190000D01*
X579998D01*
X578998Y191000D01*
Y191999D01*
X579998Y192999D01*
X578998Y193999D01*
Y194998D01*
X579998Y192999D02*
X581997D01*
X576128Y258998D02*
X575128Y259998D01*
X573129D01*
X572129Y258998D01*
Y255000D01*
X573129Y254000D01*
X575128D01*
X576128Y255000D01*
X578127Y259998D02*
X582126D01*
Y258998D01*
X578127Y255000D01*
Y254000D01*
X574999Y321457D02*
X573999Y322457D01*
X572000D01*
X571000Y321457D01*
Y317459D01*
X572000Y316459D01*
X573999D01*
X574999Y317459D01*
X580997Y322457D02*
X578997Y321457D01*
X576998Y319458D01*
Y317459D01*
X577998Y316459D01*
X579997D01*
X580997Y317459D01*
Y318458D01*
X579997Y319458D01*
X576998D01*
X575999Y386332D02*
X574999Y387332D01*
X573000D01*
X572000Y386332D01*
Y382333D01*
X573000Y381334D01*
X574999D01*
X575999Y382333D01*
X581997Y387332D02*
X577998D01*
Y384333D01*
X579997Y385332D01*
X580997D01*
X581997Y384333D01*
Y382333D01*
X580997Y381334D01*
X578998D01*
X577998Y382333D01*
X572999Y448998D02*
X571999Y449998D01*
X570000D01*
X569000Y448998D01*
Y445000D01*
X570000Y444000D01*
X571999D01*
X572999Y445000D01*
X577997Y444000D02*
Y449998D01*
X574998Y446999D01*
X578997D01*
X674832Y250601D02*
X675832Y251601D01*
Y253600D01*
X674832Y254600D01*
X670833D01*
X669834Y253600D01*
Y251601D01*
X670833Y250601D01*
X674832Y248602D02*
X675832Y247602D01*
Y245603D01*
X674832Y244603D01*
X673833D01*
X672833Y245603D01*
Y246603D01*
Y245603D01*
X671833Y244603D01*
X670833D01*
X669834Y245603D01*
Y247602D01*
X670833Y248602D01*
X764841Y258498D02*
X763842Y259498D01*
X761842D01*
X760843Y258498D01*
Y254500D01*
X761842Y253500D01*
X763842D01*
X764841Y254500D01*
X770839Y253500D02*
X766841D01*
X770839Y257499D01*
Y258498D01*
X769840Y259498D01*
X767840D01*
X766841Y258498D01*
X748983Y415899D02*
X747983Y416898D01*
X745984D01*
X744984Y415899D01*
Y411900D01*
X745984Y410900D01*
X747983D01*
X748983Y411900D01*
X750982Y410900D02*
X752981D01*
X751982D01*
Y416898D01*
X750982Y415899D01*
D12*
X759387Y250500D02*
G03*
X759387Y250500I-3387J0D01*
G01*
X761887Y406900D02*
G03*
X761887Y406900I-3387J0D01*
G01*
D13*
X380596Y309924D02*
G03*
X381158Y308998I8177J4329D01*
G01*
X396387D02*
G03*
X397157Y310341I-7614J5256D01*
G01*
X397156Y318168D02*
G03*
X380597Y318584I-8383J-3914D01*
G01*
X423596Y309819D02*
G03*
X424158Y308893I8177J4329D01*
G01*
X439387D02*
G03*
X440157Y310236I-7614J5256D01*
G01*
X440156Y318063D02*
G03*
X423597Y318479I-8383J-3914D01*
G01*
X467596Y309987D02*
G03*
X468158Y309061I8177J4329D01*
G01*
X483387D02*
G03*
X484157Y310404I-7614J5256D01*
G01*
X484156Y318231D02*
G03*
X467597Y318648I-8383J-3914D01*
G01*
X513596Y310171D02*
G03*
X514158Y309244I8177J4329D01*
G01*
X529387D02*
G03*
X530157Y310587I-7614J5256D01*
G01*
X530156Y318414D02*
G03*
X513597Y318831I-8383J-3914D01*
G01*
X371837Y118671D02*
G03*
X372400Y117744I8177J4329D01*
G01*
X387628D02*
G03*
X388398Y119087I-7614J5256D01*
G01*
X388397Y126914D02*
G03*
X371838Y127331I-8383J-3914D01*
G01*
X414838Y118854D02*
G03*
X415400Y117927I8177J4329D01*
G01*
X430628D02*
G03*
X431398Y119270I-7614J5256D01*
G01*
X431397Y127098D02*
G03*
X414838Y127514I-8383J-3914D01*
G01*
X460116Y119051D02*
G03*
X460678Y118125I8177J4329D01*
G01*
X475906D02*
G03*
X476676Y119468I-7614J5256D01*
G01*
X476675Y127295D02*
G03*
X460116Y127711I-8383J-3914D01*
G01*
X507116Y119220D02*
G03*
X507678Y118294I8177J4329D01*
G01*
X522906D02*
G03*
X523676Y119637I-7614J5256D01*
G01*
X523675Y127464D02*
G03*
X507117Y127880I-8383J-3914D01*
G01*
X454650Y460000D02*
G03*
X454650Y455000I0J-2500D01*
G01*
X342350Y262000D02*
G03*
X342350Y267000I0J2500D01*
G01*
X307000Y422334D02*
X317000D01*
X307000Y342334D02*
Y422334D01*
Y342334D02*
X317000D01*
Y422334D01*
X117000Y262334D02*
X127000D01*
X117000Y182334D02*
Y262334D01*
Y182334D02*
X127000D01*
Y262334D01*
Y272334D02*
Y352334D01*
X117000Y272334D02*
X127000D01*
X117000D02*
Y352334D01*
X127000D01*
Y358334D02*
Y438334D01*
X117000Y358334D02*
X127000D01*
X117000D02*
Y438334D01*
X127000D01*
X317000Y162334D02*
Y242334D01*
X307000Y162334D02*
X317000D01*
X307000D02*
Y242334D01*
X317000D01*
Y252334D02*
Y332334D01*
X307000Y252334D02*
X317000D01*
X307000D02*
Y332334D01*
X317000D01*
X117000Y142334D02*
Y162334D01*
X297000Y142334D02*
Y162334D01*
X117000D02*
X297000D01*
X117000Y142334D02*
X297000D01*
X392028Y111718D02*
X392928D01*
X371128D02*
X372028D01*
X392028Y108718D02*
Y111718D01*
X372028Y108718D02*
X392028D01*
X372028D02*
Y114718D01*
X392028D01*
Y111718D02*
Y114718D01*
X731528Y364748D02*
X772472D01*
X772472Y362779D02*
Y380890D01*
X731528D02*
X772472D01*
X731528Y362779D02*
Y380890D01*
Y362779D02*
X772472D01*
X800000Y282548D02*
Y285548D01*
Y282548D02*
X820000D01*
Y288548D01*
X800000D02*
X820000D01*
X800000Y285548D02*
Y288548D01*
X820000Y285548D02*
X820900D01*
X799100D02*
X800000D01*
X799000Y269548D02*
Y272548D01*
Y269548D02*
X819000D01*
Y275548D01*
X799000D02*
X819000D01*
X799000Y272548D02*
Y275548D01*
X819000Y272548D02*
X819900D01*
X798100D02*
X799000D01*
X828347Y390835D02*
Y395165D01*
X821653Y390835D02*
Y395165D01*
X481500Y275245D02*
X484500D01*
X481500Y255245D02*
Y275245D01*
Y255245D02*
X487500D01*
Y275245D01*
X484500D02*
X487500D01*
X484500Y254345D02*
Y255245D01*
Y275245D02*
Y276145D01*
X487068Y467500D02*
X490068D01*
X487068Y447500D02*
Y467500D01*
Y447500D02*
X493068D01*
Y467500D01*
X490068D02*
X493068D01*
X490068Y446600D02*
Y447500D01*
Y467500D02*
Y468400D01*
X693347Y312815D02*
Y315815D01*
X673347D02*
X693347D01*
X673347Y309815D02*
Y315815D01*
Y309815D02*
X693347D01*
Y312815D01*
X672446D02*
X673347D01*
X693347D02*
X694246D01*
X693000Y344000D02*
Y347000D01*
X673000D02*
X693000D01*
X673000Y341000D02*
Y347000D01*
Y341000D02*
X693000D01*
Y344000D01*
X672100D02*
X673000D01*
X693000D02*
X693900D01*
X672887Y324484D02*
Y327484D01*
Y324484D02*
X692887D01*
Y330484D01*
X672887D02*
X692887D01*
X672887Y327484D02*
Y330484D01*
X692887Y327484D02*
X693787D01*
X671987D02*
X672887D01*
X821547Y423335D02*
Y427665D01*
X827453Y423335D02*
Y427665D01*
X206500Y319000D02*
X209500D01*
Y339000D01*
X203500D02*
X209500D01*
X203500Y319000D02*
Y339000D01*
Y319000D02*
X206500D01*
Y339000D02*
Y339900D01*
Y318100D02*
Y319000D01*
Y278000D02*
X209500D01*
Y298000D01*
X203500D02*
X209500D01*
X203500Y278000D02*
Y298000D01*
Y278000D02*
X206500D01*
Y298000D02*
Y298900D01*
Y277100D02*
Y278000D01*
X253000Y231000D02*
Y234000D01*
X233000D02*
X253000D01*
X233000Y228000D02*
Y234000D01*
Y228000D02*
X253000D01*
Y231000D01*
X232100D02*
X233000D01*
X253000D02*
X253900D01*
X295000D02*
Y234000D01*
X275000D02*
X295000D01*
X275000Y228000D02*
Y234000D01*
Y228000D02*
X295000D01*
Y231000D01*
X274100D02*
X275000D01*
X295000D02*
X295900D01*
X295000Y246000D02*
Y249000D01*
X275000D02*
X295000D01*
X275000Y243000D02*
Y249000D01*
Y243000D02*
X295000D01*
Y246000D01*
X274100D02*
X275000D01*
X295000D02*
X295900D01*
X253000D02*
Y249000D01*
X233000D02*
X253000D01*
X233000Y243000D02*
Y249000D01*
Y243000D02*
X253000D01*
Y246000D01*
X232100D02*
X233000D01*
X253000D02*
X253900D01*
X221500Y278000D02*
X224500D01*
Y298000D01*
X218500D02*
X224500D01*
X218500Y278000D02*
Y298000D01*
Y278000D02*
X221500D01*
Y298000D02*
Y298900D01*
Y277100D02*
Y278000D01*
Y319000D02*
X224500D01*
Y339000D01*
X218500D02*
X224500D01*
X218500Y319000D02*
Y339000D01*
Y319000D02*
X221500D01*
Y339000D02*
Y339900D01*
Y318100D02*
Y319000D01*
X835449Y396716D02*
Y411283D01*
X866551Y396716D02*
Y411283D01*
X838846Y434435D02*
Y438765D01*
X832154Y434435D02*
Y438765D01*
X714768Y237184D02*
Y263562D01*
X725004Y237184D02*
Y263562D01*
X714768D02*
X725004D01*
X714768Y237184D02*
X725004D01*
X820500Y358048D02*
Y361048D01*
X800500D02*
X820500D01*
X800500Y355048D02*
Y361048D01*
Y355048D02*
X820500D01*
Y358048D01*
X799600D02*
X800500D01*
X820500D02*
X821400D01*
X801000Y328500D02*
Y331500D01*
Y328500D02*
X821000D01*
Y334500D01*
X801000D02*
X821000D01*
X801000Y331500D02*
Y334500D01*
X821000Y331500D02*
X821900D01*
X800100D02*
X801000D01*
X381158Y308998D02*
X396387D01*
X424158Y308893D02*
X439387D01*
X468158Y309061D02*
X483387D01*
X514158Y309244D02*
X529387D01*
X372400Y117744D02*
X387628D01*
X415400Y117927D02*
X430628D01*
X460678Y118125D02*
X475907D01*
X507678Y118294D02*
X522906D01*
X800000Y296048D02*
Y299048D01*
Y296048D02*
X820000D01*
Y302048D01*
X800000D02*
X820000D01*
X800000Y299048D02*
Y302048D01*
X820000Y299048D02*
X820900D01*
X799100D02*
X800000D01*
X831472Y449921D02*
X870844D01*
X831472D02*
Y491653D01*
X870844D01*
Y449921D02*
Y491653D01*
X675370Y439014D02*
Y447478D01*
X705685Y439014D02*
Y447478D01*
Y460470D02*
Y465707D01*
X675370Y460470D02*
Y465707D01*
X699386Y429486D02*
X702535D01*
X678520D02*
X681669D01*
X675370Y465707D02*
X705685D01*
X703126Y469779D02*
X705291D01*
Y475685D01*
Y486315D02*
Y491827D01*
X675764Y486315D02*
Y491827D01*
Y469779D02*
Y475685D01*
Y469779D02*
X677929D01*
X675764Y491827D02*
X705291D01*
X764716Y434093D02*
Y490785D01*
X729284D02*
X764716D01*
X752709Y434093D02*
X764716D01*
X729284Y454368D02*
Y490785D01*
Y434093D02*
Y442951D01*
Y434093D02*
X741291D01*
X777315Y449921D02*
X816687D01*
X777315D02*
Y491653D01*
X816687D01*
Y449921D02*
Y491653D01*
X777315Y398432D02*
X816687D01*
X777315D02*
Y440165D01*
X816687D01*
Y398432D02*
Y440165D01*
X624638Y134934D02*
X642268D01*
X622189Y142308D02*
Y151182D01*
X624638Y158556D02*
X643362D01*
X645811Y142414D02*
Y151182D01*
X624373Y198585D02*
X642003D01*
X621924Y205959D02*
Y214833D01*
X624373Y222207D02*
X643097D01*
X645546Y206065D02*
Y214833D01*
X624373Y262236D02*
X642003D01*
X621924Y269610D02*
Y278484D01*
X624373Y285858D02*
X643097D01*
X645546Y269716D02*
Y278484D01*
X624373Y325887D02*
X642003D01*
X621924Y333261D02*
Y342135D01*
X624373Y349509D02*
X643097D01*
X645546Y333367D02*
Y342135D01*
X624373Y389538D02*
X642003D01*
X621924Y396912D02*
Y405786D01*
X624373Y413160D02*
X643097D01*
X645546Y397018D02*
Y405786D01*
X624373Y453189D02*
X642003D01*
X621924Y460563D02*
Y469437D01*
X624373Y476811D02*
X643097D01*
X645546Y460669D02*
Y469437D01*
X589000Y473541D02*
X592000D01*
X589000Y453541D02*
Y473541D01*
Y453541D02*
X595000D01*
Y473541D01*
X592000D02*
X595000D01*
X592000Y452641D02*
Y453541D01*
Y473541D02*
Y474441D01*
X604000Y453541D02*
X607000D01*
Y473541D01*
X601000D02*
X607000D01*
X601000Y453541D02*
Y473541D01*
Y453541D02*
X604000D01*
Y473541D02*
Y474441D01*
Y452641D02*
Y453541D01*
X589000Y410875D02*
X592000D01*
X589000Y390875D02*
Y410875D01*
Y390875D02*
X595000D01*
Y410875D01*
X592000D02*
X595000D01*
X592000Y389975D02*
Y390875D01*
Y410875D02*
Y411775D01*
X604000Y390875D02*
X607000D01*
Y410875D01*
X601000D02*
X607000D01*
X601000Y390875D02*
Y410875D01*
Y390875D02*
X604000D01*
Y410875D02*
Y411775D01*
Y389975D02*
Y390875D01*
X589000Y346000D02*
X592000D01*
X589000Y326000D02*
Y346000D01*
Y326000D02*
X595000D01*
Y346000D01*
X592000D02*
X595000D01*
X592000Y325100D02*
Y326000D01*
Y346000D02*
Y346900D01*
X604000Y326000D02*
X607000D01*
Y346000D01*
X601000D02*
X607000D01*
X601000Y326000D02*
Y346000D01*
Y326000D02*
X604000D01*
Y346000D02*
Y346900D01*
Y325100D02*
Y326000D01*
X589129Y283541D02*
X592129D01*
X589129Y263541D02*
Y283541D01*
Y263541D02*
X595129D01*
Y283541D01*
X592129D02*
X595129D01*
X592129Y262641D02*
Y263541D01*
Y283541D02*
Y284441D01*
X604129Y263541D02*
X607129D01*
Y283541D01*
X601129D02*
X607129D01*
X601129Y263541D02*
Y283541D01*
Y263541D02*
X604129D01*
Y283541D02*
Y284441D01*
Y262641D02*
Y263541D01*
X590000Y156000D02*
X593000D01*
X590000Y136000D02*
Y156000D01*
Y136000D02*
X596000D01*
Y156000D01*
X593000D02*
X596000D01*
X593000Y135100D02*
Y136000D01*
Y156000D02*
Y156900D01*
X605000Y136000D02*
X608000D01*
Y156000D01*
X602000D02*
X608000D01*
X602000Y136000D02*
Y156000D01*
Y136000D02*
X605000D01*
Y156000D02*
Y156900D01*
Y135100D02*
Y136000D01*
X821000Y345000D02*
Y348000D01*
X801000D02*
X821000D01*
X801000Y342000D02*
Y348000D01*
Y342000D02*
X821000D01*
Y345000D01*
X800100D02*
X801000D01*
X821000D02*
X821900D01*
X605000Y199541D02*
X608000D01*
Y219541D01*
X602000D02*
X608000D01*
X602000Y199541D02*
Y219541D01*
Y199541D02*
X605000D01*
Y219541D02*
Y220441D01*
Y198641D02*
Y199541D01*
X590000Y219541D02*
X593000D01*
X590000Y199541D02*
Y219541D01*
Y199541D02*
X596000D01*
Y219541D01*
X593000D02*
X596000D01*
X593000Y198641D02*
Y199541D01*
Y219541D02*
Y220441D01*
X800500Y308500D02*
Y311500D01*
Y308500D02*
X820500D01*
Y314500D01*
X800500D02*
X820500D01*
X800500Y311500D02*
Y314500D01*
X820500Y311500D02*
X821400D01*
X799600D02*
X800500D01*
X799000Y254000D02*
Y257000D01*
Y254000D02*
X819000D01*
Y260000D01*
X799000D02*
X819000D01*
X799000Y257000D02*
Y260000D01*
X819000Y257000D02*
X819900D01*
X798100D02*
X799000D01*
X348350Y467933D02*
X454650D01*
X348350Y447067D02*
X454650D01*
Y460000D02*
Y467933D01*
Y447067D02*
Y455000D01*
X348350Y447067D02*
Y467933D01*
X342350Y254067D02*
X448650D01*
X342350Y274933D02*
X448650D01*
X342350Y254067D02*
Y262000D01*
Y267000D02*
Y274933D01*
X448650Y254067D02*
Y274933D01*
X443787Y302866D02*
Y305866D01*
X423787D02*
X443787D01*
X423787Y299866D02*
Y305866D01*
Y299866D02*
X443787D01*
Y302866D01*
X422887D02*
X423787D01*
X443787D02*
X444687D01*
X400787Y302971D02*
Y305971D01*
X380787D02*
X400787D01*
X380787Y299971D02*
Y305971D01*
Y299971D02*
X400787D01*
Y302971D01*
X379887D02*
X380787D01*
X400787D02*
X401687D01*
X527306Y112267D02*
Y115267D01*
X507306D02*
X527306D01*
X507306Y109267D02*
Y115267D01*
Y109267D02*
X527306D01*
Y112267D01*
X506406D02*
X507306D01*
X527306D02*
X528206D01*
X435028Y111901D02*
Y114901D01*
X415028D02*
X435028D01*
X415028Y108901D02*
Y114901D01*
Y108901D02*
X435028D01*
Y111901D01*
X414128D02*
X415028D01*
X435028D02*
X435928D01*
X533787Y303218D02*
Y306218D01*
X513787D02*
X533787D01*
X513787Y300218D02*
Y306218D01*
Y300218D02*
X533787D01*
Y303218D01*
X512887D02*
X513787D01*
X533787D02*
X534687D01*
X470904Y275245D02*
X473904D01*
X470904Y255245D02*
Y275245D01*
Y255245D02*
X476904D01*
Y275245D01*
X473904D02*
X476904D01*
X473904Y254345D02*
Y255245D01*
Y275245D02*
Y276145D01*
X460309Y275245D02*
X463309D01*
X460309Y255245D02*
Y275245D01*
Y255245D02*
X466309D01*
Y275245D01*
X463309D02*
X466309D01*
X463309Y254345D02*
Y255245D01*
Y275245D02*
Y276145D01*
X480306Y112098D02*
Y115098D01*
X460306D02*
X480306D01*
X460306Y109098D02*
Y115098D01*
Y109098D02*
X480306D01*
Y112098D01*
X459406D02*
X460306D01*
X480306D02*
X481206D01*
X492095Y275245D02*
X495095D01*
X492095Y255245D02*
Y275245D01*
Y255245D02*
X498095D01*
Y275245D01*
X495095D02*
X498095D01*
X495095Y254345D02*
Y255245D01*
Y275245D02*
Y276145D01*
X502691Y275245D02*
X505691D01*
X502691Y255245D02*
Y275245D01*
Y255245D02*
X508691D01*
Y275245D01*
X505691D02*
X508691D01*
X505691Y254345D02*
Y255245D01*
Y275245D02*
Y276145D01*
X513286Y275245D02*
X516286D01*
X513286Y255245D02*
Y275245D01*
Y255245D02*
X519286D01*
Y275245D01*
X516286D02*
X519286D01*
X516286Y254345D02*
Y255245D01*
Y275245D02*
Y276145D01*
X523882Y275245D02*
X526882D01*
X523882Y255245D02*
Y275245D01*
Y255245D02*
X529882D01*
Y275245D01*
X526882D02*
X529882D01*
X526882Y254345D02*
Y255245D01*
Y275245D02*
Y276145D01*
X534477Y275245D02*
X537477D01*
X534477Y255245D02*
Y275245D01*
Y255245D02*
X540477D01*
Y275245D01*
X537477D02*
X540477D01*
X537477Y254345D02*
Y255245D01*
Y275245D02*
Y276145D01*
X476500Y467500D02*
X479500D01*
X476500Y447500D02*
Y467500D01*
Y447500D02*
X482500D01*
Y467500D01*
X479500D02*
X482500D01*
X479500Y446600D02*
Y447500D01*
Y467500D02*
Y468400D01*
X497636Y467500D02*
X500636D01*
X497636Y447500D02*
Y467500D01*
Y447500D02*
X503636D01*
Y467500D01*
X500636D02*
X503636D01*
X500636Y446600D02*
Y447500D01*
Y467500D02*
Y468400D01*
X487787Y303034D02*
Y306034D01*
X467787D02*
X487787D01*
X467787Y300034D02*
Y306034D01*
Y300034D02*
X487787D01*
Y303034D01*
X466887D02*
X467787D01*
X487787D02*
X488687D01*
X508205Y467500D02*
X511204D01*
X508205Y447500D02*
Y467500D01*
Y447500D02*
X514205D01*
Y467500D01*
X511204D02*
X514205D01*
X511204Y446600D02*
Y447500D01*
Y467500D02*
Y468400D01*
X518773Y467500D02*
X521773D01*
X518773Y447500D02*
Y467500D01*
Y447500D02*
X524773D01*
Y467500D01*
X521773D02*
X524773D01*
X521773Y446600D02*
Y447500D01*
Y467500D02*
Y468400D01*
X529341Y467500D02*
X532341D01*
X529341Y447500D02*
Y467500D01*
Y447500D02*
X535341D01*
Y467500D01*
X532341D02*
X535341D01*
X532341Y446600D02*
Y447500D01*
Y467500D02*
Y468400D01*
X539909Y467500D02*
X542909D01*
X539909Y447500D02*
Y467500D01*
Y447500D02*
X545909D01*
Y467500D01*
X542909D02*
X545909D01*
X542909Y446600D02*
Y447500D01*
Y467500D02*
Y468400D01*
X550477Y467500D02*
X553477D01*
X550477Y447500D02*
Y467500D01*
Y447500D02*
X556477D01*
Y467500D01*
X553477D02*
X556477D01*
X553477Y446600D02*
Y447500D01*
Y467500D02*
Y468400D01*
D14*
X451894Y463996D02*
G03*
X451894Y463996I-1181J0D01*
G01*
X347468Y258004D02*
G03*
X347468Y258004I-1181J0D01*
G01*
D15*
X288500Y275500D02*
X294500D01*
X288500Y273500D02*
X294500D01*
X291500Y275500D02*
Y279500D01*
Y269500D02*
Y273500D01*
X681500Y249315D02*
X687500D01*
X681500Y251315D02*
X687500D01*
X684500Y245315D02*
Y249315D01*
Y251315D02*
Y255315D01*
X760843Y238500D02*
Y262500D01*
X755992Y239287D02*
X760843Y240500D01*
X753566Y240681D02*
X760843Y242500D01*
X752111Y242317D02*
X760843Y244500D01*
X750656Y243953D02*
X760843Y246500D01*
X758169Y247832D02*
X760843Y248500D01*
X759506Y250166D02*
X760843Y250500D01*
X759315Y252118D02*
X760843Y252500D01*
X757405Y253641D02*
X760843Y254500D01*
X748716Y253468D02*
X760843Y256500D01*
X749686Y255711D02*
X760843Y258500D01*
X751141Y258075D02*
X760843Y260500D01*
X753566Y260681D02*
X760843Y262500D01*
X749972Y246078D02*
X754937Y247319D01*
X749149Y247970D02*
X752969Y248925D01*
X748755Y249577D02*
X752575Y250532D01*
X748767Y251481D02*
X752969Y252532D01*
X753657Y394900D02*
Y418900D01*
Y416900D02*
X758508Y418113D01*
X753657Y414900D02*
X760934Y416719D01*
X753657Y412900D02*
X762389Y415083D01*
X753657Y410900D02*
X763844Y413447D01*
X753657Y408900D02*
X756331Y409569D01*
X753657Y406900D02*
X754994Y407234D01*
X753657Y404900D02*
X755185Y405282D01*
X753657Y402900D02*
X757095Y403759D01*
X753657Y400900D02*
X765784Y403932D01*
X753657Y398900D02*
X764814Y401689D01*
X753657Y396900D02*
X763359Y399325D01*
X753657Y394900D02*
X760934Y396719D01*
X759563Y410081D02*
X764528Y411323D01*
X761531Y408475D02*
X765351Y409430D01*
X761925Y406869D02*
X765745Y407824D01*
X761531Y404869D02*
X765733Y405919D01*
X574129Y274745D02*
X580129D01*
X574129Y276745D02*
X580129D01*
X577129Y270745D02*
Y274745D01*
Y276745D02*
Y280745D01*
X573000Y337204D02*
X579000D01*
X573000Y339204D02*
X579000D01*
X576000Y333204D02*
Y337204D01*
Y339204D02*
Y343204D01*
X574000Y402079D02*
X580000D01*
X574000Y404079D02*
X580000D01*
X577000Y398079D02*
Y402079D01*
Y404079D02*
Y408079D01*
X573000Y464745D02*
X579000D01*
X573000Y466745D02*
X579000D01*
X576000Y460745D02*
Y464745D01*
Y466745D02*
Y470745D01*
X575000Y147204D02*
X581000D01*
X575000Y149204D02*
X581000D01*
X578000Y143204D02*
Y147204D01*
Y149204D02*
Y153204D01*
X575000Y210745D02*
X581000D01*
X575000Y212745D02*
X581000D01*
X578000Y206745D02*
Y210745D01*
Y212745D02*
Y216745D01*
X794405Y144162D02*
X797070D01*
Y148161D01*
X794405D01*
X797070Y146162D02*
X795738D01*
X793072D02*
X790406D01*
X791739Y144829D02*
Y147495D01*
X794405Y154162D02*
X797070D01*
Y158161D01*
X794405D01*
X797070Y156162D02*
X795738D01*
X793072D02*
X790406D01*
X797070Y168161D02*
Y165495D01*
X795738Y164162D01*
X794405Y165495D01*
Y168161D01*
Y166162D01*
X797070D01*
X793072D02*
X790406D01*
X797070Y178161D02*
Y175495D01*
X795738Y174162D01*
X794405Y175495D01*
Y178161D01*
Y176162D01*
X797070D01*
X793072D02*
X790406D01*
X791739Y174829D02*
Y177495D01*
X797070Y184162D02*
Y188161D01*
X795071D01*
X794405Y187495D01*
Y186828D01*
X795071Y186162D01*
X797070D01*
X795071D01*
X794405Y185495D01*
Y184829D01*
X795071Y184162D01*
X797070D01*
X793072Y186162D02*
X790406D01*
X797070Y194162D02*
Y198161D01*
X795071D01*
X794405Y197495D01*
Y196828D01*
X795071Y196162D01*
X797070D01*
X795071D01*
X794405Y195495D01*
Y194829D01*
X795071Y194162D01*
X797070D01*
X793072Y196162D02*
X790406D01*
X791739Y194829D02*
Y197495D01*
X719405Y154829D02*
X720071Y154162D01*
X721404D01*
X722070Y154829D01*
Y157495D01*
X721404Y158161D01*
X720071D01*
X719405Y157495D01*
Y156162D01*
X720738D01*
X718072Y158161D02*
Y154162D01*
X715406Y158161D01*
Y154162D01*
X714073D02*
Y158161D01*
X712074D01*
X711407Y157495D01*
Y154829D01*
X712074Y154162D01*
X714073D01*
X722070Y164162D02*
Y168161D01*
X720071D01*
X719405Y167495D01*
Y164829D01*
X720071Y164162D01*
X722070D01*
X718072D02*
X715406D01*
X716739D01*
Y168161D01*
X719405Y174829D02*
X720071Y174162D01*
X721404D01*
X722070Y174829D01*
Y175495D01*
X721404Y176162D01*
X720071D01*
X719405Y176828D01*
Y177495D01*
X720071Y178161D01*
X721404D01*
X722070Y177495D01*
X715406Y174829D02*
X716072Y174162D01*
X717405D01*
X718072Y174829D01*
Y177495D01*
X717405Y178161D01*
X716072D01*
X715406Y177495D01*
X714073Y174162D02*
Y178161D01*
Y176828D01*
X711407Y174162D01*
X713407Y176162D01*
X711407Y178161D01*
X722070Y184162D02*
Y186828D01*
X720738Y188161D01*
X719405Y186828D01*
Y184162D01*
X715406Y184829D02*
X716072Y184162D01*
X717405D01*
X718072Y184829D01*
Y187495D01*
X717405Y188161D01*
X716072D01*
X715406Y187495D01*
X711407Y184829D02*
X712074Y184162D01*
X713407D01*
X714073Y184829D01*
Y187495D01*
X713407Y188161D01*
X712074D01*
X711407Y187495D01*
M02*
