M48
;Layer_Color=9474304
;FILE_FORMAT=2:5
INCH,LZ
;TYPE=PLATED
T1F00S00C0.00787
T4F00S00C0.02800
T5F00S00C0.03000
T6F00S00C0.03012
T7F00S00C0.03346
T8F00S00C0.03543
T9F00S00C0.03937
T11F00S00C0.04331
T12F00S00C0.06102
T13F00S00C0.11811
T14F00S00C0.15000
;TYPE=NON_PLATED
T15F00S00C0.03543
%
T01
X0842339Y0399669
Y0404
X0846669
Y0399669
X0851
Y0404
Y0408331
X0846669
X0842339
X0855331
Y0404
Y0399669
X0859661
Y0404
Y0408331
T04
X03275Y0147
X0355Y0148
X0372Y0137237
X03968Y01373
X0417Y0138
X042389Y01375
X0492702Y01525
X05445Y01445
X0552Y0145
X07835Y0307036
X0675Y0304809
Y0282905
X06335Y02945
X05545Y0280912
X0547Y02805
X05471Y025
X0555Y02505
X05515Y0159
X0544
X0381Y0262
X0372402Y02675
X0356157Y0266
X0353Y02595
X0375787Y02875
X03015Y0363
X0301Y0373
X0287Y0393979
X02815Y0389
X024
X02415Y0395542
X026Y0367334
X0254731Y03435
X02575Y0337208
X02565Y0329
X0231Y03275
X023Y03345
X0232211Y03185
X0219Y03675
X0282Y04345
X0341Y04015
X0342Y0381
X0349Y03815
X03265Y0375
X0326Y0363428
X0389169Y0373334
Y0382
X0392689Y0387334
X03895Y0393
X03825Y0402
X0397427
X0394165Y0414589
X0368Y0414
X036Y0412788
X03949Y03765
X0405787Y0373
X0393637Y03535
X0417966Y0353
X04615Y0374
X04685Y0376
X048Y0375
X0488
X04955Y03725
X04935Y038
X04995Y03875
X0519Y0366145
X04885Y0357
X0634Y0327
X0642Y0402
X07845Y0321437
X0786134Y03135
X0790615Y03255
X08315Y0317
X0837Y03225
X0845799Y0432
X0841Y0437148
X0835Y0441
X087Y04315
Y0425
Y0418012
T05
X0804Y0147
Y0157
Y0167
Y0177
Y0187
Y0197
X0703Y0187
Y0177
Y0167
Y0157
X0473Y01675
Y02275
X0463
X0453
X0443
X0433
X0423
Y01675
X0433
X0443
X0453
X0463
X0467252Y0363
X0457252
X0447252
X0437252
X0427252
Y0423
X0437252
X0447252
X0457252
X0467252
X0477252
Y0363
T06
X0578Y0138204
X06845Y0240315
Y026
X0756Y02505
X0765842
X0577129Y0265745
Y028543
X0578Y022143
Y0201745
Y0157889
X02915Y0264815
Y02845
X0576Y0328204
Y0347889
X0577Y0393079
Y0412764
X0576Y0455745
X0748658Y04069
X07585
X0576Y047543
T07
X0367028Y0111718
X0397028
X0410028Y0111901
X0440028
X0455306Y0112098
X0485306
X0502306Y0112267
X0532306
X0593Y0131
X0605
X0794Y0257
Y0272548
X0795Y0285548
Y0299048
X07955Y03115
X08255
X0825Y0299048
Y0285548
X0824Y0272548
Y0257
X0604129Y0258541
X0592129
Y0288541
X0604129
X0605Y0224541
X0593
Y0194541
X0605
Y0161
X0593
X0537477Y0250245
X0526882
X0516286
X0505691
X0495095
X04845
X0473904
Y0280245
X04845
X0495095
X0505691
X0516286
X0526882
X0537477
X0538787Y0303218
X0508787
X0492787Y0303034
X0462787
X0448787Y0302866
X0418787
X0405787Y0302971
X0375787
X0463309Y0280245
Y0250245
X03Y0246
Y0231
X027
X0258
Y0246
X027
X0228
Y0231
X02215Y0273
X02065
Y0303
X02215
Y0314
X02065
Y0344
X02215
X04795Y04425
X0490068
X0500636
X0511204
X0521773
X0532341
X0542909
X0553477
X0592Y0448541
X0604
Y0415875
X0592
Y0385875
X0604
Y0351
X0592
Y0321
X0604
X0667887Y0327484
X0668347Y0312815
X0698347
X0697887Y0327484
X0698Y0344
X0668
X0796Y0345
Y03315
X07955Y0358048
X08255
X0826Y0345
Y03315
X0604Y0478541
X0592
X0553477Y04725
X0542909
X0532341
X0521773
X0511204
X0500636
X0490068
X04795
T08
X0122Y0147334
X0132
X0142
X0152
X0162
X0172
X0182
X0192
X0202
X0212
X0222
X0232
X0242
X0252
X0262
X0272
X0282
X0292
X0369778Y0123
X0380014
X039025
X0412778Y0123183
X0423014
X043325
X0458056Y0123381
X0468292
X0478528
X0505056Y012355
X0515292
X0525528
X086Y0152
Y0161843
Y0171685
Y0181528
Y0279745
Y0289587
Y029943
Y0309272
X04405Y02795
X04305
X04205
X04105
X04005
X03905
X03805
X03705
X03605
X03505
Y02495
X03605
X03705
X03805
X03905
X04005
X04105
X04205
X04305
X04405
X0312Y0257334
Y0267334
Y0277334
Y0287334
Y0297334
Y0307334
Y0237334
Y0227334
Y0217334
Y0207334
Y0197334
Y0187334
Y0177334
Y0167334
X0292Y0157334
X0282
X0272
X0262
X0252
X0242
X0232
X0222
X0212
X0202
X0192
X0182
X0172
X0162
X0152
X0142
X0132
X0122
Y0187334
Y0197334
Y0207334
Y0217334
Y0227334
Y0237334
Y0247334
Y0257334
Y0277334
Y0287334
Y0297334
Y0307334
Y0317334
Y0327334
Y0337334
Y0347334
Y0363334
Y0373334
Y0383334
Y0393334
Y0403334
Y0413334
Y0423334
Y0433334
X0312Y0417334
Y0407334
Y0397334
Y0387334
Y0377334
Y0367334
Y0357334
Y0347334
Y0327334
Y0317334
X0378536Y0314254
X0388773
X0399009
X0421536Y0314149
X0431773
X0442009
X0465536Y0314317
X04465Y04425
X04365
X04265
X04165
X04065
X03965
X03865
X03765
X03665
X03565
X0475773Y0314317
X0486009
X0511536Y03145
X0521773
X0532009
X06725Y0374
X0682342
X0692185
X0702028
X04465Y04725
X04365
X04265
X04165
X04065
X03965
X03865
X03765
X03665
X03565
T09
X0621205Y0137887
Y0155603
X0646795
Y0137887
X064653Y0201538
Y0219254
Y0265189
Y0282905
X062094
Y0265189
Y0219254
Y0201538
Y032884
Y0346556
Y0392491
Y0410207
Y0456142
X064653
Y0410207
Y0392491
Y0346556
Y032884
Y0473858
X062094
T11
X0742Y0374
X0752
X0762
T12
X0787157Y0418512
X0806843
Y047
X0787157
X0841315
X0861
T13
X0312Y0147334
X0122Y0172334
Y0467334
X0312Y0472334
T14
X0752Y0314945
T15
X0681866Y0442675
X0699189
M30
