G04*
G04 #@! TF.GenerationSoftware,Altium Limited,Altium Designer,19.0.10 (269)*
G04*
G04 Layer_Color=16711935*
%FSLAX25Y25*%
%MOIN*%
G70*
G01*
G75*
%ADD28R,0.06706X0.06706*%
%ADD29C,0.06706*%
%ADD30R,0.06706X0.06706*%
%ADD31C,0.06312*%
%ADD32C,0.06800*%
%ADD33C,0.15800*%
%ADD34C,0.07493*%
%ADD35R,0.07493X0.07493*%
%ADD36C,0.05721*%
%ADD37R,0.06312X0.06312*%
%ADD38R,0.08871X0.08871*%
%ADD39C,0.08871*%
%ADD40O,0.04934X0.05721*%
%ADD41O,0.05524X0.08280*%
%ADD42R,0.06706X0.09068*%
%ADD43R,0.09068X0.06706*%
%ADD44C,0.12611*%
%ADD45C,0.05800*%
%ADD46C,0.02769*%
D28*
X312000Y347334D02*
D03*
X122000Y187334D02*
D03*
Y277334D02*
D03*
Y363334D02*
D03*
X312000Y167334D02*
D03*
Y257334D02*
D03*
X446500Y472500D02*
D03*
X350500Y249500D02*
D03*
D29*
X312000Y357334D02*
D03*
Y367334D02*
D03*
Y377334D02*
D03*
Y387334D02*
D03*
Y397334D02*
D03*
Y407334D02*
D03*
Y417334D02*
D03*
X122000Y197334D02*
D03*
Y207334D02*
D03*
Y217334D02*
D03*
Y227334D02*
D03*
Y237334D02*
D03*
Y247334D02*
D03*
Y257334D02*
D03*
Y347334D02*
D03*
Y337334D02*
D03*
Y327334D02*
D03*
Y317334D02*
D03*
Y307334D02*
D03*
Y297334D02*
D03*
Y287334D02*
D03*
Y433334D02*
D03*
Y423334D02*
D03*
Y413334D02*
D03*
Y403334D02*
D03*
Y393334D02*
D03*
Y383334D02*
D03*
Y373334D02*
D03*
X312000Y237334D02*
D03*
Y227334D02*
D03*
Y217334D02*
D03*
Y207334D02*
D03*
Y197334D02*
D03*
Y187334D02*
D03*
Y177334D02*
D03*
Y327334D02*
D03*
Y317334D02*
D03*
Y307334D02*
D03*
Y297334D02*
D03*
Y287334D02*
D03*
Y277334D02*
D03*
Y267334D02*
D03*
X292000Y157334D02*
D03*
X282000Y147334D02*
D03*
Y157334D02*
D03*
X272000Y147334D02*
D03*
Y157334D02*
D03*
X262000Y147334D02*
D03*
Y157334D02*
D03*
X252000Y147334D02*
D03*
Y157334D02*
D03*
X242000Y147334D02*
D03*
Y157334D02*
D03*
X232000Y147334D02*
D03*
Y157334D02*
D03*
X222000Y147334D02*
D03*
Y157334D02*
D03*
X212000Y147334D02*
D03*
Y157334D02*
D03*
X202000Y147334D02*
D03*
Y157334D02*
D03*
X192000Y147334D02*
D03*
Y157334D02*
D03*
X182000Y147334D02*
D03*
Y157334D02*
D03*
X172000Y147334D02*
D03*
Y157334D02*
D03*
X162000Y147334D02*
D03*
Y157334D02*
D03*
X152000Y147334D02*
D03*
Y157334D02*
D03*
X142000Y147334D02*
D03*
Y157334D02*
D03*
X132000Y147334D02*
D03*
Y157334D02*
D03*
X122000Y147334D02*
D03*
Y157334D02*
D03*
X621205Y137887D02*
D03*
Y155603D02*
D03*
X620940Y201538D02*
D03*
Y219254D02*
D03*
Y265189D02*
D03*
Y282905D02*
D03*
Y328840D02*
D03*
Y346556D02*
D03*
Y392491D02*
D03*
Y410207D02*
D03*
Y456142D02*
D03*
Y473858D02*
D03*
X436500Y472500D02*
D03*
X426500D02*
D03*
X416500D02*
D03*
X406500D02*
D03*
X396500D02*
D03*
X386500D02*
D03*
X376500D02*
D03*
X366500D02*
D03*
X356500D02*
D03*
X446500Y442500D02*
D03*
X436500D02*
D03*
X426500D02*
D03*
X416500D02*
D03*
X406500D02*
D03*
X396500D02*
D03*
X386500D02*
D03*
X376500D02*
D03*
X366500D02*
D03*
X356500D02*
D03*
X360500Y249500D02*
D03*
X370500D02*
D03*
X380500D02*
D03*
X390500D02*
D03*
X400500D02*
D03*
X410500D02*
D03*
X420500D02*
D03*
X430500D02*
D03*
X440500D02*
D03*
X350500Y279500D02*
D03*
X360500D02*
D03*
X370500D02*
D03*
X380500D02*
D03*
X390500D02*
D03*
X400500D02*
D03*
X410500D02*
D03*
X420500D02*
D03*
X430500D02*
D03*
X440500D02*
D03*
D30*
X292000Y147334D02*
D03*
X646795Y137887D02*
D03*
X646530Y201538D02*
D03*
Y265189D02*
D03*
Y328840D02*
D03*
Y392491D02*
D03*
Y456142D02*
D03*
D31*
X367028Y111718D02*
D03*
X397028D02*
D03*
X795000Y285548D02*
D03*
X825000D02*
D03*
X794000Y272548D02*
D03*
X824000D02*
D03*
X484500Y280245D02*
D03*
Y250245D02*
D03*
X490068Y472500D02*
D03*
Y442500D02*
D03*
X698347Y312815D02*
D03*
X668347D02*
D03*
X698000Y344000D02*
D03*
X668000D02*
D03*
X667887Y327484D02*
D03*
X697887D02*
D03*
X206500Y314000D02*
D03*
Y344000D02*
D03*
Y273000D02*
D03*
Y303000D02*
D03*
X258000Y231000D02*
D03*
X228000D02*
D03*
X300000D02*
D03*
X270000D02*
D03*
X300000Y246000D02*
D03*
X270000D02*
D03*
X258000D02*
D03*
X228000D02*
D03*
X221500Y273000D02*
D03*
Y303000D02*
D03*
Y314000D02*
D03*
Y344000D02*
D03*
X825500Y358048D02*
D03*
X795500D02*
D03*
X796000Y331500D02*
D03*
X826000D02*
D03*
X399009Y314254D02*
D03*
X388773D02*
D03*
X442009Y314149D02*
D03*
X431773D02*
D03*
X486009Y314317D02*
D03*
X475773D02*
D03*
X532009Y314500D02*
D03*
X521773D02*
D03*
X390250Y123000D02*
D03*
X380014D02*
D03*
X433250Y123183D02*
D03*
X423014D02*
D03*
X478528Y123381D02*
D03*
X468292D02*
D03*
X525528Y123550D02*
D03*
X515292D02*
D03*
X795000Y299048D02*
D03*
X825000D02*
D03*
X592000Y478541D02*
D03*
Y448541D02*
D03*
X604000D02*
D03*
Y478541D02*
D03*
X592000Y415875D02*
D03*
Y385875D02*
D03*
X604000D02*
D03*
Y415875D02*
D03*
X592000Y351000D02*
D03*
Y321000D02*
D03*
X604000D02*
D03*
Y351000D02*
D03*
X592129Y288541D02*
D03*
Y258541D02*
D03*
X604129D02*
D03*
Y288541D02*
D03*
X593000Y161000D02*
D03*
Y131000D02*
D03*
X605000D02*
D03*
Y161000D02*
D03*
X826000Y345000D02*
D03*
X796000D02*
D03*
X605000Y194541D02*
D03*
Y224541D02*
D03*
X593000D02*
D03*
Y194541D02*
D03*
X795500Y311500D02*
D03*
X825500D02*
D03*
X794000Y257000D02*
D03*
X824000D02*
D03*
X448787Y302866D02*
D03*
X418787D02*
D03*
X405787Y302971D02*
D03*
X375787D02*
D03*
X532306Y112267D02*
D03*
X502306D02*
D03*
X440028Y111901D02*
D03*
X410028D02*
D03*
X538787Y303218D02*
D03*
X508787D02*
D03*
X473904Y280245D02*
D03*
Y250245D02*
D03*
X463309Y280245D02*
D03*
Y250245D02*
D03*
X485306Y112098D02*
D03*
X455306D02*
D03*
X495095Y280245D02*
D03*
Y250245D02*
D03*
X505691Y280245D02*
D03*
Y250245D02*
D03*
X516286Y280245D02*
D03*
Y250245D02*
D03*
X526882Y280245D02*
D03*
Y250245D02*
D03*
X537477Y280245D02*
D03*
Y250245D02*
D03*
X479500Y472500D02*
D03*
Y442500D02*
D03*
X500636Y472500D02*
D03*
Y442500D02*
D03*
X492787Y303034D02*
D03*
X462787D02*
D03*
X511204Y472500D02*
D03*
Y442500D02*
D03*
X521773Y472500D02*
D03*
Y442500D02*
D03*
X532341Y472500D02*
D03*
Y442500D02*
D03*
X542909Y472500D02*
D03*
Y442500D02*
D03*
X553477Y472500D02*
D03*
Y442500D02*
D03*
D32*
X291500Y284500D02*
D03*
Y264815D02*
D03*
X684500Y240315D02*
D03*
Y260000D02*
D03*
X577129Y265745D02*
D03*
Y285430D02*
D03*
X576000Y328204D02*
D03*
Y347889D02*
D03*
X577000Y393079D02*
D03*
Y412764D02*
D03*
X576000Y455745D02*
D03*
Y475430D02*
D03*
X578000Y138204D02*
D03*
Y157889D02*
D03*
Y201745D02*
D03*
Y221430D02*
D03*
X457252Y423000D02*
D03*
X447252D02*
D03*
X437252D02*
D03*
X427252D02*
D03*
X467252D02*
D03*
X477252D02*
D03*
X427252Y363000D02*
D03*
X437252D02*
D03*
X477252D02*
D03*
X467252D02*
D03*
X457252D02*
D03*
X447252D02*
D03*
X453000Y227500D02*
D03*
X443000D02*
D03*
X433000D02*
D03*
X423000D02*
D03*
X463000D02*
D03*
X473000D02*
D03*
X423000Y167500D02*
D03*
X433000D02*
D03*
X473000D02*
D03*
X463000D02*
D03*
X453000D02*
D03*
X443000D02*
D03*
X703000Y157000D02*
D03*
Y167000D02*
D03*
Y177000D02*
D03*
Y187000D02*
D03*
X804000Y197000D02*
D03*
Y187000D02*
D03*
Y177000D02*
D03*
Y167000D02*
D03*
Y157000D02*
D03*
Y147000D02*
D03*
D33*
X752000Y314945D02*
D03*
D34*
X742000Y374000D02*
D03*
X752000D02*
D03*
X672500D02*
D03*
X682342D02*
D03*
X692185D02*
D03*
X702028D02*
D03*
X860000Y279745D02*
D03*
Y289587D02*
D03*
Y299430D02*
D03*
Y309272D02*
D03*
Y181528D02*
D03*
Y171685D02*
D03*
Y161843D02*
D03*
Y152000D02*
D03*
D35*
X762000Y374000D02*
D03*
D36*
X756000Y250500D02*
D03*
X765842D02*
D03*
X758500Y406900D02*
D03*
X748658D02*
D03*
D37*
X378536Y314254D02*
D03*
X421536Y314149D02*
D03*
X465536Y314317D02*
D03*
X511536Y314500D02*
D03*
X369778Y123000D02*
D03*
X412778Y123183D02*
D03*
X458056Y123381D02*
D03*
X505056Y123550D02*
D03*
D38*
X861000Y470000D02*
D03*
X806843D02*
D03*
Y418512D02*
D03*
D39*
X841315Y470000D02*
D03*
X787157D02*
D03*
Y418512D02*
D03*
D40*
X699287Y469189D02*
D03*
X681768D02*
D03*
D41*
X674090Y481000D02*
D03*
X706965D02*
D03*
D42*
X728496Y448659D02*
D03*
D43*
X747000Y460470D02*
D03*
Y436848D02*
D03*
D44*
X312000Y147334D02*
D03*
X122000Y172334D02*
D03*
Y467334D02*
D03*
X312000Y472334D02*
D03*
D45*
X423890Y137500D02*
D03*
X396800Y137300D02*
D03*
X375787Y287500D02*
D03*
X488500Y357000D02*
D03*
X519000Y366145D02*
D03*
X392689Y387334D02*
D03*
X389500Y393000D02*
D03*
X389169Y382000D02*
D03*
X468500Y376000D02*
D03*
X326000Y363428D02*
D03*
X342000Y381000D02*
D03*
X393637Y353500D02*
D03*
X417966Y353000D02*
D03*
X231000Y327500D02*
D03*
X232211Y318500D02*
D03*
X256500Y329000D02*
D03*
X349000Y381500D02*
D03*
X341000Y401500D02*
D03*
X405787Y373000D02*
D03*
X461500Y374000D02*
D03*
X257500Y337208D02*
D03*
X368000Y414000D02*
D03*
X360000Y412788D02*
D03*
X394165Y414589D02*
D03*
X382500Y402000D02*
D03*
X281500Y389000D02*
D03*
X287000Y393979D02*
D03*
X260000Y367334D02*
D03*
X389169Y373334D02*
D03*
X480000Y375000D02*
D03*
X493500Y380000D02*
D03*
X488000Y375000D02*
D03*
X495500Y372500D02*
D03*
X499500Y387500D02*
D03*
X301500Y363000D02*
D03*
X254731Y343500D02*
D03*
X230000Y334500D02*
D03*
X326500Y375000D02*
D03*
X301000Y373000D02*
D03*
X219000Y367500D02*
D03*
X282000Y434500D02*
D03*
X240000Y389000D02*
D03*
X241500Y395542D02*
D03*
X783500Y307036D02*
D03*
X786134Y313500D02*
D03*
X784500Y321437D02*
D03*
X790615Y325500D02*
D03*
X394900Y376500D02*
D03*
X397427Y402000D02*
D03*
X634000Y327000D02*
D03*
X633500Y294500D02*
D03*
X675000Y282905D02*
D03*
Y304809D02*
D03*
X831500Y317000D02*
D03*
X837000Y322500D02*
D03*
X642000Y402000D02*
D03*
X372402Y267500D02*
D03*
X356157Y266000D02*
D03*
X353000Y259500D02*
D03*
X381000Y262000D02*
D03*
X552000Y145000D02*
D03*
X551500Y159000D02*
D03*
X555000Y250500D02*
D03*
X554500Y280912D02*
D03*
X547000Y280500D02*
D03*
X547100Y250000D02*
D03*
X544000Y159000D02*
D03*
X544500Y144500D02*
D03*
X355000Y148000D02*
D03*
X327500Y147000D02*
D03*
X372000Y137237D02*
D03*
X417000Y138000D02*
D03*
X492702Y152500D02*
D03*
X845799Y432000D02*
D03*
X841000Y437148D02*
D03*
X835000Y441000D02*
D03*
X870000Y425000D02*
D03*
Y431500D02*
D03*
Y418012D02*
D03*
D46*
X842339Y399669D02*
D03*
Y404000D02*
D03*
Y408331D02*
D03*
X846669Y399669D02*
D03*
Y404000D02*
D03*
Y408331D02*
D03*
X851000Y399669D02*
D03*
Y404000D02*
D03*
Y408331D02*
D03*
X855331Y399669D02*
D03*
Y404000D02*
D03*
Y408331D02*
D03*
X859661Y399669D02*
D03*
Y404000D02*
D03*
Y408331D02*
D03*
M02*
