G04*
G04 #@! TF.GenerationSoftware,Altium Limited,Altium Designer,19.0.10 (269)*
G04*
G04 Layer_Color=32896*
%FSLAX25Y25*%
%MOIN*%
G70*
G01*
G75*
G36*
X636200Y479200D02*
X642600D01*
Y478400D01*
X646600D01*
Y477600D01*
X648200D01*
Y476800D01*
Y476000D01*
X649000D01*
Y475200D01*
X651400D01*
Y474400D01*
X652200D01*
Y473600D01*
X653000D01*
Y472800D01*
X653800D01*
Y472000D01*
X656200D01*
Y471200D01*
X657000D01*
Y470400D01*
X657800D01*
Y469600D01*
X658600D01*
Y468800D01*
X659400D01*
Y468000D01*
X660200D01*
Y467200D01*
X661000D01*
Y466400D01*
X661800D01*
Y465600D01*
Y464800D01*
X662600D01*
Y464000D01*
X663400D01*
Y463200D01*
Y462400D01*
X664200D01*
Y461600D01*
Y460800D01*
Y460000D01*
X665000D01*
Y459200D01*
Y458400D01*
Y457600D01*
Y456800D01*
X665800D01*
Y456000D01*
Y455200D01*
Y454400D01*
X666600D01*
Y453600D01*
Y452800D01*
Y452000D01*
Y451200D01*
Y450400D01*
Y449600D01*
Y448800D01*
Y448000D01*
Y447200D01*
Y446400D01*
Y445600D01*
Y444800D01*
Y444000D01*
Y443200D01*
Y442400D01*
Y441600D01*
Y440800D01*
Y440000D01*
Y439200D01*
X665800D01*
Y438400D01*
Y437600D01*
X665000D01*
Y436800D01*
Y436000D01*
X664200D01*
Y435200D01*
Y434400D01*
Y433600D01*
X663400D01*
Y432800D01*
Y432000D01*
X662600D01*
Y431200D01*
X661800D01*
Y430400D01*
X661000D01*
Y429600D01*
X660200D01*
Y428800D01*
X659400D01*
Y428000D01*
X657800D01*
Y427200D01*
X656200D01*
Y426400D01*
X651400D01*
Y427200D01*
X650600D01*
Y428000D01*
X649000D01*
Y428800D01*
X648200D01*
Y429600D01*
X647400D01*
Y430400D01*
X646600D01*
Y431200D01*
Y432000D01*
X645800D01*
Y432800D01*
Y433600D01*
Y434400D01*
Y435200D01*
X645000D01*
Y436000D01*
X644200D01*
Y436800D01*
Y437600D01*
Y438400D01*
Y439200D01*
X643400D01*
Y440000D01*
Y440800D01*
Y441600D01*
Y442400D01*
Y443200D01*
X642600D01*
Y444000D01*
Y444800D01*
Y445600D01*
Y446400D01*
Y447200D01*
X641800D01*
Y448000D01*
X641000D01*
Y448800D01*
X640200D01*
Y449600D01*
X639400D01*
Y450400D01*
Y451200D01*
X637800D01*
Y452000D01*
X637000D01*
Y452800D01*
X636200D01*
Y453600D01*
X635400D01*
Y454400D01*
X629000D01*
Y453600D01*
X627400D01*
Y452800D01*
X626600D01*
Y452000D01*
X625000D01*
Y451200D01*
X622600D01*
Y450400D01*
X621800D01*
Y449600D01*
X621000D01*
Y448800D01*
X620200D01*
Y448000D01*
X618600D01*
Y447200D01*
Y446400D01*
X617800D01*
Y445600D01*
Y444800D01*
X617000D01*
Y444000D01*
Y443200D01*
Y442400D01*
X616200D01*
Y441600D01*
X615400D01*
Y440800D01*
Y440000D01*
X614600D01*
Y439200D01*
X613800D01*
Y438400D01*
Y437600D01*
Y436800D01*
X613000D01*
Y436000D01*
Y435200D01*
Y434400D01*
X612200D01*
Y433600D01*
Y432800D01*
Y432000D01*
Y431200D01*
Y430400D01*
Y429600D01*
X611400D01*
Y428800D01*
Y428000D01*
Y427200D01*
Y426400D01*
X610600D01*
Y425600D01*
Y424800D01*
Y424000D01*
X609800D01*
Y423200D01*
Y422400D01*
Y421600D01*
Y420800D01*
X609000D01*
Y420000D01*
Y419200D01*
Y418400D01*
Y417600D01*
Y416800D01*
Y416000D01*
Y415200D01*
Y414400D01*
Y413600D01*
Y412800D01*
Y412000D01*
Y411200D01*
Y410400D01*
Y409600D01*
Y408800D01*
Y408000D01*
Y407200D01*
Y406400D01*
X609800D01*
Y405600D01*
Y404800D01*
X610600D01*
Y404000D01*
Y403200D01*
X611400D01*
Y402400D01*
X612200D01*
Y401600D01*
Y400800D01*
Y400000D01*
Y399200D01*
X613800D01*
Y398400D01*
X614600D01*
Y397600D01*
Y396800D01*
X615400D01*
Y396000D01*
X616200D01*
Y395200D01*
X617000D01*
Y394400D01*
Y393600D01*
X617800D01*
Y392800D01*
X618600D01*
Y392000D01*
X620200D01*
Y391200D01*
X621000D01*
Y390400D01*
Y389600D01*
X623400D01*
Y388800D01*
X624200D01*
Y388000D01*
Y387200D01*
X625000D01*
Y386400D01*
X627400D01*
Y385600D01*
Y384800D01*
X628200D01*
Y384000D01*
X629000D01*
Y383200D01*
X630600D01*
Y382400D01*
Y381600D01*
X631400D01*
Y380800D01*
X633000D01*
Y380000D01*
Y379200D01*
X633800D01*
Y378400D01*
Y377600D01*
X635400D01*
Y376800D01*
X636200D01*
Y376000D01*
Y375200D01*
Y374400D01*
X637800D01*
Y373600D01*
X638600D01*
Y372800D01*
Y372000D01*
X639400D01*
Y371200D01*
X640200D01*
Y370400D01*
Y369600D01*
X641000D01*
Y368800D01*
Y368000D01*
X642600D01*
Y367200D01*
Y366400D01*
Y365600D01*
X643400D01*
Y364800D01*
X644200D01*
Y364000D01*
X645000D01*
Y363200D01*
Y362400D01*
X645800D01*
Y361600D01*
Y360800D01*
Y360000D01*
Y359200D01*
X646600D01*
Y358400D01*
X647400D01*
Y357600D01*
Y356800D01*
Y356000D01*
X648200D01*
Y355200D01*
Y354400D01*
Y353600D01*
Y352800D01*
Y352000D01*
Y351200D01*
Y350400D01*
Y349600D01*
Y348800D01*
Y348000D01*
X649000D01*
Y347200D01*
Y346400D01*
Y345600D01*
Y344800D01*
Y344000D01*
Y343200D01*
Y342400D01*
Y341600D01*
X649800D01*
Y340800D01*
Y340000D01*
X649000D01*
Y339200D01*
Y338400D01*
X648200D01*
Y337600D01*
Y336800D01*
Y336000D01*
Y335200D01*
Y334400D01*
Y333600D01*
Y332800D01*
Y332000D01*
X649000D01*
Y331200D01*
X649800D01*
Y330400D01*
X650600D01*
Y329600D01*
Y328800D01*
X651400D01*
Y328000D01*
Y327200D01*
X652200D01*
Y326400D01*
X653000D01*
Y325600D01*
X653800D01*
Y324800D01*
Y324000D01*
X654600D01*
Y323200D01*
Y322400D01*
X655400D01*
Y321600D01*
Y320800D01*
X656200D01*
Y320000D01*
X657000D01*
Y319200D01*
X657800D01*
Y318400D01*
Y317600D01*
Y316800D01*
Y316000D01*
Y315200D01*
Y314400D01*
X658600D01*
Y313600D01*
Y312800D01*
X659400D01*
Y312000D01*
Y311200D01*
Y310400D01*
X660200D01*
Y309600D01*
X661000D01*
Y308800D01*
Y308000D01*
Y307200D01*
Y306400D01*
Y305600D01*
Y304800D01*
X661800D01*
Y304000D01*
Y303200D01*
Y302400D01*
Y301600D01*
Y300800D01*
Y300000D01*
X662600D01*
Y299200D01*
Y298400D01*
Y297600D01*
Y296800D01*
Y296000D01*
Y295200D01*
X661800D01*
Y294400D01*
Y293600D01*
Y292800D01*
Y292000D01*
Y291200D01*
Y290400D01*
Y289600D01*
Y288800D01*
Y288000D01*
Y287200D01*
Y286400D01*
Y285600D01*
Y284800D01*
Y284000D01*
Y283200D01*
Y282400D01*
Y281600D01*
X661000D01*
Y280800D01*
Y280000D01*
Y279200D01*
Y278400D01*
Y277600D01*
Y276800D01*
Y276000D01*
Y275200D01*
Y274400D01*
X660200D01*
Y273600D01*
Y272800D01*
Y272000D01*
Y271200D01*
X659400D01*
Y270400D01*
Y269600D01*
Y268800D01*
Y268000D01*
Y267200D01*
Y266400D01*
Y265600D01*
Y264800D01*
X658600D01*
Y264000D01*
Y263200D01*
X657800D01*
Y262400D01*
Y261600D01*
Y260800D01*
Y260000D01*
Y259200D01*
Y258400D01*
X657000D01*
Y257600D01*
Y256800D01*
Y256000D01*
X656200D01*
Y255200D01*
Y254400D01*
Y253600D01*
Y252800D01*
X655400D01*
Y252000D01*
Y251200D01*
Y250400D01*
Y249600D01*
X654600D01*
Y248800D01*
Y248000D01*
Y247200D01*
Y246400D01*
Y245600D01*
Y244800D01*
X653800D01*
Y244000D01*
Y243200D01*
Y242400D01*
X653000D01*
Y241600D01*
Y240800D01*
Y240000D01*
Y239200D01*
Y238400D01*
Y237600D01*
X652200D01*
Y236800D01*
Y236000D01*
Y235200D01*
Y234400D01*
Y233600D01*
Y232800D01*
Y232000D01*
Y231200D01*
Y230400D01*
Y229600D01*
Y228800D01*
X653000D01*
Y228000D01*
Y227200D01*
Y226400D01*
Y225600D01*
Y224800D01*
X653800D01*
Y224000D01*
Y223200D01*
Y222400D01*
X654600D01*
Y221600D01*
Y220800D01*
Y220000D01*
X655400D01*
Y219200D01*
Y218400D01*
X656200D01*
Y217600D01*
X657000D01*
Y216800D01*
Y216000D01*
X657800D01*
Y215200D01*
Y214400D01*
Y213600D01*
Y212800D01*
X659400D01*
Y212000D01*
Y211200D01*
X660200D01*
Y210400D01*
X661000D01*
Y209600D01*
X661800D01*
Y208800D01*
Y208000D01*
X662600D01*
Y207200D01*
X663400D01*
Y206400D01*
X664200D01*
Y205600D01*
Y204800D01*
Y204000D01*
X665800D01*
Y203200D01*
Y202400D01*
X666600D01*
Y201600D01*
X667400D01*
Y200800D01*
Y200000D01*
Y199200D01*
X668200D01*
Y198400D01*
Y197600D01*
X669800D01*
Y196800D01*
Y196000D01*
Y195200D01*
X670600D01*
Y194400D01*
Y193600D01*
Y192800D01*
Y192000D01*
Y191200D01*
X669800D01*
Y190400D01*
Y189600D01*
Y188800D01*
Y188000D01*
Y187200D01*
X669000D01*
Y186400D01*
Y185600D01*
Y184800D01*
X668200D01*
Y184000D01*
Y183200D01*
Y182400D01*
X667400D01*
Y181600D01*
Y180800D01*
X666600D01*
Y180000D01*
Y179200D01*
X665000D01*
Y178400D01*
Y177600D01*
X664200D01*
Y176800D01*
Y176000D01*
X663400D01*
Y175200D01*
Y174400D01*
X662600D01*
Y173600D01*
Y172800D01*
X661000D01*
Y172000D01*
Y171200D01*
X660200D01*
Y170400D01*
X659400D01*
Y169600D01*
X658600D01*
Y168800D01*
X657800D01*
Y168000D01*
Y167200D01*
X655400D01*
Y166400D01*
X654600D01*
Y165600D01*
Y164800D01*
Y164000D01*
X653800D01*
Y163200D01*
X653000D01*
Y162400D01*
X652200D01*
Y161600D01*
X651400D01*
Y160800D01*
X653000D01*
Y160000D01*
X653800D01*
Y159200D01*
Y158400D01*
Y157600D01*
X652200D01*
Y156800D01*
X651400D01*
Y156000D01*
X650600D01*
Y155200D01*
X649800D01*
Y154400D01*
X648200D01*
Y153600D01*
Y152800D01*
Y152000D01*
Y151200D01*
Y150400D01*
X647400D01*
Y149600D01*
X646600D01*
Y148800D01*
X645800D01*
Y148000D01*
X644200D01*
Y147200D01*
X643400D01*
Y146400D01*
X641800D01*
Y145600D01*
X636200D01*
Y144800D01*
X633800D01*
Y144000D01*
X633000D01*
Y143200D01*
X630600D01*
Y142400D01*
X625000D01*
Y141600D01*
X617000D01*
Y142400D01*
X615400D01*
Y143200D01*
Y144000D01*
X617800D01*
Y144800D01*
Y145600D01*
X618600D01*
Y146400D01*
X620200D01*
Y147200D01*
X621000D01*
Y148000D01*
Y148800D01*
X617000D01*
Y148000D01*
Y147200D01*
Y146400D01*
Y145600D01*
X615400D01*
Y144800D01*
X614600D01*
Y144000D01*
X613800D01*
Y143200D01*
X612200D01*
Y142400D01*
X609000D01*
Y143200D01*
Y144000D01*
Y144800D01*
X608200D01*
Y145600D01*
X605000D01*
Y146400D01*
Y147200D01*
Y148000D01*
Y148800D01*
X604200D01*
Y149600D01*
Y150400D01*
X605000D01*
Y151200D01*
X608200D01*
Y152000D01*
X613800D01*
Y152800D01*
Y153600D01*
Y154400D01*
X614600D01*
Y155200D01*
Y156000D01*
Y156800D01*
Y157600D01*
Y158400D01*
Y159200D01*
Y160000D01*
Y160800D01*
X615400D01*
Y161600D01*
Y162400D01*
Y163200D01*
Y164000D01*
Y164800D01*
X616200D01*
Y165600D01*
Y166400D01*
X617000D01*
Y167200D01*
X617800D01*
Y168000D01*
Y168800D01*
Y169600D01*
X618600D01*
Y170400D01*
X619400D01*
Y171200D01*
Y172000D01*
X620200D01*
Y172800D01*
X621000D01*
Y173600D01*
Y174400D01*
X621800D01*
Y175200D01*
Y176000D01*
X622600D01*
Y176800D01*
Y177600D01*
X623400D01*
Y178400D01*
Y179200D01*
X624200D01*
Y180000D01*
Y180800D01*
Y181600D01*
Y182400D01*
X625800D01*
Y183200D01*
Y184000D01*
X626600D01*
Y184800D01*
Y185600D01*
Y186400D01*
X627400D01*
Y187200D01*
Y188000D01*
Y188800D01*
Y189600D01*
Y190400D01*
X628200D01*
Y191200D01*
Y192000D01*
Y192800D01*
Y193600D01*
Y194400D01*
Y195200D01*
Y196000D01*
Y196800D01*
Y197600D01*
Y198400D01*
Y199200D01*
Y200000D01*
Y200800D01*
Y201600D01*
Y202400D01*
Y203200D01*
Y204000D01*
X627400D01*
Y204800D01*
Y205600D01*
X626600D01*
Y206400D01*
X625800D01*
Y207200D01*
X625000D01*
Y208000D01*
X624200D01*
Y208800D01*
Y209600D01*
Y210400D01*
X621800D01*
Y211200D01*
X621000D01*
Y212000D01*
X620200D01*
Y212800D01*
X617000D01*
Y213600D01*
X615400D01*
Y214400D01*
Y215200D01*
X613800D01*
Y216000D01*
X609800D01*
Y216800D01*
X609000D01*
Y217600D01*
X606600D01*
Y218400D01*
X604200D01*
Y219200D01*
X593000D01*
Y218400D01*
X589800D01*
Y217600D01*
X588200D01*
Y216800D01*
X586600D01*
Y216000D01*
X584200D01*
Y215200D01*
X582600D01*
Y214400D01*
X581800D01*
Y213600D01*
X580200D01*
Y212800D01*
X576200D01*
Y212000D01*
X574600D01*
Y211200D01*
X573000D01*
Y210400D01*
X570600D01*
Y209600D01*
X569800D01*
Y208800D01*
X568200D01*
Y208000D01*
X566600D01*
Y207200D01*
X565000D01*
Y206400D01*
X564200D01*
Y205600D01*
X563400D01*
Y204800D01*
X561800D01*
Y204000D01*
X560200D01*
Y203200D01*
Y202400D01*
Y201600D01*
X558600D01*
Y200800D01*
X557000D01*
Y200000D01*
Y199200D01*
X556200D01*
Y198400D01*
Y197600D01*
X554600D01*
Y196800D01*
Y196000D01*
Y195200D01*
Y194400D01*
Y193600D01*
Y192800D01*
X553800D01*
Y192000D01*
Y191200D01*
X552200D01*
Y190400D01*
Y189600D01*
X551400D01*
Y188800D01*
Y188000D01*
X550600D01*
Y187200D01*
Y186400D01*
X549800D01*
Y185600D01*
Y184800D01*
X549000D01*
Y184000D01*
X548200D01*
Y183200D01*
Y182400D01*
X547400D01*
Y181600D01*
Y180800D01*
Y180000D01*
Y179200D01*
X546600D01*
Y178400D01*
X545800D01*
Y177600D01*
Y176800D01*
X545000D01*
Y176000D01*
X544200D01*
Y175200D01*
Y174400D01*
Y173600D01*
Y172800D01*
X542600D01*
Y172000D01*
X541800D01*
Y171200D01*
X541000D01*
Y170400D01*
Y169600D01*
X539400D01*
Y168800D01*
Y168000D01*
X538600D01*
Y167200D01*
X537000D01*
Y166400D01*
X535400D01*
Y165600D01*
X534600D01*
Y164800D01*
X533000D01*
Y164000D01*
X529800D01*
Y163200D01*
X528200D01*
Y162400D01*
X527400D01*
Y161600D01*
Y160800D01*
Y160000D01*
X526600D01*
Y159200D01*
X525800D01*
Y158400D01*
Y157600D01*
X523400D01*
Y156800D01*
Y156000D01*
Y155200D01*
X521800D01*
Y154400D01*
X519400D01*
Y153600D01*
X517800D01*
Y152800D01*
X517000D01*
Y153600D01*
X516200D01*
Y154400D01*
X515400D01*
Y155200D01*
X517000D01*
Y156000D01*
X518600D01*
Y156800D01*
X519400D01*
Y157600D01*
X521000D01*
Y158400D01*
X521800D01*
Y159200D01*
X523400D01*
Y160000D01*
Y160800D01*
Y161600D01*
X521800D01*
Y160800D01*
X520200D01*
Y160000D01*
X518600D01*
Y159200D01*
X517800D01*
Y158400D01*
X517000D01*
Y157600D01*
X515400D01*
Y156800D01*
X513800D01*
Y156000D01*
Y155200D01*
X513000D01*
Y154400D01*
X510600D01*
Y153600D01*
X509800D01*
Y152800D01*
X509000D01*
Y152000D01*
X508200D01*
Y152800D01*
Y153600D01*
X507400D01*
Y154400D01*
Y155200D01*
X508200D01*
Y156000D01*
X509000D01*
Y156800D01*
X510600D01*
Y157600D01*
X512200D01*
Y158400D01*
X513000D01*
Y159200D01*
X513800D01*
Y160000D01*
Y160800D01*
X513000D01*
Y160000D01*
X511400D01*
Y159200D01*
X510600D01*
Y158400D01*
X509000D01*
Y157600D01*
X507400D01*
Y156800D01*
X505800D01*
Y156000D01*
X505000D01*
Y155200D01*
X504200D01*
Y154400D01*
X501800D01*
Y153600D01*
X500200D01*
Y152800D01*
X498600D01*
Y153600D01*
Y154400D01*
Y155200D01*
Y156000D01*
X499400D01*
Y156800D01*
X497800D01*
Y156000D01*
X496200D01*
Y155200D01*
X495400D01*
Y154400D01*
X493800D01*
Y153600D01*
X492200D01*
Y152800D01*
Y152000D01*
X489000D01*
Y151200D01*
X487400D01*
Y150400D01*
X486600D01*
Y149600D01*
X485800D01*
Y148800D01*
X484200D01*
Y148000D01*
X483400D01*
Y147200D01*
X482600D01*
Y146400D01*
X481800D01*
Y145600D01*
X479400D01*
Y144800D01*
X478600D01*
Y144000D01*
X477000D01*
Y143200D01*
Y142400D01*
X474600D01*
Y141600D01*
Y140800D01*
X473000D01*
Y140000D01*
X471400D01*
Y139200D01*
X468200D01*
Y138400D01*
X467400D01*
Y137600D01*
X465800D01*
Y136800D01*
X461800D01*
Y136000D01*
X459400D01*
Y135200D01*
X457800D01*
Y134400D01*
X455400D01*
Y133600D01*
X449800D01*
Y132800D01*
X447400D01*
Y132000D01*
X444200D01*
Y131200D01*
Y130400D01*
X442600D01*
Y129600D01*
Y128800D01*
X441800D01*
Y128000D01*
X441000D01*
Y127200D01*
Y126400D01*
X440200D01*
Y125600D01*
X439400D01*
Y124800D01*
X438600D01*
Y124000D01*
X434600D01*
Y124800D01*
X433000D01*
Y125600D01*
X431400D01*
Y126400D01*
X430600D01*
Y127200D01*
X429800D01*
Y128000D01*
X429000D01*
Y128800D01*
X428200D01*
Y129600D01*
Y130400D01*
X427400D01*
Y131200D01*
Y132000D01*
X428200D01*
Y132800D01*
Y133600D01*
Y134400D01*
Y135200D01*
Y136000D01*
Y136800D01*
X429800D01*
Y137600D01*
X430600D01*
Y138400D01*
Y139200D01*
X432200D01*
Y140000D01*
Y140800D01*
Y141600D01*
Y142400D01*
X433000D01*
Y143200D01*
Y144000D01*
X433800D01*
Y144800D01*
Y145600D01*
X434600D01*
Y146400D01*
X435400D01*
Y147200D01*
Y148000D01*
X436200D01*
Y148800D01*
X433800D01*
Y149600D01*
X432200D01*
Y150400D01*
X429800D01*
Y149600D01*
X428200D01*
Y148800D01*
X422600D01*
Y148000D01*
X421000D01*
Y147200D01*
X418600D01*
Y146400D01*
X416200D01*
Y145600D01*
X407400D01*
Y146400D01*
X406600D01*
Y147200D01*
X405800D01*
Y148000D01*
X404200D01*
Y148800D01*
X401800D01*
Y149600D01*
X400200D01*
Y150400D01*
X399400D01*
Y151200D01*
X397800D01*
Y152000D01*
X394600D01*
Y152800D01*
X393000D01*
Y153600D01*
X391400D01*
Y154400D01*
X387400D01*
Y155200D01*
X385000D01*
Y156000D01*
X384200D01*
Y156800D01*
X381800D01*
Y157600D01*
X378600D01*
Y158400D01*
X376200D01*
Y159200D01*
X374600D01*
Y160000D01*
X373000D01*
Y160800D01*
X368200D01*
Y161600D01*
X367400D01*
Y162400D01*
X364200D01*
Y163200D01*
X361800D01*
Y164000D01*
X359400D01*
Y164800D01*
Y165600D01*
X360200D01*
Y166400D01*
Y167200D01*
X361000D01*
Y168000D01*
Y168800D01*
Y169600D01*
Y170400D01*
Y171200D01*
Y172000D01*
Y172800D01*
Y173600D01*
Y174400D01*
Y175200D01*
X360200D01*
Y176000D01*
Y176800D01*
Y177600D01*
X359400D01*
Y178400D01*
X358600D01*
Y179200D01*
X356200D01*
Y180000D01*
X355400D01*
Y180800D01*
X354600D01*
Y181600D01*
X353000D01*
Y182400D01*
X351400D01*
Y183200D01*
X350600D01*
Y184000D01*
X349000D01*
Y184800D01*
X348200D01*
Y185600D01*
X346600D01*
Y186400D01*
X345000D01*
Y187200D01*
X344200D01*
Y188000D01*
X341800D01*
Y187200D01*
X341000D01*
Y186400D01*
Y185600D01*
X340200D01*
Y184800D01*
X338600D01*
Y184000D01*
X337800D01*
Y183200D01*
X337000D01*
Y182400D01*
Y181600D01*
Y180800D01*
X340200D01*
Y180000D01*
X342600D01*
Y179200D01*
X344200D01*
Y178400D01*
X345000D01*
Y177600D01*
X345800D01*
Y176800D01*
Y176000D01*
Y175200D01*
X346600D01*
Y174400D01*
Y173600D01*
X347400D01*
Y172800D01*
Y172000D01*
Y171200D01*
Y170400D01*
Y169600D01*
X346600D01*
Y168800D01*
X345800D01*
Y168000D01*
Y167200D01*
X344200D01*
Y166400D01*
X343400D01*
Y165600D01*
X342600D01*
Y164800D01*
X337000D01*
Y165600D01*
X334600D01*
Y166400D01*
X333800D01*
Y167200D01*
X330600D01*
Y168000D01*
Y168800D01*
Y169600D01*
Y170400D01*
X329800D01*
Y171200D01*
Y172000D01*
Y172800D01*
X330600D01*
Y173600D01*
Y174400D01*
Y175200D01*
Y176000D01*
X327400D01*
Y176800D01*
X325000D01*
Y177600D01*
X323400D01*
Y176800D01*
Y176000D01*
Y175200D01*
X322600D01*
Y174400D01*
Y173600D01*
X321800D01*
Y172800D01*
X321000D01*
Y172000D01*
Y171200D01*
Y170400D01*
Y169600D01*
Y168800D01*
Y168000D01*
X320200D01*
Y167200D01*
X319400D01*
Y166400D01*
Y165600D01*
Y164800D01*
X320200D01*
Y164000D01*
X321800D01*
Y163200D01*
X323400D01*
Y162400D01*
X324200D01*
Y161600D01*
X326600D01*
Y160800D01*
X329800D01*
Y160000D01*
X331400D01*
Y159200D01*
X332200D01*
Y158400D01*
X333800D01*
Y157600D01*
X341000D01*
Y158400D01*
X342600D01*
Y159200D01*
X346600D01*
Y160000D01*
X352200D01*
Y159200D01*
X353000D01*
Y158400D01*
X354600D01*
Y157600D01*
X355400D01*
Y158400D01*
Y159200D01*
X356200D01*
Y160000D01*
X357800D01*
Y159200D01*
X358600D01*
Y158400D01*
X359400D01*
Y157600D01*
X362600D01*
Y156800D01*
X364200D01*
Y156000D01*
X366600D01*
Y155200D01*
X368200D01*
Y154400D01*
X372200D01*
Y153600D01*
X374600D01*
Y152800D01*
X376200D01*
Y152000D01*
X382600D01*
Y151200D01*
X384200D01*
Y150400D01*
X385800D01*
Y149600D01*
X388200D01*
Y148800D01*
X391400D01*
Y148000D01*
X394600D01*
Y147200D01*
X396200D01*
Y146400D01*
X397800D01*
Y145600D01*
X402600D01*
Y144800D01*
X404200D01*
Y144000D01*
X406600D01*
Y143200D01*
X407400D01*
Y142400D01*
X409800D01*
Y141600D01*
X410600D01*
Y140800D01*
X412200D01*
Y140000D01*
Y139200D01*
X413000D01*
Y138400D01*
Y137600D01*
Y136800D01*
Y136000D01*
Y135200D01*
X413800D01*
Y134400D01*
Y133600D01*
Y132800D01*
Y132000D01*
X414600D01*
Y131200D01*
Y130400D01*
Y129600D01*
Y128800D01*
Y128000D01*
Y127200D01*
X415400D01*
Y126400D01*
Y125600D01*
X416200D01*
Y124800D01*
X417000D01*
Y124000D01*
X419400D01*
Y123200D01*
X420200D01*
Y122400D01*
X421000D01*
Y121600D01*
X423400D01*
Y120800D01*
X425000D01*
Y120000D01*
Y119200D01*
X426600D01*
Y118400D01*
X428200D01*
Y117600D01*
X429800D01*
Y116800D01*
X430600D01*
Y116000D01*
Y115200D01*
X433800D01*
Y114400D01*
X436200D01*
Y115200D01*
X437800D01*
Y116000D01*
Y116800D01*
X439400D01*
Y117600D01*
X440200D01*
Y118400D01*
X441800D01*
Y119200D01*
X443400D01*
Y120000D01*
X444200D01*
Y120800D01*
Y121600D01*
X446600D01*
Y122400D01*
Y123200D01*
X447400D01*
Y124000D01*
X449800D01*
Y124800D01*
Y125600D01*
X450600D01*
Y126400D01*
X451400D01*
Y127200D01*
X453000D01*
Y128000D01*
X453800D01*
Y128800D01*
X455400D01*
Y129600D01*
Y130400D01*
X456200D01*
Y131200D01*
X457800D01*
Y132000D01*
X459400D01*
Y132800D01*
X461800D01*
Y132000D01*
Y131200D01*
Y130400D01*
Y129600D01*
Y128800D01*
X461000D01*
Y128000D01*
X460200D01*
Y127200D01*
X458600D01*
Y126400D01*
X457800D01*
Y125600D01*
X457000D01*
Y124800D01*
X456200D01*
Y124000D01*
X454600D01*
Y123200D01*
X453800D01*
Y122400D01*
X453000D01*
Y121600D01*
X450600D01*
Y120800D01*
X449800D01*
Y120000D01*
Y119200D01*
X449000D01*
Y118400D01*
X446600D01*
Y117600D01*
Y116800D01*
X445800D01*
Y116000D01*
X445000D01*
Y115200D01*
X444200D01*
Y114400D01*
X442600D01*
Y113600D01*
X441000D01*
Y112800D01*
Y112000D01*
X437800D01*
Y111200D01*
X436200D01*
Y110400D01*
X435400D01*
Y109600D01*
X434600D01*
Y108800D01*
X432200D01*
Y109600D01*
X430600D01*
Y110400D01*
Y111200D01*
X429800D01*
Y112000D01*
X426600D01*
Y112800D01*
X425800D01*
Y113600D01*
X425000D01*
Y114400D01*
X424200D01*
Y115200D01*
X421800D01*
Y116000D01*
X421000D01*
Y116800D01*
X420200D01*
Y117600D01*
X418600D01*
Y118400D01*
X417000D01*
Y119200D01*
X416200D01*
Y120000D01*
X415400D01*
Y120800D01*
X414600D01*
Y121600D01*
X413000D01*
Y122400D01*
X412200D01*
Y123200D01*
X411400D01*
Y124000D01*
X410600D01*
Y124800D01*
X409800D01*
Y125600D01*
Y126400D01*
Y127200D01*
Y128000D01*
Y128800D01*
Y129600D01*
Y130400D01*
X409000D01*
Y131200D01*
Y132000D01*
Y132800D01*
Y133600D01*
X408200D01*
Y134400D01*
Y135200D01*
Y136000D01*
Y136800D01*
X407400D01*
Y137600D01*
X406600D01*
Y138400D01*
X405800D01*
Y139200D01*
X401800D01*
Y140000D01*
X400200D01*
Y140800D01*
X397800D01*
Y141600D01*
X396200D01*
Y142400D01*
X391400D01*
Y143200D01*
X389800D01*
Y144000D01*
X387400D01*
Y144800D01*
X385000D01*
Y145600D01*
X381800D01*
Y146400D01*
X379400D01*
Y147200D01*
X377800D01*
Y148000D01*
X376200D01*
Y148800D01*
X371400D01*
Y149600D01*
X369800D01*
Y150400D01*
X368200D01*
Y151200D01*
X366600D01*
Y152000D01*
X361000D01*
Y152800D01*
X359400D01*
Y153600D01*
X357800D01*
Y154400D01*
X355400D01*
Y155200D01*
X353800D01*
Y154400D01*
X345800D01*
Y153600D01*
X345000D01*
Y152800D01*
X343400D01*
Y152000D01*
X333800D01*
Y152800D01*
X333000D01*
Y153600D01*
X330600D01*
Y154400D01*
X327400D01*
Y155200D01*
X326600D01*
Y156000D01*
X325000D01*
Y156800D01*
X324200D01*
Y157600D01*
X321000D01*
Y158400D01*
X320200D01*
Y159200D01*
X319400D01*
Y160000D01*
X317800D01*
Y160800D01*
X316200D01*
Y161600D01*
X314600D01*
Y162400D01*
Y163200D01*
Y164000D01*
Y164800D01*
Y165600D01*
Y166400D01*
Y167200D01*
Y168000D01*
Y168800D01*
Y169600D01*
X315400D01*
Y170400D01*
X316200D01*
Y171200D01*
Y172000D01*
Y172800D01*
X317000D01*
Y173600D01*
X317800D01*
Y174400D01*
Y175200D01*
Y176000D01*
X318600D01*
Y176800D01*
X319400D01*
Y177600D01*
Y178400D01*
X320200D01*
Y179200D01*
X321000D01*
Y178400D01*
X322600D01*
Y179200D01*
X321800D01*
Y180000D01*
Y180800D01*
Y181600D01*
Y182400D01*
Y183200D01*
X321000D01*
Y184000D01*
Y184800D01*
Y185600D01*
Y186400D01*
Y187200D01*
Y188000D01*
Y188800D01*
Y189600D01*
Y190400D01*
Y191200D01*
Y192000D01*
X321800D01*
Y192800D01*
Y193600D01*
Y194400D01*
Y195200D01*
Y196000D01*
Y196800D01*
Y197600D01*
X322600D01*
Y198400D01*
Y199200D01*
Y200000D01*
X323400D01*
Y200800D01*
X324200D01*
Y201600D01*
Y202400D01*
Y203200D01*
Y204000D01*
X325800D01*
Y204800D01*
Y205600D01*
X326600D01*
Y206400D01*
Y207200D01*
Y208000D01*
X324200D01*
Y207200D01*
X317000D01*
Y206400D01*
X314600D01*
Y205600D01*
X309000D01*
Y206400D01*
X310600D01*
Y207200D01*
X313000D01*
Y208000D01*
X315400D01*
Y208800D01*
X317800D01*
Y209600D01*
X320200D01*
Y210400D01*
X325000D01*
Y211200D01*
X327400D01*
Y212000D01*
X329800D01*
Y212800D01*
X331400D01*
Y213600D01*
X332200D01*
Y214400D01*
X333000D01*
Y215200D01*
Y216000D01*
X333800D01*
Y216800D01*
Y217600D01*
X333000D01*
Y216800D01*
X326600D01*
Y216000D01*
X317000D01*
Y215200D01*
X312200D01*
Y214400D01*
X306600D01*
Y213600D01*
X302600D01*
Y212800D01*
X281000D01*
Y213600D01*
Y214400D01*
Y215200D01*
X285000D01*
Y214400D01*
X286600D01*
Y215200D01*
X287400D01*
Y216000D01*
X296200D01*
Y216800D01*
X301000D01*
Y217600D01*
X305800D01*
Y218400D01*
X309800D01*
Y219200D01*
X319400D01*
Y220000D01*
X322600D01*
Y220800D01*
X328200D01*
Y221600D01*
X334600D01*
Y222400D01*
X337800D01*
Y223200D01*
X338600D01*
Y224000D01*
X339400D01*
Y224800D01*
Y225600D01*
X340200D01*
Y226400D01*
X341000D01*
Y227200D01*
X341800D01*
Y228000D01*
X342600D01*
Y228800D01*
Y229600D01*
Y230400D01*
Y231200D01*
Y232000D01*
Y232800D01*
Y233600D01*
X341800D01*
Y234400D01*
Y235200D01*
Y236000D01*
Y236800D01*
Y237600D01*
Y238400D01*
Y239200D01*
Y240000D01*
Y240800D01*
Y241600D01*
Y242400D01*
Y243200D01*
X342600D01*
Y244000D01*
Y244800D01*
Y245600D01*
Y246400D01*
Y247200D01*
Y248000D01*
Y248800D01*
Y249600D01*
Y250400D01*
Y251200D01*
Y252000D01*
Y252800D01*
Y253600D01*
X343400D01*
Y254400D01*
Y255200D01*
Y256000D01*
X344200D01*
Y256800D01*
Y257600D01*
Y258400D01*
X345000D01*
Y259200D01*
Y260000D01*
Y260800D01*
X345800D01*
Y261600D01*
Y262400D01*
Y263200D01*
Y264000D01*
Y264800D01*
X346600D01*
Y265600D01*
Y266400D01*
X347400D01*
Y267200D01*
Y268000D01*
Y268800D01*
X345800D01*
Y269600D01*
X344200D01*
Y270400D01*
X343400D01*
Y271200D01*
X341800D01*
Y272000D01*
X341000D01*
Y272800D01*
X339400D01*
Y273600D01*
X338600D01*
Y274400D01*
Y275200D01*
X337800D01*
Y276000D01*
Y276800D01*
X337000D01*
Y277600D01*
Y278400D01*
Y279200D01*
Y280000D01*
X336200D01*
Y280800D01*
X335400D01*
Y281600D01*
Y282400D01*
Y283200D01*
X334600D01*
Y284000D01*
X333800D01*
Y284800D01*
Y285600D01*
Y286400D01*
X333000D01*
Y287200D01*
Y288000D01*
X332200D01*
Y288800D01*
X331400D01*
Y289600D01*
Y290400D01*
X330600D01*
Y291200D01*
Y292000D01*
Y292800D01*
Y293600D01*
Y294400D01*
X329800D01*
Y295200D01*
Y296000D01*
X329000D01*
Y296800D01*
Y297600D01*
Y298400D01*
X328200D01*
Y299200D01*
Y300000D01*
Y300800D01*
X327400D01*
Y301600D01*
Y302400D01*
Y303200D01*
Y304000D01*
Y304800D01*
Y305600D01*
Y306400D01*
Y307200D01*
Y308000D01*
Y308800D01*
X326600D01*
Y309600D01*
Y310400D01*
Y311200D01*
X325800D01*
Y312000D01*
Y312800D01*
Y313600D01*
X327400D01*
Y314400D01*
Y315200D01*
X329000D01*
Y316000D01*
Y316800D01*
Y317600D01*
Y318400D01*
X329800D01*
Y319200D01*
Y320000D01*
X331400D01*
Y320800D01*
X333000D01*
Y321600D01*
X333800D01*
Y322400D01*
X336200D01*
Y323200D01*
X337000D01*
Y324000D01*
X337800D01*
Y324800D01*
X339400D01*
Y325600D01*
X342600D01*
Y326400D01*
X344200D01*
Y327200D01*
X346600D01*
Y328000D01*
X351400D01*
Y328800D01*
X361000D01*
Y329600D01*
X365800D01*
Y330400D01*
X382600D01*
Y329600D01*
X385000D01*
Y328800D01*
X387400D01*
Y328000D01*
X388200D01*
Y327200D01*
X389000D01*
Y326400D01*
X393000D01*
Y327200D01*
X394600D01*
Y328000D01*
X395400D01*
Y328800D01*
X399400D01*
Y329600D01*
X401800D01*
Y330400D01*
X403400D01*
Y331200D01*
X405000D01*
Y332000D01*
X409800D01*
Y332800D01*
X413000D01*
Y333600D01*
X415400D01*
Y334400D01*
X418600D01*
Y335200D01*
X425000D01*
Y334400D01*
X429800D01*
Y335200D01*
Y336000D01*
X430600D01*
Y336800D01*
Y337600D01*
Y338400D01*
Y339200D01*
Y340000D01*
Y340800D01*
Y341600D01*
Y342400D01*
Y343200D01*
Y344000D01*
Y344800D01*
Y345600D01*
X429800D01*
Y346400D01*
Y347200D01*
Y348000D01*
Y348800D01*
X429000D01*
Y349600D01*
Y350400D01*
X428200D01*
Y351200D01*
Y352000D01*
Y352800D01*
X427400D01*
Y353600D01*
Y354400D01*
X426600D01*
Y355200D01*
Y356000D01*
X427400D01*
Y356800D01*
X428200D01*
Y357600D01*
X429800D01*
Y358400D01*
X435400D01*
Y357600D01*
X440200D01*
Y356800D01*
X445800D01*
Y356000D01*
X449800D01*
Y355200D01*
X453000D01*
Y354400D01*
X454600D01*
Y353600D01*
X456200D01*
Y352800D01*
X458600D01*
Y352000D01*
X459400D01*
Y351200D01*
X461000D01*
Y350400D01*
X465000D01*
Y349600D01*
X465800D01*
Y348800D01*
X467400D01*
Y348000D01*
X469000D01*
Y347200D01*
X471400D01*
Y346400D01*
X473000D01*
Y345600D01*
X473800D01*
Y344800D01*
X474600D01*
Y344000D01*
X477000D01*
Y343200D01*
Y342400D01*
X478600D01*
Y341600D01*
X479400D01*
Y340800D01*
X481000D01*
Y340000D01*
X481800D01*
Y339200D01*
X483400D01*
Y338400D01*
Y337600D01*
X485000D01*
Y336800D01*
X485800D01*
Y336000D01*
X486600D01*
Y335200D01*
X489000D01*
Y334400D01*
Y333600D01*
X489800D01*
Y332800D01*
Y332000D01*
X491400D01*
Y331200D01*
X492200D01*
Y330400D01*
Y329600D01*
Y328800D01*
X493800D01*
Y328000D01*
X494600D01*
Y327200D01*
X495400D01*
Y326400D01*
Y325600D01*
X496200D01*
Y324800D01*
X497000D01*
Y324000D01*
X497800D01*
Y323200D01*
X498600D01*
Y322400D01*
X499400D01*
Y321600D01*
X500200D01*
Y320800D01*
Y320000D01*
X501800D01*
Y319200D01*
Y318400D01*
X502600D01*
Y317600D01*
Y316800D01*
X504200D01*
Y316000D01*
X505000D01*
Y316800D01*
X505800D01*
Y317600D01*
X506600D01*
Y318400D01*
X507400D01*
Y319200D01*
Y320000D01*
X508200D01*
Y320800D01*
Y321600D01*
Y322400D01*
X509800D01*
Y323200D01*
Y324000D01*
X510600D01*
Y324800D01*
Y325600D01*
X511400D01*
Y326400D01*
X512200D01*
Y327200D01*
X513000D01*
Y328000D01*
X513800D01*
Y328800D01*
X514600D01*
Y329600D01*
X515400D01*
Y330400D01*
X516200D01*
Y331200D01*
Y332000D01*
X517000D01*
Y332800D01*
X517800D01*
Y333600D01*
X518600D01*
Y334400D01*
X519400D01*
Y335200D01*
X521800D01*
Y336000D01*
X522600D01*
Y336800D01*
X523400D01*
Y337600D01*
Y338400D01*
X524200D01*
Y339200D01*
X525800D01*
Y340000D01*
Y340800D01*
X527400D01*
Y341600D01*
X529000D01*
Y342400D01*
Y343200D01*
X530600D01*
Y344000D01*
X532200D01*
Y344800D01*
X533000D01*
Y345600D01*
X534600D01*
Y346400D01*
X535400D01*
Y347200D01*
X537800D01*
Y348000D01*
X538600D01*
Y348800D01*
X539400D01*
Y349600D01*
X540200D01*
Y350400D01*
X544200D01*
Y351200D01*
X545000D01*
Y352000D01*
X546600D01*
Y352800D01*
X550600D01*
Y353600D01*
X551400D01*
Y354400D01*
X553800D01*
Y355200D01*
X554600D01*
Y356000D01*
X557000D01*
Y356800D01*
X559400D01*
Y357600D01*
X561000D01*
Y358400D01*
X563400D01*
Y359200D01*
X566600D01*
Y360000D01*
X569000D01*
Y360800D01*
X570600D01*
Y361600D01*
X573800D01*
Y362400D01*
X605800D01*
Y361600D01*
X609000D01*
Y360800D01*
X612200D01*
Y360000D01*
X613800D01*
Y360800D01*
Y361600D01*
X613000D01*
Y362400D01*
X612200D01*
Y363200D01*
Y364000D01*
Y364800D01*
Y365600D01*
X610600D01*
Y366400D01*
X609800D01*
Y367200D01*
X609000D01*
Y368000D01*
Y368800D01*
X608200D01*
Y369600D01*
X607400D01*
Y370400D01*
Y371200D01*
X605800D01*
Y372000D01*
Y372800D01*
Y373600D01*
X605000D01*
Y374400D01*
X603400D01*
Y375200D01*
X602600D01*
Y376000D01*
Y376800D01*
X601000D01*
Y377600D01*
X600200D01*
Y378400D01*
Y379200D01*
X599400D01*
Y380000D01*
X597800D01*
Y380800D01*
X596200D01*
Y381600D01*
X595400D01*
Y382400D01*
X594600D01*
Y383200D01*
X593800D01*
Y384000D01*
X592200D01*
Y384800D01*
Y385600D01*
X591400D01*
Y386400D01*
X590600D01*
Y387200D01*
X589800D01*
Y388000D01*
Y388800D01*
X589000D01*
Y389600D01*
X588200D01*
Y390400D01*
Y391200D01*
Y392000D01*
X587400D01*
Y392800D01*
Y393600D01*
Y394400D01*
Y395200D01*
Y396000D01*
X586600D01*
Y396800D01*
Y397600D01*
Y398400D01*
Y399200D01*
X585800D01*
Y400000D01*
Y400800D01*
Y401600D01*
Y402400D01*
Y403200D01*
Y404000D01*
Y404800D01*
Y405600D01*
Y406400D01*
Y407200D01*
Y408000D01*
Y408800D01*
Y409600D01*
Y410400D01*
Y411200D01*
Y412000D01*
Y412800D01*
Y413600D01*
Y414400D01*
Y415200D01*
Y416000D01*
Y416800D01*
X586600D01*
Y417600D01*
Y418400D01*
Y419200D01*
Y420000D01*
Y420800D01*
Y421600D01*
X587400D01*
Y422400D01*
Y423200D01*
Y424000D01*
Y424800D01*
Y425600D01*
Y426400D01*
Y427200D01*
Y428000D01*
Y428800D01*
Y429600D01*
Y430400D01*
X588200D01*
Y431200D01*
Y432000D01*
Y432800D01*
Y433600D01*
X589000D01*
Y434400D01*
Y435200D01*
Y436000D01*
X589800D01*
Y436800D01*
Y437600D01*
Y438400D01*
X590600D01*
Y439200D01*
Y440000D01*
Y440800D01*
Y441600D01*
X591400D01*
Y442400D01*
X592200D01*
Y443200D01*
Y444000D01*
X593000D01*
Y444800D01*
Y445600D01*
X593800D01*
Y446400D01*
Y447200D01*
Y448000D01*
X594600D01*
Y448800D01*
X595400D01*
Y449600D01*
Y450400D01*
X596200D01*
Y451200D01*
X597000D01*
Y452000D01*
Y452800D01*
Y453600D01*
Y454400D01*
X597800D01*
Y455200D01*
X598600D01*
Y456000D01*
Y456800D01*
X600200D01*
Y457600D01*
Y458400D01*
X601000D01*
Y459200D01*
Y460000D01*
X601800D01*
Y460800D01*
X602600D01*
Y461600D01*
Y462400D01*
Y463200D01*
X604200D01*
Y464000D01*
Y464800D01*
X605000D01*
Y465600D01*
X605800D01*
Y466400D01*
X606600D01*
Y467200D01*
X607400D01*
Y468000D01*
X608200D01*
Y468800D01*
X609000D01*
Y469600D01*
X609800D01*
Y470400D01*
X610600D01*
Y471200D01*
X611400D01*
Y472000D01*
X613800D01*
Y472800D01*
X615400D01*
Y473600D01*
X616200D01*
Y474400D01*
X617000D01*
Y475200D01*
X619400D01*
Y476000D01*
X621000D01*
Y476800D01*
X622600D01*
Y477600D01*
X624200D01*
Y478400D01*
X627400D01*
Y479200D01*
X631400D01*
Y480000D01*
X636200D01*
Y479200D01*
D02*
G37*
G36*
X534600Y161600D02*
Y160800D01*
X533800D01*
Y160000D01*
X533000D01*
Y159200D01*
Y158400D01*
X535400D01*
Y157600D01*
Y156800D01*
Y156000D01*
X533800D01*
Y155200D01*
X532200D01*
Y154400D01*
X528200D01*
Y155200D01*
X529000D01*
Y156000D01*
Y156800D01*
Y157600D01*
Y158400D01*
Y159200D01*
Y160000D01*
X529800D01*
Y160800D01*
X531400D01*
Y161600D01*
X532200D01*
Y162400D01*
X534600D01*
Y161600D01*
D02*
G37*
%LPC*%
G36*
X638600Y474400D02*
X630600D01*
Y473600D01*
X627400D01*
Y472800D01*
X625800D01*
Y472000D01*
X621800D01*
Y471200D01*
X621000D01*
Y470400D01*
X619400D01*
Y469600D01*
X617800D01*
Y468800D01*
X617000D01*
Y468000D01*
X616200D01*
Y467200D01*
X615400D01*
Y466400D01*
X614600D01*
Y465600D01*
X613800D01*
Y464800D01*
X613000D01*
Y464000D01*
X612200D01*
Y463200D01*
X611400D01*
Y462400D01*
X610600D01*
Y461600D01*
X609800D01*
Y460800D01*
X609000D01*
Y460000D01*
Y459200D01*
X608200D01*
Y458400D01*
X607400D01*
Y457600D01*
Y456800D01*
X605800D01*
Y456000D01*
Y455200D01*
X605000D01*
Y454400D01*
X604200D01*
Y453600D01*
X603400D01*
Y452800D01*
Y452000D01*
X602600D01*
Y451200D01*
Y450400D01*
Y449600D01*
X601800D01*
Y448800D01*
X601000D01*
Y448000D01*
X600200D01*
Y447200D01*
Y446400D01*
Y445600D01*
Y444800D01*
Y444000D01*
X599400D01*
Y443200D01*
Y442400D01*
Y441600D01*
X597800D01*
Y440800D01*
Y440000D01*
Y439200D01*
X597000D01*
Y438400D01*
Y437600D01*
X596200D01*
Y436800D01*
Y436000D01*
X595400D01*
Y435200D01*
Y434400D01*
X594600D01*
Y433600D01*
Y432800D01*
Y432000D01*
Y431200D01*
Y430400D01*
Y429600D01*
X593800D01*
Y428800D01*
Y428000D01*
Y427200D01*
Y426400D01*
Y425600D01*
Y424800D01*
Y424000D01*
Y423200D01*
Y422400D01*
Y421600D01*
Y420800D01*
X593000D01*
Y420000D01*
Y419200D01*
Y418400D01*
Y417600D01*
Y416800D01*
X592200D01*
Y416000D01*
Y415200D01*
Y414400D01*
Y413600D01*
Y412800D01*
Y412000D01*
Y411200D01*
X591400D01*
Y410400D01*
Y409600D01*
Y408800D01*
Y408000D01*
Y407200D01*
Y406400D01*
Y405600D01*
X592200D01*
Y404800D01*
Y404000D01*
Y403200D01*
Y402400D01*
Y401600D01*
Y400800D01*
Y400000D01*
Y399200D01*
Y398400D01*
X593000D01*
Y397600D01*
Y396800D01*
Y396000D01*
X593800D01*
Y395200D01*
Y394400D01*
Y393600D01*
Y392800D01*
Y392000D01*
X594600D01*
Y391200D01*
Y390400D01*
X595400D01*
Y389600D01*
X596200D01*
Y388800D01*
X597000D01*
Y388000D01*
Y387200D01*
X597800D01*
Y386400D01*
X599400D01*
Y385600D01*
X600200D01*
Y384800D01*
X601000D01*
Y384000D01*
Y383200D01*
X602600D01*
Y382400D01*
X603400D01*
Y381600D01*
X604200D01*
Y380800D01*
X605800D01*
Y380000D01*
X606600D01*
Y379200D01*
X607400D01*
Y378400D01*
X609000D01*
Y377600D01*
X609800D01*
Y376800D01*
Y376000D01*
X610600D01*
Y375200D01*
X611400D01*
Y374400D01*
X612200D01*
Y373600D01*
X613000D01*
Y372800D01*
Y372000D01*
X613800D01*
Y371200D01*
X614600D01*
Y370400D01*
X615400D01*
Y369600D01*
Y368800D01*
Y368000D01*
X616200D01*
Y367200D01*
X617000D01*
Y366400D01*
Y365600D01*
X617800D01*
Y364800D01*
Y364000D01*
X618600D01*
Y363200D01*
Y362400D01*
X619400D01*
Y361600D01*
Y360800D01*
Y360000D01*
X620200D01*
Y359200D01*
Y358400D01*
X621000D01*
Y357600D01*
Y356800D01*
Y356000D01*
X624200D01*
Y355200D01*
X625000D01*
Y354400D01*
X626600D01*
Y353600D01*
X628200D01*
Y352800D01*
X630600D01*
Y352000D01*
X631400D01*
Y351200D01*
X632200D01*
Y350400D01*
X633000D01*
Y349600D01*
X633800D01*
Y348800D01*
X634600D01*
Y348000D01*
X636200D01*
Y347200D01*
X637000D01*
Y346400D01*
X637800D01*
Y345600D01*
X638600D01*
Y344800D01*
X639400D01*
Y344000D01*
X640200D01*
Y343200D01*
X641000D01*
Y342400D01*
X641800D01*
Y341600D01*
X642600D01*
Y340800D01*
X643400D01*
Y341600D01*
Y342400D01*
Y343200D01*
Y344000D01*
Y344800D01*
Y345600D01*
Y346400D01*
Y347200D01*
Y348000D01*
Y348800D01*
X642600D01*
Y349600D01*
Y350400D01*
Y351200D01*
Y352000D01*
Y352800D01*
X641800D01*
Y353600D01*
Y354400D01*
Y355200D01*
Y356000D01*
X641000D01*
Y356800D01*
Y357600D01*
X640200D01*
Y358400D01*
Y359200D01*
X639400D01*
Y360000D01*
Y360800D01*
Y361600D01*
Y362400D01*
X638600D01*
Y363200D01*
X637800D01*
Y364000D01*
X637000D01*
Y364800D01*
Y365600D01*
X636200D01*
Y366400D01*
X635400D01*
Y367200D01*
Y368000D01*
X633800D01*
Y368800D01*
Y369600D01*
X633000D01*
Y370400D01*
Y371200D01*
X632200D01*
Y372000D01*
Y372800D01*
X631400D01*
Y373600D01*
X630600D01*
Y374400D01*
Y375200D01*
X629800D01*
Y376000D01*
X629000D01*
Y376800D01*
X628200D01*
Y377600D01*
X627400D01*
Y378400D01*
Y379200D01*
X626600D01*
Y380000D01*
X625800D01*
Y380800D01*
X623400D01*
Y381600D01*
X622600D01*
Y382400D01*
X621800D01*
Y383200D01*
X620200D01*
Y384000D01*
X619400D01*
Y384800D01*
X618600D01*
Y385600D01*
X617800D01*
Y386400D01*
X617000D01*
Y387200D01*
X616200D01*
Y388000D01*
X615400D01*
Y388800D01*
Y389600D01*
X613800D01*
Y390400D01*
X613000D01*
Y391200D01*
X612200D01*
Y392000D01*
Y392800D01*
X610600D01*
Y393600D01*
Y394400D01*
X609800D01*
Y395200D01*
X609000D01*
Y396000D01*
X608200D01*
Y396800D01*
Y397600D01*
X607400D01*
Y398400D01*
X606600D01*
Y399200D01*
X605800D01*
Y400000D01*
Y400800D01*
Y401600D01*
X605000D01*
Y402400D01*
Y403200D01*
X604200D01*
Y404000D01*
Y404800D01*
X603400D01*
Y405600D01*
Y406400D01*
Y407200D01*
X602600D01*
Y408000D01*
Y408800D01*
Y409600D01*
Y410400D01*
Y411200D01*
Y412000D01*
Y412800D01*
Y413600D01*
Y414400D01*
Y415200D01*
Y416000D01*
Y416800D01*
Y417600D01*
Y418400D01*
X603400D01*
Y419200D01*
Y420000D01*
Y420800D01*
Y421600D01*
Y422400D01*
Y423200D01*
Y424000D01*
X604200D01*
Y424800D01*
Y425600D01*
Y426400D01*
X605000D01*
Y427200D01*
Y428000D01*
Y428800D01*
Y429600D01*
X605800D01*
Y430400D01*
Y431200D01*
Y432000D01*
Y432800D01*
Y433600D01*
Y434400D01*
Y435200D01*
Y436000D01*
X606600D01*
Y436800D01*
Y437600D01*
Y438400D01*
X607400D01*
Y439200D01*
X608200D01*
Y440000D01*
Y440800D01*
Y441600D01*
X609000D01*
Y442400D01*
Y443200D01*
X609800D01*
Y444000D01*
Y444800D01*
X611400D01*
Y445600D01*
Y446400D01*
X612200D01*
Y447200D01*
Y448000D01*
X613000D01*
Y448800D01*
X613800D01*
Y449600D01*
X614600D01*
Y450400D01*
X615400D01*
Y451200D01*
X616200D01*
Y452000D01*
X617000D01*
Y452800D01*
Y453600D01*
X617800D01*
Y454400D01*
X619400D01*
Y455200D01*
X620200D01*
Y456000D01*
X621800D01*
Y456800D01*
X625000D01*
Y457600D01*
X627400D01*
Y458400D01*
X629800D01*
Y459200D01*
X635400D01*
Y458400D01*
X637000D01*
Y457600D01*
X638600D01*
Y456800D01*
X641000D01*
Y456000D01*
X642600D01*
Y455200D01*
Y454400D01*
X644200D01*
Y453600D01*
X645000D01*
Y452800D01*
X645800D01*
Y452000D01*
Y451200D01*
Y450400D01*
X646600D01*
Y449600D01*
X647400D01*
Y448800D01*
Y448000D01*
X648200D01*
Y447200D01*
Y446400D01*
Y445600D01*
Y444800D01*
Y444000D01*
Y443200D01*
Y442400D01*
Y441600D01*
X649000D01*
Y440800D01*
Y440000D01*
Y439200D01*
Y438400D01*
Y437600D01*
X649800D01*
Y436800D01*
Y436000D01*
X650600D01*
Y435200D01*
Y434400D01*
X651400D01*
Y433600D01*
Y432800D01*
X655400D01*
Y433600D01*
X656200D01*
Y434400D01*
X657800D01*
Y435200D01*
Y436000D01*
X658600D01*
Y436800D01*
X659400D01*
Y437600D01*
Y438400D01*
X660200D01*
Y439200D01*
Y440000D01*
X661000D01*
Y440800D01*
Y441600D01*
Y442400D01*
Y443200D01*
Y444000D01*
Y444800D01*
Y445600D01*
Y446400D01*
Y447200D01*
Y448000D01*
Y448800D01*
Y449600D01*
Y450400D01*
Y451200D01*
Y452000D01*
Y452800D01*
Y453600D01*
Y454400D01*
Y455200D01*
Y456000D01*
Y456800D01*
X660200D01*
Y457600D01*
Y458400D01*
X659400D01*
Y459200D01*
Y460000D01*
X658600D01*
Y460800D01*
X657800D01*
Y461600D01*
Y462400D01*
X657000D01*
Y463200D01*
X656200D01*
Y464000D01*
X655400D01*
Y464800D01*
X654600D01*
Y465600D01*
Y466400D01*
X652200D01*
Y467200D01*
X651400D01*
Y468000D01*
Y468800D01*
X650600D01*
Y469600D01*
X648200D01*
Y470400D01*
Y471200D01*
X647400D01*
Y472000D01*
X643400D01*
Y472800D01*
X642600D01*
Y473600D01*
X638600D01*
Y474400D01*
D02*
G37*
G36*
X598600Y356800D02*
X581000D01*
Y356000D01*
X573000D01*
Y355200D01*
X570600D01*
Y354400D01*
X569000D01*
Y353600D01*
X566600D01*
Y352800D01*
X563400D01*
Y352000D01*
X561800D01*
Y351200D01*
X560200D01*
Y350400D01*
X555400D01*
Y349600D01*
X553800D01*
Y348800D01*
X551400D01*
Y348000D01*
X549800D01*
Y347200D01*
X547400D01*
Y346400D01*
X546600D01*
Y345600D01*
X545000D01*
Y344800D01*
X544200D01*
Y344000D01*
X541000D01*
Y343200D01*
Y342400D01*
X539400D01*
Y341600D01*
X538600D01*
Y340800D01*
X537000D01*
Y340000D01*
X535400D01*
Y339200D01*
X534600D01*
Y338400D01*
X533800D01*
Y337600D01*
X532200D01*
Y336800D01*
X530600D01*
Y336000D01*
X529800D01*
Y335200D01*
X528200D01*
Y334400D01*
X526600D01*
Y333600D01*
X525800D01*
Y332800D01*
Y332000D01*
X524200D01*
Y331200D01*
X523400D01*
Y330400D01*
Y329600D01*
X522600D01*
Y328800D01*
X521000D01*
Y328000D01*
X520200D01*
Y327200D01*
Y326400D01*
Y325600D01*
X518600D01*
Y324800D01*
X517800D01*
Y324000D01*
X517000D01*
Y323200D01*
Y322400D01*
X516200D01*
Y321600D01*
X515400D01*
Y320800D01*
X514600D01*
Y320000D01*
X513800D01*
Y319200D01*
X513000D01*
Y318400D01*
Y317600D01*
X512200D01*
Y316800D01*
X511400D01*
Y316000D01*
Y315200D01*
X510600D01*
Y314400D01*
Y313600D01*
X509800D01*
Y312800D01*
X509000D01*
Y312000D01*
X508200D01*
Y311200D01*
Y310400D01*
Y309600D01*
Y308800D01*
X507400D01*
Y308000D01*
X506600D01*
Y307200D01*
X505800D01*
Y306400D01*
X505000D01*
Y305600D01*
X503400D01*
Y306400D01*
X502600D01*
Y307200D01*
X501800D01*
Y308000D01*
Y308800D01*
X501000D01*
Y309600D01*
Y310400D01*
X499400D01*
Y311200D01*
X498600D01*
Y312000D01*
Y312800D01*
Y313600D01*
X497000D01*
Y314400D01*
Y315200D01*
X496200D01*
Y316000D01*
X495400D01*
Y316800D01*
Y317600D01*
X494600D01*
Y318400D01*
X493800D01*
Y319200D01*
X493000D01*
Y320000D01*
X492200D01*
Y320800D01*
Y321600D01*
X491400D01*
Y322400D01*
X489800D01*
Y323200D01*
Y324000D01*
X489000D01*
Y324800D01*
X488200D01*
Y325600D01*
X486600D01*
Y326400D01*
Y327200D01*
X485800D01*
Y328000D01*
X485000D01*
Y328800D01*
X483400D01*
Y329600D01*
Y330400D01*
X482600D01*
Y331200D01*
X481800D01*
Y332000D01*
X480200D01*
Y332800D01*
Y333600D01*
X478600D01*
Y334400D01*
X477800D01*
Y335200D01*
X477000D01*
Y336000D01*
X475400D01*
Y336800D01*
X474600D01*
Y337600D01*
X472200D01*
Y338400D01*
X471400D01*
Y339200D01*
X470600D01*
Y340000D01*
X469000D01*
Y340800D01*
X467400D01*
Y341600D01*
X465800D01*
Y342400D01*
X465000D01*
Y343200D01*
X463400D01*
Y344000D01*
X461800D01*
Y344800D01*
X460200D01*
Y345600D01*
X458600D01*
Y346400D01*
X457000D01*
Y347200D01*
X453800D01*
Y348000D01*
X453000D01*
Y348800D01*
X451400D01*
Y349600D01*
X449800D01*
Y350400D01*
X448200D01*
Y349600D01*
Y348800D01*
X449000D01*
Y348000D01*
X449800D01*
Y347200D01*
X450600D01*
Y346400D01*
X451400D01*
Y345600D01*
X453000D01*
Y344800D01*
Y344000D01*
X453800D01*
Y343200D01*
X455400D01*
Y342400D01*
X456200D01*
Y341600D01*
Y340800D01*
X457800D01*
Y340000D01*
X458600D01*
Y339200D01*
X459400D01*
Y338400D01*
Y337600D01*
X460200D01*
Y336800D01*
Y336000D01*
X461000D01*
Y335200D01*
X461800D01*
Y334400D01*
Y333600D01*
X462600D01*
Y332800D01*
X463400D01*
Y332000D01*
X464200D01*
Y331200D01*
Y330400D01*
X465000D01*
Y329600D01*
Y328800D01*
Y328000D01*
X465800D01*
Y327200D01*
X466600D01*
Y326400D01*
Y325600D01*
X468200D01*
Y324800D01*
Y324000D01*
Y323200D01*
Y322400D01*
X469000D01*
Y321600D01*
Y320800D01*
X469800D01*
Y320000D01*
X470600D01*
Y319200D01*
X471400D01*
Y318400D01*
Y317600D01*
Y316800D01*
X472200D01*
Y316000D01*
Y315200D01*
X473000D01*
Y314400D01*
Y313600D01*
X473800D01*
Y312800D01*
X474600D01*
Y312000D01*
Y311200D01*
Y310400D01*
Y309600D01*
X475400D01*
Y308800D01*
Y308000D01*
X476200D01*
Y307200D01*
X477000D01*
Y306400D01*
Y305600D01*
Y304800D01*
X474600D01*
Y304000D01*
X473000D01*
Y304800D01*
X471400D01*
Y305600D01*
X470600D01*
Y306400D01*
Y307200D01*
X469800D01*
Y308000D01*
Y308800D01*
X469000D01*
Y309600D01*
Y310400D01*
X468200D01*
Y311200D01*
Y312000D01*
Y312800D01*
X467400D01*
Y313600D01*
X466600D01*
Y314400D01*
Y315200D01*
Y316000D01*
X465800D01*
Y316800D01*
X465000D01*
Y317600D01*
Y318400D01*
Y319200D01*
Y320000D01*
X464200D01*
Y320800D01*
X463400D01*
Y321600D01*
Y322400D01*
X462600D01*
Y323200D01*
X461800D01*
Y324000D01*
Y324800D01*
Y325600D01*
Y326400D01*
X461000D01*
Y327200D01*
Y328000D01*
X460200D01*
Y328800D01*
X459400D01*
Y329600D01*
Y330400D01*
X458600D01*
Y331200D01*
Y332000D01*
X457000D01*
Y332800D01*
Y333600D01*
X456200D01*
Y334400D01*
Y335200D01*
X454600D01*
Y336000D01*
X453800D01*
Y336800D01*
X453000D01*
Y337600D01*
Y338400D01*
X452200D01*
Y339200D01*
X451400D01*
Y340000D01*
X449800D01*
Y340800D01*
X449000D01*
Y341600D01*
X448200D01*
Y342400D01*
X447400D01*
Y343200D01*
X446600D01*
Y344000D01*
X445800D01*
Y344800D01*
Y345600D01*
X445000D01*
Y346400D01*
X444200D01*
Y347200D01*
X442600D01*
Y348000D01*
X441000D01*
Y348800D01*
X440200D01*
Y349600D01*
X439400D01*
Y350400D01*
X434600D01*
Y351200D01*
X433800D01*
Y352000D01*
X433000D01*
Y351200D01*
Y350400D01*
X433800D01*
Y349600D01*
Y348800D01*
Y348000D01*
Y347200D01*
Y346400D01*
Y345600D01*
Y344800D01*
X434600D01*
Y344000D01*
Y343200D01*
X435400D01*
Y342400D01*
Y341600D01*
Y340800D01*
Y340000D01*
Y339200D01*
Y338400D01*
Y337600D01*
Y336800D01*
Y336000D01*
Y335200D01*
X434600D01*
Y334400D01*
Y333600D01*
Y332800D01*
Y332000D01*
X435400D01*
Y331200D01*
Y330400D01*
Y329600D01*
Y328800D01*
X434600D01*
Y328000D01*
X433000D01*
Y327200D01*
X431400D01*
Y326400D01*
X430600D01*
Y327200D01*
Y328000D01*
X429000D01*
Y328800D01*
X426600D01*
Y329600D01*
X420200D01*
Y328800D01*
X413000D01*
Y328000D01*
X410600D01*
Y327200D01*
X408200D01*
Y326400D01*
X406600D01*
Y325600D01*
X402600D01*
Y324800D01*
X400200D01*
Y324000D01*
X399400D01*
Y323200D01*
X397800D01*
Y322400D01*
X393800D01*
Y321600D01*
X392200D01*
Y320800D01*
X391400D01*
Y320000D01*
X387400D01*
Y319200D01*
X385800D01*
Y318400D01*
X385000D01*
Y317600D01*
X384200D01*
Y316800D01*
X382600D01*
Y316000D01*
Y315200D01*
X381800D01*
Y314400D01*
X380200D01*
Y313600D01*
X378600D01*
Y314400D01*
X377800D01*
Y315200D01*
X377000D01*
Y316000D01*
Y316800D01*
Y317600D01*
X377800D01*
Y318400D01*
X378600D01*
Y319200D01*
X379400D01*
Y320000D01*
X381800D01*
Y320800D01*
X382600D01*
Y321600D01*
X383400D01*
Y322400D01*
X385000D01*
Y323200D01*
Y324000D01*
Y324800D01*
Y325600D01*
X365800D01*
Y324800D01*
X360200D01*
Y324000D01*
X354600D01*
Y323200D01*
X351400D01*
Y322400D01*
X345800D01*
Y321600D01*
X344200D01*
Y320800D01*
X342600D01*
Y320000D01*
X339400D01*
Y319200D01*
X337800D01*
Y318400D01*
X337000D01*
Y317600D01*
X336200D01*
Y316800D01*
X334600D01*
Y316000D01*
X338600D01*
Y315200D01*
X340200D01*
Y314400D01*
X344200D01*
Y313600D01*
X349000D01*
Y312800D01*
X350600D01*
Y312000D01*
X352200D01*
Y311200D01*
Y310400D01*
X353800D01*
Y309600D01*
X354600D01*
Y308800D01*
X355400D01*
Y308000D01*
X356200D01*
Y307200D01*
X357800D01*
Y306400D01*
X358600D01*
Y305600D01*
X359400D01*
Y304800D01*
X361800D01*
Y304000D01*
X362600D01*
Y303200D01*
X363400D01*
Y302400D01*
X364200D01*
Y301600D01*
X365000D01*
Y300800D01*
X365800D01*
Y300000D01*
X366600D01*
Y299200D01*
X367400D01*
Y298400D01*
X368200D01*
Y297600D01*
Y296800D01*
Y296000D01*
Y295200D01*
X367400D01*
Y294400D01*
Y293600D01*
X366600D01*
Y292800D01*
X365800D01*
Y292000D01*
X364200D01*
Y291200D01*
Y290400D01*
Y289600D01*
X363400D01*
Y288800D01*
X362600D01*
Y288000D01*
X361800D01*
Y287200D01*
X361000D01*
Y286400D01*
Y285600D01*
Y284800D01*
Y284000D01*
X360200D01*
Y283200D01*
X359400D01*
Y282400D01*
Y281600D01*
X358600D01*
Y280800D01*
Y280000D01*
X357800D01*
Y279200D01*
Y278400D01*
X357000D01*
Y277600D01*
Y276800D01*
Y276000D01*
X356200D01*
Y275200D01*
Y274400D01*
X355400D01*
Y273600D01*
X354600D01*
Y272800D01*
Y272000D01*
Y271200D01*
Y270400D01*
Y269600D01*
X353800D01*
Y268800D01*
Y268000D01*
X353000D01*
Y267200D01*
Y266400D01*
Y265600D01*
Y264800D01*
X352200D01*
Y264000D01*
Y263200D01*
Y262400D01*
Y261600D01*
Y260800D01*
Y260000D01*
X351400D01*
Y259200D01*
Y258400D01*
X350600D01*
Y257600D01*
Y256800D01*
Y256000D01*
X349800D01*
Y255200D01*
Y254400D01*
Y253600D01*
Y252800D01*
X349000D01*
Y252000D01*
Y251200D01*
Y250400D01*
Y249600D01*
Y248800D01*
Y248000D01*
Y247200D01*
Y246400D01*
Y245600D01*
Y244800D01*
Y244000D01*
Y243200D01*
X348200D01*
Y242400D01*
Y241600D01*
Y240800D01*
Y240000D01*
Y239200D01*
Y238400D01*
Y237600D01*
Y236800D01*
Y236000D01*
Y235200D01*
Y234400D01*
Y233600D01*
Y232800D01*
Y232000D01*
Y231200D01*
X349000D01*
Y230400D01*
Y229600D01*
Y228800D01*
Y228000D01*
Y227200D01*
Y226400D01*
Y225600D01*
X349800D01*
Y224800D01*
Y224000D01*
Y223200D01*
X355400D01*
Y222400D01*
X356200D01*
Y221600D01*
X357000D01*
Y220800D01*
Y220000D01*
Y219200D01*
X352200D01*
Y218400D01*
Y217600D01*
X353000D01*
Y216800D01*
X356200D01*
Y216000D01*
X357800D01*
Y215200D01*
Y214400D01*
X358600D01*
Y213600D01*
Y212800D01*
X354600D01*
Y212000D01*
Y211200D01*
Y210400D01*
X353000D01*
Y209600D01*
X351400D01*
Y210400D01*
X349000D01*
Y211200D01*
Y212000D01*
Y212800D01*
X344200D01*
Y212000D01*
X341000D01*
Y211200D01*
X337000D01*
Y210400D01*
X334600D01*
Y209600D01*
X333800D01*
Y208800D01*
Y208000D01*
Y207200D01*
X332200D01*
Y206400D01*
Y205600D01*
X331400D01*
Y204800D01*
Y204000D01*
X330600D01*
Y203200D01*
Y202400D01*
X329800D01*
Y201600D01*
Y200800D01*
X329000D01*
Y200000D01*
Y199200D01*
X328200D01*
Y198400D01*
X327400D01*
Y197600D01*
Y196800D01*
Y196000D01*
Y195200D01*
X326600D01*
Y194400D01*
Y193600D01*
Y192800D01*
Y192000D01*
Y191200D01*
X325800D01*
Y190400D01*
Y189600D01*
Y188800D01*
Y188000D01*
Y187200D01*
Y186400D01*
Y185600D01*
Y184800D01*
Y184000D01*
Y183200D01*
Y182400D01*
X326600D01*
Y181600D01*
X327400D01*
Y180800D01*
X328200D01*
Y181600D01*
X329800D01*
Y182400D01*
X331400D01*
Y183200D01*
X332200D01*
Y184000D01*
X333000D01*
Y184800D01*
X333800D01*
Y185600D01*
Y186400D01*
X334600D01*
Y187200D01*
X335400D01*
Y188000D01*
X337000D01*
Y188800D01*
Y189600D01*
Y190400D01*
X337800D01*
Y191200D01*
X339400D01*
Y192000D01*
Y192800D01*
X340200D01*
Y193600D01*
X341000D01*
Y194400D01*
X341800D01*
Y195200D01*
X343400D01*
Y196000D01*
X344200D01*
Y196800D01*
X345000D01*
Y197600D01*
X349000D01*
Y198400D01*
X349800D01*
Y199200D01*
X352200D01*
Y200000D01*
X353800D01*
Y200800D01*
X357800D01*
Y201600D01*
Y202400D01*
Y203200D01*
Y204000D01*
Y204800D01*
Y205600D01*
X359400D01*
Y206400D01*
X360200D01*
Y205600D01*
X361000D01*
Y204800D01*
X361800D01*
Y204000D01*
X363400D01*
Y203200D01*
X364200D01*
Y202400D01*
X365000D01*
Y201600D01*
X365800D01*
Y200800D01*
X367400D01*
Y200000D01*
X368200D01*
Y199200D01*
Y198400D01*
X369800D01*
Y197600D01*
X372200D01*
Y196800D01*
X373000D01*
Y196000D01*
X374600D01*
Y195200D01*
X377000D01*
Y194400D01*
X379400D01*
Y193600D01*
X381000D01*
Y192800D01*
X382600D01*
Y192000D01*
X385000D01*
Y191200D01*
X391400D01*
Y190400D01*
X393800D01*
Y189600D01*
X396200D01*
Y188800D01*
X397800D01*
Y188000D01*
X402600D01*
Y187200D01*
X409800D01*
Y186400D01*
X413800D01*
Y185600D01*
X424200D01*
Y186400D01*
X430600D01*
Y187200D01*
X433800D01*
Y188000D01*
X440200D01*
Y188800D01*
X441800D01*
Y189600D01*
X443400D01*
Y190400D01*
X445000D01*
Y191200D01*
X447400D01*
Y192000D01*
X449000D01*
Y192800D01*
X449800D01*
Y193600D01*
X451400D01*
Y194400D01*
X453000D01*
Y195200D01*
X456200D01*
Y196000D01*
X457000D01*
Y196800D01*
X458600D01*
Y197600D01*
X461800D01*
Y198400D01*
X462600D01*
Y199200D01*
X463400D01*
Y200000D01*
X465000D01*
Y200800D01*
X467400D01*
Y201600D01*
X468200D01*
Y202400D01*
X469800D01*
Y203200D01*
X470600D01*
Y204000D01*
X472200D01*
Y204800D01*
X473000D01*
Y205600D01*
X475400D01*
Y204800D01*
X476200D01*
Y204000D01*
X477000D01*
Y203200D01*
Y202400D01*
Y201600D01*
Y200800D01*
Y200000D01*
X478600D01*
Y199200D01*
Y198400D01*
Y197600D01*
X477800D01*
Y196800D01*
Y196000D01*
X477000D01*
Y195200D01*
Y194400D01*
Y193600D01*
Y192800D01*
X476200D01*
Y192000D01*
X475400D01*
Y191200D01*
X474600D01*
Y190400D01*
Y189600D01*
Y188800D01*
X473800D01*
Y188000D01*
X473000D01*
Y187200D01*
X472200D01*
Y186400D01*
Y185600D01*
X471400D01*
Y184800D01*
Y184000D01*
Y183200D01*
X470600D01*
Y182400D01*
X469000D01*
Y181600D01*
Y180800D01*
X468200D01*
Y180000D01*
Y179200D01*
X467400D01*
Y178400D01*
X466600D01*
Y177600D01*
X465800D01*
Y176800D01*
Y176000D01*
X465000D01*
Y175200D01*
Y174400D01*
Y173600D01*
X464200D01*
Y172800D01*
X463400D01*
Y172000D01*
X462600D01*
Y171200D01*
X461800D01*
Y170400D01*
Y169600D01*
Y168800D01*
X461000D01*
Y168000D01*
X460200D01*
Y167200D01*
X458600D01*
Y166400D01*
Y165600D01*
X457800D01*
Y164800D01*
X457000D01*
Y164000D01*
X456200D01*
Y163200D01*
Y162400D01*
Y161600D01*
X455400D01*
Y160800D01*
X453800D01*
Y160000D01*
X453000D01*
Y159200D01*
Y158400D01*
Y157600D01*
X451400D01*
Y156800D01*
X450600D01*
Y156000D01*
X449800D01*
Y155200D01*
Y154400D01*
X449000D01*
Y153600D01*
X448200D01*
Y152800D01*
X447400D01*
Y152000D01*
X445800D01*
Y151200D01*
Y150400D01*
Y149600D01*
X445000D01*
Y148800D01*
X444200D01*
Y148000D01*
Y147200D01*
X443400D01*
Y146400D01*
X442600D01*
Y145600D01*
X441800D01*
Y144800D01*
X441000D01*
Y144000D01*
Y143200D01*
X440200D01*
Y142400D01*
X437800D01*
Y141600D01*
Y140800D01*
Y140000D01*
Y139200D01*
Y138400D01*
Y137600D01*
X439400D01*
Y136800D01*
X446600D01*
Y137600D01*
X451400D01*
Y138400D01*
X453000D01*
Y139200D01*
X456200D01*
Y140000D01*
X458600D01*
Y140800D01*
X460200D01*
Y141600D01*
X461800D01*
Y142400D01*
X465000D01*
Y143200D01*
X466600D01*
Y144000D01*
X468200D01*
Y144800D01*
Y145600D01*
X471400D01*
Y146400D01*
Y147200D01*
X473000D01*
Y148000D01*
X473800D01*
Y148800D01*
X475400D01*
Y149600D01*
X477000D01*
Y150400D01*
Y151200D01*
X477800D01*
Y152000D01*
X480200D01*
Y152800D01*
X481000D01*
Y153600D01*
X481800D01*
Y154400D01*
X483400D01*
Y155200D01*
X484200D01*
Y156000D01*
X485800D01*
Y156800D01*
X486600D01*
Y157600D01*
X489000D01*
Y158400D01*
X489800D01*
Y159200D01*
X490600D01*
Y160000D01*
X492200D01*
Y160800D01*
Y161600D01*
X493800D01*
Y162400D01*
X494600D01*
Y163200D01*
X495400D01*
Y164000D01*
X497000D01*
Y164800D01*
X498600D01*
Y165600D01*
Y166400D01*
X499400D01*
Y167200D01*
X501800D01*
Y168000D01*
X502600D01*
Y168800D01*
X503400D01*
Y169600D01*
X505000D01*
Y170400D01*
X505800D01*
Y171200D01*
X506600D01*
Y172000D01*
X508200D01*
Y172800D01*
Y173600D01*
X509000D01*
Y174400D01*
X509800D01*
Y175200D01*
X510600D01*
Y176000D01*
X512200D01*
Y176800D01*
X513000D01*
Y177600D01*
X513800D01*
Y178400D01*
X514600D01*
Y179200D01*
X517000D01*
Y180000D01*
X517800D01*
Y180800D01*
X518600D01*
Y181600D01*
X519400D01*
Y182400D01*
X521800D01*
Y183200D01*
X523400D01*
Y184000D01*
Y184800D01*
X524200D01*
Y185600D01*
X525800D01*
Y186400D01*
Y187200D01*
X526600D01*
Y188000D01*
X528200D01*
Y188800D01*
X529000D01*
Y189600D01*
X529800D01*
Y190400D01*
X530600D01*
Y191200D01*
X532200D01*
Y192000D01*
X533000D01*
Y192800D01*
X533800D01*
Y193600D01*
X534600D01*
Y194400D01*
X535400D01*
Y195200D01*
X537000D01*
Y196000D01*
X538600D01*
Y196800D01*
Y197600D01*
X541000D01*
Y198400D01*
Y199200D01*
X542600D01*
Y200000D01*
X543400D01*
Y200800D01*
X545000D01*
Y201600D01*
X546600D01*
Y202400D01*
X547400D01*
Y203200D01*
Y204000D01*
X549800D01*
Y204800D01*
X550600D01*
Y205600D01*
X551400D01*
Y206400D01*
X552200D01*
Y207200D01*
X554600D01*
Y208000D01*
X555400D01*
Y208800D01*
X556200D01*
Y209600D01*
X557000D01*
Y210400D01*
X560200D01*
Y211200D01*
X561000D01*
Y212000D01*
X562600D01*
Y212800D01*
X566600D01*
Y213600D01*
X567400D01*
Y214400D01*
X569000D01*
Y215200D01*
X569800D01*
Y216000D01*
X572200D01*
Y216800D01*
X573800D01*
Y217600D01*
X575400D01*
Y218400D01*
X576200D01*
Y219200D01*
X578600D01*
Y220000D01*
X580200D01*
Y220800D01*
X581800D01*
Y221600D01*
X583400D01*
Y222400D01*
X585800D01*
Y223200D01*
X587400D01*
Y224000D01*
X589800D01*
Y224800D01*
X593000D01*
Y225600D01*
X600200D01*
Y224800D01*
X602600D01*
Y224000D01*
X605800D01*
Y223200D01*
X608200D01*
Y222400D01*
X611400D01*
Y221600D01*
X612200D01*
Y220800D01*
X614600D01*
Y220000D01*
X615400D01*
Y219200D01*
X617800D01*
Y218400D01*
X619400D01*
Y217600D01*
X621000D01*
Y216800D01*
Y216000D01*
X623400D01*
Y215200D01*
X624200D01*
Y214400D01*
Y213600D01*
X625800D01*
Y212800D01*
X627400D01*
Y212000D01*
X628200D01*
Y211200D01*
X629000D01*
Y210400D01*
X630600D01*
Y209600D01*
Y208800D01*
Y208000D01*
X631400D01*
Y207200D01*
X632200D01*
Y206400D01*
Y205600D01*
Y204800D01*
X633000D01*
Y204000D01*
Y203200D01*
Y202400D01*
Y201600D01*
Y200800D01*
Y200000D01*
Y199200D01*
Y198400D01*
Y197600D01*
Y196800D01*
Y196000D01*
Y195200D01*
Y194400D01*
Y193600D01*
Y192800D01*
Y192000D01*
X632200D01*
Y191200D01*
Y190400D01*
Y189600D01*
Y188800D01*
Y188000D01*
Y187200D01*
Y186400D01*
Y185600D01*
Y184800D01*
Y184000D01*
Y183200D01*
X631400D01*
Y182400D01*
X630600D01*
Y181600D01*
Y180800D01*
X629800D01*
Y180000D01*
Y179200D01*
X629000D01*
Y178400D01*
Y177600D01*
Y176800D01*
X628200D01*
Y176000D01*
X627400D01*
Y175200D01*
Y174400D01*
Y173600D01*
Y172800D01*
X626600D01*
Y172000D01*
X625800D01*
Y171200D01*
Y170400D01*
Y169600D01*
X624200D01*
Y168800D01*
Y168000D01*
Y167200D01*
X623400D01*
Y166400D01*
X622600D01*
Y165600D01*
X621800D01*
Y164800D01*
Y164000D01*
X621000D01*
Y163200D01*
Y162400D01*
Y161600D01*
X620200D01*
Y160800D01*
X619400D01*
Y160000D01*
Y159200D01*
Y158400D01*
X618600D01*
Y157600D01*
Y156800D01*
Y156000D01*
Y155200D01*
X621000D01*
Y156000D01*
X624200D01*
Y156800D01*
X626600D01*
Y157600D01*
X630600D01*
Y158400D01*
X632200D01*
Y159200D01*
X633000D01*
Y160000D01*
X634600D01*
Y160800D01*
X637000D01*
Y161600D01*
X639400D01*
Y162400D01*
X640200D01*
Y163200D01*
X641000D01*
Y164000D01*
X643400D01*
Y164800D01*
X644200D01*
Y165600D01*
X645800D01*
Y166400D01*
Y167200D01*
X648200D01*
Y168000D01*
Y168800D01*
X649000D01*
Y169600D01*
X651400D01*
Y170400D01*
Y171200D01*
X653000D01*
Y172000D01*
Y172800D01*
X654600D01*
Y173600D01*
X655400D01*
Y174400D01*
X656200D01*
Y175200D01*
Y176000D01*
X657800D01*
Y176800D01*
Y177600D01*
Y178400D01*
X658600D01*
Y179200D01*
X660200D01*
Y180000D01*
Y180800D01*
X661000D01*
Y181600D01*
Y182400D01*
X661800D01*
Y183200D01*
Y184000D01*
X662600D01*
Y184800D01*
X663400D01*
Y185600D01*
Y186400D01*
Y187200D01*
Y188000D01*
Y188800D01*
Y189600D01*
Y190400D01*
Y191200D01*
Y192000D01*
Y192800D01*
Y193600D01*
Y194400D01*
Y195200D01*
Y196000D01*
Y196800D01*
Y197600D01*
X662600D01*
Y198400D01*
X661800D01*
Y199200D01*
Y200000D01*
X661000D01*
Y200800D01*
Y201600D01*
X660200D01*
Y202400D01*
X659400D01*
Y203200D01*
X658600D01*
Y204000D01*
X657800D01*
Y204800D01*
Y205600D01*
X657000D01*
Y206400D01*
X656200D01*
Y207200D01*
X655400D01*
Y208000D01*
X654600D01*
Y208800D01*
Y209600D01*
Y210400D01*
X653800D01*
Y211200D01*
X653000D01*
Y212000D01*
X652200D01*
Y212800D01*
X651400D01*
Y213600D01*
Y214400D01*
Y215200D01*
X650600D01*
Y216000D01*
X649800D01*
Y216800D01*
Y217600D01*
X649000D01*
Y218400D01*
Y219200D01*
X648200D01*
Y220000D01*
Y220800D01*
Y221600D01*
Y222400D01*
Y223200D01*
Y224000D01*
Y224800D01*
X647400D01*
Y225600D01*
Y226400D01*
Y227200D01*
Y228000D01*
X646600D01*
Y228800D01*
Y229600D01*
Y230400D01*
Y231200D01*
Y232000D01*
Y232800D01*
Y233600D01*
Y234400D01*
Y235200D01*
Y236000D01*
Y236800D01*
Y237600D01*
Y238400D01*
X647400D01*
Y239200D01*
Y240000D01*
Y240800D01*
Y241600D01*
X648200D01*
Y242400D01*
Y243200D01*
Y244000D01*
Y244800D01*
Y245600D01*
Y246400D01*
Y247200D01*
Y248000D01*
Y248800D01*
Y249600D01*
X649000D01*
Y250400D01*
Y251200D01*
Y252000D01*
Y252800D01*
X649800D01*
Y253600D01*
Y254400D01*
Y255200D01*
X650600D01*
Y256000D01*
Y256800D01*
Y257600D01*
Y258400D01*
X651400D01*
Y259200D01*
Y260000D01*
Y260800D01*
Y261600D01*
Y262400D01*
Y263200D01*
X652200D01*
Y264000D01*
Y264800D01*
Y265600D01*
Y266400D01*
Y267200D01*
X653000D01*
Y268000D01*
Y268800D01*
Y269600D01*
Y270400D01*
X653800D01*
Y271200D01*
Y272000D01*
Y272800D01*
Y273600D01*
X654600D01*
Y274400D01*
Y275200D01*
Y276000D01*
Y276800D01*
Y277600D01*
Y278400D01*
Y279200D01*
Y280000D01*
Y280800D01*
Y281600D01*
X655400D01*
Y282400D01*
Y283200D01*
Y284000D01*
Y284800D01*
Y285600D01*
Y286400D01*
Y287200D01*
Y288000D01*
Y288800D01*
X656200D01*
Y289600D01*
Y290400D01*
Y291200D01*
Y292000D01*
Y292800D01*
Y293600D01*
Y294400D01*
Y295200D01*
Y296000D01*
Y296800D01*
Y297600D01*
Y298400D01*
Y299200D01*
X655400D01*
Y300000D01*
Y300800D01*
Y301600D01*
Y302400D01*
Y303200D01*
Y304000D01*
Y304800D01*
X654600D01*
Y305600D01*
Y306400D01*
Y307200D01*
Y308000D01*
X653800D01*
Y308800D01*
Y309600D01*
Y310400D01*
X653000D01*
Y311200D01*
Y312000D01*
X652200D01*
Y312800D01*
Y313600D01*
X651400D01*
Y314400D01*
Y315200D01*
Y316000D01*
Y316800D01*
X650600D01*
Y317600D01*
Y318400D01*
Y319200D01*
X649800D01*
Y320000D01*
X649000D01*
Y320800D01*
X648200D01*
Y321600D01*
Y322400D01*
Y323200D01*
Y324000D01*
X647400D01*
Y324800D01*
Y325600D01*
X645800D01*
Y326400D01*
Y327200D01*
Y328000D01*
X645000D01*
Y328800D01*
X644200D01*
Y329600D01*
Y330400D01*
X643400D01*
Y331200D01*
Y332000D01*
X642600D01*
Y332800D01*
Y333600D01*
X641800D01*
Y334400D01*
Y335200D01*
X639400D01*
Y336000D01*
Y336800D01*
X638600D01*
Y337600D01*
X637000D01*
Y338400D01*
X636200D01*
Y339200D01*
Y340000D01*
X635400D01*
Y340800D01*
X633800D01*
Y341600D01*
X633000D01*
Y342400D01*
Y343200D01*
X632200D01*
Y344000D01*
X630600D01*
Y344800D01*
Y345600D01*
X629800D01*
Y346400D01*
X629000D01*
Y347200D01*
X627400D01*
Y348000D01*
X626600D01*
Y348800D01*
X625000D01*
Y349600D01*
X624200D01*
Y350400D01*
X617800D01*
Y351200D01*
X616200D01*
Y352000D01*
X615400D01*
Y352800D01*
Y353600D01*
X613800D01*
Y354400D01*
X611400D01*
Y355200D01*
X609000D01*
Y356000D01*
X598600D01*
Y356800D01*
D02*
G37*
G36*
X355400Y303200D02*
X354600D01*
Y302400D01*
Y301600D01*
X355400D01*
Y302400D01*
Y303200D01*
D02*
G37*
G36*
X359400Y299200D02*
X358600D01*
Y298400D01*
X357800D01*
Y297600D01*
Y296800D01*
X359400D01*
Y296000D01*
Y295200D01*
X361000D01*
Y296000D01*
Y296800D01*
Y297600D01*
Y298400D01*
X359400D01*
Y299200D01*
D02*
G37*
G36*
X339400Y310400D02*
X333800D01*
Y309600D01*
X333000D01*
Y308800D01*
Y308000D01*
Y307200D01*
X333800D01*
Y306400D01*
Y305600D01*
Y304800D01*
Y304000D01*
Y303200D01*
Y302400D01*
Y301600D01*
Y300800D01*
Y300000D01*
Y299200D01*
Y298400D01*
X334600D01*
Y297600D01*
Y296800D01*
X335400D01*
Y296000D01*
Y295200D01*
Y294400D01*
Y293600D01*
X336200D01*
Y292800D01*
Y292000D01*
X337000D01*
Y291200D01*
Y290400D01*
Y289600D01*
Y288800D01*
X337800D01*
Y288000D01*
Y287200D01*
X338600D01*
Y286400D01*
X339400D01*
Y285600D01*
Y284800D01*
Y284000D01*
Y283200D01*
X340200D01*
Y282400D01*
X341000D01*
Y281600D01*
Y280800D01*
X341800D01*
Y280000D01*
X342600D01*
Y279200D01*
Y278400D01*
Y277600D01*
Y276800D01*
X344200D01*
Y276000D01*
Y275200D01*
X345000D01*
Y274400D01*
X345800D01*
Y273600D01*
X346600D01*
Y272800D01*
Y272000D01*
X347400D01*
Y271200D01*
Y270400D01*
X349000D01*
Y271200D01*
Y272000D01*
Y272800D01*
Y273600D01*
X349800D01*
Y274400D01*
X350600D01*
Y275200D01*
Y276000D01*
Y276800D01*
X351400D01*
Y277600D01*
Y278400D01*
X352200D01*
Y279200D01*
Y280000D01*
Y280800D01*
X353000D01*
Y281600D01*
Y282400D01*
X352200D01*
Y283200D01*
Y284000D01*
X351400D01*
Y284800D01*
Y285600D01*
Y286400D01*
X350600D01*
Y287200D01*
X349800D01*
Y288000D01*
Y288800D01*
X350600D01*
Y289600D01*
Y290400D01*
Y291200D01*
Y292000D01*
X351400D01*
Y292800D01*
X352200D01*
Y293600D01*
Y294400D01*
Y295200D01*
X350600D01*
Y294400D01*
Y293600D01*
X349000D01*
Y294400D01*
Y295200D01*
Y296000D01*
Y296800D01*
Y297600D01*
Y298400D01*
Y299200D01*
Y300000D01*
Y300800D01*
X349800D01*
Y301600D01*
X345800D01*
Y302400D01*
Y303200D01*
Y304000D01*
X346600D01*
Y304800D01*
X348200D01*
Y305600D01*
X349000D01*
Y306400D01*
Y307200D01*
X348200D01*
Y308000D01*
X345800D01*
Y308800D01*
X342600D01*
Y309600D01*
X339400D01*
Y310400D01*
D02*
G37*
G36*
X345800Y218400D02*
X340200D01*
Y217600D01*
X339400D01*
Y216800D01*
Y216000D01*
X338600D01*
Y215200D01*
X337800D01*
Y214400D01*
X342600D01*
Y215200D01*
X345000D01*
Y216000D01*
X345800D01*
Y216800D01*
Y217600D01*
Y218400D01*
D02*
G37*
G36*
X473000Y197600D02*
X470600D01*
Y196800D01*
X469800D01*
Y196000D01*
X468200D01*
Y195200D01*
X466600D01*
Y194400D01*
X465000D01*
Y193600D01*
X464200D01*
Y192800D01*
X462600D01*
Y192000D01*
X461800D01*
Y191200D01*
X459400D01*
Y190400D01*
X458600D01*
Y189600D01*
X457000D01*
Y188800D01*
X456200D01*
Y188000D01*
X453000D01*
Y187200D01*
X451400D01*
Y186400D01*
X449800D01*
Y185600D01*
X448200D01*
Y184800D01*
X445800D01*
Y184000D01*
X444200D01*
Y183200D01*
X442600D01*
Y182400D01*
X431400D01*
Y181600D01*
X428200D01*
Y180800D01*
X415400D01*
Y181600D01*
X409800D01*
Y182400D01*
X398600D01*
Y183200D01*
X397000D01*
Y184000D01*
X394600D01*
Y184800D01*
X390600D01*
Y185600D01*
X387400D01*
Y186400D01*
X384200D01*
Y187200D01*
X382600D01*
Y188000D01*
X377800D01*
Y188800D01*
X376200D01*
Y189600D01*
X375400D01*
Y190400D01*
X373800D01*
Y191200D01*
X372200D01*
Y192000D01*
X370600D01*
Y192800D01*
X369800D01*
Y193600D01*
X369000D01*
Y194400D01*
X368200D01*
Y195200D01*
X366600D01*
Y196000D01*
X365000D01*
Y196800D01*
X364200D01*
Y197600D01*
X360200D01*
Y196800D01*
X358600D01*
Y196000D01*
X355400D01*
Y195200D01*
X352200D01*
Y194400D01*
X351400D01*
Y193600D01*
X349000D01*
Y192800D01*
X347400D01*
Y192000D01*
Y191200D01*
X348200D01*
Y190400D01*
X349000D01*
Y189600D01*
X350600D01*
Y188800D01*
X351400D01*
Y188000D01*
X353000D01*
Y187200D01*
Y186400D01*
X354600D01*
Y185600D01*
Y184800D01*
X357800D01*
Y184000D01*
Y183200D01*
X359400D01*
Y182400D01*
X361800D01*
Y181600D01*
X362600D01*
Y180800D01*
X364200D01*
Y180000D01*
Y179200D01*
X365800D01*
Y178400D01*
Y177600D01*
Y176800D01*
X366600D01*
Y176000D01*
Y175200D01*
Y174400D01*
Y173600D01*
Y172800D01*
Y172000D01*
X367400D01*
Y171200D01*
Y170400D01*
Y169600D01*
Y168800D01*
Y168000D01*
Y167200D01*
X369800D01*
Y166400D01*
X372200D01*
Y165600D01*
X374600D01*
Y164800D01*
X376200D01*
Y164000D01*
X381000D01*
Y163200D01*
X382600D01*
Y162400D01*
X385000D01*
Y161600D01*
X386600D01*
Y160800D01*
X389800D01*
Y160000D01*
X391400D01*
Y159200D01*
X393800D01*
Y158400D01*
X395400D01*
Y157600D01*
X397800D01*
Y156800D01*
X399400D01*
Y156000D01*
X400200D01*
Y155200D01*
X402600D01*
Y154400D01*
X404200D01*
Y153600D01*
X405800D01*
Y152800D01*
X406600D01*
Y152000D01*
X410600D01*
Y151200D01*
X415400D01*
Y152000D01*
X421800D01*
Y152800D01*
X425000D01*
Y153600D01*
X427400D01*
Y154400D01*
X430600D01*
Y155200D01*
X431400D01*
Y156000D01*
X433800D01*
Y155200D01*
Y154400D01*
X435400D01*
Y153600D01*
X436200D01*
Y152800D01*
X437800D01*
Y152000D01*
X441000D01*
Y152800D01*
X441800D01*
Y153600D01*
X442600D01*
Y154400D01*
X443400D01*
Y155200D01*
X444200D01*
Y156000D01*
Y156800D01*
X445000D01*
Y157600D01*
X445800D01*
Y158400D01*
Y159200D01*
X446600D01*
Y160000D01*
Y160800D01*
X448200D01*
Y161600D01*
Y162400D01*
X449000D01*
Y163200D01*
X449800D01*
Y164000D01*
Y164800D01*
X450600D01*
Y165600D01*
X451400D01*
Y166400D01*
X452200D01*
Y167200D01*
X453800D01*
Y168000D01*
Y168800D01*
X454600D01*
Y169600D01*
X456200D01*
Y170400D01*
Y171200D01*
Y172000D01*
X457000D01*
Y172800D01*
X458600D01*
Y173600D01*
Y174400D01*
X459400D01*
Y175200D01*
Y176000D01*
X460200D01*
Y176800D01*
X461000D01*
Y177600D01*
X461800D01*
Y178400D01*
Y179200D01*
Y180000D01*
Y180800D01*
X462600D01*
Y181600D01*
X463400D01*
Y182400D01*
X465000D01*
Y183200D01*
Y184000D01*
Y184800D01*
X465800D01*
Y185600D01*
X466600D01*
Y186400D01*
X467400D01*
Y187200D01*
Y188000D01*
X468200D01*
Y188800D01*
Y189600D01*
Y190400D01*
X469000D01*
Y191200D01*
X469800D01*
Y192000D01*
X470600D01*
Y192800D01*
Y193600D01*
X471400D01*
Y194400D01*
Y195200D01*
X472200D01*
Y196000D01*
X473000D01*
Y196800D01*
Y197600D01*
D02*
G37*
G36*
X341000Y176000D02*
X337000D01*
Y175200D01*
X336200D01*
Y174400D01*
Y173600D01*
X335400D01*
Y172800D01*
Y172000D01*
Y171200D01*
Y170400D01*
Y169600D01*
X337000D01*
Y168800D01*
X341000D01*
Y169600D01*
X341800D01*
Y170400D01*
X342600D01*
Y171200D01*
Y172000D01*
Y172800D01*
X341800D01*
Y173600D01*
Y174400D01*
Y175200D01*
X341000D01*
Y176000D01*
D02*
G37*
G36*
X549000Y196800D02*
X548200D01*
Y196000D01*
X547400D01*
Y195200D01*
X545000D01*
Y194400D01*
X544200D01*
Y193600D01*
Y192800D01*
X543400D01*
Y192000D01*
X541800D01*
Y191200D01*
X540200D01*
Y190400D01*
X539400D01*
Y189600D01*
X538600D01*
Y188800D01*
Y188000D01*
X537000D01*
Y187200D01*
X536200D01*
Y186400D01*
X535400D01*
Y185600D01*
X534600D01*
Y184800D01*
X532200D01*
Y184000D01*
Y183200D01*
X531400D01*
Y182400D01*
X529000D01*
Y181600D01*
X528200D01*
Y180800D01*
X527400D01*
Y180000D01*
X525800D01*
Y179200D01*
X525000D01*
Y178400D01*
X524200D01*
Y177600D01*
X523400D01*
Y176800D01*
Y176000D01*
X521000D01*
Y175200D01*
X520200D01*
Y174400D01*
X519400D01*
Y173600D01*
X518600D01*
Y172800D01*
X517000D01*
Y172000D01*
X516200D01*
Y171200D01*
X515400D01*
Y170400D01*
X513800D01*
Y169600D01*
X513000D01*
Y168800D01*
X511400D01*
Y168000D01*
Y167200D01*
X528200D01*
Y168000D01*
X529800D01*
Y168800D01*
X531400D01*
Y169600D01*
X533000D01*
Y170400D01*
X533800D01*
Y171200D01*
X534600D01*
Y172000D01*
X535400D01*
Y172800D01*
X536200D01*
Y173600D01*
X537000D01*
Y174400D01*
X537800D01*
Y175200D01*
X538600D01*
Y176000D01*
X539400D01*
Y176800D01*
Y177600D01*
Y178400D01*
X540200D01*
Y179200D01*
X541000D01*
Y180000D01*
Y180800D01*
Y181600D01*
X541800D01*
Y182400D01*
X542600D01*
Y183200D01*
Y184000D01*
X543400D01*
Y184800D01*
X544200D01*
Y185600D01*
Y186400D01*
Y187200D01*
Y188000D01*
X545000D01*
Y188800D01*
X545800D01*
Y189600D01*
Y190400D01*
X546600D01*
Y191200D01*
X547400D01*
Y192000D01*
Y192800D01*
Y193600D01*
X548200D01*
Y194400D01*
Y195200D01*
X549000D01*
Y196000D01*
Y196800D01*
D02*
G37*
G36*
X507400Y164000D02*
X506600D01*
Y163200D01*
X507400D01*
Y164000D01*
D02*
G37*
G36*
X509000Y166400D02*
X508200D01*
Y165600D01*
Y164800D01*
Y164000D01*
X509000D01*
Y163200D01*
Y162400D01*
X509800D01*
Y161600D01*
X510600D01*
Y162400D01*
X513000D01*
Y163200D01*
X513800D01*
Y164000D01*
X512200D01*
Y164800D01*
X510600D01*
Y165600D01*
X509000D01*
Y166400D01*
D02*
G37*
G36*
X505800Y160000D02*
X505000D01*
Y159200D01*
X503400D01*
Y158400D01*
Y157600D01*
X505000D01*
Y158400D01*
X505800D01*
Y159200D01*
Y160000D01*
D02*
G37*
G36*
X651400Y160800D02*
X649000D01*
Y160000D01*
X648200D01*
Y159200D01*
Y158400D01*
X647400D01*
Y157600D01*
X645000D01*
Y156800D01*
X643400D01*
Y156000D01*
X642600D01*
Y155200D01*
Y154400D01*
X644200D01*
Y155200D01*
X645800D01*
Y156000D01*
X646600D01*
Y156800D01*
X648200D01*
Y157600D01*
X649000D01*
Y158400D01*
X649800D01*
Y159200D01*
X650600D01*
Y160000D01*
X651400D01*
Y160800D01*
D02*
G37*
G36*
X638600Y154400D02*
X634600D01*
Y153600D01*
Y152800D01*
X639400D01*
Y153600D01*
X638600D01*
Y154400D01*
D02*
G37*
G36*
X644200Y152000D02*
X641000D01*
Y151200D01*
X639400D01*
Y150400D01*
X638600D01*
Y149600D01*
X637000D01*
Y148800D01*
X640200D01*
Y149600D01*
X641800D01*
Y150400D01*
X642600D01*
Y151200D01*
X644200D01*
Y152000D01*
D02*
G37*
G36*
X634600Y150400D02*
X633000D01*
Y149600D01*
X632200D01*
Y148800D01*
Y148000D01*
Y147200D01*
X633800D01*
Y148000D01*
X636200D01*
Y148800D01*
X635400D01*
Y149600D01*
X634600D01*
Y150400D01*
D02*
G37*
G36*
X433800Y135200D02*
X432200D01*
Y134400D01*
Y133600D01*
Y132800D01*
Y132000D01*
Y131200D01*
X433000D01*
Y130400D01*
X433800D01*
Y129600D01*
X437800D01*
Y130400D01*
Y131200D01*
Y132000D01*
Y132800D01*
X437000D01*
Y133600D01*
X434600D01*
Y134400D01*
X433800D01*
Y135200D01*
D02*
G37*
%LPD*%
G36*
X423400Y244000D02*
X424200D01*
Y243200D01*
X425000D01*
Y242400D01*
Y241600D01*
X425800D01*
Y240800D01*
X426600D01*
Y240000D01*
Y239200D01*
Y238400D01*
X427400D01*
Y237600D01*
X426600D01*
Y236800D01*
X425000D01*
Y236000D01*
X421800D01*
Y236800D01*
Y237600D01*
Y238400D01*
X421000D01*
Y239200D01*
Y240000D01*
Y240800D01*
X420200D01*
Y241600D01*
Y242400D01*
X419400D01*
Y243200D01*
X421000D01*
Y244000D01*
X421800D01*
Y244800D01*
X423400D01*
Y244000D01*
D02*
G37*
G36*
X362600Y239200D02*
X364200D01*
Y238400D01*
Y237600D01*
X365000D01*
Y236800D01*
Y236000D01*
Y235200D01*
Y234400D01*
Y233600D01*
Y232800D01*
Y232000D01*
Y231200D01*
Y230400D01*
Y229600D01*
X364200D01*
Y228800D01*
X361800D01*
Y229600D01*
X361000D01*
Y230400D01*
Y231200D01*
Y232000D01*
Y232800D01*
Y233600D01*
Y234400D01*
Y235200D01*
Y236000D01*
Y236800D01*
Y237600D01*
Y238400D01*
Y239200D01*
Y240000D01*
X362600D01*
Y239200D01*
D02*
G37*
G36*
X469800Y227200D02*
X469000D01*
Y226400D01*
X468200D01*
Y225600D01*
X461800D01*
Y224800D01*
X451400D01*
Y224000D01*
X446600D01*
Y223200D01*
X443400D01*
Y222400D01*
X431400D01*
Y221600D01*
X429800D01*
Y220800D01*
X426600D01*
Y220000D01*
X421800D01*
Y220800D01*
X420200D01*
Y221600D01*
Y222400D01*
Y223200D01*
X421000D01*
Y224000D01*
X421800D01*
Y224800D01*
X425000D01*
Y225600D01*
X433800D01*
Y226400D01*
X441000D01*
Y227200D01*
X445800D01*
Y228000D01*
X469800D01*
Y227200D01*
D02*
G37*
G36*
X396200Y222400D02*
X397800D01*
Y221600D01*
Y220800D01*
Y220000D01*
Y219200D01*
X397000D01*
Y218400D01*
Y217600D01*
X396200D01*
Y216800D01*
X395400D01*
Y216000D01*
X394600D01*
Y215200D01*
X393800D01*
Y214400D01*
X393000D01*
Y213600D01*
X392200D01*
Y212800D01*
X389800D01*
Y213600D01*
X388200D01*
Y214400D01*
Y215200D01*
Y216000D01*
X386600D01*
Y216800D01*
X385000D01*
Y217600D01*
Y218400D01*
X384200D01*
Y219200D01*
Y220000D01*
Y220800D01*
Y221600D01*
X385000D01*
Y222400D01*
X393000D01*
Y223200D01*
X396200D01*
Y222400D01*
D02*
G37*
G36*
X468200Y215200D02*
X469000D01*
Y214400D01*
Y213600D01*
X467400D01*
Y212800D01*
X451400D01*
Y212000D01*
X446600D01*
Y211200D01*
X441000D01*
Y210400D01*
X420200D01*
Y211200D01*
X419400D01*
Y212000D01*
Y212800D01*
Y213600D01*
X437800D01*
Y214400D01*
X446600D01*
Y215200D01*
X453000D01*
Y216000D01*
X468200D01*
Y215200D01*
D02*
G37*
M02*
